<svg width="180" height="273" viewBox="0 0 180 273" fill="none" xmlns="http://www.w3.org/2000/svg">
<path fill-rule="evenodd" clip-rule="evenodd" d="M153.626 183.904C188.791 204.201 188.791 237.131 153.626 257.382C118.461 277.678 61.4937 277.678 26.374 257.382C-8.79133 237.085 -8.79133 204.155 26.374 183.904C61.5393 163.654 118.506 163.608 153.626 183.904Z" fill="#E9E9EB"/>
<path fill-rule="evenodd" clip-rule="evenodd" d="M140.206 191.663C167.891 207.672 167.891 233.624 140.206 249.633C112.475 265.642 67.5037 265.642 39.7728 249.633C12.0419 233.624 12.0419 207.672 39.7728 191.663C67.5037 175.654 112.475 175.654 140.206 191.663Z" fill="#DDDEE1"/>
<path fill-rule="evenodd" clip-rule="evenodd" d="M126.729 199.405C147.071 211.126 147.071 230.145 126.729 241.913C106.433 253.635 73.5022 253.635 53.2058 241.913C32.8637 230.191 32.8637 211.172 53.2058 199.405C73.5022 187.683 106.478 187.683 126.729 199.405Z" fill="#D1D2D6"/>
<path fill-rule="evenodd" clip-rule="evenodd" d="M131.311 6.79599L120 0.319443L119.681 0.183036L119.316 0.0918659L118.951 0.0459329L118.54 0H118.13L117.719 0.0459329L117.263 0.137103L116.853 0.228273L116.397 0.365376L115.986 0.501783L115.53 0.730055L115.074 0.912395L114.572 1.18591L52.8163 36.8988L52.3602 37.1723L51.9042 37.4465L51.448 37.8112L50.9919 38.1758L50.5358 38.5405L50.1253 38.9511L49.6692 39.3617L49.2587 39.8176L48.8482 40.2741L48.4834 40.7759L48.0728 41.2777L47.708 41.7788L47.3887 42.2806L47.0239 42.8283L46.7046 43.3753L46.3853 43.923L46.0661 44.516L45.7924 45.1089L45.5187 45.656L45.2451 46.2948L45.017 46.8871L44.8346 47.48L44.6066 48.073L44.424 48.7119L44.2416 49.3048L44.1048 49.943L43.9679 50.536L43.8768 51.1749L43.8312 51.7678L43.7855 52.3608L43.7399 52.9537L43.6943 53.5467L43.7855 195.759V196.352L43.8312 196.899L43.8768 197.491L43.9223 197.948L44.0592 198.45L44.1504 198.952L44.3329 199.407L44.4697 199.818L44.6521 200.229L44.8346 200.547L45.0626 200.913L45.3363 201.277L45.5644 201.551L45.838 201.824L46.1116 202.099L57.4229 208.62L57.1493 208.347L56.8756 208.073L56.6019 207.754L56.3739 207.435L56.1458 207.115L55.9634 206.705L55.781 206.295L55.5985 205.884L55.4617 205.428L55.3249 204.972L55.2337 204.47L55.1424 203.968L55.0968 203.421L55.0512 202.874V202.326L55.0056 60.0685V59.4755L55.0512 58.8826L55.0968 58.2896L55.188 57.6514L55.2793 57.0125L55.3704 56.4203L55.553 55.8273L55.6897 55.1884L55.8722 54.5955L56.1002 54.0025L56.2827 53.3643L56.5563 52.7714L56.7844 52.2237L57.058 51.5855L57.3317 51.0378L57.651 50.4448L57.9703 49.8978L58.2895 49.3501L58.6544 48.8031L59.0193 48.3013L59.3842 47.7543L59.749 47.2977L60.1139 46.7959L60.57 46.3401L60.9805 45.8842L61.391 45.4736L61.8471 45.063L62.2576 44.6983L62.7137 44.3329L63.1698 43.9683L63.6259 43.6948L64.082 43.3753L125.884 7.66315L126.34 7.43487L126.796 7.2066L127.252 7.02426L127.708 6.84192L128.118 6.70482L128.575 6.65958L128.985 6.56841H129.396L129.806 6.52248L130.217 6.56841L130.581 6.61365L130.946 6.70482L131.311 6.79599Z" fill="#34485C"/>
<path fill-rule="evenodd" clip-rule="evenodd" d="M64.1308 208.442L125.887 172.73C130.904 169.856 135.009 162.331 135.009 156.036L134.963 13.7786C134.963 7.4844 130.904 4.74805 125.887 7.62148L64.0852 43.3343C59.0681 46.2078 55.0088 53.7333 55.0088 60.0275L55.0544 202.285C55.0544 208.579 59.1137 211.361 64.1308 208.442Z" fill="#3D566E"/>
<path fill-rule="evenodd" clip-rule="evenodd" d="M88.6252 49.168L127.531 26.6825C129.355 25.6334 130.86 26.3178 131.271 28.1878C131.316 28.3246 131.362 28.5527 131.362 28.7808V29.0543V29.2826L131.407 140.206V140.388V140.708C131.407 140.936 131.362 141.164 131.316 141.438C130.906 143.764 129.401 146.181 127.576 147.23L75.2615 177.469C75.1702 177.515 75.1247 177.561 75.079 177.606L62.5819 184.812C60.7575 185.816 59.2523 185.178 58.8418 183.308C58.7962 183.171 58.7507 182.943 58.7507 182.715V182.44V182.213L58.7051 71.2889V71.0613V70.7871C58.7051 70.5591 58.7506 70.3314 58.8418 70.0578C59.2523 67.7317 60.7575 65.3144 62.5819 64.2654L88.6252 49.168Z" fill="#9DD6F5"/>
<path fill-rule="evenodd" clip-rule="evenodd" d="M101.063 34.0782C102.477 33.2572 103.389 31.8888 103.8 30.5205C103.937 30.0188 104.028 29.5172 104.028 29.0611C104.028 28.605 103.937 28.1488 103.8 27.8752C103.389 26.963 102.523 26.6436 101.063 27.4646L88.8397 34.534C87.4258 35.355 86.5136 36.7235 86.1031 38.0918C85.9663 38.5935 85.875 39.0951 85.875 39.5512C85.875 40.0073 85.9207 40.4178 86.1031 40.7371C86.5136 41.6037 87.4258 41.9687 88.8397 41.1477L101.063 34.0782ZM102.933 30.6117C102.705 31.4782 102.067 32.4361 101.063 32.9835L88.8397 40.053C87.8819 40.6003 87.2433 40.372 86.9696 39.8247C86.8784 39.5966 86.8328 39.3234 86.8328 39.0042C86.8328 38.6849 86.8784 38.3199 86.9696 38.0006C87.2433 37.0884 87.8819 36.1761 88.8397 35.6288L101.063 28.5593C102.021 27.9664 102.66 28.1946 102.933 28.7876C103.07 29.0156 103.116 29.2891 103.116 29.654C103.116 29.9277 103.07 30.2924 102.933 30.6117Z" fill="#2C3E50"/>
<path fill-rule="evenodd" clip-rule="evenodd" d="M124.167 53.3604L65.832 87.0661V164.968L124.167 131.262V53.3604Z" fill="#E6EAEB"/>
<path fill-rule="evenodd" clip-rule="evenodd" d="M124.167 53.3559L65.832 87.0616V75.8415L124.167 42.1357V53.3559Z" fill="#2980B9"/>
<path fill-rule="evenodd" clip-rule="evenodd" d="M73.9837 92.0337C72.889 92.6722 72.0225 94.2684 72.0225 95.6367C72.0225 96.9593 72.9346 97.5526 73.9837 96.9597C75.0327 96.3211 75.9449 94.725 75.9449 93.3567C75.9449 91.9884 75.0783 91.3952 73.9837 92.0337Z" fill="#9B59B6"/>
<path fill-rule="evenodd" clip-rule="evenodd" d="M73.9837 105.262C72.889 105.901 72.0225 107.497 72.0225 108.865C72.0225 110.234 72.9346 110.826 73.9837 110.188C75.0327 109.595 75.9449 107.953 75.9449 106.585C75.9449 105.216 75.0783 104.624 73.9837 105.262Z" fill="#FFCB05"/>
<path fill-rule="evenodd" clip-rule="evenodd" d="M73.9837 119.311C72.889 119.949 72.0225 121.545 72.0225 122.914C72.0225 124.236 72.9346 124.83 73.9837 124.237C75.0327 123.598 75.9449 122.001 75.9449 120.633C75.9449 119.31 75.0783 118.718 73.9837 119.311Z" fill="#6699FF"/>
<path fill-rule="evenodd" clip-rule="evenodd" d="M81.4209 118.772L111.888 101.121V98.7031L81.4209 116.263V118.772Z" fill="#9C9C9C"/>
<path fill-rule="evenodd" clip-rule="evenodd" d="M81.4209 105.486L114.351 86.4674V84.0044L81.4209 103.023V105.486Z" fill="#9C9C9C"/>
<path fill-rule="evenodd" clip-rule="evenodd" d="M81.4209 91.4509L107.373 76.4454V73.9824L81.4209 88.9879V91.4509Z" fill="#9C9C9C"/>
<path fill-rule="evenodd" clip-rule="evenodd" d="M99.7266 170.818C100.776 170.225 101.733 170.179 102.418 170.681C103.147 171.137 103.558 172.095 103.558 173.417C103.558 174.74 103.147 176.154 102.418 177.431C101.733 178.663 100.776 179.757 99.7266 180.396L90.2397 185.869C89.1907 186.462 88.2329 186.507 87.5487 186.006C86.8646 185.55 86.4541 184.592 86.4541 183.269C86.4541 181.946 86.9102 180.487 87.5487 179.256C88.2329 178.024 89.1907 176.93 90.2397 176.337L99.7266 170.818Z" fill="#2C3E50"/>
<path fill-rule="evenodd" clip-rule="evenodd" d="M99.7391 171.365C100.195 171.092 100.651 171 101.016 170.955C101.427 170.955 101.792 171.047 102.111 171.229C102.43 171.411 102.658 171.776 102.841 172.187C103.023 172.597 103.114 173.099 103.114 173.692C103.114 174.239 103.023 174.877 102.841 175.47C102.658 176.109 102.43 176.702 102.111 177.295C101.792 177.842 101.427 178.389 101.016 178.845C100.651 179.256 100.195 179.621 99.7391 179.894L90.2522 185.368C89.7961 185.642 89.3856 185.779 88.9751 185.779C88.5646 185.779 88.1997 185.687 87.926 185.504C87.6524 185.322 87.3332 184.957 87.1963 184.547C87.0139 184.136 86.9226 183.635 86.9226 183.087C86.9226 182.54 87.0139 181.901 87.1963 181.308C87.3332 180.67 87.6068 180.077 87.926 179.484C88.2453 178.891 88.6102 178.389 89.0207 177.933C89.4312 177.477 89.8417 177.112 90.2978 176.884L99.7391 171.365ZM101.381 169.724C100.879 169.769 100.332 169.951 99.7391 170.271L90.2522 175.744C89.6592 176.064 89.1119 176.565 88.6102 177.113C88.0628 177.66 87.6068 178.344 87.1963 179.074C86.8315 179.804 86.5122 180.533 86.2841 181.308C86.1017 182.038 85.9648 182.814 85.9648 183.498C85.9648 184.182 86.1017 184.82 86.2841 185.322C86.4666 185.824 86.7858 186.234 87.1963 186.508C87.5612 186.736 88.0629 186.873 88.5646 186.873C89.0663 186.827 89.6137 186.69 90.2066 186.326L99.6934 180.853C100.286 180.533 100.834 180.032 101.381 179.484C101.928 178.937 102.339 178.253 102.749 177.568C103.114 176.839 103.433 176.063 103.661 175.288C103.844 174.558 103.981 173.783 103.981 173.099C103.981 172.415 103.844 171.776 103.661 171.274C103.433 170.773 103.114 170.362 102.749 170.088C102.384 169.86 101.883 169.724 101.381 169.724Z" fill="#2C3E50"/>
</svg>
