<svg width="126" height="150" viewBox="0 0 126 150" fill="none" xmlns="http://www.w3.org/2000/svg">
<path fill-rule="evenodd" clip-rule="evenodd" d="M109.697 138.927L107.791 138.527L106.837 135.698L107.452 134.837L108.097 133.944L108.713 132.991L109.297 132.038L109.82 131.084L110.374 130.069L110.865 129.024L111.358 127.947L111.788 126.871L112.219 125.763L112.619 124.656L112.988 123.518L113.326 122.38L113.603 121.211L113.91 120.043L114.157 118.874L114.403 117.613L114.618 116.321L114.741 114.999L114.895 113.707L114.987 112.415L115.049 111.123V109.862L115.018 108.601L114.957 107.34L114.864 106.079L114.71 104.818L114.557 103.619L114.341 102.45L114.064 101.281L113.757 100.143L113.388 99.036L111.481 93.2846L113.418 91.0699L115.387 91.4698L113.388 93.6845L115.357 99.4358L115.695 100.543L116.002 101.681L116.248 102.85L116.494 104.019L116.679 105.218L116.802 106.448L116.925 107.709L116.986 108.94V110.231V111.492L116.925 112.784L116.832 114.076L116.709 115.368L116.525 116.659L116.309 117.951L116.063 119.243L115.849 120.412L115.572 121.581L115.233 122.749L114.895 123.918L114.557 125.056L114.157 126.163L113.726 127.27L113.296 128.347L112.804 129.393L112.281 130.438L111.788 131.453L111.204 132.438L110.651 133.391L110.036 134.314L109.42 135.236L108.743 136.098L109.697 138.927Z" fill="#30383B"/>
<path fill-rule="evenodd" clip-rule="evenodd" d="M117.31 97.1903C119.555 103.803 119.709 111.923 118.14 119.642C116.695 126.839 113.772 133.76 109.712 138.896L108.759 136.066C112.296 131.545 114.849 125.486 116.079 119.212C117.463 112.353 117.31 105.218 115.372 99.374L113.434 93.6226L115.402 91.408L117.31 97.1903Z" fill="#2C3E50"/>
<path d="M104.169 150C109.944 150 114.626 145.318 114.626 139.543C114.626 133.768 109.944 129.086 104.169 129.086C98.3937 129.086 93.7119 133.768 93.7119 139.543C93.7119 145.318 98.3937 150 104.169 150Z" fill="#222F3B"/>
<path d="M105.245 147.785C110.205 147.785 114.226 143.764 114.226 138.804C114.226 133.844 110.205 129.824 105.245 129.824C100.285 129.824 96.2646 133.844 96.2646 138.804C96.2646 143.764 100.285 147.785 105.245 147.785Z" fill="#293845"/>
<path fill-rule="evenodd" clip-rule="evenodd" d="M111.296 133.053C108.466 130.285 105.021 131.823 105.575 135.606C105.913 137.82 107.975 139.389 110.189 139.02C113.88 138.497 113.295 134.991 111.296 133.053Z" fill="#40576E"/>
<path fill-rule="evenodd" clip-rule="evenodd" d="M13.1846 88.7029L23.1808 82.9206L23.8885 82.7051L24.6573 82.5207L25.395 82.3668L26.2257 82.3053H27.0564L27.8861 82.3363L28.7787 82.4592L29.6394 82.6132L30.5621 82.8591L31.4538 83.105L32.4384 83.4743L33.361 83.9047L34.3456 84.366L35.3293 84.9198L36.3139 85.5041L37.2976 86.1499L38.2512 86.8576L39.1739 87.5648L40.1275 88.3645L41.0192 89.1947L41.9118 90.0559L42.7725 90.9171L43.6342 91.8707L44.4339 92.8244L45.2636 93.839L46.0323 94.8541L46.771 95.8692L47.5088 96.9763L48.1855 98.0834L48.8622 99.191L49.477 100.329L50.0928 101.436L50.6466 102.605L51.1694 103.774L51.6922 104.973L52.123 106.172L52.5839 107.372L52.9527 108.571L53.2916 109.771L53.5985 110.971L53.8454 112.17L54.0913 113.37L54.2452 114.538L54.3682 115.707L54.4292 116.876V118.014V119.152L54.3682 120.198L54.2452 121.274L54.0913 122.258L53.8454 123.181L53.5985 124.073L53.2916 124.965L52.9527 125.734L52.5839 126.533L52.123 127.21L51.6922 127.887L51.1694 128.502L50.6466 129.055L50.0928 129.548L40.0965 135.33L40.6503 134.807L41.1731 134.284L41.665 133.669L42.1268 132.992L42.5576 132.285L42.9265 131.547L43.2644 130.716L43.6032 129.886L43.8491 128.994L44.0641 128.01L44.218 127.026L44.3409 126.01L44.4339 124.934V123.827V122.658L44.3409 121.489L44.218 120.29L44.0641 119.121L43.8491 117.921L43.6032 116.722L43.2644 115.553L42.9265 114.354L42.5576 113.154L42.1268 111.955L41.665 110.755L41.1731 109.587L40.6503 108.418L40.0965 107.249L39.4817 106.08L38.8669 104.942L38.1902 103.835L37.4825 102.759L36.7447 101.682L36.006 100.636L35.2373 99.6213L34.4376 98.6062L33.6379 97.6531L32.7462 96.7304L31.8846 95.8382L31.0239 94.9466L30.1012 94.1469L29.1786 93.3472L28.2559 92.6089L27.3023 91.9322L26.2867 91.2864L25.303 90.7021L24.3494 90.1484L23.3958 89.6565L22.4121 89.2567L21.4585 88.8873L20.5668 88.6104L19.6441 88.3955L18.7515 88.2106L17.8908 88.1186L17.0291 88.0876H16.1994L15.3997 88.1491L14.661 88.2721L13.8923 88.457L13.1846 88.7029Z" fill="#40576E"/>
<path fill-rule="evenodd" clip-rule="evenodd" d="M25.3167 134.838C14.7672 128.748 6.2168 113.923 6.2168 101.744C6.2168 89.5641 14.7672 84.5817 25.3167 90.7023C35.8969 96.792 44.4475 111.647 44.4475 123.827C44.4475 136.006 35.8969 140.928 25.3167 134.838Z" fill="#808080"/>
<path fill-rule="evenodd" clip-rule="evenodd" d="M81.457 46.8726L92.253 40.6599L93.0217 40.383L93.8524 40.1986L94.6521 40.0446L95.5128 39.9832H96.4354L97.3281 40.0137L98.2507 40.1371L99.2344 40.3215L100.219 40.5674L101.203 40.8443L102.218 41.2442L103.233 41.7055L104.309 42.1973L105.355 42.7821L106.401 43.4279L107.446 44.1351L108.462 44.8733L109.508 45.673L110.522 46.5037L111.476 47.3954L112.429 48.3181L113.383 49.3022L114.306 50.2863L115.166 51.3324L116.028 52.378L116.858 53.5161L117.658 54.6232L118.457 55.7918L119.196 56.9608L119.903 58.1604L120.61 59.3904L121.225 60.6209L121.872 61.882L122.425 63.1425L122.979 64.4036L123.471 65.6956L123.901 66.9871L124.332 68.2791L124.701 69.5711L125.009 70.8626L125.286 72.1546L125.532 73.4462L125.716 74.7072L125.839 75.9682L125.931 77.2293L125.962 78.4593L125.931 79.6589L125.839 80.8279L125.716 81.935L125.532 83.0116L125.286 84.0572L125.009 85.0108L124.701 85.9335L124.332 86.7947L123.901 87.6249L123.471 88.3631L122.979 89.0704L122.425 89.7166L121.872 90.3314L121.225 90.8542L110.461 97.1288L111.076 96.5445L111.661 95.9293L112.184 95.314L112.675 94.5758L113.167 93.8376L113.536 93.0379L113.936 92.1462L114.244 91.2235L114.552 90.2699L114.736 89.2553L114.921 88.1477L115.074 87.0406L115.135 85.9025L115.166 84.6725L115.135 83.4419L115.074 82.1809L114.921 80.9199L114.736 79.6589L114.552 78.3673L114.244 77.0753L113.936 75.7838L113.536 74.4918L113.167 73.2003L112.675 71.9083L112.184 70.6167L111.661 69.3557L111.076 68.0947L110.461 66.8336L109.815 65.6031L109.139 64.3731L108.4 63.1735L107.662 62.0049L106.924 60.8359L106.094 59.7288L105.263 58.6217L104.401 57.5451L103.479 56.4995L102.587 55.5153L101.664 54.5617L100.68 53.6081L99.6962 52.7164L98.7116 51.8857L97.7279 51.086L96.6823 50.3483L95.6057 49.6715L94.5601 48.9948L93.5135 48.4105L92.4679 47.9182L91.4533 47.4569L90.4077 47.1185L89.4231 46.7801L88.4394 46.5342L87.5167 46.3498L86.5321 46.2573L85.6404 46.1958H84.7488L83.9181 46.2883L83.0564 46.4113L82.2567 46.6267L81.457 46.8726Z" fill="#E6EAEB"/>
<path fill-rule="evenodd" clip-rule="evenodd" d="M94.5555 96.5747C83.1756 90.0235 73.9482 74.0608 73.9482 60.897C73.9482 47.7639 83.1756 42.4433 94.5555 48.9944C105.935 55.5763 115.162 71.539 115.162 84.6721C115.162 97.8359 105.935 103.157 94.5555 96.5747Z" fill="#9EB4BA"/>
<path fill-rule="evenodd" clip-rule="evenodd" d="M7.50879 89.5625L18.2738 83.3498L19.0735 83.0729L19.8422 82.919L20.7038 82.7651L21.5645 82.7036L22.4262 82.6731L23.3789 82.7346L24.3015 82.8575L25.2552 83.0115L26.2398 83.2574L27.2544 83.5648L28.239 83.9646L29.2846 84.3645L30.2993 84.9183L31.3759 85.5025L32.4525 86.1178L33.4981 86.856L34.5127 87.5633L35.5283 88.363L36.512 89.2242L37.5276 90.0853L38.4502 91.008L39.4039 91.9921L40.3265 93.0072L41.1872 94.0224L42.0489 95.0985L42.9096 96.206L43.7093 97.3131L44.478 98.4817L45.2467 99.6813L45.9544 100.881L46.6312 102.08L47.277 103.341L47.8927 104.571L48.4455 105.832L48.9993 107.124L49.4911 108.416L49.9529 109.708L50.3838 111L50.7217 112.261L51.0605 113.553L51.3374 114.845L51.5833 116.136L51.7673 117.428L51.8902 118.689L51.9522 119.95L51.9832 121.18L51.9522 122.38L51.8902 123.548L51.7673 124.655L51.5833 125.702L51.3374 126.716L51.0605 127.701L50.7217 128.623L50.3838 129.485L49.9529 130.315L49.4911 131.084L48.9993 131.76L48.4455 132.437L47.8927 133.021L47.277 133.575L36.512 139.788L37.0967 139.265L37.7115 138.65L38.2043 138.004L38.7271 137.297L39.157 136.528L39.5878 135.697L39.9567 134.836L40.2955 133.944L40.5415 132.991L40.7874 131.945L40.9723 130.869L41.0952 129.761L41.1872 128.592L41.2182 127.393L41.1872 126.163L41.0952 124.902L40.9723 123.641L40.7874 122.349L40.5415 121.088L40.2955 119.796L39.9567 118.504L39.5878 117.213L39.157 115.89L38.7271 114.629L38.2043 113.337L37.7115 112.046L37.0967 110.785L36.512 109.554L35.8662 108.324L35.1895 107.094L34.4517 105.894L33.713 104.725L32.9143 103.526L32.1146 102.419L31.2839 101.312L30.4222 100.235L29.5306 99.2199L28.6389 98.2053L27.6852 97.2207L26.7316 96.298L25.7479 95.4368L24.7633 94.5757L23.7177 93.776L22.7031 93.0687L21.6565 92.3615L20.6109 91.7152L19.5653 91.131L18.5197 90.6391L17.4431 90.1778L16.4594 89.7779L15.4438 89.4701L14.4902 89.2551L13.5065 89.0702L12.5839 88.9473L11.6922 88.8858L10.7996 88.9168L9.90789 88.9782L9.07721 89.1317L8.27751 89.3166L7.50879 89.5625Z" fill="#E6EAEB"/>
<path fill-rule="evenodd" clip-rule="evenodd" d="M20.6063 139.296C9.22643 132.714 0 116.782 0 103.618C0 90.4848 9.22643 85.1329 20.6063 91.7148C31.9555 98.2967 41.2136 114.259 41.2136 127.393C41.2136 140.556 31.9555 145.847 20.6063 139.296Z" fill="#9EB4BA"/>
<path fill-rule="evenodd" clip-rule="evenodd" d="M86.0715 23.7446L85.6416 22.2376L85.1188 20.8227L84.534 19.4692L83.8883 18.2082L83.2115 17.0396L82.4428 15.9325L81.6121 14.9174L81.3662 14.6405C88.9631 16.3629 94.1607 23.16 94.9911 33.9248C95.0527 34.9398 95.0831 43.8902 95.0831 44.9667C95.0831 46.4122 95.0529 47.6733 94.8992 49.1496V49.1801V49.2416L94.4993 48.9957C91.639 47.3348 88.9016 46.4735 86.4103 46.2582V46.2277C87.6098 41.1221 87.3017 29.127 86.0715 23.7446Z" fill="#222F3B"/>
<path fill-rule="evenodd" clip-rule="evenodd" d="M55.139 5.38249L57.1382 4.27539L59.1375 3.32176L61.0748 2.46058L63.0121 1.75333L64.9193 1.16858L66.7956 0.676741L68.6409 0.338371L70.4553 0.122959L72.2086 0L73.931 0.0309743L75.5613 0.184438L77.1908 0.461329L78.7292 0.830674L80.2356 1.32251L81.6511 1.96827L83.0346 2.64502L91.0626 7.28928L89.7091 6.58204L88.2636 5.96677L86.7872 5.47447L85.2187 5.07509L83.6193 4.8287L81.958 4.67524L80.2666 4.64427L78.5133 4.73672L76.6989 4.95166L74.8536 5.32101L72.9773 5.78234L71.04 6.3976L69.1018 7.10484L67.1335 7.93505L65.1652 8.91966L63.135 9.99578L61.1367 11.2263L59.1375 12.5793L57.1992 13.9943L55.2619 15.5322L53.3547 17.1316L51.4784 18.854L49.6331 20.6378L47.8187 22.4831L46.0654 24.4209L44.374 26.3892L42.7136 28.4189L41.1142 30.5106L39.5448 32.6633L38.0693 34.847L36.6229 37.0922L35.2704 39.3993L33.9479 41.7364L32.7173 44.0741L31.5488 46.4732L30.4722 48.8723L29.4575 51.3019L28.5039 53.7624L27.6423 56.223L26.8735 58.6836L26.1658 61.1442L25.551 63.6353L24.9972 66.0958L24.5364 68.5254L24.1975 70.9555L23.9516 73.3851L23.7667 83.7193L23.7367 86.0874V86.6721V87.2564L23.7667 87.8407V88.425L23.7977 88.9788L23.8596 89.5631C20.9993 87.9022 18.2622 87.0104 15.8016 86.7951L15.7707 84.365L15.7397 83.7807L15.7087 83.227V82.6427L15.6777 82.0584V81.4431L15.7397 71.14L15.8936 68.7409L16.1705 66.3418L16.5084 63.9121L16.9702 61.4516L17.493 58.991L18.1388 56.5304L18.8155 54.0698L19.6152 51.5788L20.4759 49.1491L21.3986 46.6886L22.4142 44.2585L23.5208 41.8289L24.6894 39.4608L25.9199 37.0922L27.2114 34.7855L28.5959 32.4789L30.0104 30.2337L31.5178 28.05L33.0552 25.8968L34.6546 23.8056L36.316 21.7449L38.0383 19.8071L39.7917 17.8693L41.575 15.9935L43.4204 14.2097L45.3276 12.5178L47.234 10.9184L49.1722 9.38098L51.1405 7.93505L53.1397 6.61254L55.139 5.38249Z" fill="#222F3B"/>
<path fill-rule="evenodd" clip-rule="evenodd" d="M79.9844 50.8706L82.3225 49.5171L83.0292 49.3017L83.7679 49.1173L84.5057 48.9943L85.2744 48.9019H86.1051L86.9048 48.9633L87.7355 49.0558L88.6271 49.2097L89.5188 49.4556L90.4114 49.7016L91.3341 50.0399L92.2568 50.4707L93.2104 50.9321L94.1631 51.4549L95.1477 52.0392L96.1013 52.6544L97.024 53.3617L97.9466 54.0689L98.8383 54.8381L99.73 55.6378L100.592 56.468L101.452 57.3602L102.252 58.2519L103.083 59.1745L103.851 60.1282L104.59 61.1738L105.359 62.1889L106.036 63.2345L106.742 64.2801L107.389 65.3877L108.004 66.4638L108.589 67.6328L109.141 68.7709L109.664 69.878L110.157 71.0466L110.618 72.2156L110.987 73.3842L111.387 74.5223L111.726 75.7218L112.033 76.8599L112.248 78.0285L112.463 79.1971L112.648 80.3966L112.74 81.5347L112.833 82.6727V83.7798V84.8869L112.74 85.933L112.648 86.9172L112.463 87.9013L112.248 88.824L112.033 89.6851L111.726 90.5463L111.387 91.315L110.987 92.0533L110.618 92.761L110.157 93.3758L109.664 93.991L109.141 94.5448L108.589 95.0366L106.251 96.3592L106.835 95.8673L107.327 95.3445L107.819 94.7292L108.25 94.114L108.681 93.4067L109.05 92.6685L109.418 91.8998L109.664 91.0386L109.941 90.1774L110.157 89.2548L110.311 88.2702L110.434 87.2555L110.495 86.2094L110.526 85.1333L110.495 83.9952L110.434 82.8882L110.311 81.7191L110.157 80.5505L109.941 79.3815L109.664 78.2129L109.418 77.0443L109.05 75.8753L108.681 74.7067L108.25 73.5381L107.819 72.4001L107.327 71.231L106.835 70.0934L106.251 68.9244L105.697 67.8173L105.051 66.7102L104.405 65.6336L103.729 64.557L103.052 63.5419L102.283 62.5273L101.545 61.4816L100.746 60.528L99.9459 59.6053L99.1462 58.6827L98.2545 57.7905L97.3929 56.9603L96.5321 56.1606L95.6086 55.3914L94.6859 54.6842L93.7632 54.0074L92.8406 53.3927L91.8569 52.8079L90.9033 52.2546L89.9496 51.7933L89.027 51.3934L88.0734 51.055L87.1817 50.7781L86.321 50.5627L85.4283 50.4093L84.5986 50.2858L83.7679 50.2553H82.9682L82.1995 50.3168L81.3998 50.4398L80.6921 50.6242L79.9844 50.8706Z" fill="#40576E"/>
<path fill-rule="evenodd" clip-rule="evenodd" d="M91.8653 95.8677C81.5311 89.9317 73.1963 75.4759 73.1963 63.5423C73.1963 51.6396 81.5311 46.8111 91.8653 52.7778C102.169 58.6831 110.503 73.2 110.503 85.1028C110.503 97.0055 102.169 101.865 91.8653 95.8677Z" fill="#222F3B"/>
<path fill-rule="evenodd" clip-rule="evenodd" d="M91.8719 90.24C84.275 85.8418 78.123 75.2 78.123 66.4344C78.123 57.638 84.275 54.101 91.8719 58.4684C99.4687 62.8358 105.62 73.5081 105.62 82.3045C105.651 91.0701 99.4687 94.6074 91.8719 90.24Z" fill="#293845"/>
<path fill-rule="evenodd" clip-rule="evenodd" d="M81.0759 58.2533L81.2608 58.1304L80.6151 58.9301L80.0613 59.9757L79.5995 61.1752L79.2306 62.5287L79.0466 63.9432L78.9537 65.5426L78.9847 66.3733L79.0466 67.2035L79.1386 68.0647L79.2306 68.9258L79.4155 69.7565L79.5995 70.6177L79.8154 71.4789L80.0613 72.3706L80.3072 73.2012L80.6151 74.0624L80.953 74.9541L81.3218 75.7848L81.6917 76.615L82.1215 77.4762L82.5524 78.3068L82.9832 79.137L83.475 79.9062L83.9669 80.675L84.4897 81.4747L85.0435 82.2129L85.5972 82.9816L86.182 83.6893L86.7658 84.3656L87.3815 85.0423L87.9963 85.6576L88.6421 86.3034L89.2879 86.8876L89.9646 87.4719L90.6414 87.9952L91.3491 88.487L92.0258 88.9484L92.7326 89.3792L94.148 90.1174L95.5006 90.6707L96.8231 91.0091L98.0846 91.2245L99.2841 91.255L100.453 91.1016L101.498 90.7937L102.483 90.3633L103.344 89.7176L103.406 89.6561L103.283 89.8096L102.483 90.6093L101.621 91.1935L100.607 91.6858L99.561 91.9932L98.4225 92.0857L97.2229 92.0547L95.9624 91.9013L94.6398 91.5319L93.2864 90.9786L91.8719 90.2404L91.1642 89.8096L90.4564 89.3482L89.7806 88.8564L89.0729 88.3026L88.4272 87.7798L87.7504 87.1645L87.1356 86.5493L86.4889 85.9035L85.9051 85.2268L85.2894 84.5195L84.7365 83.8123L84.1827 83.0741L83.6599 82.3358L83.1062 81.5671L82.6444 80.7674L82.1525 79.9677L81.6607 79.168L81.2608 78.3068L80.861 77.5071L80.4611 76.646L80.0923 75.7848L79.7844 74.9541L79.4765 74.0624L79.1696 73.2012L78.9227 72.3706L78.7388 71.4789L78.5539 70.6177L78.3999 69.787L78.277 68.9258L78.185 68.0647L78.123 67.2345V66.4038L78.185 64.8354L78.3999 63.3589L78.7388 62.0364L79.1696 60.8369L79.7844 59.7912L80.4611 58.8686L81.0759 58.2533Z" fill="#40576E"/>
<path fill-rule="evenodd" clip-rule="evenodd" d="M63.1867 9.99664C84.9315 -2.52127 102.555 7.62834 102.555 32.7257L102.525 42.3526C102.525 43.2753 102.463 44.0134 102.401 44.9361L94.9588 49.242C95.0818 47.7349 95.1427 46.4434 95.1427 44.9671C95.1427 43.8906 95.1123 34.9402 95.0508 33.9252C93.636 15.8404 79.9182 8.92037 63.1867 18.5779C46.2091 28.3893 32.3075 51.7024 31.2925 71.6326C31.2618 72.4016 31.2306 81.1364 31.2306 81.9053C31.2306 83.1356 31.2925 84.3352 31.4155 85.504L30.8307 85.9038L23.9413 89.5639C23.849 88.4567 23.8184 87.3187 23.8184 86.1807C23.8184 84.9504 23.849 75.7541 23.9413 74.4931C25.5714 50.1339 42.5183 21.9609 63.1867 9.99664Z" fill="#2C3E50"/>
<path fill-rule="evenodd" clip-rule="evenodd" d="M9.40137 98.3897L10.416 97.8054L10.8778 97.5285L11.4307 97.3131L11.9844 97.1287L12.5382 97.0057L13.123 96.9133L13.7068 96.8518H14.3526L14.9683 96.8823L15.645 96.9748L16.2908 97.0977L16.9976 97.2517L17.7053 97.4671L18.413 97.7435L19.1198 98.0514L19.8585 98.3897L20.5962 98.8201L21.3349 99.2509L22.0727 99.7427L22.7804 100.266L23.5181 100.85L24.1949 101.404L24.9026 102.05L25.5484 102.665L26.2251 103.372L26.8399 104.049L27.4857 104.787L28.0704 105.525L28.6852 106.294L29.239 107.124L29.7928 107.893L30.2846 108.724L30.8074 109.585L31.3002 110.446L31.7301 111.276L32.1609 112.169L32.5607 113.06L32.9296 113.921L33.2994 114.845L33.6064 115.767L33.9142 116.628L34.1292 117.582L34.3751 118.474L34.56 119.365L34.7449 120.258L34.8679 121.149L34.9598 122.041L35.0218 122.903V123.794V124.625L34.9598 125.425L34.8679 126.224L34.7449 126.963L34.56 127.701L34.3751 128.377L34.1292 129.023L33.9142 129.608L33.6064 130.192L33.2994 130.715L32.9296 131.237L32.5607 131.699L32.1609 132.099L31.7301 132.499L31.3002 132.837L30.8074 133.114L29.7928 133.729L30.2236 133.421L30.7154 133.052L31.1463 132.714L31.5151 132.283L31.915 131.791L32.2529 131.33L32.5917 130.776L32.8686 130.223L33.1145 129.608L33.3604 128.962L33.5453 128.285L33.6983 127.577L33.8523 126.809L33.9142 126.04L33.9752 125.24V124.379V123.518L33.9142 122.657L33.8523 121.734L33.6983 120.873L33.5453 119.981L33.3604 119.058L33.1145 118.135L32.8686 117.243L32.5917 116.352L32.2529 115.429L31.915 114.537L31.5151 113.676L31.1463 112.753L30.7154 111.892L30.2236 111.031L29.7928 110.169L29.27 109.339L28.7781 108.508L28.1934 107.678L27.6086 106.909L27.0558 106.109L26.44 105.371L25.8252 104.664L25.1795 103.957L24.5337 103.28L23.857 102.603L23.1802 102.019L22.4725 101.404L21.7657 100.881L21.058 100.327L20.3193 99.8352L19.5816 99.4044L18.8129 99.0045L18.1051 98.6356L17.3674 98.3282L16.6597 98.0819L15.9829 97.8359L15.2752 97.682L14.6295 97.5285L13.9527 97.4671L13.3379 97.4361H12.6921L12.1074 97.4976L11.5236 97.59L10.9388 97.7435L10.416 97.9284L9.86223 98.1433L9.40137 98.3897Z" fill="#E6EAEB"/>
<path fill-rule="evenodd" clip-rule="evenodd" d="M19.5906 132.714C11.6247 128.131 5.16602 116.936 5.16602 107.74C5.16602 98.5126 11.6247 94.7907 19.5906 99.4042C27.5566 104.018 34.0153 115.213 34.0153 124.409C34.0153 133.606 27.5258 137.296 19.5906 132.714Z" fill="#C5CCD1"/>
</svg>
