<svg width="100" height="141" viewBox="0 0 100 141" fill="none" xmlns="http://www.w3.org/2000/svg">
<path fill-rule="evenodd" clip-rule="evenodd" d="M49.9981 140.32C37.1955 140.32 24.4258 137.518 14.6528 131.85C6.96478 127.42 -0.49542 120.057 0.0258054 110.48C0.905373 95.2337 13.0237 54.7411 27.8786 46.1735C71.8896 20.7963 28.1393 20.7963 72.1177 46.1735C86.9726 54.7411 99.0914 95.2337 99.971 110.48C100.525 120.057 93.0646 127.42 85.3439 131.85C75.6035 137.518 62.7682 140.32 49.9981 140.32Z" fill="#B19377"/>
<path fill-rule="evenodd" clip-rule="evenodd" d="M51.5279 27.2797C47.1952 32.6549 56.87 37.3783 72.1159 46.174C72.3439 46.3043 72.5723 46.4672 72.8003 46.5975C73.0284 46.7278 73.2563 46.8907 73.4843 47.0535C73.7124 47.2164 73.9403 47.3793 74.1683 47.5747C74.3963 47.7702 74.6242 47.9658 74.8523 48.1613C81.107 53.4713 86.1564 63.5047 89.3163 70.9648C89.4792 71.3557 89.6423 71.7793 89.8377 72.1702L90.3263 73.3754C90.4892 73.7663 90.6521 74.1898 90.815 74.6133C90.9779 75.0368 91.1407 75.4278 91.3036 75.8513C94.5938 84.4841 97.2651 93.638 98.9591 102.727C99.0243 103.053 99.0896 103.378 99.1222 103.704L99.2847 104.649C99.3499 104.975 99.3826 105.301 99.4477 105.594L99.578 106.473C99.6106 106.767 99.6433 107.06 99.6759 107.353C99.7085 107.614 99.7408 107.907 99.7733 108.2C99.8059 108.46 99.8059 108.721 99.8384 108.982C99.8384 109.242 99.8715 109.503 99.9041 109.731C99.9366 109.959 99.9364 110.219 99.9364 110.448V110.904V111.36C99.9364 111.523 99.9364 111.653 99.9364 111.816C99.9364 111.946 99.9364 112.109 99.9364 112.272L99.9041 112.695C99.1874 123.12 89.186 130.352 80.6184 134.261L80.521 134.326L80.423 134.359L80.1949 134.456L80.0975 134.489L80.0323 134.522H79.9995L79.9016 134.554L79.6088 134.685H79.576L79.4781 134.717L79.2504 134.815L79.1525 134.847H79.0874L79.0223 134.88L78.9244 134.912L78.8269 134.945L78.729 134.978H78.6967L78.6316 135.01L78.5336 135.043C70.3895 137.486 61.3332 138.692 52.2769 138.692C49.4428 138.692 46.6086 138.561 43.7744 138.333C54.5247 137.421 64.8189 134.782 73.1259 130.352C81.3678 125.954 89.3815 118.722 88.7625 109.275C87.8504 94.2571 85.5374 54.6439 69.4446 46.5975C53.5798 38.6814 44.6868 33.2085 49.2149 27.1167H51.5279V27.2797Z" fill="#C7A585"/>
<path fill-rule="evenodd" clip-rule="evenodd" d="M52.5935 139.083C39.9864 139.083 27.3795 136.313 17.7369 130.743C10.1465 126.345 2.78419 119.113 3.33799 109.666C4.18498 94.6155 16.1732 54.7093 30.8001 46.2719C45.7202 37.6391 52.4631 32.7852 48.2282 27.2798H50.0202C54.2225 34.0883 54.1571 37.5413 34.6763 48.8127C20.0495 57.2501 19.8216 94.6155 18.9746 109.666C18.4208 119.113 25.7834 126.378 33.4063 130.743C41.0292 135.141 50.5411 137.812 60.4444 138.724C57.8383 138.952 55.2322 139.083 52.5935 139.083Z" fill="#967B62"/>
<path fill-rule="evenodd" clip-rule="evenodd" d="M49.0943 0.175049C44.957 0.175049 40.8201 1.08718 37.6276 2.91147C35.1192 4.34484 32.7082 6.72286 32.8711 9.81763C33.1643 14.7693 37.0737 27.8976 41.8951 30.6666C46.8141 33.5008 45.6739 35.4555 44.2731 37.2146H53.8508C52.45 35.4555 51.2772 33.5008 56.2288 30.6666C61.0176 27.8976 64.9917 14.7693 65.2523 9.81763C65.4152 6.72286 63.0046 4.34484 60.4963 2.91147C57.3689 1.08718 53.2315 0.175049 49.0943 0.175049Z" fill="#B19377"/>
<path fill-rule="evenodd" clip-rule="evenodd" d="M53.8838 37.2457C52.483 35.4866 51.3102 33.5318 56.2618 30.6977C56.327 30.6651 56.4248 30.6 56.49 30.5674C56.5551 30.5349 56.653 30.4698 56.7181 30.4372C56.7833 30.3721 56.8811 30.3067 56.9463 30.2742C57.0114 30.209 57.0762 30.1765 57.1739 30.1114C57.2717 30.0462 57.3044 29.9809 57.4021 29.9158C60.6923 26.8862 63.1355 19.9475 64.2757 15.6148L64.3736 15.2564L64.4711 14.8655L64.5362 14.5071L64.6341 14.1489L64.6992 13.7905L64.7643 13.4647L64.8294 13.1389L64.8946 12.8133L64.9597 12.4874C64.9597 12.3897 64.9922 12.2593 65.0248 12.1616L65.0576 11.8686C65.0576 11.7708 65.0904 11.673 65.0904 11.5753L65.1227 11.282C65.1227 11.1843 65.1555 11.0867 65.1555 10.989C65.1555 10.8913 65.1555 10.826 65.1555 10.7283C65.1555 10.6631 65.1878 10.5653 65.1878 10.4676C65.1878 10.4024 65.1878 10.3048 65.1878 10.2071C65.1878 10.1419 65.2206 10.0441 65.2206 9.97893V9.6859V9.55542C65.2206 9.52284 65.2206 9.45776 65.2206 9.42519C65.2206 9.39261 65.2206 9.32753 65.2206 9.29495V9.16472C65.2206 9.13214 65.2204 9.06681 65.1878 9.03423C65.1878 9.00166 65.1878 8.93657 65.1878 8.904C65.1878 8.87142 65.1878 8.80634 65.1878 8.77376C64.7969 6.16764 62.6144 4.213 60.4969 2.97509L60.3339 2.90997L60.2036 2.84486L60.0734 2.77949L59.9432 2.71437L59.8129 2.64925L59.6827 2.58414H59.6499L59.5197 2.51902L59.3566 2.4539H59.3243L59.2592 2.42134H59.2264H59.1941L59.1285 2.38879H59.0961H59.0633L58.9659 2.35598H58.9331L58.868 2.32342H58.8357H58.8029H58.7706L58.7377 2.29086H58.7054H58.6726H58.6398C56.0011 1.50902 53.0697 1.08569 50.1378 1.08569C49.2256 1.08569 48.2809 1.1182 47.4014 1.21593C50.8871 1.50912 54.2096 2.35619 56.9135 3.78955C59.5847 5.22292 62.1911 7.56841 61.9956 10.6306C61.7024 15.4845 60.9531 28.3197 55.7409 30.9258C50.5938 33.4994 51.9943 35.682 53.4603 37.7018H53.8838V37.2457Z" fill="#C7A585"/>
<path fill-rule="evenodd" clip-rule="evenodd" d="M49.9445 0.564697C45.8725 0.564697 41.7678 1.4766 38.6405 3.26831C36.1646 4.6691 33.8192 7.04743 33.9495 10.077C34.2427 14.9635 38.1192 27.8637 42.8428 30.6327C47.6641 33.4343 46.5895 35.4216 45.2213 37.2133H45.8073C47.1756 34.9981 50.4331 33.4343 44.1133 29.7857C39.3571 27.0493 39.3248 14.931 39.0317 10.077C38.8688 7.01485 41.2465 4.6691 43.6898 3.26831C46.1656 1.83494 49.2608 0.988139 52.4533 0.662373C51.6389 0.629797 50.7915 0.564697 49.9445 0.564697Z" fill="#967B62"/>
<path fill-rule="evenodd" clip-rule="evenodd" d="M60.4228 2.74866C54.0703 -0.899914 43.8086 -0.93249 37.4562 2.74866C31.1364 6.39724 31.1038 12.3263 37.4562 16.0075C43.8086 19.6886 54.0703 19.6561 60.4228 16.0075C66.7752 12.3589 66.7752 6.39724 60.4228 2.74866Z" fill="#C7A585"/>
<path fill-rule="evenodd" clip-rule="evenodd" d="M57.4978 4.40997C52.7742 1.70612 45.1187 1.70612 40.3625 4.40997C35.6389 7.1464 35.6064 11.5768 40.3625 14.3133C45.1187 17.0497 52.7742 17.0497 57.4978 14.3133C62.254 11.5768 62.2214 7.1464 57.4978 4.40997Z" fill="#967B62"/>
<path fill-rule="evenodd" clip-rule="evenodd" d="M53.9888 32.0006V32.7499V32.7174V32.6848V32.652V32.6194V32.5869V32.5543V32.4892V32.4566V32.4241V32.3915V32.359V32.3264V32.2939V32.2613V32.2287V32.1959V32.1634V32.1308V32.0006ZM44.4439 32.1634L44.4111 32.1959V32.2287V32.2613V32.2939V32.3264V32.359V32.3915V32.4241V32.4566V32.4892V32.5218V32.5543V32.5869V32.6194V32.652V31.968L44.4439 32.1634Z" fill="#2C3E50"/>
<path fill-rule="evenodd" clip-rule="evenodd" d="M42.724 41.1564L42.561 41.0587L42.3984 40.9611L42.2354 40.8308L42.1052 40.7655L41.9421 40.6352L41.8119 40.5376L41.6817 40.4073L41.5514 40.3094L41.4207 40.2117L41.3233 40.114L41.193 39.9838L41.0951 39.8859L40.9972 39.7556L40.8998 39.6254L40.8018 39.4952L40.7044 39.3973L40.6393 39.267L40.5737 39.1693L40.4762 39.0391L40.4111 38.9086L40.346 38.7784L40.3132 38.6807L40.2809 38.5502L40.2158 38.42L40.183 38.2898L40.1507 38.1595L40.1179 38.0616L40.085 37.9314V37.8011L40.0527 37.6709V37.5404V29.1032L40.183 29.2335L40.2158 29.3312L40.2809 29.4614L40.3132 29.5919L40.346 29.7221L40.4111 29.8523L40.4762 29.9828L40.5737 30.0805L40.6393 30.2107L40.7044 30.3084L40.8018 30.4389L40.8998 30.5691L40.9972 30.6668L41.0951 30.797L41.193 30.895L41.3233 31.0252L41.4207 31.1229L41.5514 31.2531L41.6817 31.351L41.8119 31.4487L41.9421 31.5464L42.1052 31.6766L42.2354 31.7743L42.3984 31.8722L42.561 31.9699L42.724 32.0676L42.8871 32.1653L43.0824 32.2632L43.245 32.3609L43.408 32.426L43.6034 32.5236L43.7664 32.5888L43.9618 32.6867L44.1571 32.7518L44.353 32.8169L44.5483 32.882L44.7437 32.9472L44.939 33.0123L45.1349 33.0774L45.3302 33.11L45.5584 33.1753L45.7537 33.2404L45.9491 33.273L46.1444 33.3056L46.3726 33.3707L46.5679 33.4032H46.7961L47.0243 33.4683H47.2196L47.4478 33.5009L47.6431 33.5335L47.8713 33.566H48.099L48.2948 33.5988H48.5225H48.7506H48.9788H49.1741H49.4023H49.6305H49.8258H50.0535L50.2816 33.566H50.5098L50.7051 33.5335L50.9333 33.5009L51.1286 33.4683H51.3568L51.585 33.4032H51.7803L51.9757 33.3707L52.2038 33.3056L52.3992 33.273L52.5945 33.2404L52.8227 33.1753L53.018 33.11L53.2462 33.0774L53.4092 33.0123L53.6369 32.9472L53.8328 32.882L53.9953 32.8169L54.1912 32.7518L54.3865 32.6867L54.5819 32.5888L54.7772 32.5236L54.9402 32.426L55.1356 32.3609L55.2986 32.2632L55.4612 32.1653L55.657 32.0676L55.7873 31.9699L55.9498 31.8722L56.1129 31.7743L56.2759 31.6766L56.4061 31.5464L56.5692 31.4487L56.6666 31.351L56.7968 31.2531L56.9276 31.1229L57.0578 31.0252L57.1552 30.895L57.2855 30.797L57.3511 30.6668L57.4485 30.5691L57.5464 30.4389L57.6439 30.3084L57.7418 30.2107L57.8069 30.0805L57.872 29.9828L57.9371 29.8523L58.0023 29.7221L58.0351 29.5919L58.1002 29.4614L58.1325 29.3312L58.1976 29.2335L58.2304 29.1032V28.9728L58.2632 28.8751L58.2955 28.8425V37.5404V37.6709V37.8011L58.2632 37.9314L58.2304 38.0616V38.1595L58.1976 38.2898L58.1325 38.42L58.1002 38.5502L58.0351 38.6807L58.0023 38.7784L57.9371 38.9086L57.872 39.0391L57.8069 39.1693L57.7418 39.267L57.6439 39.3973L57.5464 39.4952L57.4485 39.6254L57.3511 39.7556L57.2855 39.8859L57.1552 39.9838L57.0578 40.114L56.9276 40.2117L56.7968 40.3094L56.6666 40.4073L56.5692 40.5376L56.4061 40.6352L56.2759 40.7655L56.1129 40.8308L55.9498 40.9611L55.7873 41.0587L55.657 41.1564L55.4612 41.2541L55.2986 41.3195L55.1356 41.4171L54.9402 41.5148L54.7772 41.5799L54.5819 41.6776L54.3865 41.743L54.1912 41.8081L53.9953 41.9058L53.8328 41.9709L53.6369 42.036L53.4092 42.1011L53.2462 42.1337L53.018 42.199L52.8227 42.2316L52.5945 42.2967L52.3992 42.3618L52.2038 42.3944L51.9757 42.4269L51.7803 42.4595L51.585 42.5246H51.3568L51.1286 42.5572L50.9333 42.5897L50.7051 42.6223L50.5098 42.6551H50.2816L50.0535 42.6877H49.8258H49.6305H49.4023H49.1741H48.9788H48.7506H48.5225H48.2948L48.099 42.6551H47.8713L47.6431 42.6223L47.4478 42.5897L47.2196 42.5572L47.0243 42.5246H46.7961L46.5679 42.4595L46.3726 42.4269L46.1444 42.3944L45.9491 42.3618L45.7537 42.2967L45.5584 42.2316L45.3302 42.199L45.1349 42.1337L44.939 42.1011L44.7437 42.036L44.5483 41.9709L44.353 41.9058L44.1571 41.8081L43.9618 41.743L43.7664 41.6776L43.6034 41.5799L43.408 41.5148L43.245 41.4171L43.0824 41.3195L42.8871 41.2541L42.724 41.1564Z" fill="#2C3E50"/>
<path fill-rule="evenodd" clip-rule="evenodd" d="M49.1708 33.598C46.8253 33.598 44.5125 33.0766 42.7208 32.0668C41.3525 31.2849 40.5055 30.2751 40.1797 29.2327C40.7986 29.9168 41.8087 30.4704 43.0791 30.8288C43.3072 31.0242 43.6004 31.2199 43.8611 31.3828C44.5777 31.7737 45.3918 32.0995 46.2714 32.2949C47.1835 32.523 48.1607 32.6205 49.138 32.6205C50.1153 32.6205 51.0931 32.523 52.0052 32.2949C52.8848 32.0995 53.7317 31.7737 54.4483 31.3828C54.8393 31.1547 55.1647 30.894 55.4579 30.6334C56.6307 30.2099 57.5756 29.6561 58.162 28.9394L58.2271 28.8743C58.0317 30.047 57.152 31.1546 55.6209 32.0668C53.8618 33.0766 51.5164 33.598 49.1708 33.598Z" fill="#415A73"/>
</svg>
