<svg width="60" height="169" viewBox="0 0 60 169" fill="none" xmlns="http://www.w3.org/2000/svg">
<path fill-rule="evenodd" clip-rule="evenodd" d="M59.9998 122.674L40.1936 111.231L30.3385 116.936L30.0793 117.066L29.8854 117.098H29.6906L29.5283 117.033L49.3345 128.476L49.4967 128.509L49.6916 128.541L49.8855 128.476L50.113 128.379L59.9998 122.674Z" fill="#89B04D"/>
<path fill-rule="evenodd" clip-rule="evenodd" d="M11.6073 126.465L11.5757 126.757L11.5104 127.017L11.4135 127.308L11.2512 127.568L11.089 127.827L10.8941 128.054L10.7002 128.249L10.4727 128.411L30.2471 139.821L30.5063 139.659L30.7012 139.497L30.8951 139.27L31.0574 138.978L31.187 138.719L31.2849 138.46L31.3492 138.168L31.3818 137.876V107.373L31.4145 106.822L31.4788 106.27L31.5757 105.719L31.738 105.136L31.9329 104.585L32.1594 104.001L32.3869 103.482L32.7104 102.931L12.9369 91.521L12.6124 92.0394L12.3533 92.5904L12.1267 93.1414L11.9645 93.6929L11.8022 94.2761L11.7053 94.8271L11.64 95.4108L11.6073 95.9297V126.465Z" fill="#70913F"/>
<path fill-rule="evenodd" clip-rule="evenodd" d="M30.256 139.823L10.4815 128.413L0.594727 134.15L20.3692 145.561L30.256 139.823Z" fill="#89B04D"/>
<path fill-rule="evenodd" clip-rule="evenodd" d="M47.6588 94.3087L27.8853 82.8658L27.5608 82.7357L27.2047 82.6061L26.8476 82.574H26.4588L26.0373 82.6388L25.5833 82.7684L25.1618 82.9306L24.7088 83.1898L16.1179 88.1495L15.6322 88.4413L15.2108 88.7653L14.7567 89.1541L14.3679 89.5755L13.9465 89.997L13.5894 90.4832L13.2659 90.9699L12.9414 91.4883V91.5209L32.7149 102.931L33.0394 102.413L33.3955 101.894L33.7526 101.44L34.1414 100.986L34.5629 100.565L35.0169 100.208L35.4384 99.8515L35.8924 99.5602L44.4823 94.6005L44.9363 94.3408L45.3904 94.1791L45.8435 94.0816L46.2333 94.0168L46.6547 93.9842L47.0108 94.049L47.3353 94.1464L47.6588 94.3087Z" fill="#89B04D"/>
<path fill-rule="evenodd" clip-rule="evenodd" d="M20.3692 145.561L0.594727 134.15L20.3692 156.68L40.208 168.123L20.3692 145.561Z" fill="#70913F"/>
<path fill-rule="evenodd" clip-rule="evenodd" d="M31.4013 107.372V137.875C31.4013 138.588 30.8825 139.463 30.2666 139.82L20.3799 145.558L40.186 168.12L59.9922 122.672L50.1054 128.377C49.4571 128.734 48.9707 128.442 48.9707 127.729V97.2251C48.9707 95.7988 48.4526 94.794 47.6421 94.3077C46.8642 93.8215 45.6964 93.8864 44.4646 94.5996L35.8422 99.5593C34.6103 100.272 33.476 101.504 32.6656 102.93C31.92 104.357 31.4013 105.913 31.4013 107.372Z" fill="#9BC957"/>
<path fill-rule="evenodd" clip-rule="evenodd" d="M30.7932 51.7528L11.0371 40.3206V70.8279L11.0697 71.3462L11.135 71.7999L11.2318 72.2531L11.3613 72.6415L11.556 72.9656L11.7823 73.2893L12.0413 73.5483L31.83 84.9484L31.57 84.6894L31.3437 84.3979L31.149 84.0416L30.9879 83.6853L30.89 83.2321L30.8258 82.7463L30.7932 82.2606V51.7528Z" fill="#70913F"/>
<path fill-rule="evenodd" clip-rule="evenodd" d="M30.4771 51.0086L10.6895 39.609L10.8515 39.7059L10.9484 39.868L11.0136 40.0622L11.0453 40.3216L30.8013 51.7538L30.7687 51.4944L30.7045 51.3002L30.6066 51.1386L30.4771 51.0086Z" fill="#70913F"/>
<path fill-rule="evenodd" clip-rule="evenodd" d="M39.608 11.4322L19.7877 0L0 45.373L19.7551 56.8052L39.608 11.4322Z" fill="#89B04D"/>
<path fill-rule="evenodd" clip-rule="evenodd" d="M30.8077 51.7543V82.2621C30.8077 83.6871 31.3254 84.6907 32.135 85.1441C32.9447 85.6299 34.0789 85.5656 35.3096 84.8531L43.924 79.898C45.1547 79.1855 46.2879 77.9547 47.0976 76.5297C47.9072 75.1371 48.4259 73.5499 48.4259 72.0925V41.6173C48.4259 40.9048 48.9442 40.0303 49.5596 39.6416L59.4045 33.974L39.6494 11.4332L19.8291 56.8063L29.7393 51.1065C30.2898 50.7178 30.8077 51.0418 30.8077 51.7543Z" fill="#9BC957"/>
</svg>
