<svg width="5" height="5" viewBox="0 0 5 5" fill="none" xmlns="http://www.w3.org/2000/svg">
<path fill-rule="evenodd" clip-rule="evenodd" d="M3.368 0.0460052L3.972 0.395004C3.974 0.396004 3.976 0.396995 3.978 0.397995C4.01 0.416995 4.031 0.455995 4.034 0.509995V0.751999V2.26401V2.506C4.032 2.564 4.011 2.62701 3.978 2.68201C3.943 2.74201 3.896 2.794 3.843 2.825L0.979004 4.478C0.926004 4.508 0.878994 4.511 0.843994 4.492C0.841994 4.491 0.839997 4.48901 0.837997 4.48801L0.233002 4.13901L0.227997 4.13499L0.223007 4.131L0.218002 4.12601L0.214005 4.121L0.210007 4.11501L0.205994 4.108L0.201996 4.101L0.199005 4.09399L0.195999 4.08701L0.194 4.07899L0.192001 4.071L0.190002 4.062L0.188995 4.05299L0.188004 4.043L0.186996 4.033V3.79201C0.186996 3.20801 0.186996 2.62299 0.186996 2.03799L0.188004 2.02699L0.188995 2.01601L0.190002 2.005L0.192001 1.993L0.194 1.98199L0.195999 1.97099L0.199005 1.96001L0.201996 1.94901L0.205994 1.938L0.210007 1.927L0.214005 1.916L0.218002 1.905L0.223007 1.894L0.227997 1.883L0.233002 1.87199L0.238998 1.86099L0.246002 1.85001L0.253006 1.839L0.259995 1.828L0.268005 1.817L0.274994 1.80701L0.283005 1.797L0.291 1.787L0.300003 1.778L0.307999 1.769L0.317001 1.761L0.326004 1.75301L0.335007 1.745L0.343994 1.73801L0.354004 1.731L0.363007 1.724L0.373001 1.718L3.237 0.0650024L3.24699 0.0599976L3.257 0.0559998L3.26601 0.052002L3.27499 0.048996L3.284 0.0460052L3.293 0.0440063L3.302 0.0420074L3.311 0.0410004H3.319H3.327L3.33501 0.0420074L3.343 0.0429993L3.35001 0.0449982L3.35699 0.0469971L3.368 0.0460052Z" fill="#E6EAEB"/>
<path fill-rule="evenodd" clip-rule="evenodd" d="M0.789993 2.38499L0.186005 2.036V2.278L0.789993 2.627V2.38499Z" fill="#C0392B"/>
<path fill-rule="evenodd" clip-rule="evenodd" d="M3.97301 0.395996L3.368 0.0460052L3.36099 0.0429993L3.354 0.0410004L3.347 0.0390015L3.339 0.0379944L3.33099 0.0370026H3.323L3.314 0.0379944L3.306 0.0390015L3.297 0.0410004L3.28799 0.0420074L3.278 0.0449982L3.269 0.048996L3.25999 0.0529938L3.25 0.0579987L3.24001 0.0630035L0.376007 1.716L0.365997 1.722L0.356995 1.729L0.347 1.73599L0.337997 1.743L0.328995 1.75101L0.320007 1.759L0.311005 1.76801L0.302002 1.77699L0.292999 1.786L0.285995 1.795L0.276993 1.806L0.270004 1.815L0.261993 1.826L0.255005 1.83701L0.248001 1.84801L0.240997 1.85899L0.235001 1.87L0.229996 1.88L0.225006 1.89101L0.218994 1.90199L0.214996 1.91299L0.210007 1.924L0.205994 1.936L0.201996 1.94701L0.199005 1.95799L0.195999 1.96899L0.192993 1.98L0.190994 1.991L0.188995 2.00301L0.188004 2.01401L0.186996 2.024L0.186005 2.036L0.789993 2.38499L0.791 2.37399L0.792007 2.36301L0.792999 2.35201L0.794998 2.341L0.798004 2.32899L0.800003 2.31799L0.804001 2.30701L0.807007 2.29601L0.811005 2.285L0.815002 2.27299L0.819 2.26199L0.824005 2.25101L0.828995 2.24001L0.834 2.229L0.839996 2.21899L0.845993 2.20799L0.852997 2.19701L0.858994 2.186L0.867004 2.175L0.873993 2.16499L0.882004 2.155L0.889999 2.145L0.897995 2.13499L0.906998 2.12601L0.914993 2.117L0.923996 2.108L0.932999 2.10001L0.942001 2.092L0.951996 2.08501L0.960999 2.078L0.970993 2.07201L0.981003 2.065L3.845 0.412003L3.854 0.406998L3.864 0.401993L3.87399 0.397995L3.883 0.395004L3.892 0.391998L3.901 0.389008L3.91 0.388L3.91901 0.386993L3.927 0.386002H3.936L3.94299 0.386993L3.951 0.389008L3.959 0.389999L3.966 0.393005L3.97301 0.395996Z" fill="#BDBDBD"/>
<path fill-rule="evenodd" clip-rule="evenodd" d="M0.789993 2.62601L0.186005 2.278V3.78999V4.03101L0.186996 4.04201L0.188004 4.05099L0.188995 4.061L0.190994 4.07001L0.192993 4.078L0.195999 4.086L0.199005 4.09399L0.201996 4.101L0.205994 4.108L0.210007 4.11501L0.214996 4.121L0.218994 4.12601L0.225006 4.131L0.229996 4.136L0.235001 4.14L0.839996 4.489L0.834 4.485L0.828995 4.48L0.824005 4.47501L0.819 4.47L0.815002 4.463L0.811005 4.457L0.807007 4.45L0.804001 4.44299L0.800003 4.436L0.798004 4.427L0.794998 4.41901L0.792999 4.41L0.792007 4.39999L0.791 4.39101L0.789993 4.381V4.138V2.62601Z" fill="#9C9C9C"/>
<path fill-rule="evenodd" clip-rule="evenodd" d="M3.979 2.68401C4.011 2.62801 4.032 2.565 4.035 2.508L3.03101 2.211L2.56 2.895C2.516 2.958 2.46499 3.007 2.41299 3.037C2.36199 3.067 2.31 3.077 2.267 3.064L1.79601 2.925L0.791 4.382C0.794 4.437 0.814 4.475 0.847 4.494C0.882 4.514 0.928995 4.511 0.981995 4.48L3.84599 2.827C3.89699 2.796 3.945 2.74301 3.979 2.68401Z" fill="#E6EAEB"/>
<path fill-rule="evenodd" clip-rule="evenodd" d="M0.789993 2.62601V4.13901V4.138V4.381L1.795 2.924L1.65601 2.883L0.789993 2.62601Z" fill="#E6EAEB"/>
<path fill-rule="evenodd" clip-rule="evenodd" d="M4.035 2.507V2.265H4.036V0.753006L3.16901 2.009L3.03101 2.21001L4.035 2.507Z" fill="#E6EAEB"/>
<path fill-rule="evenodd" clip-rule="evenodd" d="M3.845 0.412009L0.981003 2.06501C0.928003 2.09501 0.880993 2.148 0.845993 2.208C0.812993 2.264 0.792993 2.327 0.789993 2.385V2.627C2.25599 3.06 0.831007 2.63901 2.26601 3.06301C2.31001 3.07601 2.361 3.066 2.412 3.036C2.464 3.006 2.51501 2.957 2.55901 2.894C4.06901 0.703003 2.588 2.85201 4.035 0.753012V0.511008C4.033 0.456008 4.012 0.417008 3.979 0.399008C3.945 0.379008 3.897 0.382009 3.845 0.412009Z" fill="#E6EAEB"/>
<path fill-rule="evenodd" clip-rule="evenodd" d="M4.035 0.753006V0.511002L2.509 2.72301C2.48 2.76501 2.446 2.798 2.412 2.817C2.378 2.837 2.345 2.84301 2.315 2.83501L0.789001 2.384V2.62601C2.113 3.01701 1.107 2.72 2.265 3.062C2.309 3.075 2.36 3.065 2.411 3.035C2.463 3.005 2.514 2.95601 2.558 2.89301C4.07 0.703005 2.588 2.85201 4.035 0.753006Z" fill="#E74C3C"/>
<path fill-rule="evenodd" clip-rule="evenodd" d="M0.832001 2.233L0.227997 1.88499L0.225006 1.89101L0.218994 1.90199L0.214996 1.91299L0.210007 1.924L0.205994 1.936L0.201996 1.94701L0.199005 1.95799L0.195999 1.96899L0.192993 1.98L0.190994 1.991L0.188995 2.00301L0.188004 2.01401L0.186996 2.024L0.186005 2.036L0.789993 2.38499L0.791 2.37399L0.792007 2.36301L0.792999 2.35201L0.794998 2.341L0.798004 2.32899L0.800003 2.31799L0.804001 2.30701L0.807007 2.29601L0.811005 2.285L0.815002 2.27299L0.819 2.26199L0.824005 2.25101L0.828995 2.24001L0.832001 2.233Z" fill="#9C9C9C"/>
</svg>
