<svg width="225" height="283" viewBox="0 0 225 283" fill="none" xmlns="http://www.w3.org/2000/svg">
<path fill-rule="evenodd" clip-rule="evenodd" d="M192.02 173.66C235.993 198.605 235.993 239.128 192.02 264.119C148.093 289.109 76.9069 289.109 32.9803 264.119C-10.9934 239.128 -10.9934 198.605 32.9803 173.66C76.9069 148.67 148.14 148.67 192.02 173.66Z" fill="#F5F5F5"/>
<path fill-rule="evenodd" clip-rule="evenodd" d="M178.254 183.605C214.596 203.072 214.596 234.729 178.254 254.24C141.912 273.707 83.0387 273.707 46.7438 254.24C10.4018 234.729 10.4018 203.072 46.7438 183.605C83.0387 164.05 141.912 164.05 178.254 183.605Z" fill="#E9E9EB"/>
<path fill-rule="evenodd" clip-rule="evenodd" d="M164.516 193.301C193.193 209.38 193.193 235.445 164.516 251.523C135.791 267.602 89.2089 267.602 60.4845 251.523C31.8073 235.399 31.8073 209.334 60.4845 193.301C89.2089 177.176 135.744 177.176 164.516 193.301Z" fill="#DDDEE1"/>
<path fill-rule="evenodd" clip-rule="evenodd" d="M151.934 197.449C173.765 209.757 173.765 229.727 151.934 242.083C130.201 254.391 94.8118 254.391 73.0298 242.083C51.2479 229.727 51.2479 209.757 73.0298 197.449C94.8118 185.141 130.152 185.141 151.934 197.449Z" fill="#D1D2D6"/>
<path d="M35.6426 163.225L39.7684 160.76V128.209L35.6426 130.674V163.225Z" fill="#BC8742"/>
<path d="M133.024 221.421L137.15 218.957V186.406L133.024 188.87V221.421Z" fill="#B08141"/>
<path d="M128.899 218.957L133.024 221.421V188.87L128.899 186.406V218.957Z" fill="#93561D"/>
<path d="M177.37 194.238L181.495 191.772V159.221L177.37 161.687V194.238Z" fill="#B08141"/>
<path d="M173.246 191.772L177.371 194.238V161.687L173.246 159.221V191.772Z" fill="#93561D"/>
<path d="M80.5595 -4.34656e-05L31.5176 29.3072L133.025 89.9686L181.495 60.32L80.5595 -4.34656e-05Z" fill="#F2E9C3"/>
<path d="M31.5176 135.706L133.025 196.367V89.9686L31.5176 29.3072V135.706Z" fill="#D3B063"/>
<path d="M181.494 166.717L133.024 196.367V89.9687L181.494 60.3202V166.717Z" fill="#B08141"/>
<path d="M71.7305 96.3419L74.189 97.8121V72.9594L71.7305 71.4893V96.3419Z" fill="#7C572B"/>
<path d="M73.6352 70.3502L71.7305 71.4891L74.189 72.9594L76.073 71.8078L73.6352 70.3502Z" fill="#F2E9C3"/>
<path d="M76.0745 96.6594L74.1904 97.8121V72.9593L76.0745 71.8079V96.6594Z" fill="#B18F60"/>
<path d="M87.4287 105.731L89.8884 107.201V82.3483L87.4287 80.8781V105.731Z" fill="#7C572B"/>
<path d="M89.3347 79.7405L87.4287 80.8781L89.8884 82.3484L91.7713 81.1969L89.3347 79.7405Z" fill="#F2E9C3"/>
<path d="M91.7715 106.049L89.8887 107.201V82.3482L91.7715 81.1968V106.049Z" fill="#B18F60"/>
<path d="M34.993 133.093L79.1581 159.472L79.8507 159.069V62.8799L35.9253 36.6302L34.993 36.8733V133.093ZM80.5419 161.14L34.3018 133.507V34.8325L80.5419 62.4667V161.14Z" fill="#7C572B"/>
<path d="M35.6759 36.4564L34.9932 36.8733L79.1582 63.2729V159.472L79.8496 159.069V62.8585L35.6759 36.4564Z" fill="#EBDBB5"/>
<path d="M84.3466 162.701L128.51 189.081L129.203 188.678V92.4882L85.2776 66.2385L84.3466 66.4816V162.701ZM129.896 190.749L83.6553 163.116V64.4408L129.896 92.075V190.749Z" fill="#7C572B"/>
<path d="M85.0294 66.0647L84.3467 66.4816L128.511 92.88V189.081L129.202 188.677V92.4668L85.0294 66.0647Z" fill="#EBDBB5"/>
</svg>
