<svg width="33" height="38" viewBox="0 0 33 38" fill="none" xmlns="http://www.w3.org/2000/svg">
<path d="M1.9 11.4H3.8V36.1C3.80055 36.6037 4.00091 37.0867 4.35711 37.4429C4.71331 37.7991 5.19626 37.9994 5.7 38H27.2333C27.7371 37.9994 28.22 37.7991 28.5762 37.4429C28.9324 37.0867 29.1328 36.6037 29.1333 36.1V11.4H31.0333C31.5371 11.3994 32.02 11.1991 32.3762 10.8429C32.7324 10.4867 32.9328 10.0037 32.9333 9.5V6.96667C32.9328 6.46292 32.7324 5.97997 32.3762 5.62377C32.02 5.26758 31.5371 5.06722 31.0333 5.06667H23.4333V1.9C23.4328 1.39626 23.2324 0.913307 22.8762 0.557108C22.52 0.200909 22.0371 0.000553203 21.5333 0H11.4C10.8963 0.000553203 10.4133 0.200909 10.0571 0.557108C9.70091 0.913307 9.50055 1.39626 9.5 1.9V5.06667H1.9C1.39626 5.06722 0.913307 5.26758 0.557108 5.62377C0.200909 5.97997 0.000553203 6.46292 0 6.96667V9.5C0.000553203 10.0037 0.200909 10.4867 0.557108 10.8429C0.913307 11.1991 1.39626 11.3994 1.9 11.4ZM27.8667 36.1C27.8664 36.2679 27.7997 36.4289 27.6809 36.5476C27.5622 36.6663 27.4012 36.7331 27.2333 36.7333H5.7C5.5321 36.7331 5.37113 36.6663 5.25241 36.5476C5.13368 36.4289 5.06688 36.2679 5.06667 36.1V11.4H27.8667V36.1ZM10.7667 1.9C10.7669 1.7321 10.8337 1.57113 10.9524 1.45241C11.0711 1.33368 11.2321 1.26688 11.4 1.26667H21.5333C21.7012 1.26688 21.8622 1.33368 21.9809 1.45241C22.0997 1.57113 22.1664 1.7321 22.1667 1.9V5.06667H10.7667V1.9ZM1.26667 6.96667C1.26688 6.79876 1.33368 6.6378 1.45241 6.51907C1.57113 6.40035 1.7321 6.33355 1.9 6.33333H31.0333C31.2012 6.33355 31.3622 6.40035 31.4809 6.51907C31.5997 6.6378 31.6664 6.79876 31.6667 6.96667V9.5C31.6664 9.6679 31.5997 9.82887 31.4809 9.94759C31.3622 10.0663 31.2012 10.1331 31.0333 10.1333H1.9C1.7321 10.1331 1.57113 10.0663 1.45241 9.94759C1.33368 9.82887 1.26688 9.6679 1.26667 9.5V6.96667Z" fill="#454545"/>
<path d="M12.6665 34.8331H15.1999C15.3678 34.8331 15.5289 34.7664 15.6477 34.6476C15.7665 34.5289 15.8332 34.3678 15.8332 34.1998V13.9331C15.8332 13.7652 15.7665 13.6041 15.6477 13.4853C15.5289 13.3665 15.3678 13.2998 15.1999 13.2998H12.6665C12.4986 13.2998 12.3375 13.3665 12.2187 13.4853C12.0999 13.6041 12.0332 13.7652 12.0332 13.9331V34.1998C12.0332 34.3678 12.0999 34.5289 12.2187 34.6476C12.3375 34.7664 12.4986 34.8331 12.6665 34.8331ZM13.2999 14.5665H14.5665V33.5665H13.2999V14.5665Z" fill="#454545"/>
<path d="M7.60013 34.8331H10.1335C10.3014 34.8331 10.4625 34.7664 10.5813 34.6476C10.7001 34.5289 10.7668 34.3678 10.7668 34.1998V13.9331C10.7668 13.7652 10.7001 13.6041 10.5813 13.4853C10.4625 13.3665 10.3014 13.2998 10.1335 13.2998H7.60013C7.43216 13.2998 7.27107 13.3665 7.1523 13.4853C7.03352 13.6041 6.9668 13.7652 6.9668 13.9331V34.1998C6.9668 34.3678 7.03352 34.5289 7.1523 34.6476C7.27107 34.7664 7.43216 34.8331 7.60013 34.8331ZM8.23346 14.5665H9.50013V33.5665H8.23346V14.5665Z" fill="#454545"/>
<path d="M17.7329 34.8331H20.2663C20.4342 34.8331 20.5953 34.7664 20.7141 34.6476C20.8329 34.5289 20.8996 34.3678 20.8996 34.1998V13.9331C20.8996 13.7652 20.8329 13.6041 20.7141 13.4853C20.5953 13.3665 20.4342 13.2998 20.2663 13.2998H17.7329C17.565 13.2998 17.4039 13.3665 17.2851 13.4853C17.1663 13.6041 17.0996 13.7652 17.0996 13.9331V34.1998C17.0996 34.3678 17.1663 34.5289 17.2851 34.6476C17.4039 34.7664 17.565 34.8331 17.7329 34.8331ZM18.3663 14.5665H19.6329V33.5665H18.3663V14.5665Z" fill="#454545"/>
<path d="M22.7993 34.8331H25.3327C25.5007 34.8331 25.6617 34.7664 25.7805 34.6476C25.8993 34.5289 25.966 34.3678 25.966 34.1998V13.9331C25.966 13.7652 25.8993 13.6041 25.7805 13.4853C25.6617 13.3665 25.5007 13.2998 25.3327 13.2998H22.7993C22.6314 13.2998 22.4703 13.3665 22.3515 13.4853C22.2327 13.6041 22.166 13.7652 22.166 13.9331V34.1998C22.166 34.3678 22.2327 34.5289 22.3515 34.6476C22.4703 34.7664 22.6314 34.8331 22.7993 34.8331ZM23.4327 14.5665H24.6993V33.5665H23.4327V14.5665Z" fill="#454545"/>
</svg>
