<svg width="3" height="6" viewBox="0 0 3 6" fill="none" xmlns="http://www.w3.org/2000/svg">
<path fill-rule="evenodd" clip-rule="evenodd" d="M2.87499 0.856995L2.627 0.714996L2.62 0.712006L2.61199 0.710007L2.60399 0.709L2.59499 0.707993H2.58599L2.57699 0.709L2.56699 0.710999L2.55799 0.712997L2.54799 0.716003L2.53899 0.718994L2.52899 0.723999L2.51899 0.727997L2.50799 0.733994L1.15399 1.517L1.14399 1.52299L1.134 1.52901L1.12399 1.537L1.11399 1.545L1.10399 1.55299L1.09499 1.562L1.08499 1.571L1.07599 1.58099L1.06699 1.591L1.05899 1.60201L1.04999 1.61301L1.04199 1.62399L1.03499 1.63499L1.02699 1.647L1.01999 1.659L1.01299 1.67101L1.00599 1.68401L0.999994 1.69701L0.993994 1.709L0.987995 1.72301L0.982994 1.73599L0.978994 1.74899L0.973995 1.76199L0.969994 1.776L0.965994 1.789L0.962994 1.80299L0.959993 1.81599L0.957994 1.83L0.956995 1.843L0.955994 1.856L0.954994 1.869L0.953995 1.882L0.955994 5V5.013L0.956995 5.02499L0.957994 5.03799L0.958994 5.048L0.961994 5.05901L0.963995 5.07001L0.967995 5.08L0.970995 5.089L0.974995 5.09801L0.978994 5.105L0.983994 5.11301L0.989994 5.121L0.994995 5.127L1.00099 5.133L1.00699 5.13901L1.25499 5.282L1.24899 5.276L1.24299 5.27L1.23699 5.263L1.23199 5.256L1.22699 5.24899L1.22299 5.24001L1.21899 5.231L1.21499 5.222L1.21199 5.21201L1.20899 5.202L1.207 5.19099L1.20499 5.17999L1.20399 5.168L1.20299 5.15601V5.144L1.20199 2.02499V2.01199L1.20299 1.99899L1.20399 1.98599L1.20599 1.972L1.20799 1.95799L1.20999 1.94501L1.21399 1.93201L1.21699 1.918L1.22099 1.905L1.22599 1.892L1.22999 1.87801L1.23599 1.86501L1.24099 1.853L1.24699 1.839L1.25299 1.827L1.25999 1.814L1.26699 1.802L1.27399 1.78999L1.28199 1.778L1.29 1.767L1.29799 1.755L1.30599 1.745L1.31399 1.73399L1.32399 1.724L1.33299 1.714L1.34199 1.705L1.35199 1.696L1.36099 1.688L1.37099 1.67999L1.38099 1.672L1.391 1.666L1.40099 1.659L2.75599 0.876007L2.766 0.871002L2.77599 0.865997L2.78599 0.862L2.79599 0.858002L2.80499 0.854996L2.81499 0.854004L2.82399 0.852005H2.83299L2.84199 0.850998L2.85099 0.852005L2.85899 0.852997L2.86699 0.854996L2.87499 0.856995Z" fill="#34485C"/>
<path fill-rule="evenodd" clip-rule="evenodd" d="M1.402 5.27801L2.756 4.495C2.866 4.432 2.956 4.26701 2.956 4.12901L2.955 1.01C2.955 0.872002 2.866 0.812008 2.756 0.875008L1.401 1.65801C1.291 1.72101 1.202 1.88601 1.202 2.02401L1.203 5.14301C1.203 5.28101 1.292 5.34201 1.402 5.27801Z" fill="#3D566E"/>
<path fill-rule="evenodd" clip-rule="evenodd" d="M1.939 1.78599L2.792 1.29299C2.832 1.26999 2.865 1.285 2.874 1.326C2.875 1.329 2.876 1.334 2.876 1.339V1.345V1.35L2.877 3.78199V3.78599V3.79299C2.877 3.79799 2.876 3.803 2.875 3.809C2.866 3.86 2.833 3.913 2.793 3.936L1.646 4.59899C1.644 4.59999 1.643 4.601 1.642 4.602L1.368 4.75999C1.328 4.78199 1.295 4.768 1.286 4.727C1.285 4.724 1.284 4.719 1.284 4.714V4.70799V4.703L1.283 2.27099V2.266V2.25999C1.283 2.25499 1.284 2.25 1.286 2.244C1.295 2.193 1.328 2.14 1.368 2.117L1.939 1.78599Z" fill="#9DD6F5"/>
<path fill-rule="evenodd" clip-rule="evenodd" d="M2.212 1.443C2.285 1.401 2.285 1.279 2.212 1.321L1.944 1.476C1.872 1.518 1.872 1.64001 1.944 1.59801L2.212 1.443Z" fill="#2C3E50"/>
<path fill-rule="evenodd" clip-rule="evenodd" d="M2.212 1.45501C2.243 1.43701 2.263 1.40701 2.272 1.37701C2.275 1.36601 2.277 1.35501 2.277 1.34501C2.277 1.33501 2.275 1.32501 2.272 1.31901C2.263 1.29901 2.244 1.292 2.212 1.31L1.944 1.465C1.913 1.483 1.893 1.51301 1.884 1.54301C1.881 1.55401 1.879 1.565 1.879 1.575C1.879 1.585 1.88 1.594 1.884 1.601C1.893 1.62 1.913 1.62801 1.944 1.61001L2.212 1.45501ZM2.253 1.379C2.248 1.398 2.234 1.41901 2.212 1.43101L1.944 1.58601C1.923 1.59801 1.909 1.593 1.903 1.581C1.901 1.576 1.9 1.57001 1.9 1.56301C1.9 1.55601 1.901 1.54801 1.903 1.54101C1.909 1.52101 1.923 1.501 1.944 1.489L2.212 1.33401C2.233 1.32101 2.247 1.32601 2.253 1.33901C2.256 1.34401 2.257 1.35001 2.257 1.35801C2.257 1.36401 2.256 1.372 2.253 1.379Z" fill="#2C3E50"/>
<path fill-rule="evenodd" clip-rule="evenodd" d="M2.718 1.87801L1.439 2.617V4.325L2.718 3.586V1.87801Z" fill="#E6EAEB"/>
<path fill-rule="evenodd" clip-rule="evenodd" d="M2.718 1.87801L1.439 2.617V2.371L2.718 1.632V1.87801Z" fill="#2980B9"/>
<path fill-rule="evenodd" clip-rule="evenodd" d="M1.618 2.726C1.594 2.74 1.575 2.77499 1.575 2.80499C1.575 2.83399 1.595 2.847 1.618 2.834C1.641 2.82 1.661 2.78501 1.661 2.75501C1.661 2.72501 1.642 2.712 1.618 2.726Z" fill="#9B59B6"/>
<path fill-rule="evenodd" clip-rule="evenodd" d="M1.618 3.01601C1.594 3.03001 1.575 3.065 1.575 3.095C1.575 3.125 1.595 3.138 1.618 3.124C1.641 3.111 1.661 3.075 1.661 3.045C1.661 3.015 1.642 3.00201 1.618 3.01601Z" fill="#FFCB05"/>
<path fill-rule="evenodd" clip-rule="evenodd" d="M1.618 3.324C1.594 3.338 1.575 3.37299 1.575 3.40299C1.575 3.43199 1.595 3.445 1.618 3.432C1.641 3.418 1.661 3.38299 1.661 3.35299C1.661 3.32399 1.642 3.311 1.618 3.324Z" fill="#6699FF"/>
<path fill-rule="evenodd" clip-rule="evenodd" d="M1.78101 3.312L2.44901 2.925V2.87199L1.78101 3.257V3.312Z" fill="#9C9C9C"/>
<path fill-rule="evenodd" clip-rule="evenodd" d="M1.78101 3.021L2.50301 2.604V2.55L1.78101 2.967V3.021Z" fill="#9C9C9C"/>
<path fill-rule="evenodd" clip-rule="evenodd" d="M1.78101 2.713L2.35001 2.384V2.33L1.78101 2.659V2.713Z" fill="#9C9C9C"/>
<path fill-rule="evenodd" clip-rule="evenodd" d="M2.183 4.45301C2.206 4.44001 2.227 4.439 2.242 4.45C2.258 4.46 2.267 4.481 2.267 4.51C2.267 4.539 2.258 4.57001 2.242 4.59801C2.227 4.62501 2.206 4.649 2.183 4.663L1.975 4.78301C1.952 4.79601 1.931 4.797 1.916 4.786C1.901 4.776 1.892 4.755 1.892 4.726C1.892 4.697 1.902 4.66501 1.916 4.63801C1.931 4.61101 1.952 4.58701 1.975 4.57401L2.183 4.45301Z" fill="#2C3E50"/>
<path fill-rule="evenodd" clip-rule="evenodd" d="M2.183 4.465C2.193 4.459 2.203 4.45699 2.211 4.45599C2.22 4.45599 2.228 4.45801 2.235 4.46201C2.242 4.46601 2.247 4.474 2.251 4.483C2.255 4.492 2.257 4.50301 2.257 4.51601C2.257 4.52801 2.255 4.54199 2.251 4.55499C2.247 4.56899 2.242 4.582 2.235 4.595C2.228 4.607 2.22 4.619 2.211 4.629C2.203 4.638 2.193 4.64599 2.183 4.65199L1.975 4.772C1.965 4.778 1.956 4.78101 1.947 4.78101C1.938 4.78101 1.93 4.77899 1.924 4.77499C1.918 4.77099 1.911 4.763 1.908 4.754C1.904 4.745 1.902 4.734 1.902 4.722C1.902 4.71 1.904 4.696 1.908 4.683C1.911 4.669 1.917 4.65601 1.924 4.64301C1.931 4.63001 1.939 4.61899 1.948 4.60899C1.957 4.59899 1.966 4.591 1.976 4.586L2.183 4.465ZM2.219 4.429C2.208 4.43 2.196 4.43399 2.183 4.44099L1.975 4.561C1.962 4.568 1.95 4.579 1.939 4.591C1.927 4.603 1.917 4.618 1.908 4.634C1.9 4.65 1.893 4.666 1.888 4.683C1.884 4.699 1.881 4.716 1.881 4.731C1.881 4.746 1.884 4.76 1.888 4.771C1.892 4.782 1.899 4.791 1.908 4.797C1.916 4.802 1.927 4.80499 1.938 4.80499C1.949 4.80399 1.961 4.801 1.974 4.793L2.182 4.673C2.195 4.666 2.207 4.65501 2.219 4.64301C2.231 4.63101 2.24 4.616 2.249 4.601C2.257 4.585 2.264 4.56799 2.269 4.55099C2.273 4.53499 2.276 4.51801 2.276 4.50301C2.276 4.48801 2.273 4.474 2.269 4.463C2.264 4.452 2.257 4.443 2.249 4.437C2.241 4.432 2.23 4.429 2.219 4.429Z" fill="#2C3E50"/>
</svg>
