<svg width="94" height="108" viewBox="0 0 94 108" fill="none" xmlns="http://www.w3.org/2000/svg">
<g filter="url(#filter0_d)">
<path fill-rule="evenodd" clip-rule="evenodd" d="M88.7622 15.1498V90.3552L56.832 84.7157V9.48785L88.7622 15.1498Z" fill="#E6EAEB"/>
<path fill-rule="evenodd" clip-rule="evenodd" d="M56.8399 9.48785V84.7157L39.3125 104V28.7721L56.8399 9.48785Z" fill="#BDC3C7"/>
<path d="M39.3142 28.7721H4V104H39.3142V28.7721Z" fill="#E6EAEB"/>
<path fill-rule="evenodd" clip-rule="evenodd" d="M89.6224 10.2471V85.475L88.7764 90.3552V15.1498L89.6224 10.2471Z" fill="#BDC3C7"/>
<path fill-rule="evenodd" clip-rule="evenodd" d="M88.7717 15.1498L56.8416 9.48785L39.3142 28.7721H4V23.8046H36.4074L54.2386 4L89.6177 10.2471L88.7717 15.1498Z" fill="#BDBDBD"/>
<path fill-rule="evenodd" clip-rule="evenodd" d="M56.832 19.2276L78.0897 23.0241V40.182V64.9111L56.832 61.1365V58.0781L75.075 61.1583V42.5248L56.832 39.4446V36.4074L75.075 39.4883V25.3668L56.832 22.2866V19.2276Z" fill="#415A73"/>
<path fill-rule="evenodd" clip-rule="evenodd" d="M39.3138 36.755L44.5415 31.5485L56.8193 19.2495V22.3078L44.5415 34.5856V48.7071L46.7108 46.5159V49.5531L44.5415 51.7436V53.0457L42.3722 55.1932V50.8764V36.7768L39.292 39.8352V36.755H39.3138ZM56.8412 61.1365L55.5179 62.438V78.403L42.3941 91.5269L39.3138 94.6071V91.5706L42.3941 88.4897V77.1453L44.5634 74.9978V86.321L53.3923 77.4921V64.5636V61.5052V58.7937L55.5397 56.6463V59.3577L56.8624 58.0344V61.1365H56.8412ZM56.8412 36.4074L55.5179 37.7095L54.4547 38.7939L53.3704 39.8782L52.1987 41.0281V44.0864L53.3704 42.9154V51.1147L55.5179 48.9454V40.7461L56.8412 39.4446V36.4074ZM39.3138 70.0521L42.3941 66.9719V69.3795L44.5634 67.2321V64.8244V60.7459L42.3941 62.9153V63.9566L39.3138 67.0368V70.0521Z" fill="#2C3E50"/>
<path fill-rule="evenodd" clip-rule="evenodd" d="M19.1598 36.755H39.3113V39.7915H20.6996V67.015H39.3113V70.0522H20.6996V91.5706H39.3113V94.6071H17.6631V70.0522V36.755H19.1598Z" fill="#415A73"/>
<path fill-rule="evenodd" clip-rule="evenodd" d="M77.4835 69.5311L76.2251 70.7896L74.5549 69.7483L73.926 71.5489L72.1473 71.3317L72.2558 73.4143L70.6505 74.0432L71.4747 76.0391L70.3467 77.4273L71.7137 78.9459L71.2576 80.8544L72.9933 81.7004L73.2753 83.8048L75.0322 83.783L76.0086 85.6915L77.4835 84.8243L78.9803 86.2343L79.9349 84.672L81.7136 85.3016L81.9738 83.3057L83.7088 83.0886L83.2534 81.006L84.6416 79.9653L83.4924 78.1647L84.3165 76.4727L82.7112 75.258L82.8198 73.219L81.041 72.7848L80.4115 70.724L78.7413 71.1801L77.4835 69.5311ZM77.4835 71.852C80.3469 72.3727 82.6463 75.4751 82.6463 78.7506C82.6463 82.0478 80.3469 84.3036 77.4835 83.783C74.6202 83.2624 72.3207 80.1823 72.3207 76.8851C72.3207 73.6096 74.6202 71.3531 77.4835 71.852ZM77.4835 72.7636C79.913 73.2191 81.8652 75.8219 81.8652 78.6202C81.8652 81.4401 79.913 83.3488 77.4835 82.8933C75.0757 82.4594 73.1019 79.835 73.1019 77.0367C73.1019 74.2385 75.0757 72.3515 77.4835 72.7636Z" fill="#2188E8"/>
</g>
<defs>
<filter id="filter0_d" x="0" y="0" width="93.6224" height="108" filterUnits="userSpaceOnUse" color-interpolation-filters="sRGB">
<feFlood flood-opacity="0" result="BackgroundImageFix"/>
<feColorMatrix in="SourceAlpha" type="matrix" values="0 0 0 0 0 0 0 0 0 0 0 0 0 0 0 0 0 0 127 0"/>
<feOffset/>
<feGaussianBlur stdDeviation="2"/>
<feColorMatrix type="matrix" values="0 0 0 0 0 0 0 0 0 0 0 0 0 0 0 0 0 0 1 0"/>
<feBlend mode="normal" in2="BackgroundImageFix" result="effect1_dropShadow"/>
<feBlend mode="normal" in="SourceGraphic" in2="effect1_dropShadow" result="shape"/>
</filter>
</defs>
</svg>
