<svg width="149" height="163" viewBox="0 0 149 163" fill="none" xmlns="http://www.w3.org/2000/svg">
<path fill-rule="evenodd" clip-rule="evenodd" d="M82.9812 143.333L81.1595 146.852L81.0672 147.068L80.9127 147.284L80.7894 147.469L80.6349 147.655L80.4503 147.839L80.2336 148.056L80.0179 148.21L79.7711 148.365L79.5545 148.549L79.2766 148.735L78.9997 148.858L78.6908 149.013L78.3818 149.167L78.104 149.291L77.7649 149.383L77.4559 149.475L77.1168 149.569L76.8079 149.661L76.4377 149.753L76.0977 149.815L75.7275 149.877L75.3884 149.908L75.0173 149.939L74.6471 149.969L74.308 150H73.9379H73.5667L73.1966 149.969L72.8575 149.939L72.4864 149.908L72.1162 149.877L71.8082 149.815L71.4371 149.753L71.098 149.661L70.758 149.569L70.4499 149.475L70.1099 149.383L69.7708 149.291L69.4619 149.167L69.184 149.013L68.876 148.858L68.5981 148.735L68.3203 148.549L68.0735 148.365L67.8569 148.21L67.6412 148.056L67.4255 147.839L67.2399 147.655L67.0854 147.469L66.931 147.284L66.8076 147.068L66.7153 146.852L64.8945 143.333L65.0179 143.611L65.2025 143.858L65.3881 144.106L65.5727 144.321L65.7894 144.568L66.0672 144.784L66.314 145.031L66.6229 145.247L66.931 145.463L67.271 145.648L67.6101 145.834L67.9802 146.019L68.3514 146.204L68.7526 146.359L69.1539 146.512L69.524 146.636L69.9564 146.76L70.3878 146.821L70.789 146.944L71.2525 147.007L71.7149 147.099L72.1162 147.13L72.5796 147.191L73.0421 147.222H73.4744L73.9379 147.253L74.4003 147.222H74.8327L75.2952 147.191L75.7275 147.13L76.1909 147.099L76.6223 147.007L77.0547 146.944L77.487 146.821L77.9193 146.76L78.3206 146.636L78.7218 146.512L79.1231 146.359L79.5244 146.204L79.8945 146.019L80.2647 145.834L80.6349 145.648L80.9438 145.463L81.2528 145.247L81.5608 145.031L81.8386 144.784L82.0854 144.568L82.271 144.321L82.4867 144.106L82.6722 143.858L82.8578 143.611L82.9812 143.333Z" fill="#2C3E50"/>
<path fill-rule="evenodd" clip-rule="evenodd" d="M91.7081 134.939L88.19 141.822L87.9423 142.223L87.6955 142.625L87.3875 142.995L87.1096 143.365L86.7395 143.766L86.3382 144.137L85.9369 144.445L85.4735 144.816L84.9489 145.156L84.4553 145.464L83.8996 145.742L83.3128 146.05L82.7269 146.297L82.1401 146.575L81.492 146.791L80.8751 146.976L80.196 147.162L79.5479 147.347L78.8688 147.501L78.1897 147.624L77.4795 147.717L76.8004 147.81L76.0911 147.871L75.3809 147.933L74.6707 147.964L73.9614 147.995L73.2512 147.964L72.541 147.933L71.8619 147.871L71.1216 147.81L70.4424 147.717L69.7322 147.624L69.0531 147.501L68.3749 147.347L67.726 147.162L67.0478 146.976L66.4299 146.791L65.7818 146.575L65.195 146.297L64.6092 146.05L64.0534 145.742L63.4666 145.464L62.942 145.156L62.4484 144.816L61.9859 144.445L61.5847 144.137L61.1834 143.766L60.8434 143.365L60.5043 142.995L60.2264 142.625L59.9796 142.223L59.7329 141.822L56.2139 134.939L56.4606 135.402L56.7696 135.896L57.1398 136.39L57.5721 136.853L57.9734 137.316L58.498 137.779L59.0227 138.211L59.5784 138.643L60.2264 139.075L60.8434 139.446L61.5536 139.816L62.2638 140.186L62.9731 140.495L63.7756 140.803L64.547 141.081L65.3495 141.359L66.152 141.606L66.9856 141.791L67.8503 141.977L68.6829 142.13L69.5476 142.285L70.4424 142.378L71.3071 142.47L72.1709 142.531L73.0968 142.563L73.9614 142.594L74.8563 142.563L75.7511 142.531L76.6158 142.47L77.4795 142.378L78.3442 142.285L79.239 142.13L80.0726 141.977L80.9363 141.791L81.7699 141.606L82.5724 141.359L83.3749 141.081L84.1464 140.803L84.9178 140.495L85.6591 140.186L86.3683 139.816L87.0785 139.446L87.7266 139.075L88.3435 138.643L88.8993 138.211L89.455 137.779L89.9184 137.316L90.3498 136.853L90.7822 136.39L91.1523 135.896L91.4302 135.402L91.7081 134.939Z" fill="#3D566E"/>
<path fill-rule="evenodd" clip-rule="evenodd" d="M86.974 142.656C91.9432 139.785 93.4863 135.712 91.6035 132.101L88.0845 125.218L87.8688 124.817L87.591 124.416L87.3131 124.014L86.974 123.643L86.6029 123.273L86.2327 122.903L85.8004 122.533L85.3379 122.193L84.8133 121.854L84.2886 121.545L83.7329 121.236L83.1461 120.928L82.5291 120.65L81.9122 120.403L81.2943 120.186L80.6462 119.971L79.9982 119.785L79.3502 119.601L78.7021 119.477L78.0541 119.323L77.375 119.23L76.6958 119.137L75.9856 119.076L75.3065 119.014L74.6274 118.983H73.9181H73.239L72.5288 119.014L71.8497 119.076L71.1706 119.137L70.4924 119.23L69.8133 119.323L69.1341 119.477L68.4861 119.601L67.8381 119.785L67.1891 119.971L66.541 120.186L65.893 120.403L65.2761 120.65L64.6582 120.928L64.0723 121.236L63.5166 121.545L62.9919 121.854L62.4983 122.193L62.0349 122.533L61.5724 122.903L61.2013 123.273L60.8312 123.643L60.4921 124.014L60.2142 124.416L59.9363 124.817L59.7206 125.218L56.2016 132.101C54.3189 135.712 55.8928 139.785 60.8312 142.656C68.1152 146.792 79.7825 146.792 86.974 142.656Z" fill="#2C3E50"/>
<path fill-rule="evenodd" clip-rule="evenodd" d="M92.247 133.798C92.0926 133.212 91.9076 132.656 91.5989 132.101L88.0799 125.218L87.8642 124.817L87.5864 124.416L87.3085 124.014L86.9694 123.643L86.5983 123.273L86.2281 122.903L85.7958 122.533L85.3333 122.193L84.8087 121.854L84.284 121.545L83.7283 121.206L83.1415 120.928L82.5245 120.65L81.9076 120.403L81.2897 120.186L80.6416 119.971L79.9936 119.785L79.3455 119.601L78.6975 119.477L78.0495 119.323L77.3703 119.23L76.6912 119.137L75.981 119.076L75.3019 119.014L74.6228 118.983H73.9135H73.2344L72.5242 119.014L71.8451 119.076L71.1659 119.137L70.4878 119.23L69.8087 119.323L69.1295 119.477L68.4815 119.601L67.8335 119.785L67.1845 119.971L66.5364 120.186L65.8884 120.403L65.2714 120.65L64.6535 120.928L64.0677 121.206L63.5119 121.545L62.9873 121.854L62.4937 122.193L62.0303 122.533L61.5678 122.903L61.1967 123.273L60.8265 123.643L60.4875 124.014L60.2096 124.416L59.9317 124.817L59.716 125.218L56.197 132.101C55.9193 132.656 55.7035 133.212 55.5801 133.798C56.0739 136.051 57.8018 138.243 60.8265 139.971C68.018 144.138 79.6847 144.138 86.8762 139.971C89.9626 138.212 91.7223 136.051 92.247 133.798Z" fill="#3D566E"/>
<path fill-rule="evenodd" clip-rule="evenodd" d="M22.346 71.6345C23.3337 71.6345 24.1987 72.4369 24.1987 73.4863C24.1987 74.5357 23.3645 75.3381 22.346 75.3381H1.82166C0.833994 75.3381 0 74.5357 0 73.4863C0 72.4369 0.80313 71.6345 1.82166 71.6345H22.346Z" fill="#FFED00"/>
<path fill-rule="evenodd" clip-rule="evenodd" d="M37.4386 34.2609C38.1485 34.94 38.1485 36.1441 37.4386 36.854C36.7596 37.533 35.5556 37.533 34.8766 36.854L20.1545 22.162C19.4446 21.483 19.4446 20.2798 20.1545 19.5699C20.8335 18.8909 22.0367 18.8909 22.7466 19.5699L37.4386 34.2609Z" fill="#FFED00"/>
<path fill-rule="evenodd" clip-rule="evenodd" d="M76.0416 22.7783C76.0416 23.7969 75.2392 24.6301 74.1898 24.6301C73.2022 24.6301 72.3682 23.8277 72.3682 22.7783V1.82072C72.3682 0.833052 73.1713 0 74.1898 0C75.2084 0 76.0416 0.802188 76.0416 1.82072V22.7783Z" fill="#FFED00"/>
<path fill-rule="evenodd" clip-rule="evenodd" d="M126.155 75.3081C125.167 75.3081 124.303 74.5057 124.303 73.4563C124.303 72.4069 125.136 71.6045 126.155 71.6045H146.649C147.636 71.6045 148.501 72.4069 148.501 73.4563C148.501 74.5057 147.667 75.3081 146.649 75.3081H126.155Z" fill="#FFED00"/>
<path fill-rule="evenodd" clip-rule="evenodd" d="M113.626 36.854C112.916 37.533 111.744 37.533 111.034 36.854C110.355 36.1441 110.355 34.94 111.065 34.2609L125.756 19.5699C126.466 18.8909 127.639 18.8909 128.349 19.5699C129.028 20.2798 129.028 21.483 128.349 22.162L113.626 36.854Z" fill="#FFED00"/>
<path fill-rule="evenodd" clip-rule="evenodd" d="M111.519 57.6245C116.704 74.0445 111.056 85.2786 105.192 95.3096C101.488 101.668 98.8342 102.564 96.828 109.786C95.5934 114.138 96.2099 118.736 92.5988 122.038C86.8888 127.285 80.8398 127.842 74.6977 127.996H73.9875H73.2782C67.1361 127.811 61.0861 127.285 55.3762 122.038C51.765 118.736 52.3825 114.107 51.1479 109.786C49.1417 102.594 46.5183 101.668 42.7837 95.3096C36.9194 85.2786 31.2405 74.0754 36.4258 57.6245C41.7962 40.7415 57.8761 32.3152 73.9875 32.3152C90.0988 32.3152 106.149 40.7415 111.519 57.6245Z" fill="#EDCC0F"/>
<path fill-rule="evenodd" clip-rule="evenodd" d="M84.5473 135.929C90.3807 132.564 90.3807 127.101 84.5473 123.706C78.7447 120.342 69.2382 120.342 63.374 123.706C57.5097 127.071 57.5405 132.533 63.374 135.929C69.2074 139.324 78.7138 139.293 84.5473 135.929Z" fill="#9C9C9C"/>
<path fill-rule="evenodd" clip-rule="evenodd" d="M86.974 137.008C91.9432 134.138 93.4863 130.063 91.6035 126.452L88.0845 119.569L87.8688 119.168L87.591 118.767L87.3131 118.366L86.974 117.996L86.6029 117.625L86.2327 117.254L85.8004 116.884L85.3379 116.545L84.8133 116.205L84.2886 115.866L83.7329 115.557L83.1461 115.279L82.5291 115.001L81.9122 114.754L81.2943 114.539L80.6462 114.322L79.9982 114.137L79.3502 113.952L78.7021 113.829L78.0541 113.674L77.375 113.582L76.6958 113.489L75.9856 113.396L75.3065 113.366L74.6274 113.335H73.9181H73.239L72.5288 113.366L71.8497 113.396L71.1706 113.489L70.4924 113.582L69.8133 113.674L69.1341 113.829L68.4861 113.952L67.8381 114.137L67.1891 114.322L66.541 114.539L65.893 114.754L65.2761 115.001L64.6582 115.279L64.0723 115.557L63.5166 115.866L62.9919 116.205L62.4983 116.545L62.0349 116.884L61.5724 117.254L61.2013 117.625L60.8312 117.996L60.4921 118.366L60.2142 118.767L59.9363 119.168L59.7206 119.569L56.2016 126.452C54.3189 130.063 55.8928 134.138 60.8312 137.008C68.1152 141.175 79.7825 141.175 86.974 137.008Z" fill="#2C3E50"/>
<path fill-rule="evenodd" clip-rule="evenodd" d="M92.247 128.15C92.0926 127.564 91.9076 127.008 91.5989 126.452L88.0799 119.569L87.8642 119.168L87.5864 118.767L87.3085 118.366L86.9694 117.996L86.5983 117.625L86.2281 117.254L85.7958 116.884L85.3333 116.545L84.8087 116.205L84.284 115.866L83.7283 115.557L83.1415 115.279L82.5245 115.001L81.9076 114.754L81.2897 114.539L80.6416 114.322L79.9936 114.137L79.3455 113.952L78.6975 113.829L78.0495 113.674L77.3703 113.582L76.6912 113.489L75.981 113.396L75.3019 113.366L74.6228 113.335H73.9135H73.2344L72.5242 113.366L71.8451 113.396L71.1659 113.489L70.4878 113.582L69.8087 113.674L69.1295 113.829L68.4815 113.952L67.8335 114.137L67.1845 114.322L66.5364 114.539L65.8884 114.754L65.2714 115.001L64.6535 115.279L64.0677 115.557L63.5119 115.866L62.9873 116.205L62.4937 116.545L62.0303 116.884L61.5678 117.254L61.1967 117.625L60.8265 117.996L60.4875 118.366L60.2096 118.767L59.9317 119.168L59.716 119.569L56.197 126.452C55.9193 127.008 55.7035 127.564 55.5801 128.15C56.0739 130.373 57.8018 132.594 60.8265 134.292C68.018 138.458 79.6847 138.458 86.8762 134.292C89.9626 132.594 91.7223 130.373 92.247 128.15Z" fill="#3D566E"/>
<path fill-rule="evenodd" clip-rule="evenodd" d="M84.5473 129.414C90.3807 126.081 90.3807 120.587 84.5473 117.192C78.7447 113.828 69.2382 113.828 63.374 117.192C57.5097 120.556 57.5405 126.05 63.374 129.414C69.2382 132.809 78.7138 132.809 84.5473 129.414Z" fill="#9C9C9C"/>
<path fill-rule="evenodd" clip-rule="evenodd" d="M92.5623 117.751V124.232L92.5001 124.757L92.4078 125.25L92.2533 125.775L92.0678 126.269L91.821 126.794L91.5431 127.288L91.204 127.781L90.8951 128.276L90.4628 128.738L90.0003 129.202L89.5369 129.664L88.9821 130.065L88.4263 130.498L87.7783 130.93L87.1604 131.361L86.4201 131.701L85.7409 132.072L84.9695 132.411L84.2282 132.689L83.4257 132.998L82.6232 133.244L81.8207 133.491L80.9569 133.708L80.1234 133.892L79.2596 134.016L78.3639 134.17L77.5001 134.294L76.6354 134.356L75.7406 134.448L74.8458 134.479H73.951H73.0863L72.1604 134.448L71.2656 134.356L70.4009 134.294L69.5061 134.17L68.6414 134.016L67.8088 133.892L66.913 133.708L66.1114 133.491L65.2778 133.244L64.4753 132.998L63.7039 132.689L62.9014 132.411L62.1912 132.072L61.481 131.701L60.7717 131.361L60.1237 130.93L59.4747 130.498L58.9199 130.065L58.3953 129.664L57.8697 129.202L57.4383 128.738L57.037 128.276L56.6668 127.781L56.3579 127.288L56.08 126.794L55.8332 126.269L55.6477 125.775L55.4932 125.25L55.3698 124.757L55.3086 124.232V117.751L55.3698 118.275L55.4932 118.769L55.6477 119.294L55.8332 119.787L56.08 120.312L56.3579 120.806L56.6668 121.269L57.037 121.763L57.4383 122.257L57.8697 122.719L58.3953 123.183L58.9199 123.615L59.4747 124.016L60.1237 124.448L60.7717 124.88L61.481 125.22L62.1912 125.59L62.9014 125.929L63.7039 126.207L64.4753 126.516L65.2778 126.763L66.1114 127.01L66.913 127.225L67.8088 127.411L68.6414 127.534L69.5061 127.689L70.4009 127.781L71.2656 127.874L72.1604 127.936L73.0863 127.998H73.951H74.8458L75.7406 127.936L76.6354 127.874L77.5001 127.781L78.3639 127.689L79.2596 127.534L80.1234 127.411L80.9569 127.225L81.8207 127.01L82.6232 126.763L83.4257 126.516L84.2282 126.207L84.9695 125.929L85.7409 125.59L86.4201 125.22L87.1604 124.88L87.7783 124.448L88.4263 124.016L88.9821 123.615L89.5369 123.183L90.0003 122.719L90.4628 122.257L90.8951 121.763L91.204 121.269L91.5431 120.806L91.821 120.312L92.0678 119.787L92.2533 119.294L92.4078 118.769L92.5001 118.275L92.5623 117.751Z" fill="#9C9C9C"/>
<path fill-rule="evenodd" clip-rule="evenodd" d="M87.1615 109.599C94.4146 113.828 94.4146 120.617 87.1615 124.846C79.8774 129.044 68.0561 129.044 60.8029 124.846C53.5188 120.617 53.5188 113.828 60.8029 109.599C68.0252 105.432 79.8465 105.432 87.1615 109.599Z" fill="#C49F0C"/>
<path fill-rule="evenodd" clip-rule="evenodd" d="M92.5623 117.751V124.232L92.5001 124.757L92.4078 125.25L92.2533 125.775L92.0678 126.269L91.821 126.794L91.5431 127.288L91.204 127.781L90.8951 128.276L90.4628 128.738L90.0003 129.202L89.5369 129.664L88.9821 130.065L88.4263 130.498L87.7783 130.93L87.1604 131.361L86.4201 131.701L85.7409 132.072L84.9695 132.411L84.2282 132.689L83.4257 132.998L82.6232 133.244L81.8207 133.491L80.9569 133.708L80.1234 133.892L79.2596 134.016L78.3639 134.17L77.5001 134.294L76.6354 134.356L75.7406 134.448L74.8458 134.479H73.951H73.0863L72.1604 134.448L71.2656 134.356L70.4009 134.294L69.5061 134.17L68.6414 134.016L67.8088 133.892L66.913 133.708L66.1114 133.491L65.2778 133.244L64.4753 132.998L63.7039 132.689L62.9014 132.411L62.1912 132.072L61.481 131.701L60.7717 131.361L60.1237 130.93L59.4747 130.498L58.9199 130.065L58.3953 129.664L57.8697 129.202L57.4383 128.738L57.037 128.276L56.6668 127.781L56.3579 127.288L56.08 126.794L55.8332 126.269L55.6477 125.775L55.4932 125.25L55.3698 124.757L55.3086 124.232V117.751L55.3698 118.275L55.4932 118.769L55.6477 119.294L55.8332 119.787L56.08 120.312L56.3579 120.806L56.6668 121.269L57.037 121.763L57.4383 122.257L57.8697 122.719L58.3953 123.183L58.9199 123.615L59.4747 124.016L60.1237 124.448L60.7717 124.88L61.481 125.22L62.1912 125.59L62.9014 125.929L63.7039 126.207L64.4753 126.516L65.2778 126.763L66.1114 127.01L66.913 127.225L67.8088 127.411L68.6414 127.534L69.5061 127.689L70.4009 127.781L71.2656 127.874L72.1604 127.936L73.0863 127.998H73.951H74.8458L75.7406 127.936L76.6354 127.874L77.5001 127.781L78.3639 127.689L79.2596 127.534L80.1234 127.411L80.9569 127.225L81.8207 127.01L82.6232 126.763L83.4257 126.516L84.2282 126.207L84.9695 125.929L85.7409 125.59L86.4201 125.22L87.1604 124.88L87.7783 124.448L88.4263 124.016L88.9821 123.615L89.5369 123.183L90.0003 122.719L90.4628 122.257L90.8951 121.763L91.204 121.269L91.5431 120.806L91.821 120.312L92.0678 119.787L92.2533 119.294L92.4078 118.769L92.5001 118.275L92.5623 117.751Z" fill="#2C3E50"/>
<path fill-rule="evenodd" clip-rule="evenodd" d="M92.5623 117.751V121.701L92.5001 122.226L92.4078 122.719L92.2533 123.244L92.0678 123.738L91.821 124.263L91.5431 124.757L91.204 125.22L90.8951 125.714L90.4628 126.207L90.0003 126.64L89.5369 127.133L88.9821 127.534L88.4263 127.967L87.7783 128.399L87.1604 128.8L86.4201 129.171L85.7409 129.541L84.9695 129.881L84.2282 130.158L83.4257 130.467L82.6232 130.713L81.8207 130.96L80.9569 131.177L80.1234 131.361L79.2596 131.485L78.3639 131.639L77.5001 131.763L76.6354 131.825L75.7406 131.917L74.8458 131.948H73.951H73.0863L72.1604 131.917L71.2656 131.825L70.4009 131.763L69.5061 131.639L68.6414 131.485L67.8088 131.361L66.913 131.177L66.1114 130.96L65.2778 130.713L64.4753 130.467L63.7039 130.158L62.9014 129.881L62.1912 129.541L61.481 129.171L60.7717 128.8L60.1237 128.399L59.4747 127.967L58.9199 127.534L58.3953 127.133L57.8697 126.64L57.4383 126.207L57.037 125.714L56.6668 125.22L56.3579 124.757L56.08 124.263L55.8332 123.738L55.6477 123.244L55.4932 122.719L55.3698 122.226L55.3086 121.701V117.751L55.3698 118.275L55.4932 118.769L55.6477 119.294L55.8332 119.787L56.08 120.312L56.3579 120.806L56.6668 121.269L57.037 121.763L57.4383 122.257L57.8697 122.719L58.3953 123.183L58.9199 123.615L59.4747 124.016L60.1237 124.448L60.7717 124.88L61.481 125.22L62.1912 125.59L62.9014 125.929L63.7039 126.207L64.4753 126.516L65.2778 126.763L66.1114 127.01L66.913 127.225L67.8088 127.411L68.6414 127.534L69.5061 127.689L70.4009 127.781L71.2656 127.874L72.1604 127.936L73.0863 127.998H73.951H74.8458L75.7406 127.936L76.6354 127.874L77.5001 127.781L78.3639 127.689L79.2596 127.534L80.1234 127.411L80.9569 127.225L81.8207 127.01L82.6232 126.763L83.4257 126.516L84.2282 126.207L84.9695 125.929L85.7409 125.59L86.4201 125.22L87.1604 124.88L87.7783 124.448L88.4263 124.016L88.9821 123.615L89.5369 123.183L90.0003 122.719L90.4628 122.257L90.8951 121.763L91.204 121.269L91.5431 120.806L91.821 120.312L92.0678 119.787L92.2533 119.294L92.4078 118.769L92.5001 118.275L92.5623 117.751Z" fill="#3D566E"/>
<path fill-rule="evenodd" clip-rule="evenodd" d="M92.5623 117.751V122.04C88.6116 125.929 83.0552 127.905 74.2279 127.998C74.1353 127.998 74.0737 127.998 73.9811 127.998H74.8147L75.6794 127.936L76.5742 127.874L77.438 127.781L78.3026 127.689L79.1664 127.534L80.031 127.38L80.8646 127.195L81.6973 126.979L82.4998 126.732L83.2722 126.485L84.0737 126.176L84.815 125.868L85.5554 125.528L86.2345 125.158L86.9447 124.788L87.5927 124.355L88.2408 123.923L88.8276 123.492L89.3833 123.059L89.8769 122.596L90.3394 122.102L90.7717 121.609L91.1117 121.114L91.4508 120.621L91.7287 120.127L91.9755 119.603L92.161 119.078L92.3155 118.553L92.4389 118.029L92.5623 117.751ZM55.3086 122.01V117.751L55.3698 118.275L55.4932 118.8L55.6477 119.325L55.8332 119.849L56.08 120.374L56.3579 120.868L56.697 121.362L57.0671 121.856L57.4684 122.349L57.9318 122.843L58.4565 123.306L58.9811 123.738L59.5679 124.17L60.216 124.602L60.864 125.035L61.5431 125.405L62.2533 125.775L62.9626 126.115L63.734 126.424L64.5064 126.732L65.2778 126.979L66.1114 127.225L66.913 127.442L67.7777 127.627L68.6113 127.781L69.475 127.936L70.3397 128.028L71.2034 128.121L72.0992 128.182L72.994 128.245H73.8276C64.9386 128.029 59.321 126.022 55.3086 122.01Z" fill="#A8890D"/>
<path fill-rule="evenodd" clip-rule="evenodd" d="M80.5534 109.816V115.465L80.5223 115.496V115.557V115.588L80.4912 115.619L80.461 115.68L80.3989 115.711L80.3678 115.742L80.3066 115.774L70.7998 121.236L70.7687 121.267L70.6764 121.298L70.6152 121.329H70.5841L70.522 121.36H70.4297H70.3675H70.3063H70.214H70.1518H70.0595L69.9973 121.329H69.9361L69.8428 121.298L69.7816 121.267L69.7505 121.236L69.6582 121.206L69.0102 120.834L67.2196 119.785H67.1584L67.1273 119.755L67.0962 119.693L67.0651 119.662L67.035 119.632L67.0039 119.569V119.538V119.477V113.86V113.891V113.921L67.035 113.983L67.0651 114.014L67.0962 114.045L67.1273 114.106L67.1584 114.137L67.2196 114.169L69.0102 115.187L69.6582 115.588L69.7505 115.619L69.7816 115.649L69.8428 115.68L69.9361 115.711H69.9973L70.0595 115.742H70.1518H70.214H70.3063H70.3675H70.4297H70.522L70.5841 115.711H70.6152L70.6764 115.68L70.7687 115.649L70.7998 115.619L80.3066 110.125L80.3678 110.094L80.3989 110.063L80.461 110.033L80.4912 110.001L80.5223 109.939V109.909V109.847L80.5534 109.816Z" fill="#A8890D"/>
<path fill-rule="evenodd" clip-rule="evenodd" d="M77.8225 108.086L80.3224 109.537C80.631 109.691 80.631 110 80.3224 110.154L70.8156 115.648C70.507 115.833 70.0441 115.833 69.7663 115.648L69.674 115.618L69.026 115.216L67.2354 114.197C66.9267 114.012 66.9267 113.734 67.2354 113.549L76.7421 108.086C77.0508 107.901 77.5139 107.901 77.8225 108.086Z" fill="#E0D210"/>
<path fill-rule="evenodd" clip-rule="evenodd" d="M65.0729 79.7253C64.4248 80.1265 63.8691 79.7867 63.8691 79.0151C63.8691 78.2743 64.0235 77.1324 64.6717 76.762L83.9932 65.5579C84.6413 65.1567 84.7034 65.9286 84.7034 66.6694C84.7034 67.441 84.3333 68.6133 83.6852 68.9837L65.0729 79.7253Z" fill="#A8890D"/>
<path fill-rule="evenodd" clip-rule="evenodd" d="M78.7286 109.537C78.7286 109.722 78.6355 109.907 78.3886 110.061C77.9256 110.308 77.2155 110.308 76.7525 110.061C76.5364 109.907 76.4134 109.753 76.4134 109.599C76.4443 108.426 76.4447 107.253 76.4756 106.111C76.6299 99.7836 76.7836 94.4749 77.5861 88.9501C78.5429 82.4686 80.2097 75.7402 82.9258 66.882C83.1727 66.1104 83.8521 65.4009 84.4385 65.3392C85.0249 65.2774 85.2715 65.9251 85.0555 66.7275C82.3702 75.3388 80.7651 81.8819 79.8391 88.1166C79.0058 93.7648 78.6978 99.1969 78.7286 105.802C78.7286 107.067 78.7286 108.302 78.7286 109.537ZM63.3264 79.2899C63.0795 78.7652 63.3579 77.8387 63.9443 77.2214C64.5307 76.6041 65.179 76.5731 65.426 77.0669C68.142 82.7769 69.7159 87.6228 70.5801 93.055C71.3517 98.0242 71.5369 103.487 71.506 110.494C71.506 111.574 71.4752 112.655 71.506 113.735C71.506 113.92 71.382 114.105 71.166 114.228C70.6721 114.506 69.9627 114.506 69.4997 114.228C69.2837 114.105 69.1606 113.92 69.1606 113.766C69.1606 107.315 69.3147 101.173 68.3271 94.7533C67.4937 89.5372 65.9808 84.8455 63.3264 79.2899Z" fill="#C49F0C"/>
<path fill-rule="evenodd" clip-rule="evenodd" d="M68.1878 79.9717C68.0335 80.8976 67.3849 81.8229 66.6751 82.0081C66.0269 82.2241 65.564 81.638 65.7492 80.712L66.7985 74.5086C66.9528 73.6135 67.6013 72.6564 68.3112 72.4712C69.0211 72.286 69.4225 72.8722 69.2682 73.7673L68.1878 79.9717Z" fill="#FFED00"/>
<path fill-rule="evenodd" clip-rule="evenodd" d="M71.4729 78.5205C71.3186 79.4464 70.671 80.3717 69.9611 80.5569C69.3129 80.7729 68.8491 80.1559 69.0343 79.2608L70.3002 71.7302C70.4545 70.8351 71.1339 69.9091 71.8129 69.7239C72.4919 69.5079 72.9233 70.0941 72.769 71.02L71.4729 78.5205Z" fill="#FFED00"/>
<path fill-rule="evenodd" clip-rule="evenodd" d="M74.7793 77.037C74.625 77.932 73.9466 78.858 73.2676 79.0432C72.5885 79.2593 72.1562 78.6724 72.3106 77.7773L73.8233 68.9497C73.9776 68.0237 74.656 67.0984 75.3351 66.9132C76.0141 66.6972 76.4464 67.2834 76.292 68.2093L74.7793 77.037Z" fill="#FFED00"/>
<path fill-rule="evenodd" clip-rule="evenodd" d="M78.2451 74.2612C78.0908 75.1872 77.4124 76.1125 76.7334 76.2977C76.0544 76.5137 75.6221 75.9275 75.7764 75.0016L77.0725 67.5011C77.2268 66.5752 77.8753 65.6499 78.5852 65.4647C79.2951 65.2795 79.6963 65.8348 79.5111 66.7608L78.2451 74.2612Z" fill="#FFED00"/>
<path fill-rule="evenodd" clip-rule="evenodd" d="M81.6614 71.5124C81.5071 72.4383 80.8586 73.3645 80.1487 73.5497C79.5005 73.7658 79.0376 73.1796 79.2228 72.2536L80.2721 66.0492C80.4264 65.1542 81.0749 64.198 81.7848 64.0128C82.4638 63.8276 82.8952 64.4138 82.7408 65.3089L81.6614 71.5124Z" fill="#FFED00"/>
<path fill-rule="evenodd" clip-rule="evenodd" d="M84.9366 69.2926C84.7823 70.2185 84.1037 71.1448 83.3938 71.33C82.7456 71.546 82.3136 70.9589 82.4679 70.033L83.3005 65.1256C83.4549 64.1996 84.1342 63.2743 84.8133 63.0892C85.4923 62.8731 85.9246 63.4593 85.7702 64.3852L84.9366 69.2926Z" fill="#FFED00"/>
<path fill-rule="evenodd" clip-rule="evenodd" d="M65.1035 80.9874C64.9492 81.8825 64.2708 82.8396 63.5918 83.0248C62.9127 83.2408 62.4805 82.6537 62.6348 81.7278L63.4674 76.7903C63.6218 75.8952 64.3011 74.9692 64.9802 74.784C65.6592 74.5679 66.0915 75.1541 65.9371 76.0801L65.1035 80.9874Z" fill="#FFED00"/>
<path fill-rule="evenodd" clip-rule="evenodd" d="M69.8069 60.2778C56.4733 61.7593 45.7634 70.0612 40.9485 80.5243C40.0534 79.0737 39.3119 77.407 38.8489 75.3391C34.9909 57.9005 49.3127 39.4745 69.8069 37.1906V60.2778Z" fill="#FFED00"/>
<path fill-rule="evenodd" clip-rule="evenodd" d="M69.0235 79.5698C68.8383 80.4649 68.1896 81.4217 67.4797 81.5761C66.8316 81.7921 66.3995 81.2052 66.5538 80.3101L67.6031 74.0756C67.7574 73.1805 68.4059 72.2545 69.1158 72.0693C69.8257 71.8841 70.2271 72.4394 70.0728 73.3654L69.0235 79.5698Z" fill="#FFF896"/>
<path fill-rule="evenodd" clip-rule="evenodd" d="M72.2464 78.0571C72.1229 78.983 71.4445 79.9093 70.7346 80.0944C70.0864 80.3105 69.6544 79.7234 69.8087 78.7974L71.0737 71.2979C71.228 70.372 71.9076 69.4457 72.6175 69.2605C73.2657 69.0445 73.6977 69.6307 73.5434 70.5566L72.2464 78.0571Z" fill="#FFF896"/>
<path fill-rule="evenodd" clip-rule="evenodd" d="M75.5918 76.5758C75.4375 77.4709 74.7591 78.428 74.0801 78.6132C73.401 78.8292 72.9687 78.243 73.1231 77.3171L74.6348 68.4894C74.7892 67.5944 75.4685 66.6373 76.1476 66.4521C76.8266 66.236 77.2589 66.854 77.1045 67.7491L75.5918 76.5758Z" fill="#FFF896"/>
<path fill-rule="evenodd" clip-rule="evenodd" d="M79.0293 73.8292C78.875 74.7243 78.2265 75.6812 77.5166 75.8355C76.8376 76.0515 76.4053 75.4646 76.5596 74.5695L77.8557 67.0389C78.01 66.1439 78.6894 65.1868 79.3684 65.0016C80.0474 64.7855 80.4797 65.4026 80.3254 66.2976L79.0293 73.8292Z" fill="#FFF896"/>
<path fill-rule="evenodd" clip-rule="evenodd" d="M82.4669 71.0504C82.2817 71.9763 81.633 72.9016 80.9231 73.0868C80.2749 73.3028 79.8429 72.7169 79.9972 71.8218L81.0465 65.6183C81.2008 64.6924 81.8493 63.7662 82.5592 63.581C83.2691 63.3958 83.6703 63.9509 83.4851 64.846L82.4669 71.0504Z" fill="#FFF896"/>
<path fill-rule="evenodd" clip-rule="evenodd" d="M85.7501 68.8564C85.5958 69.7515 84.9164 70.7084 84.2374 70.8627C83.5583 71.0787 83.127 70.4928 83.2813 69.5977L84.114 64.6592C84.2683 63.7642 84.9477 62.8071 85.6267 62.6219C86.3057 62.4058 86.738 62.992 86.5837 63.9179L85.7501 68.8564Z" fill="#FFF896"/>
<path fill-rule="evenodd" clip-rule="evenodd" d="M65.8565 80.5239C65.7022 81.4499 65.0237 82.3761 64.3447 82.5613C63.6657 82.7773 63.2334 82.1912 63.3877 81.2652L64.2213 76.3578C64.3756 75.4628 65.0541 74.5057 65.7331 74.3205C66.4121 74.1044 66.8444 74.6906 66.6901 75.6165L65.8565 80.5239Z" fill="#FFF896"/>
<path fill-rule="evenodd" clip-rule="evenodd" d="M119.104 66.7933L114.022 63.8504C112.85 63.3216 111.976 63.092 110.689 63V79.4628V79.6003L110.666 79.7385L110.619 79.8992L110.574 80.0606L110.505 80.2213L110.413 80.3595L110.32 80.497L110.206 80.6353L103.101 89.1193L102.986 89.2343L102.894 89.3263L102.779 89.4182L102.664 89.4869L102.572 89.5564L102.457 89.5789L102.342 89.602L102.25 89.6252L95.1915 89.3494H95.0764L94.9613 89.3031L94.8694 89.2575L99.9741 92.2003L100.066 92.2466L100.158 92.2691L100.296 92.2922L107.332 92.5456H107.446L107.539 92.5224L107.653 92.4761L107.768 92.4305L107.883 92.361L107.975 92.2691L108.09 92.1772L108.182 92.0621L115.31 83.5781L115.425 83.4399L115.517 83.3024L115.586 83.141L115.655 82.9803L115.701 82.8421L115.747 82.6814L115.77 82.5431V82.4056V82.3825V65.9197C117.057 66.0346 117.931 66.2644 119.104 66.7933ZM108.206 146.647V136.369C108.183 136.093 108.16 135.978 107.93 135.794L113.034 138.737C113.241 138.921 113.264 139.036 113.287 139.312V149.59C113.241 150.257 112.942 150.74 112.413 151.108L103.239 156.395L103.055 156.487L102.894 156.511H102.733L102.595 156.465L98.4795 154.074C98.4795 156.212 98.4795 158.327 98.4795 160.442L98.5027 160.856L98.5483 161.224C98.7323 161.937 98.916 162.304 99.5138 162.718L94.433 159.775C93.7202 159.293 93.536 158.787 93.398 157.913L93.3748 157.499H93.398C93.398 141.45 93.398 125.402 93.398 109.33V107.743V106.157L93.3748 106.111V106.088C80.2461 98.5004 87.1673 81.4399 94.7319 72.1969L99.8359 75.1166C94.3867 81.8074 87.6733 95.9715 93.2605 104.939L93.5131 105.306L93.7888 105.651L94.0421 105.973L94.3179 106.272L98.2726 108.548L98.3413 108.617L98.4108 108.663L98.4564 108.755L98.4795 108.847L98.5027 108.962L98.5252 109.1V109.123V110.732C98.5252 123.585 98.5252 136.415 98.5252 149.245V150.854V152.441V153.292L107.378 148.164L107.539 148.05C107.93 147.636 108.16 147.245 108.206 146.647ZM103.147 89.0961L108.229 92.0396L103.147 89.0961Z" fill="#9C9C9C"/>
<path fill-rule="evenodd" clip-rule="evenodd" d="M113.021 150.487L107.94 147.544L107.802 147.728L107.663 147.888L107.479 148.05L107.342 148.164L99.248 152.832L99.662 154.763L102.605 156.487L102.72 156.511H102.881H103.042L103.226 156.419L112.4 151.108L112.584 150.969L112.745 150.831L112.906 150.671L113.021 150.487Z" fill="#BDBDBD"/>
<path fill-rule="evenodd" clip-rule="evenodd" d="M110.578 80.0605L110.532 80.1981L110.44 80.3363L110.348 80.4738L110.233 80.6121L103.129 89.0961L103.013 89.2111L102.922 89.303L102.806 89.395L102.715 89.4644L102.599 89.5332L102.485 89.5564L102.37 89.5788L102.278 89.602L95.5869 89.3262L95.6557 89.6939L100.002 92.1771L100.094 92.2234L100.186 92.2466L100.323 92.269L107.359 92.5223H107.474L107.566 92.4992L107.681 92.4529L107.796 92.4073L107.911 92.3385L108.003 92.2466L108.118 92.154L108.21 92.0396L115.338 83.5549L115.453 83.4174L115.545 83.2791L115.614 83.1185L115.66 83.0034L110.578 80.0605ZM103.152 89.0961L108.233 92.0396L103.152 89.0961Z" fill="#BDBDBD"/>
<path fill-rule="evenodd" clip-rule="evenodd" d="M119.097 94.8218C120.523 92.4995 121.672 90.0391 122.569 87.5559L122.707 87.0963L115.625 83.0034C115.556 83.2104 115.441 83.3938 115.303 83.5318L108.176 92.0165C107.923 92.3154 107.623 92.4992 107.348 92.4992L100.312 92.2466C99.967 92.2696 99.7835 92.0165 99.7835 91.6256V84.3142L95.0928 87.0037L96.8175 95.0975L108.797 100.754L119.097 94.8218Z" fill="#E6EAEB"/>
<path fill-rule="evenodd" clip-rule="evenodd" d="M116.869 100.27L116.847 98.5919C116.824 98.109 117.169 97.4417 117.605 97.1198L117.674 97.0741C119.721 94.1311 121.399 90.8661 122.595 87.5552C123.745 84.2672 124.411 80.9104 124.388 77.7605C124.411 73.9207 123.422 70.9083 121.744 68.8849C120.272 67.0915 118.226 66.0799 115.789 65.9189V82.3817V82.4049C115.789 82.7728 115.628 83.2093 115.329 83.5542L108.202 92.0389C107.949 92.3378 107.649 92.5217 107.374 92.5217L100.338 92.2684C99.9929 92.2913 99.8087 92.0389 99.8087 91.6481V75.1621C97.3945 78.0822 95.3718 81.4622 93.8543 84.98C92.1758 88.9577 91.1865 93.1193 91.1865 96.9591C91.1865 100.109 91.8535 102.685 93.0032 104.639C94.2218 106.639 95.9462 107.972 98.0616 108.524C98.2915 108.547 98.4526 108.778 98.4756 109.1V109.122C98.4756 126.251 98.4756 143.358 98.4756 160.488C98.4756 161.591 98.866 162.396 99.5098 162.764C100.131 163.132 101.004 163.086 101.993 162.511L113.581 155.82C114.064 155.521 114.548 155.176 114.961 154.739C115.375 154.28 115.743 153.774 116.111 153.176C116.456 152.601 116.685 152.004 116.869 151.406C117.03 150.854 117.123 150.256 117.123 149.704C117.008 133.219 116.938 116.756 116.869 100.27ZM112.386 151.107L103.212 156.395C102.729 156.694 102.338 156.464 102.338 155.912V145.611C102.338 145.059 102.752 144.37 103.212 144.094L112.386 138.806C112.869 138.53 113.26 138.76 113.26 139.312V149.589C113.26 150.141 112.869 150.808 112.386 151.107Z" fill="#E6EAEB"/>
</svg>
