<svg width="109" height="109" viewBox="0 0 109 109" fill="none" xmlns="http://www.w3.org/2000/svg">
<path fill-rule="evenodd" clip-rule="evenodd" d="M99.2582 40.6861C99.2582 39.3857 98.2032 38.3302 96.9028 38.3302H12.0978C10.7973 38.3302 9.74181 39.3857 9.74181 40.6861V97.2228C9.74181 98.5233 10.7974 99.5782 12.0978 99.5782H96.9028C98.2033 99.5782 99.2582 98.5232 99.2582 97.2228V40.6861ZM94.5475 85.4445H85.1246V94.8673H94.5475V85.4445ZM70.9908 85.4445V94.8673H80.4136V85.4445H70.9908ZM56.8566 85.4445V94.8673H66.2794V85.4445H56.8566ZM42.7224 85.4445V94.8673H52.1452V85.4445H42.7224ZM28.5882 85.4445V94.8673H38.0111V85.4445H28.5882ZM23.8769 94.8673V85.4445H14.454V94.8673H23.8769ZM14.454 71.3106V80.7334H23.8769V71.3106H14.454ZM28.5882 71.3106V80.7334H38.0111V71.3106H28.5882ZM42.7224 71.3106V80.7334H52.1452V71.3106H42.7224ZM56.8566 71.3106V80.7334H66.2794V71.3106H56.8566ZM70.9908 71.3106V80.7334H80.4136V71.3106H70.9908ZM85.1249 71.3106V80.7334H94.5478V71.3106H85.1249ZM14.4548 57.1764V66.5993H23.8776V57.1764H14.4548ZM28.589 57.1764V66.5993H38.0118V57.1764H28.589ZM42.7232 57.1764V66.5993H52.146V57.1764H42.7232ZM56.8573 57.1764V66.5993H66.2802V57.1764H56.8573ZM70.9915 57.1764V66.5993H80.4143V57.1764H70.9915ZM85.1257 57.1764V66.5993H94.5485V57.1764H85.1257ZM14.4555 52.4651H23.8784V43.0422H14.4555V52.4651ZM28.5897 52.4651H38.0126V43.0422H28.5897V52.4651ZM42.7239 52.4651H52.1467V43.0422H42.7239V52.4651ZM56.8581 52.4651H66.2809V43.0422H56.8581V52.4651ZM70.9923 52.4651H80.4151V43.0422H70.9923V52.4651ZM85.1264 43.0422V52.4651H94.5493V43.0422H85.1264Z" fill="#8D8D8D"/>
<path fill-rule="evenodd" clip-rule="evenodd" d="M47.4332 10.0612V7.70583C47.4332 3.80216 50.5969 0.638519 54.4999 0.638519C58.4035 0.638519 61.5672 3.80231 61.5672 7.70583V10.0612H75.7014V7.70583C75.7014 3.80216 78.8652 0.638519 82.7681 0.638519C86.6718 0.638519 89.8354 3.80231 89.8354 7.70583V10.0612H96.9021C100.025 10.0612 103.022 11.3026 105.232 13.5102C107.439 15.7201 108.68 18.716 108.68 21.84V97.2218C108.68 100.345 107.439 103.342 105.232 105.552C103.022 107.759 100.025 109 96.9021 109H12.097C8.97305 109 5.97714 107.759 3.76721 105.552C1.56026 103.342 0.318237 100.345 0.318237 97.2218V21.84C0.318237 18.716 1.56023 15.7201 3.76721 13.5102C5.97714 11.3026 8.97305 10.0612 12.097 10.0612H19.1638V7.70583C19.1638 3.80216 22.3275 0.638519 26.2311 0.638519C30.1341 0.638519 33.2978 3.80231 33.2978 7.70583V10.0612H47.4332ZM103.97 33.6179V97.2213C103.97 99.0963 103.226 100.894 101.9 102.218C100.576 103.544 98.7781 104.288 96.903 104.288H12.0979C10.223 104.288 8.42513 103.544 7.10126 102.218C5.77511 100.894 5.03048 99.0964 5.03048 97.2213V33.6179H103.97ZM19.1648 14.7728H12.0981C10.2232 14.7728 8.42528 15.5175 7.10141 16.8436C5.77526 18.1675 5.03063 19.9652 5.03063 21.8403V28.907H103.969V21.8403C103.969 19.9654 103.225 18.1675 101.899 16.8436C100.575 15.5175 98.7773 14.7728 96.9022 14.7728H89.8355V17.1288C89.8355 21.0319 86.6717 24.1955 82.7682 24.1955C78.8651 24.1955 75.7015 21.0317 75.7015 17.1288V14.7728H61.5673V17.1288C61.5673 21.0319 58.4035 24.1955 54.5 24.1955C50.5969 24.1955 47.4333 21.0317 47.4333 17.1288V14.7728H33.2991V17.1288C33.2991 21.0319 30.1353 24.1955 26.2324 24.1955C22.3287 24.1955 19.1651 21.0317 19.1651 17.1288L19.1648 14.7728ZM82.7682 5.35001C81.4678 5.35001 80.4129 6.40556 80.4129 7.70598V17.1288C80.4129 18.4293 81.4678 19.4842 82.7682 19.4842C84.0687 19.4842 85.1242 18.4292 85.1242 17.1288V7.70598C85.1242 6.40554 84.0686 5.35001 82.7682 5.35001ZM26.2315 5.35001C24.9311 5.35001 23.8755 6.40556 23.8755 7.70598V17.1288C23.8755 18.4293 24.9311 19.4842 26.2315 19.4842C27.532 19.4842 28.5869 18.4292 28.5869 17.1288V7.70598C28.5869 6.40554 27.5319 5.35001 26.2315 5.35001ZM54.4999 5.35001C53.2 5.35001 52.1445 6.40556 52.1445 7.70598V17.1288C52.1445 18.4293 53.2 19.4842 54.4999 19.4842C55.8003 19.4842 56.8558 18.4292 56.8558 17.1288V7.70598C56.8558 6.40554 55.8003 5.35001 54.4999 5.35001Z" fill="#4F4F4F"/>
<rect x="44" y="58.5" width="7" height="7" fill="#3BB30B" stroke="#2D780F"/>
</svg>
