<svg width="30" height="30" viewBox="0 0 30 30" fill="none" xmlns="http://www.w3.org/2000/svg">
<path d="M29.5005 15C29.5005 23.0081 23.0086 29.5 15.0005 29.5C6.99236 29.5 0.500488 23.0081 0.500488 15C0.500488 6.99187 6.99236 0.5 15.0005 0.5C23.0086 0.5 29.5005 6.99187 29.5005 15Z" fill="white" stroke="#D8D8D8"/>
<mask id="mask0" mask-type="alpha" maskUnits="userSpaceOnUse" x="0" y="0" width="31" height="30">
<path d="M15.0005 30C23.2848 30 30.0005 23.2843 30.0005 15C30.0005 6.71573 23.2848 0 15.0005 0C6.71622 0 0.000488281 6.71573 0.000488281 15C0.000488281 23.2843 6.71622 30 15.0005 30Z" fill="white"/>
</mask>
<g mask="url(#mask0)">
<path d="M9.98797 7.03551L9.98799 7.0355C10.9722 6.34578 12.1107 5.99438 13.3781 5.99438C14.7537 5.99438 15.9594 6.39987 16.6485 6.69197C16.6687 7.16093 16.6623 7.87806 16.5238 8.67272L16.5237 8.67287C16.2015 10.5274 15.3544 11.9315 14.0154 12.8692L14.0152 12.8693C13.0311 13.5596 11.8926 13.9103 10.6258 13.9103H10.6252C9.25053 13.9103 8.04471 13.5053 7.35639 13.2133C7.33019 12.6356 7.346 11.7043 7.59044 10.6953C7.9766 9.10427 8.78485 7.87849 9.98797 7.03551Z" stroke="#BA9650" stroke-width="0.5"/>
<path d="M14.3516 21.9467L14.3516 21.9467C14.8302 21.2979 15.1562 20.6599 15.3481 20.2316C14.5475 19.294 12.6697 17.4972 10.088 17.4972C9.80759 17.4972 9.52119 17.5186 9.23696 17.5608L14.3516 21.9467ZM14.3516 21.9467C13.2345 23.4616 11.8492 24.3387 10.2325 24.5797C9.94756 24.622 9.6611 24.6434 9.38072 24.6434C6.78962 24.6434 4.9172 22.8474 4.12079 21.9125M14.3516 21.9467L4.12079 21.9125M4.12079 21.9125C4.35529 21.3844 4.7856 20.5578 5.45599 19.7638C6.51251 18.5133 7.78411 17.7776 9.23685 17.5609L4.12079 21.9125Z" stroke="#BA9650" stroke-width="0.5"/>
<path d="M19.1284 20.2771L19.1284 20.2771C20.6354 22.1692 22.8474 22.5765 24.472 22.5765C24.8596 22.5765 25.197 22.5526 25.4567 22.525C25.6482 21.9834 25.9005 21.0948 25.956 20.0666L19.1284 20.2771ZM19.1284 20.2771C18.2189 19.1352 17.7972 17.738 17.8849 16.1097L17.8849 16.1096C17.9398 15.0814 18.1905 14.1923 18.3808 13.6493M19.1284 20.2771L18.3808 13.6493M18.3808 13.6493C18.6403 13.6219 18.9758 13.5984 19.358 13.5984C20.9826 13.5984 23.1971 14.0063 24.7054 15.9009L24.7054 15.901C25.619 17.0477 26.0424 18.4444 25.956 20.0664L18.3808 13.6493Z" stroke="#BA9650" stroke-width="0.5"/>
</g>
</svg>
