<svg width="27" height="26" viewBox="0 0 27 26" fill="none" xmlns="http://www.w3.org/2000/svg">
<path d="M18.7277 23.923H2.07781V7.24579H12.9317L14.9821 5.19531H1.03891C0.464774 5.19531 0 5.66009 0 6.23422V24.9619C0 25.536 0.464774 26.0008 1.03891 26.0008H19.7392C20.3134 26.0008 20.7781 25.536 20.7781 24.9619V11.0187L18.7277 13.0691V23.923Z" fill="#3BB30B"/>
<path d="M24.9619 0H17.4981C16.924 0 16.4592 0.464774 16.4592 1.03891C16.4592 1.61304 16.924 2.07781 17.4981 2.07781H22.474L11.9482 12.6036C11.5381 13.0137 11.5381 13.6425 11.9482 14.0526C12.1396 14.244 12.413 14.3533 12.6864 14.3533C12.9598 14.3533 13.2058 14.244 13.4245 14.0526L23.9503 3.49947V8.47529C23.9503 9.04942 24.4151 9.5142 24.9892 9.5142C25.5633 9.5142 26.0281 9.04942 26.0281 8.47529V1.03891C26.0008 0.464774 25.536 0 24.9619 0Z" fill="#3BB30B"/>
</svg>
