<svg width="62" height="61" viewBox="0 0 62 61" fill="none" xmlns="http://www.w3.org/2000/svg">
<path d="M50.9999 40.9998C49.4852 41.0013 47.9907 41.3468 46.6291 42.0103C45.2675 42.6738 44.0744 43.6379 43.1399 44.8298L20.6499 33.5898C21.1194 31.8951 21.1194 30.1046 20.6499 28.4098L43.1499 17.1698C44.6916 19.1436 46.9118 20.4742 49.3793 20.9032C51.8469 21.3323 54.3858 20.8292 56.5033 19.4916C58.6209 18.1541 60.1659 16.0774 60.8385 13.6649C61.5111 11.2523 61.2633 8.67585 60.1432 6.43568C59.0231 4.19552 57.1106 2.45142 54.777 1.54195C52.4434 0.632481 49.8551 0.622512 47.5145 1.51398C45.174 2.40545 43.2481 4.13476 42.1108 6.36623C40.9735 8.5977 40.7059 11.1721 41.3599 13.5898L18.8599 24.8298C17.5762 23.1925 15.8138 21.9964 13.8182 21.408C11.8226 20.8197 9.69312 20.8684 7.72652 21.5474C5.75991 22.2264 4.05406 23.502 2.84661 25.1963C1.63916 26.8906 0.990234 28.9193 0.990234 30.9998C0.990234 33.0804 1.63916 35.1091 2.84661 36.8034C4.05406 38.4977 5.75991 39.7732 7.72652 40.4523C9.69312 41.1313 11.8226 41.18 13.8182 40.5916C15.8138 40.0033 17.5762 38.8071 18.8599 37.1698L41.3599 48.4098C40.8185 50.4288 40.9234 52.5667 41.6598 54.523C42.3963 56.4793 43.7273 58.1556 45.4657 59.3163C47.2041 60.4771 49.2626 61.0639 51.3517 60.9943C53.4409 60.9246 55.4557 60.2021 57.113 58.9282C58.7702 57.6543 59.9867 55.8931 60.5912 53.8921C61.1958 51.8911 61.1582 49.751 60.4836 47.7725C59.809 45.7941 58.5313 44.0767 56.8302 42.8619C55.1292 41.6471 53.0902 40.9959 50.9999 40.9998V40.9998ZM50.9999 4.99984C52.1866 4.99984 53.3466 5.35173 54.3333 6.01102C55.32 6.67031 56.089 7.60738 56.5431 8.70374C56.9973 9.80009 57.1161 11.0065 56.8846 12.1704C56.6531 13.3343 56.0816 14.4034 55.2425 15.2425C54.4034 16.0816 53.3343 16.653 52.1704 16.8846C51.0065 17.1161 49.8001 16.9972 48.7038 16.5431C47.6074 16.089 46.6703 15.32 46.011 14.3333C45.3518 13.3466 44.9999 12.1865 44.9999 10.9998C44.9999 9.40854 45.632 7.88242 46.7572 6.7572C47.8824 5.63198 49.4086 4.99984 50.9999 4.99984ZM10.9999 36.9998C9.81318 36.9998 8.65314 36.6479 7.66644 35.9887C6.67975 35.3294 5.91071 34.3923 5.45659 33.2959C5.00246 32.1996 4.88364 30.9932 5.11515 29.8293C5.34667 28.6654 5.91811 27.5963 6.75723 26.7572C7.59634 25.9181 8.66544 25.3466 9.82932 25.1151C10.9932 24.8836 12.1996 25.0024 13.296 25.4566C14.3923 25.9107 15.3294 26.6797 15.9887 27.6664C16.648 28.6531 16.9999 29.8131 16.9999 30.9998C16.9999 32.5911 16.3677 34.1173 15.2425 35.2425C14.1173 36.3677 12.5912 36.9998 10.9999 36.9998ZM50.9999 56.9998C49.8132 56.9998 48.6531 56.6479 47.6664 55.9887C46.6798 55.3294 45.9107 54.3923 45.4566 53.2959C45.0025 52.1996 44.8836 50.9932 45.1152 49.8293C45.3467 48.6654 45.9181 47.5963 46.7572 46.7572C47.5963 45.9181 48.6654 45.3466 49.8293 45.1151C50.9932 44.8836 52.1996 45.0024 53.296 45.4566C54.3923 45.9107 55.3294 46.6797 55.9887 47.6664C56.648 48.6531 56.9999 49.8131 56.9999 50.9998C56.9999 52.5911 56.3677 54.1173 55.2425 55.2425C54.1173 56.3677 52.5912 56.9998 50.9999 56.9998Z" fill="#3BB30B"/>
</svg>
