<svg width="14" height="14" viewBox="0 0 14 14" fill="none" xmlns="http://www.w3.org/2000/svg">
<path d="M11.1093 8.27021C11.1093 9.00971 11.1093 9.74923 11.1093 10.4887C11.1093 10.8043 11.1093 11.1198 11.1093 11.4353C11.1093 11.6179 11.1186 11.8048 11.0944 11.9861C11.1027 11.9264 11.111 11.8667 11.1192 11.807C11.0999 11.9378 11.065 12.0644 11.0143 12.1866C11.0372 12.1317 11.0602 12.0769 11.0831 12.022C11.0319 12.1408 10.9673 12.2518 10.8893 12.3549C10.9254 12.3077 10.9614 12.2604 10.9974 12.2131C10.9187 12.3145 10.829 12.4053 10.7286 12.4855C10.7762 12.4484 10.8238 12.4115 10.8713 12.3744C10.7638 12.4579 10.6475 12.5267 10.5225 12.5806C10.58 12.5566 10.6376 12.5326 10.6951 12.5086C10.5663 12.562 10.4327 12.5979 10.2945 12.6163C10.3563 12.6083 10.4182 12.6004 10.48 12.5924C10.3165 12.6119 10.1488 12.6045 9.98437 12.6045C9.68184 12.6045 9.37932 12.6045 9.07679 12.6045C8.13437 12.6045 7.19196 12.6045 6.24955 12.6045C5.30849 12.6045 4.36743 12.6045 3.42637 12.6045C3.12553 12.6045 2.8247 12.6045 2.52385 12.6045C2.35444 12.6045 2.18177 12.612 2.01353 12.5896C2.07325 12.5978 2.13295 12.6061 2.19265 12.6144C2.06178 12.5951 1.93522 12.5601 1.81303 12.5094C1.86789 12.5324 1.92274 12.5553 1.97759 12.5782C1.85883 12.527 1.74787 12.4624 1.6447 12.3845C1.69198 12.4205 1.73928 12.4565 1.78657 12.4926C1.68512 12.4138 1.59431 12.3242 1.51418 12.2237C1.55119 12.2713 1.5882 12.3189 1.62521 12.3665C1.54172 12.259 1.47291 12.1426 1.41904 12.0176C1.44306 12.0752 1.46707 12.1327 1.49109 12.1903C1.43765 12.0615 1.40177 11.9278 1.38334 11.7896C1.39131 11.8515 1.39929 11.9133 1.40726 11.9752C1.38778 11.8117 1.39517 11.6439 1.39517 11.4795C1.39517 11.177 1.39517 10.8745 1.39517 10.5719C1.39517 9.6295 1.39517 8.68709 1.39517 7.74468C1.39517 6.80361 1.39517 5.86256 1.39517 4.92149C1.39517 4.62064 1.39517 4.31982 1.39517 4.01897C1.39517 3.84956 1.38762 3.67689 1.41005 3.50865C1.40179 3.56837 1.39353 3.62807 1.38525 3.68778C1.40455 3.55691 1.43948 3.43034 1.49019 3.30816C1.46725 3.36301 1.44433 3.41787 1.42139 3.47272C1.47257 3.35396 1.53721 3.24299 1.61517 3.13983C1.57914 3.18712 1.54309 3.23442 1.50705 3.2817C1.58583 3.18025 1.67546 3.08943 1.77588 3.00932C1.7283 3.04633 1.68072 3.08334 1.63315 3.12035C1.74066 3.03687 1.85701 2.96804 1.98202 2.91417C1.92448 2.93819 1.86693 2.9622 1.80938 2.98622C1.93816 2.93278 2.07182 2.8969 2.21002 2.87848C2.14818 2.88644 2.08633 2.89442 2.02449 2.90239C2.29308 2.87039 2.57342 2.8903 2.84303 2.8903C3.33077 2.8903 3.81852 2.8903 4.30626 2.8903C4.76653 2.8903 5.2268 2.8903 5.68707 2.8903C6.06702 2.8903 6.38716 2.57955 6.38969 2.19773C6.3922 1.81969 6.0771 1.49512 5.69712 1.49512C4.95562 1.49512 4.2141 1.49512 3.47259 1.49512C3.09451 1.49512 2.71644 1.49512 2.33837 1.49512C2.14538 1.49512 1.95723 1.51029 1.76549 1.54403C1.54402 1.58299 1.3249 1.67524 1.12906 1.78248C0.936534 1.8879 0.756193 2.03235 0.606337 2.19238C0.20001 2.62638 0 3.19003 0 3.77992C0 3.99159 0 4.20325 0 4.41493C0 5.2751 0 6.13528 0 6.99546C0 7.98693 0 8.97839 0 9.96985C0 10.5512 0 11.1326 0 11.7139C0 11.868 0.0183349 12.0181 0.0388085 12.1716C0.0688138 12.3967 0.158706 12.6151 0.258749 12.8166C0.356499 13.0135 0.500016 13.1957 0.653623 13.3513C1.08075 13.7841 1.67441 13.9996 2.27569 13.9996C2.85704 13.9996 3.43841 13.9996 4.01977 13.9996C5.01123 13.9996 6.00269 13.9996 6.99416 13.9996C7.85434 13.9996 8.71451 13.9996 9.57468 13.9996C9.78635 13.9996 9.99801 13.9996 10.2097 13.9996C10.2897 13.9996 10.3691 13.9984 10.4489 13.9901C10.5873 13.9755 10.7265 13.9585 10.8613 13.9231C11.0006 13.8865 11.1358 13.8257 11.2663 13.7674C11.4678 13.6773 11.6509 13.5354 11.8126 13.388C12.1342 13.0947 12.3735 12.6649 12.4548 12.2378C12.4908 12.0487 12.5046 11.8628 12.5046 11.6722C12.5046 11.296 12.5046 10.9198 12.5046 10.5436C12.5046 9.78943 12.5046 9.03525 12.5046 8.28107C12.5046 8.28079 12.5046 8.28053 12.5046 8.28025C12.5046 7.9003 12.1938 7.58016 11.812 7.57764C11.4339 7.57513 11.1093 7.89025 11.1093 8.27021Z" fill="#3BB30B"/>
<path d="M7.75116 1.39518C8.32939 1.39571 8.90758 1.39624 9.4858 1.39678C10.4565 1.39768 11.4272 1.39856 12.3979 1.39946C12.6974 1.39974 12.997 1.4 13.2965 1.40028C13.6765 1.40062 13.9966 1.08927 13.9991 0.707713C14.0016 0.329408 13.6865 0.00544029 13.3065 0.00509932C12.7283 0.00457237 12.1501 0.00404541 11.5719 0.00350296C10.6012 0.00260404 9.63054 0.00170513 8.65985 0.000821705C8.36031 0.000542731 8.06076 0.000279255 7.76122 2.79787e-07C7.38127 -0.00034069 7.06113 0.311011 7.05861 0.692571C7.0561 1.07086 7.3712 1.39483 7.75116 1.39518Z" fill="#3BB30B"/>
<path d="M13.9948 6.24801C13.9953 5.66979 13.9959 5.09159 13.9964 4.51336C13.9973 3.54267 13.9982 2.57196 13.9991 1.60125C13.9994 1.30171 13.9996 1.00217 13.9999 0.702629C14.0003 0.32268 13.6889 0.00254117 13.3074 1.49009e-05C12.929 -0.00249587 12.6051 0.312622 12.6047 0.692586C12.6042 1.27081 12.6037 1.84901 12.6031 2.42724C12.6022 3.39793 12.6013 4.36864 12.6004 5.33935C12.6002 5.63889 12.5999 5.93843 12.5996 6.23797C12.5993 6.61792 12.9106 6.93806 13.2922 6.94059C13.6705 6.9431 13.9945 6.62798 13.9948 6.24801Z" fill="#3BB30B"/>
<path d="M5.95643 9.02283C6.19504 8.78444 6.43362 8.54606 6.67222 8.30769C7.25258 7.72787 7.83294 7.14804 8.41331 6.5682C9.1323 5.84986 9.8513 5.13153 10.5703 4.4132C11.2248 3.7593 11.8793 3.1054 12.5338 2.45149C12.9207 2.06497 13.3076 1.67845 13.6944 1.29193C13.7291 1.25731 13.7637 1.2227 13.7984 1.18808C14.0669 0.919797 14.0623 0.467471 13.7931 0.201608C13.5217 -0.0664098 13.0757 -0.0618997 12.8066 0.206893C12.568 0.445261 12.3294 0.683645 12.0908 0.922014C11.5105 1.50185 10.9301 2.08167 10.3498 2.6615C9.63075 3.37984 8.91177 4.09817 8.19276 4.8165C7.53827 5.4704 6.88376 6.12431 6.22926 6.77821C5.84238 7.16473 5.4555 7.55125 5.06861 7.93778C5.03396 7.97239 4.99932 8.00702 4.96466 8.04162C4.69613 8.3099 4.70071 8.76223 4.96995 9.02809C5.24139 9.29613 5.68739 9.29162 5.95643 9.02283Z" fill="#3BB30B"/>
</svg>
