<svg width="100" height="100" viewBox="0 0 100 100" fill="none" xmlns="http://www.w3.org/2000/svg">
<rect width="100" height="100" fill="white"/>
<path d="M46.9836 70.5072C46.5666 70.1826 46.0424 69.9145 45.411 69.7031C44.7796 69.4976 44.047 69.3159 43.2131 69.161C42.5728 69.0389 42.0248 68.893 41.5661 68.7351C41.1074 68.5713 40.756 68.3569 40.5118 68.0859C40.2676 67.8149 40.1455 67.4724 40.1455 67.0524C40.1455 66.7069 40.2497 66.4002 40.4582 66.1351C40.6637 65.8701 40.9764 65.6616 41.3874 65.5097C41.7984 65.3578 42.3017 65.2804 42.8974 65.2804C43.2607 65.2804 43.6479 65.3429 44.0678 65.4591C44.4848 65.5752 44.8779 65.7241 45.2532 65.8939C45.6284 66.0696 45.9293 66.2543 46.1526 66.4478C46.3194 66.5759 46.5041 66.6355 46.7125 66.6355C47.0312 66.6355 47.3082 66.5104 47.5465 66.2602C47.7817 66.01 47.9009 65.7301 47.9009 65.4263C47.9009 65.0093 47.6983 64.643 47.2963 64.3243C46.8078 63.9044 46.1794 63.5619 45.4081 63.2879C44.6367 63.0199 43.7998 62.8799 42.8944 62.8799C41.9384 62.8799 41.0628 63.0496 40.2676 63.3832C39.4754 63.7168 38.844 64.2022 38.3794 64.8396C37.9148 65.4799 37.6825 66.2543 37.6825 67.1537C37.6825 67.7523 37.7807 68.2914 37.9773 68.7709C38.1709 69.2474 38.4598 69.6673 38.841 70.0217C39.2252 70.3762 39.6987 70.668 40.2676 70.8974C40.8364 71.1267 41.4976 71.2964 42.2481 71.4066C43.0403 71.5168 43.6926 71.6747 44.2078 71.8772C44.7231 72.0768 45.1043 72.3239 45.3545 72.6158C45.6046 72.9077 45.7297 73.2621 45.7297 73.6791C45.7297 74.0245 45.5987 74.3373 45.3336 74.6053C45.0685 74.8793 44.7231 75.0937 44.2912 75.2546C43.8564 75.4154 43.3858 75.4958 42.8706 75.4958C42.1052 75.4958 41.4619 75.3826 40.9436 75.1593C40.4225 74.9389 39.8953 74.6113 39.3711 74.1824C39.1626 74.0126 38.9274 73.9322 38.6623 73.9322C38.3168 73.9322 38.0279 74.0543 37.7986 74.2956C37.5693 74.5398 37.4531 74.8227 37.4531 75.1414C37.4531 75.332 37.5038 75.5315 37.602 75.7221C37.6973 75.9157 37.8373 76.0914 38.019 76.2463C38.7278 76.8569 39.4694 77.2828 40.2497 77.527C41.03 77.7712 41.9056 77.8933 42.8765 77.8933C43.8206 77.8933 44.6992 77.7176 45.5153 77.3691C46.3254 77.0236 46.9836 76.5233 47.4839 75.8681C47.9843 75.2158 48.2344 74.4385 48.2344 73.5361C48.2344 72.8273 48.1302 72.2257 47.9247 71.7343C47.7162 71.2458 47.4035 70.8378 46.9836 70.5072Z" fill="#3BB30B"/>
<path d="M60.2196 63.0986H50.9631C50.6028 63.0986 50.299 63.2088 50.0548 63.4233C49.8135 63.6377 49.6914 63.9266 49.6914 64.287C49.6914 64.6503 49.8135 64.9422 50.0548 65.1626C50.299 65.383 50.6028 65.4932 50.9631 65.4932H54.2362V76.4204C54.2362 76.7808 54.3613 77.0845 54.6115 77.3258C54.8617 77.57 55.1803 77.6921 55.5705 77.6921C55.9755 77.6921 56.3031 77.57 56.5623 77.3258C56.8184 77.0845 56.9464 76.7808 56.9464 76.4204V65.4932H60.2225C60.5829 65.4932 60.8867 65.3889 61.1279 65.1745C61.3721 64.96 61.4943 64.6682 61.4943 64.3078C61.4943 63.9474 61.3721 63.6556 61.1279 63.4322C60.8807 63.2088 60.5799 63.0986 60.2196 63.0986Z" fill="#3BB30B"/>
<path d="M71.7348 75.2559H66.2935V64.3733C66.2935 64.013 66.1654 63.7092 65.9093 63.465C65.6502 63.2207 65.3553 63.0986 65.0218 63.0986C64.6316 63.0986 64.3129 63.2207 64.0628 63.465C63.8126 63.7092 63.6875 64.013 63.6875 64.3733V76.4234C63.6875 76.7837 63.8096 77.0875 64.0538 77.3288C64.2951 77.573 64.5989 77.6951 64.9622 77.6951H71.7348C72.0951 77.6951 72.3989 77.5789 72.6431 77.3526C72.8873 77.1233 73.0065 76.8344 73.0065 76.4859C73.0065 76.1255 72.8873 75.8277 72.6431 75.6014C72.3989 75.3691 72.0951 75.2559 71.7348 75.2559Z" fill="#3BB30B"/>
<path d="M81.9433 54.6522H80.5435V26.597C80.5435 25.4116 80.2844 24.2888 79.8615 23.2434C79.8317 22.9337 79.7245 22.6448 79.5338 22.4185C79.4177 22.1832 79.2628 21.9598 79.1228 21.7335C79.0305 21.5816 78.9531 21.4237 78.8488 21.2778C78.548 20.8489 78.2175 20.4409 77.8452 20.0656L67.4808 9.70128C66.6856 8.90609 65.7445 8.26576 64.8004 7.86072C64.7974 7.85774 64.7915 7.85774 64.7885 7.85774C64.7766 7.85178 64.7647 7.84285 64.7527 7.83987C64.7408 7.83391 64.7259 7.83987 64.714 7.83391C63.5287 7.28293 62.2659 7 60.9465 7H23.1226C20.2962 7 18 9.29624 18 12.1226V88.247C18 91.0704 20.2962 93.3696 23.1226 93.3696H75.4209C78.2443 93.3696 80.5435 91.0733 80.5435 88.247V87.413H81.9433C84.4569 87.413 86.5 85.367 86.5 82.8563V59.2089C86.5 56.6982 84.4539 54.6522 81.9433 54.6522ZM75.4596 21.8913H67.1413C66.3223 21.8913 65.6522 21.2212 65.6522 20.4022V12.0839L75.4596 21.8913ZM77.5652 88.247C77.5652 89.4264 76.6032 90.3913 75.4209 90.3913H23.1226C21.9432 90.3913 20.9783 89.4293 20.9783 88.247V12.1226C20.9783 10.9432 21.9402 9.97826 23.1226 9.97826H60.9465C61.5452 9.97826 62.111 10.0914 62.6739 10.2612V20.4022C62.6739 22.8652 64.6783 24.8696 67.1413 24.8696H77.2853C77.452 25.4235 77.5652 25.9924 77.5652 26.597V54.6522H53.5307C53.1018 54.6522 52.7057 54.4884 52.4108 54.1965L51.2195 53.0052C50.3588 52.1445 49.2122 51.6739 47.9911 51.6739H28.5133C25.9996 51.6739 23.9565 53.72 23.9565 56.2307V82.8533C23.9565 85.367 26.0026 87.4101 28.5133 87.4101H77.5652V88.247ZM83.5217 82.8563C83.5217 83.726 82.8129 84.4348 81.9433 84.4348H79.0543H28.5133C27.6436 84.4348 26.9348 83.726 26.9348 82.8563V56.2307C26.9348 55.361 27.6436 54.6522 28.5133 54.6522H47.9911C48.42 54.6522 48.8161 54.816 49.1109 55.1078L50.3022 56.2992C51.16 57.1569 52.3066 57.6275 53.5277 57.6275H79.0543H81.9433C82.8129 57.6275 83.5217 58.3363 83.5217 59.2059V82.8563Z" fill="#353535"/>
<path d="M24.5947 39.4419L30.1492 41.5922C30.3278 41.6577 30.5065 41.6904 30.6882 41.6904C31.2839 41.6904 31.8497 41.3301 32.0791 40.7404L34.2294 35.1859C34.5272 34.4175 34.143 33.5568 33.3776 33.259L31.9897 32.7229L32.5288 31.335C34.003 27.5199 37.5442 25.0271 41.4695 24.7292L41.3057 25.1492C41.1628 25.5185 41.1717 25.9295 41.3325 26.2899C41.4904 26.6502 41.7852 26.9332 42.1545 27.0761L47.709 29.2294C47.8877 29.2979 48.0664 29.3307 48.248 29.3307C48.8437 29.3307 49.4096 28.9703 49.6359 28.3806L49.7789 28.0113C50.58 28.8631 51.2948 29.7982 51.7803 30.8764C52.8971 33.4496 52.9626 36.2849 51.9679 38.8641L51.4288 40.2519L50.041 39.7159C49.2755 39.4151 48.4089 39.7933 48.117 40.5647L45.9637 46.1191C45.8208 46.4884 45.8297 46.8994 45.9905 47.2598C46.1513 47.6202 46.4462 47.9031 46.8125 48.049L52.367 50.1993C52.5457 50.2649 52.7244 50.2976 52.906 50.2976C53.5017 50.2976 54.0676 49.9372 54.2969 49.3476L56.4472 43.7931C56.745 43.0247 56.3638 42.164 55.5954 41.8691L54.2046 41.3301L54.7406 39.9422C56.0273 36.6304 55.9439 32.988 54.5024 29.6732C54.3058 29.2354 54.0705 28.8214 53.8293 28.4104L58.7613 30.3194C58.7136 32.157 59.7888 33.9112 61.5966 34.6081C62.1148 34.8077 62.6539 34.9119 63.2078 34.9119C65.0365 34.9119 66.7133 33.7653 67.3774 32.0587C67.8093 30.9449 67.7795 29.7297 67.297 28.6397C66.8145 27.5497 65.933 26.6949 64.8221 26.269C63.0768 25.5929 61.0665 26.1856 59.8543 27.5348L51.2471 24.2051L51.7832 22.8172C51.9262 22.4479 51.9173 22.0369 51.7564 21.6765C51.5956 21.3162 51.3008 21.0332 50.9344 20.8873L45.38 18.737C44.6146 18.4481 43.7479 18.8204 43.456 19.5888L42.9199 20.9737L34.3277 17.6559C34.3753 15.8183 33.3002 14.0641 31.4923 13.3672C29.2557 12.5035 26.5752 13.6978 25.7145 15.9196C25.2797 17.0334 25.3095 18.2456 25.792 19.3386C26.2744 20.4316 27.156 21.2685 28.2669 21.6974C28.7851 21.8969 29.3272 21.9982 29.8781 21.9982C31.1915 21.9982 32.4067 21.3936 33.2406 20.4316L38.1875 22.3466C34.417 23.5439 31.2452 26.3673 29.7441 30.2539L29.211 31.6418L27.8202 31.1057C27.0547 30.8138 26.191 31.1891 25.8902 31.9575L23.7399 37.5119C23.4451 38.2803 23.8293 39.1411 24.5947 39.4419ZM52.0543 46.8756L49.2755 45.7975L50.3537 43.0187L51.7326 43.5548C51.7356 43.5548 51.7356 43.5578 51.7386 43.5578C51.7415 43.5578 51.7415 43.5578 51.7445 43.5578L53.1294 44.0939L52.0543 46.8756ZM63.2108 28.9435C63.3955 28.9435 63.5742 28.9762 63.7469 29.0447C64.5153 29.3396 64.8965 30.2063 64.6017 30.9687C64.3128 31.7133 63.4193 32.1153 62.6747 31.8235C61.9123 31.5286 61.5311 30.6649 61.823 29.8995C61.823 29.8965 61.8259 29.8965 61.8259 29.8936C61.8259 29.8936 61.8259 29.8906 61.8259 29.8876C62.0463 29.3247 62.6003 28.9435 63.2108 28.9435ZM45.6927 22.0577L48.4744 23.1329L47.9413 24.5059C47.9383 24.5118 47.9353 24.5148 47.9323 24.5208C47.9294 24.5267 47.9323 24.5327 47.9294 24.5357L47.3963 25.9116L44.6146 24.8365L45.1506 23.4516C45.1506 23.4486 45.1536 23.4486 45.1566 23.4456C45.1566 23.4426 45.1566 23.4397 45.1596 23.4337L45.6927 22.0577ZM29.345 18.9187C28.9727 18.7757 28.6779 18.4957 28.5171 18.1324C28.3562 17.7691 28.3473 17.364 28.4903 16.9947C28.7077 16.4229 29.2706 16.0417 29.8811 16.0417C30.0658 16.0417 30.2445 16.0744 30.4172 16.1399C31.1796 16.4348 31.5608 17.2985 31.269 18.0609C31.269 18.0639 31.266 18.0639 31.266 18.0669C31.266 18.0699 31.266 18.0699 31.266 18.0728C30.9741 18.8114 30.0836 19.2195 29.345 18.9187ZM28.1329 34.4205L30.9116 35.4957L29.8364 38.2744L27.0577 37.1992L28.1329 34.4205Z" fill="#B30B47"/>
</svg>
