<svg width="137" height="137" viewBox="0 0 137 137" fill="none" xmlns="http://www.w3.org/2000/svg">
<path d="M68.5 0C30.7168 0 0 30.7168 0 68.5C0 106.283 30.7168 137 68.5 137C106.283 137 137 106.283 137 68.5C137 30.7168 106.283 0 68.5 0ZM93.7368 83.0653C96.6211 85.9495 96.6211 90.8526 93.7368 93.7368C92.2947 95.1789 90.2758 95.9 88.4011 95.9C86.5263 95.9 84.5074 95.1789 83.0653 93.7368L68.5 79.1716L53.9347 93.7368C52.4926 95.1789 50.4737 95.9 48.5989 95.9C46.7242 95.9 44.7053 95.1789 43.2632 93.7368C40.3789 90.8526 40.3789 85.9495 43.2632 83.0653L57.8284 68.5L43.2632 53.9347C40.3789 51.0505 40.3789 46.1474 43.2632 43.2632C46.1474 40.3789 51.0505 40.3789 53.9347 43.2632L68.5 57.8284L83.0653 43.2632C85.9495 40.3789 90.8526 40.3789 93.7368 43.2632C96.6211 46.1474 96.6211 51.0505 93.7368 53.9347L79.1716 68.5L93.7368 83.0653Z" fill="#6B6B6B"/>
</svg>
