<svg width="100" height="100" viewBox="0 0 100 100" fill="none" xmlns="http://www.w3.org/2000/svg">
<rect width="100" height="100" fill="white"/>
<path d="M54.4218 67.55H45.475C45.0937 67.55 44.7781 67.6657 44.5218 67.8907C44.2656 68.1157 44.1375 68.4188 44.1375 68.7969C44.1375 69.1782 44.2656 69.4844 44.5218 69.7157C44.7781 69.9469 45.0937 70.0625 45.475 70.0625H51.8062L43.5062 80.7375C43.3031 81.0188 43.2 81.2938 43.2 81.5719C43.2 81.8938 43.3374 82.1875 43.6156 82.4594C43.8937 82.7282 44.2218 82.8625 44.6 82.8625H54.2031C54.5812 82.8625 54.9 82.7407 55.1531 82.5032C55.4093 82.2625 55.5375 81.9594 55.5375 81.5938C55.5375 81.2157 55.4093 80.9126 55.1531 80.6876C54.8968 80.4626 54.5812 80.35 54.2031 80.35H47.225L55.5343 69.675C55.7374 69.3969 55.8406 69.1188 55.8406 68.8438C55.8406 68.4469 55.6843 68.1344 55.3718 67.9C55.0593 67.6657 54.7437 67.55 54.4218 67.55Z" fill="#3BB30B"/>
<path d="M59.65 67.55C59.2406 67.55 58.9063 67.6782 58.6438 67.9344C58.3813 68.1907 58.25 68.5094 58.25 68.8875V81.5313C58.25 81.9094 58.375 82.2282 58.6219 82.4813C58.8688 82.7375 59.1969 82.8657 59.6063 82.8657C59.9719 82.8657 60.2906 82.7375 60.5688 82.4813C60.8438 82.2282 60.9844 81.9094 60.9844 81.5313V68.8875C60.9844 68.5094 60.85 68.1907 60.5813 67.9344C60.3125 67.6782 60 67.55 59.65 67.55Z" fill="#3BB30B"/>
<path d="M72.7218 68.2094C72.0593 67.7688 71.3468 67.55 70.5875 67.55H65.6C65.2187 67.55 64.9031 67.6782 64.6468 67.9344C64.3906 68.1907 64.2625 68.5094 64.2625 68.8875V81.5313C64.2625 81.9094 64.3812 82.2282 64.6125 82.4813C64.8437 82.7375 65.1437 82.8657 65.5093 82.8657C65.8906 82.8657 66.1937 82.7375 66.4281 82.4813C66.6625 82.2282 66.7781 81.9094 66.7781 81.5313V77.3969H70.5843C71.3437 77.3969 72.0531 77.175 72.7187 76.7313C73.3812 76.2844 73.9187 75.6907 74.3281 74.9469C74.7343 74.2063 74.9406 73.3813 74.9406 72.475C74.9406 71.5563 74.7375 70.725 74.3281 69.9813C73.9187 69.2344 73.3843 68.6469 72.7218 68.2094ZM72.0531 73.6407C71.8781 74.0125 71.6593 74.3188 71.3968 74.55C71.1343 74.7813 70.8656 74.9 70.5875 74.9H66.7812V70.0625H70.5875C70.8656 70.0625 71.1343 70.1782 71.3968 70.4032C71.6593 70.6282 71.8781 70.9219 72.0531 71.2875C72.2281 71.6532 72.3156 72.0438 72.3156 72.4688C72.3156 72.8813 72.2281 73.2719 72.0531 73.6407Z" fill="#3BB30B"/>
<path d="M87.1562 58.6876H85.6875V29.2501C85.6875 28.0126 85.4187 26.8345 84.975 25.7439C84.9469 25.4126 84.8312 25.1064 84.6281 24.8689C84.5031 24.6157 84.3375 24.3782 84.1875 24.1345C84.0938 23.9814 84.0156 23.8251 83.9125 23.6751C83.6125 23.247 83.2781 22.8407 82.9094 22.4657C82.8875 22.4439 82.875 22.4189 82.8531 22.397L71.9781 11.522C71.1438 10.6876 70.1562 10.0157 69.1656 9.59073C69.1562 9.58761 69.1437 9.58448 69.1344 9.58136C69.1281 9.57823 69.1219 9.57198 69.1156 9.57198C69.1094 9.56886 69.1 9.57198 69.0938 9.56886C67.8469 8.99386 66.5125 8.69386 65.125 8.69386H25.4375C22.4719 8.68761 20.0625 11.097 20.0625 14.0626V93.9376C20.0625 96.9001 22.4719 99.3126 25.4375 99.3126H80.3125C83.275 99.3126 85.6875 96.9032 85.6875 93.9376V93.0626H87.1562C89.7937 93.0626 91.9375 90.9157 91.9375 88.2814V63.4689C91.9375 60.8345 89.7906 58.6876 87.1562 58.6876ZM80.35 24.3126H71.625C70.7625 24.3126 70.0625 23.6095 70.0625 22.7501V14.022L80.35 24.3126ZM82.5625 93.9376C82.5625 95.1751 81.5531 96.1876 80.3125 96.1876H25.4375C24.1969 96.1876 23.1875 95.1782 23.1875 93.9376V14.0626C23.1875 12.8251 24.1969 11.8126 25.4375 11.8126H65.125C65.7531 11.8126 66.3469 11.9314 66.9375 12.1064V22.7501C66.9375 25.3345 69.0406 27.4376 71.625 27.4376H82.2688C82.4438 28.0189 82.5625 28.6157 82.5625 29.2501V58.6876H57.3438C56.8938 58.6876 56.4781 58.5157 56.1688 58.2095L54.9156 56.9564C54.0156 56.0564 52.8125 55.5626 51.5312 55.5626H31.0937C28.4562 55.5626 26.3125 57.7095 26.3125 60.3439V88.2782C26.3125 90.9157 28.4594 93.0595 31.0937 93.0595H82.5625V93.9376ZM88.8125 88.2814C88.8125 89.1939 88.0687 89.9376 87.1562 89.9376H84.125H31.0937C30.1812 89.9376 29.4375 89.1939 29.4375 88.2814V60.3439C29.4375 59.4314 30.1812 58.6876 31.0937 58.6876H51.5312C51.9812 58.6876 52.3969 58.8595 52.7063 59.1657L53.9594 60.4189C54.8594 61.3157 56.0625 61.8095 57.3438 61.8095H84.125H87.1562C88.0687 61.8095 88.8125 62.5532 88.8125 63.4657V88.2814Z" fill="black"/>
<path d="M37.25 43.0625H38.0312V39.9375H43.5V36.8125H38.0312V33.6875H43.5V30.5625H38.0312V27.4375H43.5V24.3125H38.0312V21.1875H43.5V18.0625H38.0312V14.9375H37.25H36.4688H31V18.0625H36.4688V21.1875H31V24.3125H36.4688V27.4375H31V30.5625H36.4688V33.6875H31V36.8125H36.4688V39.9375H31V43.0625H36.4688H37.25Z" fill="#0B3AB3"/>
<path d="M43.5 44.625H31V50.875H43.5V44.625Z" fill="#0B3AB3"/>
</svg>
