<svg width="30" height="30" viewBox="0 0 30 30" fill="none" xmlns="http://www.w3.org/2000/svg">
<circle cx="15.0005" cy="15.0001" r="14.5" fill="white" stroke="#D8D8D8"/>
<path d="M15.2622 19.5778V15.8928C16.8284 15.7606 18.2881 15.0457 19.3526 13.8893C20.4171 12.7329 21.009 11.2192 21.0114 9.64746V9.12482H20.4887C19.2143 9.12697 17.9708 9.51701 16.9235 10.2431C15.8762 10.9691 15.0747 11.9968 14.6256 13.1894C14.2511 12.5864 13.7292 12.0887 13.109 11.7433C12.4888 11.3979 11.7909 11.2162 11.081 11.2154H10.5584V11.7381C10.56 12.7556 10.9324 13.7378 11.6058 14.5007C12.2792 15.2636 13.2074 15.755 14.2169 15.8829V19.5778H4.28662V20.6231H14.0003L10.9729 23.6508L11.7119 24.3898L14.2169 21.8846V24.5879L13.0634 25.7413L13.8025 26.4804L14.7396 25.5433L15.6767 26.4804L16.4157 25.7414L15.2622 24.5879V21.6946L17.9576 24.3898L18.6967 23.6508L15.6689 20.6231H25.7152V19.5778H15.2622ZM19.937 10.199C19.8091 11.3873 19.2786 12.4961 18.4335 13.3413C17.5884 14.1865 16.4797 14.7171 15.2913 14.8451C15.4192 13.6568 15.9497 12.5479 16.7948 11.7027C17.6399 10.8576 18.7486 10.3269 19.937 10.199ZM11.6568 12.3135C12.2784 12.4308 12.8502 12.7329 13.2975 13.1803C13.7447 13.6276 14.0467 14.1995 14.1639 14.8211C13.5422 14.7038 12.9704 14.4018 12.5232 13.9544C12.0759 13.507 11.774 12.9352 11.6568 12.3135Z" fill="#3BB30B"/>
<path d="M14.9931 12.716V9.74417C16.2562 9.63761 17.4333 9.06106 18.2918 8.12848C19.1503 7.19591 19.6276 5.97519 19.6295 4.70764V4.28615H19.208C18.1803 4.28789 17.1775 4.60243 16.3328 5.18796C15.4882 5.77348 14.8419 6.60225 14.4797 7.56405C14.1777 7.07772 13.7568 6.67636 13.2566 6.39783C12.7565 6.1193 12.1937 5.97278 11.6212 5.97211H11.1997V6.3936C11.201 7.21423 11.5013 8.00626 12.0444 8.6215C12.5874 9.23674 13.336 9.63304 14.1501 9.73625V12.716L14.1501 13.5589L14.1501 14.5763V16.7563H14.9931V14.4231V13.5589V12.716ZM18.7631 5.15239C18.66 6.11073 18.2321 7.00496 17.5506 7.68655C16.8691 8.36815 15.9749 8.79609 15.0166 8.89929C15.1197 7.94095 15.5475 7.04672 16.229 6.36512C16.9106 5.68353 17.8047 5.25559 18.7631 5.15239ZM12.0855 6.85769C12.5868 6.9523 13.0479 7.1959 13.4086 7.55667C13.7693 7.91744 14.0128 8.37861 14.1073 8.87994C13.606 8.78534 13.1449 8.54174 12.7842 8.18097C12.4235 7.82019 12.18 7.35902 12.0855 6.85769Z" fill="#3BB30B"/>
<path d="M22.3768 21.3147H19.0049V22.1576H22.3768V21.3147Z" fill="#3BB30B"/>
<path d="M23.2202 23.0004H21.1128V23.8434H23.2202V23.0004Z" fill="#3BB30B"/>
<path d="M10.5751 21.3147H8.88916V22.1576H10.5751V21.3147Z" fill="#3BB30B"/>
<path d="M10.9973 23.0004H8.04688V23.8434H10.9973V23.0004Z" fill="#3BB30B"/>
</svg>
