<svg width="50" height="50" viewBox="0 0 50 50" fill="none" xmlns="http://www.w3.org/2000/svg">
<path d="M35.3773 16.8239L27.2012 25L35.3773 33.1761L33.176 35.3774L24.9999 27.2013L16.8238 35.3774L14.6226 33.1761L22.7987 25L14.6226 16.8239L16.8238 14.6227L24.9999 22.7987L33.176 14.6227L35.3773 16.8239Z" fill="#737373"/>
<path d="M25 0C38.8365 0 50 11.1635 50 25C50 38.8365 38.8365 50 25 50C11.1635 50 0 38.8365 0 25C0 11.1635 11.1635 0 25 0ZM25 3.14465C12.8931 3.14465 3.14465 12.8931 3.14465 25C3.14465 37.1069 12.8931 46.8553 25 46.8553C37.1069 46.8553 46.8553 37.1069 46.8553 25C46.8553 12.8931 37.1069 3.14465 25 3.14465Z" fill="#737373"/>
</svg>
