<svg width="101" height="149" viewBox="0 0 101 149" fill="none" xmlns="http://www.w3.org/2000/svg">
<path fill-rule="evenodd" clip-rule="evenodd" d="M83.2656 118.283L86.5877 116.345L86.7722 116.253L86.9876 116.191L87.1721 116.13L87.3875 116.099L87.603 116.068L87.8184 116.038L88.0643 116.068L88.2798 116.099L88.5257 116.13L88.7717 116.191L89.0486 116.253L89.2945 116.376L89.5409 116.468L89.7869 116.591L90.0328 116.714L90.3097 116.868L90.5252 117.052L90.8021 117.206L91.0171 117.391L91.2635 117.606L91.5094 117.822L91.7249 118.006L91.9708 118.252L92.1862 118.498L92.4012 118.744L92.6166 118.99L92.8321 119.267L93.0475 119.544L93.232 119.821L93.4164 120.098L93.6009 120.405L93.7548 120.713L93.9393 121.021L94.0932 121.328L94.2472 121.636L94.3702 121.944L94.5236 122.282L94.6161 122.589L94.7391 122.928L94.8315 123.266L94.893 123.605L94.985 123.912L95.047 124.25L95.0775 124.558L95.139 124.896L95.17 125.173V125.481V125.758L95.139 126.034L95.1085 126.311L95.0775 126.557L95.016 126.834L94.9545 127.05L94.893 127.296L94.8006 127.511L94.7086 127.696L94.6161 127.88L94.4931 128.064L94.3392 128.218L94.2162 128.372L94.0932 128.526L93.9088 128.649L93.7548 128.772L90.4022 130.71L90.5867 130.587L90.7402 130.464L90.8941 130.31L91.0171 130.156L91.14 130.002L91.2635 129.818L91.3555 129.633L91.4479 129.449L91.5399 129.203L91.6014 128.987L91.6634 128.741L91.7249 128.495L91.7554 128.249L91.7863 127.972L91.8169 127.696V127.419V127.111L91.7863 126.803L91.7554 126.496L91.6939 126.188L91.6324 125.85L91.5709 125.512L91.4785 125.173L91.3865 124.866L91.294 124.527L91.171 124.219L91.0171 123.881L90.8941 123.574L90.7711 123.266L90.5867 122.958L90.4327 122.62L90.2483 122.343L90.0638 122.036L89.8789 121.759L89.6944 121.482L89.4795 121.174L89.2945 120.928L89.0486 120.682L88.8641 120.436L88.6177 120.19L88.4027 119.944L88.1563 119.729L87.9104 119.544L87.695 119.329L87.449 119.144L87.2031 118.96L86.9571 118.806L86.6802 118.652L86.4648 118.529L86.1878 118.406L85.9419 118.283L85.696 118.191L85.419 118.129L85.2036 118.068L84.9577 118.006H84.7112H84.4963H84.2499H84.0349L83.8195 118.068L83.635 118.129L83.4501 118.191L83.2656 118.283Z" fill="#FAC13C"/>
<path fill-rule="evenodd" clip-rule="evenodd" d="M91.637 125.855C92.3444 129.392 90.7448 131.668 88.0379 130.961C85.3311 130.253 82.5628 126.777 81.8246 123.24C81.0863 119.702 82.6857 117.426 85.3926 118.134C88.161 118.841 90.9295 122.317 91.637 125.855Z" fill="#F5BE3D"/>
<path fill-rule="evenodd" clip-rule="evenodd" d="M90.9587 125.887C91.6047 129.117 90.1589 131.178 87.6981 130.532C85.2373 129.886 82.7153 126.718 82.0386 123.519C81.3926 120.289 82.8384 118.228 85.2992 118.874C87.76 119.52 90.282 122.658 90.9587 125.887Z" fill="#D19917"/>
<path fill-rule="evenodd" clip-rule="evenodd" d="M95.0827 126.679L91.7301 128.617L91.7606 128.494V128.371L91.7916 128.217L91.8221 128.094V127.94V127.787V127.663V127.51V127.356V127.202V127.017V126.894L91.7916 126.74L91.7606 126.587V126.402L91.7301 126.249L91.6991 126.095L91.6686 125.941L91.6376 125.787L91.6066 125.633L91.5761 125.449L91.5146 125.295L91.4837 125.141L91.4531 124.987L91.3917 124.833L91.3302 124.649L91.2687 124.495L91.2072 124.341L91.1452 124.188L91.0838 124.003L91.0223 123.849L90.9608 123.726L90.8993 123.542L90.8378 123.388L90.7454 123.234L90.7148 123.172L94.0675 121.234L94.0984 121.296L94.1599 121.481L94.2214 121.634L94.3139 121.788L94.3754 121.942L94.4369 122.096L94.4983 122.25L94.5598 122.404L94.6213 122.557L94.6828 122.742L94.7443 122.895L94.7753 123.049L94.8367 123.203L94.8673 123.357L94.8982 123.542L94.9597 123.695L94.9902 123.849L95.0212 124.003L95.0522 124.157L95.0827 124.341V124.464L95.1137 124.649L95.1442 124.803V124.956L95.1752 125.11V125.264V125.418V125.572V125.726V125.879V126.002L95.1442 126.156V126.279L95.1137 126.433L95.0827 126.556V126.679Z" fill="#E6B543"/>
<path fill-rule="evenodd" clip-rule="evenodd" d="M84.7676 118.005H84.8291H84.952L85.075 118.036H85.1675L85.2904 118.098L85.4134 118.128L85.5364 118.159L85.6598 118.19L85.8133 118.251L85.9058 118.282L86.0597 118.344L86.1827 118.405L86.3057 118.467L86.4286 118.528L86.5516 118.59L86.7056 118.651L86.8285 118.744L86.9515 118.836L87.1055 118.898L87.2284 118.99L87.3514 119.113L87.4744 119.205L87.5973 119.267L87.6588 119.328L91.0119 117.421L90.9504 117.329L90.8275 117.267L90.704 117.175L90.5505 117.083L90.4276 116.99L90.3046 116.898L90.1812 116.806L90.0277 116.744L89.9047 116.652L89.7813 116.621L89.6583 116.529L89.5353 116.467L89.3814 116.406L89.2584 116.375L89.1354 116.314L89.0125 116.252L88.8895 116.221L88.7665 116.19L88.6435 116.16L88.5201 116.129L88.3971 116.098L88.3051 116.067H88.1822H88.1202L84.7676 118.005Z" fill="#FFDC6A"/>
<path fill-rule="evenodd" clip-rule="evenodd" d="M49.5625 98.817L52.9156 96.879L53.1001 96.8175L53.2845 96.756L53.4999 96.6945L53.6844 96.633H53.8998L54.1153 96.6021L54.3612 96.633L54.6072 96.6635L54.8536 96.6945L55.0685 96.756L55.3455 96.8175L55.5914 96.9095L55.8378 97.0329L56.1143 97.1249L56.3607 97.2789L56.6066 97.4323L56.8526 97.5863L57.099 97.7708L57.3449 97.9557L57.5909 98.1401L57.8063 98.3556L58.0522 98.5705L58.2677 98.786L58.5136 99.0319L58.7291 99.3088L58.9445 99.5548L59.129 99.8012L59.3444 100.078L59.5598 100.386L59.7133 100.662L59.8978 100.939L60.0827 101.247L60.2362 101.554L60.3901 101.862L60.5441 102.17L60.6975 102.508L60.8205 102.815L60.944 103.154L61.036 103.462L61.1284 103.8L61.2204 104.138L61.3129 104.476L61.3744 104.784L61.4053 105.122L61.4358 105.43L61.4668 105.738V106.015V106.322V106.599L61.4358 106.876L61.3744 107.122L61.3439 107.368L61.2824 107.614L61.1899 107.83L61.0974 108.045L61.0054 108.26L60.913 108.444L60.79 108.629L60.667 108.783L60.5131 108.937L60.3901 109.091L60.2362 109.214L60.0827 109.306L56.7296 111.244L56.8835 111.152L57.0375 110.998L57.191 110.875L57.3139 110.721L57.4679 110.536L57.5604 110.352L57.6524 110.198L57.7753 109.983L57.8368 109.767L57.9293 109.552L57.9908 109.306L58.0522 109.029L58.0832 108.783L58.1137 108.506L58.1447 108.26V107.953L58.1137 107.676V107.368L58.0832 107.06L58.0217 106.722L57.9603 106.414L57.8678 106.076L57.8063 105.738L57.6833 105.399L57.5909 105.092L57.4679 104.753L57.3449 104.446L57.191 104.108L57.0375 103.8L56.9141 103.492L56.7296 103.185L56.5761 102.877L56.3912 102.6L56.2067 102.293L55.9913 102.016L55.8068 101.739L55.5914 101.462L55.3764 101.247L55.161 100.97L54.9456 100.724L54.6996 100.509L54.4842 100.293L54.2382 100.078L53.9918 99.8627L53.7459 99.6782L53.4999 99.5243L53.254 99.3703L53.0076 99.2168L52.7616 99.0629L52.5157 98.9399L52.2388 98.8475L51.9928 98.7555L51.7464 98.6935L51.5005 98.632L51.2545 98.5705L51.0086 98.54H50.7932H50.5777L50.3623 98.5705L50.1469 98.6015L49.9319 98.663L49.7474 98.7245L49.5625 98.817Z" fill="#FAC13C"/>
<path fill-rule="evenodd" clip-rule="evenodd" d="M57.9492 106.404C58.6567 109.942 57.0875 112.218 54.3807 111.511C51.6738 110.803 48.8748 107.327 48.1673 103.79C47.4598 100.252 49.0595 97.9761 51.7664 98.6835C54.4425 99.391 57.211 102.836 57.9492 106.404Z" fill="#F5BE3D"/>
<path fill-rule="evenodd" clip-rule="evenodd" d="M57.2837 106.407C57.9297 109.606 56.4841 111.698 54.0541 111.052C51.5625 110.406 49.0708 107.237 48.3941 104.008C47.7481 100.808 49.1939 98.7168 51.6547 99.3627C54.0847 100.039 56.6377 103.208 57.2837 106.407Z" fill="#D19917"/>
<path fill-rule="evenodd" clip-rule="evenodd" d="M61.3796 107.212L58.0574 109.15V109.027L58.0884 108.935L58.1189 108.781V108.628L58.1499 108.504V108.351V108.197V108.043V107.889V107.735V107.581L58.1189 107.428V107.274L58.0884 107.12L58.0574 106.966V106.813L58.0269 106.659L57.996 106.474L57.9655 106.32L57.904 106.167L57.873 106.013L57.842 105.828L57.7805 105.705L57.75 105.52L57.6885 105.367L57.627 105.213L57.5961 105.059L57.5346 104.875L57.4731 104.721L57.4116 104.567L57.3501 104.413L57.2886 104.259L57.1962 104.106L57.1347 103.952L57.0427 103.798L57.0117 103.706L60.3643 101.799L60.3953 101.86L60.4878 102.014L60.5493 102.168L60.6108 102.322L60.7027 102.475L60.7642 102.629L60.8257 102.814L60.8567 102.968L60.9182 103.121L60.9797 103.275L61.0412 103.429L61.1026 103.583L61.1336 103.767L61.1641 103.921L61.2256 104.075L61.2566 104.229L61.3181 104.413V104.536L61.3796 104.721V104.875L61.4105 105.028L61.441 105.182V105.336L61.472 105.49V105.644V105.797V105.951V106.105V106.29V106.413V106.567V106.72L61.441 106.843V106.997L61.4105 107.12L61.3796 107.212Z" fill="#E6B543"/>
<path fill-rule="evenodd" clip-rule="evenodd" d="M51.125 98.54H51.1865L51.2785 98.5705L51.4015 98.6015H51.5249L51.6479 98.632L51.7708 98.663L51.8938 98.7245L52.0168 98.7555L52.1398 98.786L52.2627 98.817L52.3862 98.8784L52.5091 98.9399L52.6321 99.0014L52.7861 99.0629L52.909 99.1554L53.032 99.2168L53.155 99.3088L53.3089 99.3703L53.4319 99.4628L53.5549 99.5548L53.6778 99.6472L53.8008 99.7397L53.9238 99.8317L54.0162 99.8932L57.3384 97.9557L57.2769 97.8942L57.1539 97.8017L57.0309 97.7093L56.9075 97.6173L56.7845 97.5248L56.631 97.4323L56.5076 97.3709L56.3846 97.3094L56.2617 97.2174L56.1077 97.1559L55.9847 97.0944L55.8618 97.0329L55.7388 96.971L55.6158 96.9095L55.4928 96.848L55.3389 96.8175L55.2159 96.7865L55.093 96.756L55.0005 96.725L54.8775 96.6945L54.7545 96.6635L54.6316 96.633H54.5086L54.4471 96.6021L51.125 98.54Z" fill="#FFDC6A"/>
<path fill-rule="evenodd" clip-rule="evenodd" d="M98.6968 123.449L46.5586 93.3046L48.0967 92.3818L100.265 122.526L98.6968 123.449Z" fill="#C5CCD1"/>
<path fill-rule="evenodd" clip-rule="evenodd" d="M53.2871 135.6L56.6397 133.692L56.8242 133.6L57.0086 133.508L57.2241 133.477L57.4395 133.416L57.655 133.385H57.8699H58.0854L58.3318 133.416L58.5777 133.477L58.8237 133.539L59.0696 133.6L59.3465 133.692L59.5929 133.816L59.8389 133.939L60.0848 134.062L60.3308 134.216L60.5772 134.369L60.8231 134.553L61.0691 134.738L61.3155 134.923L61.5304 135.138L61.7769 135.353L62.0228 135.6L62.2382 135.846L62.4532 136.092L62.6686 136.338L62.8531 136.584L63.0685 136.861L63.284 137.168L63.4684 137.445L63.6224 137.753L63.8068 138.03L63.9913 138.337L64.1143 138.645L64.2682 138.983L64.4222 139.291L64.5451 139.629L64.6681 139.937L64.7606 140.275L64.8526 140.582L64.945 140.921L65.037 141.259L65.0985 141.598L65.1295 141.905L65.191 142.213V142.52V142.828V143.105V143.382L65.1605 143.628L65.1295 143.904L65.068 144.151L65.0065 144.397L64.914 144.612L64.8221 144.827L64.7296 145.043L64.6371 145.227L64.5142 145.412L64.3912 145.566L64.2682 145.719L64.1143 145.873L63.9608 145.996L63.8068 146.119L60.4542 148.026L60.6077 147.934L60.7616 147.811L60.9156 147.657L61.0691 147.504L61.192 147.35L61.2845 147.165L61.4075 146.95L61.4999 146.765L61.5614 146.55L61.6534 146.304L61.7149 146.088L61.7769 145.842L61.8074 145.566L61.8383 145.32L61.8688 145.043V144.735L61.8383 144.458V144.151L61.8074 143.843L61.7459 143.536L61.6844 143.197L61.6229 142.859L61.5304 142.52L61.4384 142.182L61.3155 141.875L61.192 141.536L61.0691 141.229L60.9156 140.89L60.7921 140.582L60.6387 140.275L60.4847 139.968L60.3003 139.691L60.1158 139.383L59.9309 139.106L59.7159 138.798L59.531 138.522L59.316 138.275L59.1006 137.999L58.9161 137.784L58.6697 137.507L58.4238 137.291L58.2083 137.076L57.9624 136.861L57.7164 136.645L57.501 136.491L57.2241 136.307L57.0086 136.123L56.7322 136L56.4858 135.846L56.2398 135.753L55.9939 135.63L55.748 135.538L55.471 135.446L55.2246 135.384L54.9787 135.353L54.7327 135.323H54.5173H54.3019L54.0869 135.353L53.8715 135.384L53.687 135.446L53.4716 135.507L53.2871 135.6Z" fill="#FAC13C"/>
<path fill-rule="evenodd" clip-rule="evenodd" d="M61.6734 143.202C62.4116 146.739 60.8122 149.015 58.1053 148.308C55.3985 147.601 52.6302 144.124 51.892 140.587C51.1845 137.05 52.7837 134.774 55.4905 135.481C58.1974 136.189 60.9351 139.664 61.6734 143.202Z" fill="#F5BE3D"/>
<path fill-rule="evenodd" clip-rule="evenodd" d="M60.9787 143.236C61.6247 146.435 60.1789 148.526 57.7181 147.85C55.2573 147.204 52.7348 144.035 52.0581 140.836C51.4122 137.607 52.858 135.546 55.3188 136.192C57.7795 136.868 60.3328 140.006 60.9787 143.236Z" fill="#D19917"/>
<path fill-rule="evenodd" clip-rule="evenodd" d="M65.1042 144.026L61.7515 145.933V145.841L61.7821 145.687L61.813 145.564V145.441L61.8435 145.287V145.133V144.979V144.825V144.672V144.518V144.364L61.813 144.211V144.057L61.7821 143.903L61.7515 143.749V143.564L61.7206 143.441L61.6896 143.257L61.6591 143.103L61.5976 142.949L61.5666 142.795L61.5361 142.641L61.4746 142.457L61.4437 142.304L61.4131 142.15L61.3517 141.996L61.2902 141.811L61.2282 141.657L61.1667 141.534L61.1052 141.35L61.0438 141.196L60.9823 141.042L60.8903 140.888L60.8283 140.734L60.7668 140.55L60.7363 140.489L64.0584 138.582L64.089 138.643L64.1814 138.797L64.2429 138.95L64.3044 139.104L64.3969 139.258L64.4583 139.412L64.5198 139.596L64.5813 139.719L64.6428 139.904L64.6733 140.058L64.7353 140.212L64.7967 140.366L64.8273 140.55L64.8887 140.704L64.9197 140.857L64.9502 141.011L65.0117 141.165V141.35L65.0732 141.504L65.1042 141.657V141.811L65.1352 141.965L65.1657 142.119V142.304V142.427L65.1966 142.611V142.765V142.918V143.041V143.195L65.1657 143.349V143.503V143.626L65.1352 143.78L65.1042 143.903V144.026Z" fill="#E6B543"/>
<path fill-rule="evenodd" clip-rule="evenodd" d="M54.8496 135.323H54.9111L55.0341 135.353H55.1265L55.2495 135.384L55.3725 135.415L55.4954 135.446L55.6184 135.507L55.7419 135.538L55.8648 135.569L55.9878 135.63L56.1108 135.692L56.2647 135.753L56.3877 135.815L56.5107 135.876L56.6336 135.938L56.7566 136L56.9106 136.092L57.0335 136.153L57.1565 136.246L57.2795 136.338L57.4334 136.43L57.5564 136.522L57.6489 136.614L57.7409 136.676L61.063 134.738L61.0015 134.677L60.8785 134.584L60.7555 134.492L60.6326 134.4L60.5096 134.308L60.3556 134.216L60.2327 134.154L60.1097 134.062L59.9863 134L59.8633 133.939L59.7098 133.877L59.5868 133.816L59.4634 133.754L59.3404 133.692L59.2175 133.662L59.0635 133.6L58.9405 133.569L58.8485 133.508L58.7256 133.477L58.6021 133.446H58.4792L58.3562 133.416L58.2637 133.385H58.2022L54.8496 135.323Z" fill="#FFDC6A"/>
<path fill-rule="evenodd" clip-rule="evenodd" d="M19.6426 116.165L22.9957 114.227L23.1492 114.135L23.3646 114.073L23.549 114.011L23.7645 113.981L23.9799 113.95H24.1954H24.4103L24.6567 113.981L24.9027 114.011L25.1486 114.073L25.4255 114.135L25.641 114.227L25.9179 114.35L26.1638 114.473L26.4098 114.627L26.6867 114.749L26.9021 114.903L27.1791 115.088L27.425 115.272L27.6404 115.488L27.8864 115.703L28.1323 115.919L28.3478 116.134L28.5632 116.38L28.8091 116.626L28.9936 116.872L29.209 117.149L29.4245 117.426L29.6089 117.703L29.7934 117.98L29.9778 118.287L30.1628 118.594L30.3162 118.902L30.4702 119.21L30.6241 119.517L30.7471 119.856L30.8701 120.164L30.9931 120.501L31.116 120.809L31.2085 121.148L31.3005 121.486L31.362 121.794L31.4239 122.132L31.4854 122.439L31.5159 122.747V123.086L31.5469 123.362V123.67L31.5159 123.916L31.4854 124.193L31.4544 124.439L31.393 124.685L31.362 124.962L31.27 125.146L31.1775 125.393L31.0855 125.577L30.9621 125.762L30.8701 125.946L30.7471 126.131L30.5932 126.284L30.4392 126.407L30.2857 126.531L30.1318 126.654L26.7792 128.591L26.9326 128.468L27.1171 128.345L27.2711 128.191L27.394 128.038L27.517 127.884L27.6404 127.7L27.7324 127.515L27.8249 127.3L27.9169 127.084L28.0094 126.869L28.0708 126.623L28.1323 126.377L28.1633 126.131L28.1938 125.854V125.577V125.3V124.993L28.1633 124.685L28.1323 124.377L28.1018 124.07L28.0403 123.732L27.9479 123.393L27.8554 123.086L27.7634 122.747L27.6404 122.409L27.548 122.101L27.425 121.763L27.2711 121.455L27.1171 121.148L26.9636 120.84L26.8097 120.501L26.6252 120.225L26.4408 119.917L26.2558 119.64L26.0714 119.333L25.8564 119.087L25.641 118.81L25.4565 118.564L25.2101 118.318L24.9951 118.072L24.7797 117.826L24.5333 117.61L24.3183 117.395L24.0719 117.21L23.826 117.026L23.58 116.841L23.3341 116.687L23.0877 116.534L22.8417 116.411L22.5648 116.288L22.3189 116.165L22.0729 116.072L21.796 116.011L21.5806 115.949L21.3346 115.919L21.0882 115.888H20.8732H20.6268L20.4424 115.919L20.2269 115.949L20.012 116.011L19.827 116.072L19.6426 116.165Z" fill="#FAC13C"/>
<path fill-rule="evenodd" clip-rule="evenodd" d="M28.0139 123.722C28.7214 127.259 27.1217 129.535 24.4149 128.828C21.708 128.121 18.9397 124.644 18.2015 121.107C17.4633 117.57 19.0627 115.293 21.7696 116.001C24.4764 116.708 27.2757 120.184 28.0139 123.722Z" fill="#F5BE3D"/>
<path fill-rule="evenodd" clip-rule="evenodd" d="M27.3357 123.754C27.9817 126.953 26.5359 129.045 24.0751 128.399C21.6143 127.753 19.0923 124.585 18.4155 121.355C17.7696 118.156 19.2154 116.064 21.6762 116.71C24.137 117.387 26.659 120.524 27.3357 123.754Z" fill="#D19917"/>
<path fill-rule="evenodd" clip-rule="evenodd" d="M31.401 124.561L28.0789 126.499V126.376L28.1099 126.253V126.099L28.1404 125.976V125.822V125.668V125.545V125.392V125.238V125.084V124.93V124.776L28.1099 124.592V124.438L28.0789 124.315L28.0484 124.13L28.0174 123.976V123.822L27.956 123.669L27.9255 123.515L27.8945 123.331L27.8635 123.177L27.802 123.023L27.7715 122.869L27.71 122.685L27.6485 122.531L27.587 122.377L27.5256 122.223L27.4946 122.069L27.4331 121.885L27.3716 121.762L27.2791 121.577L27.2177 121.424L27.1562 121.27L27.0637 121.116L27.0332 121.054L30.3858 119.116L30.4168 119.209L30.4783 119.332L30.5708 119.486L30.6322 119.67L30.6937 119.824L30.7552 119.977L30.8167 120.131L30.8782 120.285L30.9397 120.47L31.0012 120.593L31.0626 120.777L31.0936 120.931L31.1551 121.085L31.1856 121.239L31.2471 121.393L31.2781 121.577L31.3086 121.731L31.3396 121.885L31.3705 122.038L31.401 122.223V122.377L31.432 122.531L31.4625 122.685V122.838L31.4935 122.992V123.146V123.3V123.454V123.607V123.73V123.884L31.4625 124.038V124.192L31.432 124.315L31.401 124.438V124.561Z" fill="#E6B543"/>
<path fill-rule="evenodd" clip-rule="evenodd" d="M21.1445 115.888H21.206H21.329L21.452 115.919L21.5754 115.949L21.6984 115.98L21.7904 116.011L21.9133 116.042L22.0673 116.072L22.1903 116.134L22.3132 116.165L22.4367 116.226L22.5596 116.288L22.6826 116.349L22.8056 116.411L22.9595 116.472L23.0515 116.565L23.2055 116.626L23.3594 116.718L23.4824 116.78L23.6054 116.872L23.7283 116.964L23.8513 117.056L23.9743 117.18L24.0358 117.241L27.3889 115.303L27.3274 115.242L27.2044 115.149L27.0505 115.057L26.9275 114.965L26.835 114.872L26.6815 114.78L26.5581 114.719L26.4046 114.627L26.2817 114.565L26.1582 114.473L26.0352 114.411L25.9123 114.35L25.7583 114.288L25.6353 114.227L25.5124 114.196L25.3894 114.135L25.2664 114.104L25.1435 114.073L25.0205 114.042L24.897 114.011L24.7741 113.981H24.6821L24.5591 113.95H24.4972L21.1445 115.888Z" fill="#FFDC6A"/>
<path fill-rule="evenodd" clip-rule="evenodd" d="M97.061 122.46L48.0605 94.1606L49.6291 93.2378L98.6296 121.567L97.061 122.46Z" fill="#C5CCD1"/>
<path fill-rule="evenodd" clip-rule="evenodd" d="M97.061 124.068L48.0605 95.7375V94.1689L97.061 122.468V124.068Z" fill="#9C9C9C"/>
<path fill-rule="evenodd" clip-rule="evenodd" d="M68.6873 140.766L16.5801 110.652L18.1182 109.729L70.2868 139.843L68.6873 140.766Z" fill="#C5CCD1"/>
<path fill-rule="evenodd" clip-rule="evenodd" d="M68.6873 142.374L16.5801 112.229V110.661L68.6873 140.775V142.374Z" fill="#9C9C9C"/>
<path fill-rule="evenodd" clip-rule="evenodd" d="M19.1621 100.621L28.1132 95.4233V93.8237L19.1621 99.0219V100.621Z" fill="#E6EAEB"/>
<path fill-rule="evenodd" clip-rule="evenodd" d="M29.1348 94.8094L38.0859 89.6108V88.0112L29.1348 93.2408V94.8094Z" fill="#E6EAEB"/>
<path fill-rule="evenodd" clip-rule="evenodd" d="M39.168 89.0262L48.1191 83.8281V82.2285L39.168 87.4267V89.0262Z" fill="#E6EAEB"/>
<path fill-rule="evenodd" clip-rule="evenodd" d="M49.275 81.86L47.6449 80.9067L16.6387 98.809L18.2692 99.7623L49.275 81.86Z" fill="#C5CCD1"/>
<path fill-rule="evenodd" clip-rule="evenodd" d="M18.2617 99.7704V101.616L49.2675 83.6832V81.8682L18.2617 99.7704Z" fill="#E6EAEB"/>
<path fill-rule="evenodd" clip-rule="evenodd" d="M49.207 81.8379V83.7139L18.2012 101.647V99.7401L49.207 81.8379Z" fill="#E6EAEB"/>
<path fill-rule="evenodd" clip-rule="evenodd" d="M18.2617 99.7704V101.616L49.2675 83.6832V81.8682L18.2617 99.7704Z" fill="#E6EAEB"/>
<path fill-rule="evenodd" clip-rule="evenodd" d="M36.3914 98.9381L27.9941 94.1089V95.9234L36.3914 100.753V98.9381Z" fill="#9C9C9C"/>
<path fill-rule="evenodd" clip-rule="evenodd" d="M37.7446 98.1422L29.3783 93.313L27.9941 94.1128L36.3914 98.942L37.7446 98.1422Z" fill="#C5CCD1"/>
<path fill-rule="evenodd" clip-rule="evenodd" d="M59.2496 87.6129L57.6195 86.6592L26.6133 104.561L28.2438 105.515L59.2496 87.6129Z" fill="#9C9C9C"/>
<path fill-rule="evenodd" clip-rule="evenodd" d="M28.2344 105.522V107.337L59.2402 89.4351V87.6206L28.2344 105.522Z" fill="#E6EAEB"/>
<path fill-rule="evenodd" clip-rule="evenodd" d="M28.2344 105.522V107.337L59.2402 89.4351V87.6206L28.2344 105.522Z" fill="#E6EAEB"/>
<path fill-rule="evenodd" clip-rule="evenodd" d="M59.2496 87.6129L57.6195 86.6592L26.6133 104.561L28.2438 105.515L59.2496 87.6129Z" fill="#C5CCD1"/>
<path fill-rule="evenodd" clip-rule="evenodd" d="M46.4246 104.691L38.0579 99.8613L38.0273 101.645L46.4246 106.506V104.691Z" fill="#9C9C9C"/>
<path fill-rule="evenodd" clip-rule="evenodd" d="M47.7783 103.88L39.381 99.0503L38.0273 99.8501L46.3941 104.679L47.7783 103.88Z" fill="#C5CCD1"/>
<path fill-rule="evenodd" clip-rule="evenodd" d="M69.3114 93.3654L67.6808 92.4116L36.6445 110.314L38.3056 111.268L69.3114 93.3654Z" fill="#9C9C9C"/>
<path fill-rule="evenodd" clip-rule="evenodd" d="M38.2676 111.275V113.09L69.2734 95.1876V93.373L38.2676 111.275Z" fill="#E6EAEB"/>
<path fill-rule="evenodd" clip-rule="evenodd" d="M38.2676 111.275V113.09L69.2734 95.1876V93.373L38.2676 111.275Z" fill="#E6EAEB"/>
<path fill-rule="evenodd" clip-rule="evenodd" d="M69.3114 93.3654L67.6808 92.4116L36.6445 110.314L38.3056 111.268L69.3114 93.3654Z" fill="#C5CCD1"/>
<path fill-rule="evenodd" clip-rule="evenodd" d="M56.4578 110.443L48.0605 105.614V107.429L56.4578 112.258V110.443Z" fill="#9C9C9C"/>
<path fill-rule="evenodd" clip-rule="evenodd" d="M57.811 109.632L49.4447 104.803L48.0605 105.603L56.4578 110.432L57.811 109.632Z" fill="#C5CCD1"/>
<path fill-rule="evenodd" clip-rule="evenodd" d="M79.3141 99.1178L77.684 98.1641L46.6777 116.066L48.3083 117.02L79.3141 99.1178Z" fill="#9C9C9C"/>
<path fill-rule="evenodd" clip-rule="evenodd" d="M48.3008 117.028V118.843L79.3375 100.94L79.3066 99.1255L48.3008 117.028Z" fill="#E6EAEB"/>
<path fill-rule="evenodd" clip-rule="evenodd" d="M48.3008 117.028V118.843L79.3375 100.94L79.3066 99.1255L48.3008 117.028Z" fill="#E6EAEB"/>
<path fill-rule="evenodd" clip-rule="evenodd" d="M79.3141 99.1178L77.684 98.1641L46.6777 116.066L48.3083 117.02L79.3141 99.1178Z" fill="#C5CCD1"/>
<path fill-rule="evenodd" clip-rule="evenodd" d="M66.4305 116.195L58.0637 111.366L58.0332 113.181L66.4305 118.01V116.195Z" fill="#9C9C9C"/>
<path fill-rule="evenodd" clip-rule="evenodd" d="M67.8447 115.385L59.4779 110.555L58.0938 111.355L66.4605 116.184L67.8447 115.385Z" fill="#C5CCD1"/>
<path fill-rule="evenodd" clip-rule="evenodd" d="M89.3473 104.87L87.7167 103.917L56.7109 121.819L58.3105 122.772L89.3473 104.87Z" fill="#9C9C9C"/>
<path fill-rule="evenodd" clip-rule="evenodd" d="M58.2734 122.78L58.3044 124.595L89.3102 106.693V104.878L58.2734 122.78Z" fill="#E6EAEB"/>
<path fill-rule="evenodd" clip-rule="evenodd" d="M89.3473 104.87L87.7167 103.917L56.7109 121.819L58.3105 122.772L89.3473 104.87Z" fill="#9C9C9C"/>
<path fill-rule="evenodd" clip-rule="evenodd" d="M58.2734 122.78L58.3044 124.595L89.3102 106.693V104.878L58.2734 122.78Z" fill="#E6EAEB"/>
<path fill-rule="evenodd" clip-rule="evenodd" d="M58.2734 122.78L58.3044 124.595L89.3102 106.693V104.878L58.2734 122.78Z" fill="#E6EAEB"/>
<path fill-rule="evenodd" clip-rule="evenodd" d="M89.3473 104.87L87.7167 103.917L56.7109 121.819L58.3105 122.772L89.3473 104.87Z" fill="#C5CCD1"/>
<path fill-rule="evenodd" clip-rule="evenodd" d="M76.4341 121.948L68.0364 117.119L68.0059 118.903L76.4341 123.762V121.948Z" fill="#9C9C9C"/>
<path fill-rule="evenodd" clip-rule="evenodd" d="M77.8483 121.137L69.451 116.308L68.0664 117.107L76.4642 121.937L77.8483 121.137Z" fill="#C5CCD1"/>
<path fill-rule="evenodd" clip-rule="evenodd" d="M46.4246 93.1256L38.0273 88.2964V90.1114L46.4246 94.9406V93.1256Z" fill="#9C9C9C"/>
<path fill-rule="evenodd" clip-rule="evenodd" d="M47.8088 92.315L39.4115 87.4854L38.0273 88.2851L46.4246 93.1144L47.8088 92.315Z" fill="#C5CCD1"/>
<path fill-rule="evenodd" clip-rule="evenodd" d="M56.4269 98.8781L48.0605 94.0488V95.8634L56.4269 100.693V98.8781Z" fill="#9C9C9C"/>
<path fill-rule="evenodd" clip-rule="evenodd" d="M57.811 98.067L49.4447 93.2378L48.0605 94.0376L56.4269 98.8668L57.811 98.067Z" fill="#C5CCD1"/>
<path fill-rule="evenodd" clip-rule="evenodd" d="M66.4305 104.63L58.0332 99.8013V101.616L66.4305 106.446V104.63Z" fill="#9C9C9C"/>
<path fill-rule="evenodd" clip-rule="evenodd" d="M67.8146 103.85L59.4173 98.9902L58.0332 99.79L66.4305 104.619L67.8146 103.85Z" fill="#C5CCD1"/>
<path fill-rule="evenodd" clip-rule="evenodd" d="M76.4341 110.383L68.0364 105.554L68.0059 107.369L76.4341 112.198V110.383Z" fill="#9C9C9C"/>
<path fill-rule="evenodd" clip-rule="evenodd" d="M77.8173 109.603L69.451 104.743L68.0664 105.542L76.4642 110.372L77.8173 109.603Z" fill="#C5CCD1"/>
<path fill-rule="evenodd" clip-rule="evenodd" d="M86.4363 116.135L78.0696 111.306L78.0391 113.121L86.4363 117.95V116.135Z" fill="#9C9C9C"/>
<path fill-rule="evenodd" clip-rule="evenodd" d="M87.8505 115.324L79.4532 110.495L78.0996 111.295L86.4664 116.124L87.8505 115.324Z" fill="#C5CCD1"/>
<path fill-rule="evenodd" clip-rule="evenodd" d="M48.1891 83.8692L46.5586 82.9155V46.5576L48.1891 47.4804V83.8692Z" fill="#9C9C9C"/>
<path fill-rule="evenodd" clip-rule="evenodd" d="M18.2106 66.4496L16.5801 65.5269V67.5259L18.2106 68.4796V66.4496Z" fill="#9C9C9C"/>
<path fill-rule="evenodd" clip-rule="evenodd" d="M18.2106 66.4496L16.5801 65.5269V67.5259L18.2106 68.4796V66.4496Z" fill="#9C9C9C"/>
<path fill-rule="evenodd" clip-rule="evenodd" d="M28.1828 72.2699L26.5527 71.3162V69.7476L28.1828 70.6703V72.2699Z" fill="#9C9C9C"/>
<path fill-rule="evenodd" clip-rule="evenodd" d="M28.1828 72.2699L26.5527 71.3162V69.7476L28.1828 70.6703V72.2699Z" fill="#9C9C9C"/>
<path fill-rule="evenodd" clip-rule="evenodd" d="M28.1828 72.2699L26.5527 71.3162V69.7476L28.1828 70.6703V72.2699Z" fill="#9C9C9C"/>
<path fill-rule="evenodd" clip-rule="evenodd" d="M38.1555 78.0826L36.5254 77.1294V75.5298L38.1555 76.4831V78.0826Z" fill="#9C9C9C"/>
<path fill-rule="evenodd" clip-rule="evenodd" d="M38.1555 78.0826L36.5254 77.1294V75.5298L38.1555 76.4831V78.0826Z" fill="#9C9C9C"/>
<path fill-rule="evenodd" clip-rule="evenodd" d="M48.1891 47.4715L46.5586 46.5487L48.0967 45.626L49.7577 46.5792L48.1891 47.4715Z" fill="#C5CCD1"/>
<path fill-rule="evenodd" clip-rule="evenodd" d="M48.1891 83.8646L46.5586 82.9109V81.3423L48.1891 82.265V83.8646Z" fill="#9C9C9C"/>
<path fill-rule="evenodd" clip-rule="evenodd" d="M48.1891 83.8692L46.5586 82.9155V46.5576L48.1891 47.4804V83.8692Z" fill="#9C9C9C"/>
<path fill-rule="evenodd" clip-rule="evenodd" d="M48.1797 47.4797L49.7483 46.5874V82.9458L48.1797 83.8685V47.4797Z" fill="#E6EAEB"/>
<path fill-rule="evenodd" clip-rule="evenodd" d="M48.1277 47.4417L49.7577 46.5189L48.1891 45.5962L46.5586 46.5499L48.1277 47.4417Z" fill="#C5CCD1"/>
<path fill-rule="evenodd" clip-rule="evenodd" d="M48.1211 83.8355L49.7512 82.8818V81.2822L48.1211 82.236V83.8355Z" fill="#9C9C9C"/>
<path fill-rule="evenodd" clip-rule="evenodd" d="M48.1211 83.8243L49.7512 82.8706V46.5122L48.1211 47.435V83.8243Z" fill="#E6EAEB"/>
<path fill-rule="evenodd" clip-rule="evenodd" d="M48.1277 47.4494L46.5586 46.5576V82.9155L48.1277 83.8387V47.4494Z" fill="#9C9C9C"/>
<path fill-rule="evenodd" clip-rule="evenodd" d="M48.1277 47.4417L49.7577 46.5189L48.1891 45.5962L46.5586 46.5499L48.1277 47.4417Z" fill="#C5CCD1"/>
<path fill-rule="evenodd" clip-rule="evenodd" d="M48.1211 83.8355L49.7512 82.8818V81.2822L48.1211 82.236V83.8355Z" fill="#9C9C9C"/>
<path fill-rule="evenodd" clip-rule="evenodd" d="M48.1211 83.8243L49.7512 82.8706V46.5122L48.1211 47.435V83.8243Z" fill="#9C9C9C"/>
<path fill-rule="evenodd" clip-rule="evenodd" d="M48.1277 47.4494L46.5586 46.5576V82.9155L48.1277 83.8387V47.4494Z" fill="#E6EAEB"/>
<path fill-rule="evenodd" clip-rule="evenodd" d="M48.1277 47.4417L49.7577 46.5189L48.1891 45.5962L46.5586 46.5499L48.1277 47.4417Z" fill="#C5CCD1"/>
<path fill-rule="evenodd" clip-rule="evenodd" d="M48.1211 83.8355L49.7512 82.8818V81.2822L48.1211 82.236V83.8355Z" fill="#9C9C9C"/>
<path fill-rule="evenodd" clip-rule="evenodd" d="M48.1277 47.4494L46.5586 46.5576V82.9155L48.1277 83.8387V47.4494Z" fill="#9C9C9C"/>
<path fill-rule="evenodd" clip-rule="evenodd" d="M48.1211 83.8243L49.7512 82.8706V46.5122L48.1211 47.435V83.8243Z" fill="#E6EAEB"/>
<path fill-rule="evenodd" clip-rule="evenodd" d="M39.7155 75.8296L48.1128 71.0004L46.5442 70.0776L38.1465 74.9378L39.7155 75.8296Z" fill="#C5CCD1"/>
<path fill-rule="evenodd" clip-rule="evenodd" d="M39.709 77.4381L48.1063 72.6088V71.0093L39.709 75.8385V77.4381Z" fill="#E6EAEB"/>
<path fill-rule="evenodd" clip-rule="evenodd" d="M38.094 53.2549L39.7245 52.3012L38.1864 51.3784L36.5254 52.3322L38.094 53.2549Z" fill="#C5CCD1"/>
<path fill-rule="evenodd" clip-rule="evenodd" d="M38.0879 89.6171L39.7184 88.6638V87.0947L38.0879 88.0175V89.6171Z" fill="#9C9C9C"/>
<path fill-rule="evenodd" clip-rule="evenodd" d="M38.0879 89.6217L39.7184 88.6684V52.3101L38.0879 53.2638V89.6217Z" fill="#E6EAEB"/>
<path fill-rule="evenodd" clip-rule="evenodd" d="M38.094 53.2626L36.5254 52.3398V88.6977L38.094 89.6205V53.2626Z" fill="#9C9C9C"/>
<path fill-rule="evenodd" clip-rule="evenodd" d="M18.2106 64.8799L16.5801 63.9267L18.1182 63.0039L19.7792 63.9572L18.2106 64.8799Z" fill="#C5CCD1"/>
<path fill-rule="evenodd" clip-rule="evenodd" d="M18.2106 101.247L16.5801 100.324V63.9351L18.2106 64.8883V101.247Z" fill="#9C9C9C"/>
<path fill-rule="evenodd" clip-rule="evenodd" d="M18.2012 64.8876L19.7698 63.9648V100.323L18.2012 101.246V64.8876Z" fill="#E6EAEB"/>
<path fill-rule="evenodd" clip-rule="evenodd" d="M38.094 53.2549L39.7245 52.3012L38.1864 51.3784L36.5254 52.3322L38.094 53.2549Z" fill="#C5CCD1"/>
<path fill-rule="evenodd" clip-rule="evenodd" d="M38.0879 89.6171L39.7184 88.6638V87.0947L38.0879 88.0175V89.6171Z" fill="#9C9C9C"/>
<path fill-rule="evenodd" clip-rule="evenodd" d="M38.0879 89.6217L39.7184 88.6684V52.3101L38.0879 53.2638V89.6217Z" fill="#9C9C9C"/>
<path fill-rule="evenodd" clip-rule="evenodd" d="M38.094 53.2626L36.5254 52.3398V88.6977L38.094 89.6205V53.2626Z" fill="#E6EAEB"/>
<path fill-rule="evenodd" clip-rule="evenodd" d="M38.094 53.2549L39.7245 52.3012L38.1864 51.3784L36.5254 52.3322L38.094 53.2549Z" fill="#C5CCD1"/>
<path fill-rule="evenodd" clip-rule="evenodd" d="M38.0879 89.6171L39.7184 88.6638V87.0947L38.0879 88.0175V89.6171Z" fill="#9C9C9C"/>
<path fill-rule="evenodd" clip-rule="evenodd" d="M38.0879 89.6217L39.7184 88.6684V52.3101L38.0879 53.2638V89.6217Z" fill="#9C9C9C"/>
<path fill-rule="evenodd" clip-rule="evenodd" d="M38.094 53.2626L36.5254 52.3398V88.6977L38.094 89.6205V53.2626Z" fill="#E6EAEB"/>
<path fill-rule="evenodd" clip-rule="evenodd" d="M38.094 53.2549L39.7245 52.3012L38.1864 51.3784L36.5254 52.3322L38.094 53.2549Z" fill="#C5CCD1"/>
<path fill-rule="evenodd" clip-rule="evenodd" d="M38.0879 89.6171L39.7184 88.6638V87.0947L38.0879 88.0175V89.6171Z" fill="#9C9C9C"/>
<path fill-rule="evenodd" clip-rule="evenodd" d="M38.094 53.2626L36.5254 52.3398V88.6977L38.094 89.6205V53.2626Z" fill="#9C9C9C"/>
<path fill-rule="evenodd" clip-rule="evenodd" d="M28.1523 59.0379L39.7487 52.3012L38.2106 51.3784L26.5527 58.1456L28.1523 59.0379Z" fill="#C5CCD1"/>
<path fill-rule="evenodd" clip-rule="evenodd" d="M28.1152 60.6459L39.7117 53.9096V52.3101L28.1152 59.0468V60.6459Z" fill="#E6EAEB"/>
<path fill-rule="evenodd" clip-rule="evenodd" d="M29.7734 81.6433L38.1707 76.7831L36.6021 75.8604L28.1738 80.7201L29.7734 81.6433Z" fill="#C5CCD1"/>
<path fill-rule="evenodd" clip-rule="evenodd" d="M29.7969 83.2508L38.1942 78.3911V76.7915L29.7969 81.6517V83.2508Z" fill="#E6EAEB"/>
<path fill-rule="evenodd" clip-rule="evenodd" d="M28.1523 59.0374L29.7824 58.1142L28.2138 57.1914L26.5527 58.1451L28.1523 59.0374Z" fill="#C5CCD1"/>
<path fill-rule="evenodd" clip-rule="evenodd" d="M28.1152 95.4296L29.7453 94.4758V92.9072L28.1152 93.83V95.4296Z" fill="#9C9C9C"/>
<path fill-rule="evenodd" clip-rule="evenodd" d="M28.1152 95.4346L29.7453 94.4809V58.1226L28.1152 59.0458V95.4346Z" fill="#9C9C9C"/>
<path fill-rule="evenodd" clip-rule="evenodd" d="M28.1523 59.0446L26.5527 58.1523V94.5107L28.1523 95.4334V59.0446Z" fill="#E6EAEB"/>
<path fill-rule="evenodd" clip-rule="evenodd" d="M28.1523 59.0374L29.7824 58.1142L28.2138 57.1914L26.5527 58.1451L28.1523 59.0374Z" fill="#C5CCD1"/>
<path fill-rule="evenodd" clip-rule="evenodd" d="M28.1152 95.4296L29.7453 94.4758V92.9072L28.1152 93.83V95.4296Z" fill="#9C9C9C"/>
<path fill-rule="evenodd" clip-rule="evenodd" d="M28.1523 59.0446L26.5527 58.1523V94.5107L28.1523 95.4334V59.0446Z" fill="#9C9C9C"/>
<path fill-rule="evenodd" clip-rule="evenodd" d="M18.1491 64.8509L29.7761 58.1142L28.2075 57.1914L16.5801 63.9281L18.1491 64.8509Z" fill="#C5CCD1"/>
<path fill-rule="evenodd" clip-rule="evenodd" d="M18.1406 66.4278L29.7676 59.6916V58.1226L18.1406 64.8593V66.4278Z" fill="#E6EAEB"/>
<path fill-rule="evenodd" clip-rule="evenodd" d="M19.7698 87.4248L28.167 82.5956L26.5985 81.6729L18.2012 86.5331L19.7698 87.4248Z" fill="#C5CCD1"/>
<path fill-rule="evenodd" clip-rule="evenodd" d="M19.7637 89.0328L28.161 84.1726V82.604L19.7637 87.4332V89.0328Z" fill="#E6EAEB"/>
<path fill-rule="evenodd" clip-rule="evenodd" d="M18.1491 64.8501L19.7792 63.8964L18.2106 62.9736L16.5801 63.9274L18.1491 64.8501Z" fill="#C5CCD1"/>
<path fill-rule="evenodd" clip-rule="evenodd" d="M18.1406 101.212L19.7707 100.259V98.6899L18.1406 99.6132V101.212Z" fill="#9C9C9C"/>
<path fill-rule="evenodd" clip-rule="evenodd" d="M18.1406 101.216L19.7707 100.263V63.9048L18.1406 64.8585V101.216Z" fill="#E6EAEB"/>
<path fill-rule="evenodd" clip-rule="evenodd" d="M18.1491 64.8578L16.5801 63.9351V100.324L18.1491 101.216V64.8578Z" fill="#9C9C9C"/>
<path fill-rule="evenodd" clip-rule="evenodd" d="M48.1891 47.4715L46.5586 46.5487L48.0967 45.626L49.7577 46.5792L48.1891 47.4715Z" fill="#C5CCD1"/>
<path fill-rule="evenodd" clip-rule="evenodd" d="M48.1891 83.8646L46.5586 82.9109V81.3423L48.1891 82.265V83.8646Z" fill="#9C9C9C"/>
<path fill-rule="evenodd" clip-rule="evenodd" d="M48.1797 47.4797L49.7483 46.5874V82.9458L48.1797 83.8685V47.4797Z" fill="#E6EAEB"/>
<path fill-rule="evenodd" clip-rule="evenodd" d="M58.186 53.285L46.5586 46.5487L48.0967 45.626L59.7546 52.3622L58.186 53.285Z" fill="#C5CCD1"/>
<path fill-rule="evenodd" clip-rule="evenodd" d="M58.186 54.8934L46.5586 48.1262V46.5576L58.186 53.2938V54.8934Z" fill="#9C9C9C"/>
<path fill-rule="evenodd" clip-rule="evenodd" d="M56.4879 75.8599L48.1211 71.0307L49.6897 70.1079L58.0874 74.9676L56.4879 75.8599Z" fill="#C5CCD1"/>
<path fill-rule="evenodd" clip-rule="evenodd" d="M56.4879 77.4679L48.1211 72.6382V71.0391L56.4879 75.8683V77.4679Z" fill="#9C9C9C"/>
<path fill-rule="evenodd" clip-rule="evenodd" d="M58.1318 53.2847L56.4707 52.3314L58.0393 51.4087L59.7004 52.362L58.1318 53.2847Z" fill="#C5CCD1"/>
<path fill-rule="evenodd" clip-rule="evenodd" d="M39.7155 64.2659L48.1128 59.4057L46.5442 58.4829L38.1465 63.3431L39.7155 64.2659Z" fill="#C5CCD1"/>
<path fill-rule="evenodd" clip-rule="evenodd" d="M29.7734 70.0474L38.1707 65.2182L36.6021 64.2954L28.1738 69.1556L29.7734 70.0474Z" fill="#C5CCD1"/>
<path fill-rule="evenodd" clip-rule="evenodd" d="M19.7698 75.8606L28.167 71.0004L26.5985 70.0776L18.2012 74.9378L19.7698 75.8606Z" fill="#C5CCD1"/>
<path fill-rule="evenodd" clip-rule="evenodd" d="M38.0879 89.6217L39.7184 88.6684V52.3101L38.0879 53.2638V89.6217Z" fill="#E6EAEB"/>
<path fill-rule="evenodd" clip-rule="evenodd" d="M58.1318 89.6473L56.4707 88.6936V87.125L58.1318 88.0478V89.6473Z" fill="#9C9C9C"/>
<path fill-rule="evenodd" clip-rule="evenodd" d="M57.1308 87.4637L48.1797 82.265L49.7483 81.3423L58.6994 86.5714L57.1308 87.4637Z" fill="#C5CCD1"/>
<path fill-rule="evenodd" clip-rule="evenodd" d="M57.1308 89.057L48.1797 83.8584V82.2588L57.1308 87.4574V89.057Z" fill="#9C9C9C"/>
<path fill-rule="evenodd" clip-rule="evenodd" d="M58.1318 89.6515L56.4707 88.6977V52.3398L58.1318 53.2931V89.6515Z" fill="#9C9C9C"/>
<path fill-rule="evenodd" clip-rule="evenodd" d="M58.1523 53.2929L59.7209 52.3701V88.759L58.1523 89.6512V53.2929Z" fill="#E6EAEB"/>
<path fill-rule="evenodd" clip-rule="evenodd" d="M28.1152 95.4346L29.7453 94.4809V58.1226L28.1152 59.0458V95.4346Z" fill="#E6EAEB"/>
<path fill-rule="evenodd" clip-rule="evenodd" d="M58.1318 53.2847L56.4707 52.3314L58.0393 51.4087L59.7004 52.362L58.1318 53.2847Z" fill="#C5CCD1"/>
<path fill-rule="evenodd" clip-rule="evenodd" d="M58.1318 89.6473L56.4707 88.6936V87.125L58.1318 88.0478V89.6473Z" fill="#9C9C9C"/>
<path fill-rule="evenodd" clip-rule="evenodd" d="M58.1523 53.2929L59.7209 52.3701V88.759L58.1523 89.6512V53.2929Z" fill="#E6EAEB"/>
<path fill-rule="evenodd" clip-rule="evenodd" d="M68.0981 59.0677L56.4707 52.3314L58.0393 51.4087L69.6972 58.1759L68.0981 59.0677Z" fill="#C5CCD1"/>
<path fill-rule="evenodd" clip-rule="evenodd" d="M68.0981 60.6756L56.4707 53.9394V52.3398L68.0981 59.0761V60.6756Z" fill="#9C9C9C"/>
<path fill-rule="evenodd" clip-rule="evenodd" d="M66.491 81.6724L58.0938 76.8432L59.6623 75.9204L68.0596 80.7806L66.491 81.6724Z" fill="#C5CCD1"/>
<path fill-rule="evenodd" clip-rule="evenodd" d="M66.491 83.2804L58.0938 78.4202V76.8516L66.491 81.6808V83.2804Z" fill="#9C9C9C"/>
<path fill-rule="evenodd" clip-rule="evenodd" d="M68.1345 59.0679L66.5039 58.1451L68.0725 57.1914L69.7336 58.1761L68.1345 59.0679Z" fill="#C5CCD1"/>
<path fill-rule="evenodd" clip-rule="evenodd" d="M68.1345 95.4598L66.5039 94.5066V92.9375L68.1345 93.8603V95.4598Z" fill="#9C9C9C"/>
<path fill-rule="evenodd" clip-rule="evenodd" d="M67.1035 93.2762L58.1523 88.047L59.6904 87.1548L68.6721 92.3534L67.1035 93.2762Z" fill="#C5CCD1"/>
<path fill-rule="evenodd" clip-rule="evenodd" d="M67.1035 94.8697L58.1523 89.6406V88.041L67.1035 93.2701V94.8697Z" fill="#9C9C9C"/>
<path fill-rule="evenodd" clip-rule="evenodd" d="M68.1345 95.464L66.5039 94.5107V58.1523L68.1345 59.0751V95.464Z" fill="#9C9C9C"/>
<path fill-rule="evenodd" clip-rule="evenodd" d="M68.127 59.0744L69.7261 58.1826V94.5405L68.127 95.4632V59.0744Z" fill="#E6EAEB"/>
<path fill-rule="evenodd" clip-rule="evenodd" d="M68.1345 59.0679L66.5039 58.1451L68.0725 57.1914L69.7336 58.1761L68.1345 59.0679Z" fill="#C5CCD1"/>
<path fill-rule="evenodd" clip-rule="evenodd" d="M68.1345 95.4598L66.5039 94.5066V92.9375L68.1345 93.8603V95.4598Z" fill="#9C9C9C"/>
<path fill-rule="evenodd" clip-rule="evenodd" d="M68.127 59.0744L69.7261 58.1826V94.5405L68.127 95.4632V59.0744Z" fill="#E6EAEB"/>
<path fill-rule="evenodd" clip-rule="evenodd" d="M78.1313 64.8814L66.5039 58.1451L68.0725 57.1914L79.6999 63.9586L78.1313 64.8814Z" fill="#C5CCD1"/>
<path fill-rule="evenodd" clip-rule="evenodd" d="M78.1313 66.4576L66.5039 59.7209V58.1523L78.1313 64.8886V66.4576Z" fill="#9C9C9C"/>
<path fill-rule="evenodd" clip-rule="evenodd" d="M76.4637 87.4856L68.0664 82.6259L69.635 81.7031L78.0328 86.5629L76.4637 87.4856Z" fill="#C5CCD1"/>
<path fill-rule="evenodd" clip-rule="evenodd" d="M76.4637 89.0631L68.0664 84.2029V82.6343L76.4637 87.4635V89.0631Z" fill="#9C9C9C"/>
<path fill-rule="evenodd" clip-rule="evenodd" d="M78.1071 64.8799L76.4766 63.9267L78.0456 63.0039L79.6757 63.9572L78.1071 64.8799Z" fill="#C5CCD1"/>
<path fill-rule="evenodd" clip-rule="evenodd" d="M77.0776 99.0589L68.127 93.8603L69.6955 92.9375L78.6772 98.1361L77.0776 99.0589Z" fill="#C5CCD1"/>
<path fill-rule="evenodd" clip-rule="evenodd" d="M77.0776 100.652L68.127 95.4531V93.8535L77.0776 99.0521V100.652Z" fill="#9C9C9C"/>
<path fill-rule="evenodd" clip-rule="evenodd" d="M78.1071 101.247L76.4766 100.324V63.9351L78.1071 64.8883V101.247Z" fill="#9C9C9C"/>
<path fill-rule="evenodd" clip-rule="evenodd" d="M78.0996 64.8876L79.6682 63.9648V100.323L78.0996 101.246V64.8876Z" fill="#E6EAEB"/>
<path fill-rule="evenodd" clip-rule="evenodd" d="M78.1071 64.8799L76.4766 63.9267L78.0456 63.0039L79.6757 63.9572L78.1071 64.8799Z" fill="#C5CCD1"/>
<path fill-rule="evenodd" clip-rule="evenodd" d="M78.0996 64.8876L79.6682 63.9648V100.323L78.0996 101.246V64.8876Z" fill="#E6EAEB"/>
<path fill-rule="evenodd" clip-rule="evenodd" d="M88.104 70.6629L76.4766 63.9267L78.0456 63.0039L89.6726 69.7711L88.104 70.6629Z" fill="#C5CCD1"/>
<path fill-rule="evenodd" clip-rule="evenodd" d="M56.4879 64.2957L48.1211 59.4664L49.6897 58.5127L58.0874 63.4039L56.4879 64.2957Z" fill="#C5CCD1"/>
<path fill-rule="evenodd" clip-rule="evenodd" d="M58.1318 89.6515L56.4707 88.6977V52.3398L58.1318 53.2931V89.6515Z" fill="#9C9C9C"/>
<path fill-rule="evenodd" clip-rule="evenodd" d="M88.104 72.2709L76.4766 65.5346V63.9351L88.104 70.6713V72.2709Z" fill="#9C9C9C"/>
<path fill-rule="evenodd" clip-rule="evenodd" d="M66.491 70.0772L58.0938 65.248L59.6623 64.3252L68.0596 69.1849L66.491 70.0772Z" fill="#C5CCD1"/>
<path fill-rule="evenodd" clip-rule="evenodd" d="M76.4637 75.8904L68.0664 71.0307L69.635 70.1079L78.0328 74.9676L76.4637 75.8904Z" fill="#C5CCD1"/>
<path fill-rule="evenodd" clip-rule="evenodd" d="M68.1345 95.464L66.5039 94.5107V58.1523L68.1345 59.0751V95.464Z" fill="#9C9C9C"/>
<path fill-rule="evenodd" clip-rule="evenodd" d="M86.4974 81.6724L78.0996 76.8432L79.6377 75.9204L88.066 80.7806L86.4974 81.6724Z" fill="#C5CCD1"/>
<path fill-rule="evenodd" clip-rule="evenodd" d="M78.1071 101.247L76.4766 100.324V63.9351L78.1071 64.8883V101.247Z" fill="#9C9C9C"/>
<path fill-rule="evenodd" clip-rule="evenodd" d="M86.4974 93.2683L78.0996 88.4391L79.6377 87.4854L88.066 92.3456L86.4974 93.2683Z" fill="#C5CCD1"/>
<path fill-rule="evenodd" clip-rule="evenodd" d="M86.4974 94.8756L78.0996 90.0154V88.4468L86.4974 93.276V94.8756Z" fill="#9C9C9C"/>
<path fill-rule="evenodd" clip-rule="evenodd" d="M88.1398 70.6619L86.5098 69.7392L88.0474 68.8164L89.7084 69.7701L88.1398 70.6619Z" fill="#C5CCD1"/>
<path fill-rule="evenodd" clip-rule="evenodd" d="M87.0507 104.872L78.0996 99.6425L79.6682 98.7197L88.6503 103.949L87.0507 104.872Z" fill="#C5CCD1"/>
<path fill-rule="evenodd" clip-rule="evenodd" d="M87.0507 106.434L78.0996 101.236V99.6362L87.0507 104.865V106.434Z" fill="#9C9C9C"/>
<path fill-rule="evenodd" clip-rule="evenodd" d="M88.1398 107.059L86.5098 106.106V69.7476L88.1398 70.6703V107.059Z" fill="#9C9C9C"/>
<path fill-rule="evenodd" clip-rule="evenodd" d="M88.1328 70.6691L89.7014 69.7773V106.135L88.1328 107.058V70.6691Z" fill="#E6EAEB"/>
<path fill-rule="evenodd" clip-rule="evenodd" d="M88.1398 70.6619L86.5098 69.7392L88.0474 68.8164L89.7084 69.7701L88.1398 70.6619Z" fill="#C5CCD1"/>
<path fill-rule="evenodd" clip-rule="evenodd" d="M88.1398 107.059L86.5098 106.106V69.7476L88.1398 70.6703V107.059Z" fill="#9C9C9C"/>
<path fill-rule="evenodd" clip-rule="evenodd" d="M88.1328 70.6691L89.7014 69.7773V106.135L88.1328 107.058V70.6691Z" fill="#E6EAEB"/>
<path fill-rule="evenodd" clip-rule="evenodd" d="M88.1398 70.6619L86.5098 69.7392L88.0474 68.8164L89.7084 69.7701L88.1398 70.6619Z" fill="#C5CCD1"/>
<path fill-rule="evenodd" clip-rule="evenodd" d="M88.1328 70.6691L89.7014 69.7773V106.135L88.1328 107.058V70.6691Z" fill="#E6EAEB"/>
<path fill-rule="evenodd" clip-rule="evenodd" d="M88.1398 107.059L86.5098 106.106V69.7476L88.1398 70.6703V107.059Z" fill="#9C9C9C"/>
<path fill-rule="evenodd" clip-rule="evenodd" d="M98.1062 76.4754L86.5098 69.7392L88.0474 68.8164L99.7053 75.5526L98.1062 76.4754Z" fill="#C5CCD1"/>
<path fill-rule="evenodd" clip-rule="evenodd" d="M98.1062 78.0834L86.5098 71.3162V69.7476L98.1062 76.4838V78.0834Z" fill="#9C9C9C"/>
<path fill-rule="evenodd" clip-rule="evenodd" d="M96.4695 99.065L88.0723 94.2357L89.6718 93.313L98.0386 98.1727L96.4695 99.065Z" fill="#C5CCD1"/>
<path fill-rule="evenodd" clip-rule="evenodd" d="M96.4695 100.658L88.0723 95.7976V94.229L96.4695 99.0582V100.658Z" fill="#9C9C9C"/>
<path fill-rule="evenodd" clip-rule="evenodd" d="M98.113 76.4747L96.4824 75.5214L98.0515 74.5986L99.7121 75.5519L98.113 76.4747Z" fill="#C5CCD1"/>
<path fill-rule="evenodd" clip-rule="evenodd" d="M97.0839 110.654L88.1328 105.455L89.7014 104.533L98.6525 109.731L97.0839 110.654Z" fill="#C5CCD1"/>
<path fill-rule="evenodd" clip-rule="evenodd" d="M97.0839 112.216L88.1328 107.048V105.449L97.0839 110.647V112.216Z" fill="#9C9C9C"/>
<path fill-rule="evenodd" clip-rule="evenodd" d="M98.113 112.841L96.4824 111.888V75.5298L98.113 76.4831V112.841Z" fill="#9C9C9C"/>
<path fill-rule="evenodd" clip-rule="evenodd" d="M98.1055 76.4828L99.7046 75.5601V111.918L98.1055 112.841V76.4828Z" fill="#E6EAEB"/>
<path fill-rule="evenodd" clip-rule="evenodd" d="M98.113 76.4747L96.4824 75.5214L98.0515 74.5986L99.7121 75.5519L98.113 76.4747Z" fill="#C5CCD1"/>
<path fill-rule="evenodd" clip-rule="evenodd" d="M96.4695 87.4856L88.0723 82.6259L89.6718 81.7031L98.0386 86.5629L96.4695 87.4856Z" fill="#C5CCD1"/>
<path fill-rule="evenodd" clip-rule="evenodd" d="M98.1055 76.4828L99.7046 75.5601V111.918L98.1055 112.841V76.4828Z" fill="#E6EAEB"/>
<path fill-rule="evenodd" clip-rule="evenodd" d="M98.113 112.841L96.4824 111.888V75.5298L98.113 76.4831V112.841Z" fill="#9C9C9C"/>
<path fill-rule="evenodd" clip-rule="evenodd" d="M18.2106 64.8799L16.5801 63.9267L18.1182 63.0039L19.7792 63.9572L18.2106 64.8799Z" fill="#C5CCD1"/>
<path fill-rule="evenodd" clip-rule="evenodd" d="M18.2012 64.8876L19.7698 63.9648V110.689L18.2012 111.581V64.8876Z" fill="#E6EAEB"/>
<path fill-rule="evenodd" clip-rule="evenodd" d="M18.2106 113.212L16.5801 112.259V63.9351L18.2106 64.8883V113.212Z" fill="#9C9C9C"/>
<path fill-rule="evenodd" clip-rule="evenodd" d="M28.1765 70.6629L16.5801 63.9267L18.1182 63.0039L29.7761 69.7711L28.1765 70.6629Z" fill="#C5CCD1"/>
<path fill-rule="evenodd" clip-rule="evenodd" d="M28.1765 72.2709L16.5801 65.5346V63.9351L28.1765 70.6713V72.2709Z" fill="#9C9C9C"/>
<path fill-rule="evenodd" clip-rule="evenodd" d="M26.5379 93.2683L18.1406 88.4391L19.7092 87.4854L28.1375 92.3456L26.5379 93.2683Z" fill="#C5CCD1"/>
<path fill-rule="evenodd" clip-rule="evenodd" d="M26.5379 94.8756L18.1406 90.0154V88.4468L26.5379 93.276V94.8756Z" fill="#9C9C9C"/>
<path fill-rule="evenodd" clip-rule="evenodd" d="M28.1828 70.6619L26.5527 69.7392L28.1213 68.8164L29.7824 69.7701L28.1828 70.6619Z" fill="#C5CCD1"/>
<path fill-rule="evenodd" clip-rule="evenodd" d="M28.1828 107.055L26.5527 106.102V104.502L28.1828 105.456V107.055Z" fill="#9C9C9C"/>
<path fill-rule="evenodd" clip-rule="evenodd" d="M27.1523 104.872L18.2012 99.6425L19.7698 98.7197L28.7514 103.949L27.1523 104.872Z" fill="#C5CCD1"/>
<path fill-rule="evenodd" clip-rule="evenodd" d="M27.1523 106.434L18.2012 101.236V99.6362L27.1523 104.865V106.434Z" fill="#9C9C9C"/>
<path fill-rule="evenodd" clip-rule="evenodd" d="M28.1828 107.059L26.5527 106.106V69.7476L28.1828 70.6703V107.059Z" fill="#9C9C9C"/>
<path fill-rule="evenodd" clip-rule="evenodd" d="M28.1738 70.6691L29.7734 69.7773V106.135L28.1738 107.058V70.6691Z" fill="#E6EAEB"/>
<path fill-rule="evenodd" clip-rule="evenodd" d="M28.1828 70.6619L26.5527 69.7392L28.1213 68.8164L29.7824 69.7701L28.1828 70.6619Z" fill="#C5CCD1"/>
<path fill-rule="evenodd" clip-rule="evenodd" d="M28.1828 107.055L26.5527 106.102V104.502L28.1828 105.456V107.055Z" fill="#9C9C9C"/>
<path fill-rule="evenodd" clip-rule="evenodd" d="M28.1738 70.6691L29.7734 69.7773V106.135L28.1738 107.058V70.6691Z" fill="#E6EAEB"/>
<path fill-rule="evenodd" clip-rule="evenodd" d="M38.1797 78.0834L26.5527 71.3162V69.7476L38.1797 76.4838V78.0834Z" fill="#9C9C9C"/>
<path fill-rule="evenodd" clip-rule="evenodd" d="M36.5406 99.065L28.1738 94.2357L29.7119 93.313L38.1092 98.1727L36.5406 99.065Z" fill="#C5CCD1"/>
<path fill-rule="evenodd" clip-rule="evenodd" d="M36.5406 100.658L28.1738 95.7976V94.229L36.5406 99.0582V100.658Z" fill="#9C9C9C"/>
<path fill-rule="evenodd" clip-rule="evenodd" d="M38.1555 76.4747L36.5254 75.5214L38.094 74.5986L39.7245 75.5519L38.1555 76.4747Z" fill="#C5CCD1"/>
<path fill-rule="evenodd" clip-rule="evenodd" d="M38.1555 112.838L36.5254 111.884V110.285L38.1555 111.238V112.838Z" fill="#9C9C9C"/>
<path fill-rule="evenodd" clip-rule="evenodd" d="M37.1559 110.654L28.1738 105.455L29.7429 104.533L38.7245 109.731L37.1559 110.654Z" fill="#C5CCD1"/>
<path fill-rule="evenodd" clip-rule="evenodd" d="M37.1559 112.216L28.1738 107.048V105.449L37.1559 110.647V112.216Z" fill="#9C9C9C"/>
<path fill-rule="evenodd" clip-rule="evenodd" d="M38.1555 112.841L36.5254 111.888V75.5298L38.1555 76.4831V112.841Z" fill="#9C9C9C"/>
<path fill-rule="evenodd" clip-rule="evenodd" d="M38.1465 76.4828L39.7155 75.5601V111.918L38.1465 112.841V76.4828Z" fill="#E6EAEB"/>
<path fill-rule="evenodd" clip-rule="evenodd" d="M38.1555 76.4747L36.5254 75.5214L38.094 74.5986L39.7245 75.5519L38.1555 76.4747Z" fill="#C5CCD1"/>
<path fill-rule="evenodd" clip-rule="evenodd" d="M38.1555 112.838L36.5254 111.884V110.285L38.1555 111.238V112.838Z" fill="#9C9C9C"/>
<path fill-rule="evenodd" clip-rule="evenodd" d="M38.1465 76.4828L39.7155 75.5601V122.254L38.1465 123.146V76.4828Z" fill="#E6EAEB"/>
<path fill-rule="evenodd" clip-rule="evenodd" d="M48.1528 82.2576L36.5254 75.5214L38.094 74.5986L49.7214 81.3658L48.1528 82.2576Z" fill="#C5CCD1"/>
<path fill-rule="evenodd" clip-rule="evenodd" d="M48.1528 83.8656L36.5254 77.1294V75.5298L48.1528 82.266V83.8656Z" fill="#9C9C9C"/>
<path fill-rule="evenodd" clip-rule="evenodd" d="M46.5438 104.879L38.1465 100.019L39.7151 99.0957L48.1128 103.956L46.5438 104.879Z" fill="#C5CCD1"/>
<path fill-rule="evenodd" clip-rule="evenodd" d="M46.5438 106.441L38.1465 101.611V100.012L46.5438 104.871V106.441Z" fill="#9C9C9C"/>
<path fill-rule="evenodd" clip-rule="evenodd" d="M48.1891 82.2574L46.5586 81.3346L48.0967 80.3813L49.7577 81.3656L48.1891 82.2574Z" fill="#C5CCD1"/>
<path fill-rule="evenodd" clip-rule="evenodd" d="M48.1891 118.62L46.5586 117.697V116.098L48.1891 117.051V118.62Z" fill="#9C9C9C"/>
<path fill-rule="evenodd" clip-rule="evenodd" d="M47.1286 116.467L38.1465 111.238L39.7155 110.315L48.6972 115.544L47.1286 116.467Z" fill="#C5CCD1"/>
<path fill-rule="evenodd" clip-rule="evenodd" d="M47.0976 118.044L38.1465 112.846V111.246L47.1286 116.475L47.0976 118.044Z" fill="#9C9C9C"/>
<path fill-rule="evenodd" clip-rule="evenodd" d="M48.1891 118.623L46.5586 117.701V81.3423L48.1891 82.265V118.623Z" fill="#9C9C9C"/>
<path fill-rule="evenodd" clip-rule="evenodd" d="M48.1797 82.2643L49.7483 81.3726V117.73L48.1797 118.623V82.2643Z" fill="#E6EAEB"/>
<path fill-rule="evenodd" clip-rule="evenodd" d="M48.1891 82.2574L46.5586 81.3346L48.0967 80.3813L49.7577 81.3656L48.1891 82.2574Z" fill="#C5CCD1"/>
<path fill-rule="evenodd" clip-rule="evenodd" d="M48.1891 118.62L46.5586 117.697V116.098L48.1891 117.051V118.62Z" fill="#9C9C9C"/>
<path fill-rule="evenodd" clip-rule="evenodd" d="M48.1797 82.2643L49.7483 81.3726V117.73L48.1797 118.623V82.2643Z" fill="#E6EAEB"/>
<path fill-rule="evenodd" clip-rule="evenodd" d="M58.186 88.0403L46.5586 81.3346L48.0967 80.3813L59.7546 87.1481L58.186 88.0403Z" fill="#C5CCD1"/>
<path fill-rule="evenodd" clip-rule="evenodd" d="M58.186 89.6476L46.5586 82.9109V81.3423L58.186 88.048V89.6476Z" fill="#9C9C9C"/>
<path fill-rule="evenodd" clip-rule="evenodd" d="M56.4879 110.66L48.1211 105.8L49.6897 104.908L58.0874 109.737L56.4879 110.66Z" fill="#C5CCD1"/>
<path fill-rule="evenodd" clip-rule="evenodd" d="M56.4879 112.254L48.1211 107.394V105.794L56.4879 110.654V112.254Z" fill="#9C9C9C"/>
<path fill-rule="evenodd" clip-rule="evenodd" d="M58.1318 88.0394L56.4707 87.1166L58.0393 86.1938L59.7004 87.1471L58.1318 88.0394Z" fill="#C5CCD1"/>
<path fill-rule="evenodd" clip-rule="evenodd" d="M58.1318 124.433L56.4707 123.479V121.88L58.1318 122.833V124.433Z" fill="#9C9C9C"/>
<path fill-rule="evenodd" clip-rule="evenodd" d="M57.1308 122.249L48.1797 117.05L49.7483 116.127L58.6994 121.326L57.1308 122.249Z" fill="#C5CCD1"/>
<path fill-rule="evenodd" clip-rule="evenodd" d="M57.1308 123.826L48.1797 118.628V117.059L57.1308 122.257V123.826Z" fill="#9C9C9C"/>
<path fill-rule="evenodd" clip-rule="evenodd" d="M58.1318 124.437L56.4707 123.483V87.125L58.1318 88.0478V124.437Z" fill="#9C9C9C"/>
<path fill-rule="evenodd" clip-rule="evenodd" d="M58.1523 88.047L59.7209 87.1548V123.513L58.1523 124.436V88.047Z" fill="#E6EAEB"/>
<path fill-rule="evenodd" clip-rule="evenodd" d="M58.1318 88.0394L56.4707 87.1166L58.0393 86.1938L59.7004 87.1471L58.1318 88.0394Z" fill="#C5CCD1"/>
<path fill-rule="evenodd" clip-rule="evenodd" d="M58.1318 124.433L56.4707 123.479V121.88L58.1318 122.833V124.433Z" fill="#9C9C9C"/>
<path fill-rule="evenodd" clip-rule="evenodd" d="M58.1318 124.437L56.4707 123.483V87.125L58.1318 88.0478V124.437Z" fill="#9C9C9C"/>
<path fill-rule="evenodd" clip-rule="evenodd" d="M58.1523 88.047L59.7209 87.1548V123.513L58.1523 124.436V88.047Z" fill="#E6EAEB"/>
<path fill-rule="evenodd" clip-rule="evenodd" d="M58.1318 88.0394L56.4707 87.1166L58.0393 86.1938L59.7004 87.1471L58.1318 88.0394Z" fill="#C5CCD1"/>
<path fill-rule="evenodd" clip-rule="evenodd" d="M58.1318 124.433L56.4707 123.479V121.88L58.1318 122.833V124.433Z" fill="#9C9C9C"/>
<path fill-rule="evenodd" clip-rule="evenodd" d="M58.1523 88.047L59.7209 87.1548V123.513L58.1523 124.436V88.047Z" fill="#E6EAEB"/>
<path fill-rule="evenodd" clip-rule="evenodd" d="M68.0981 93.8528L56.4707 87.1166L58.0393 86.1938L69.6972 92.9611L68.0981 93.8528Z" fill="#C5CCD1"/>
<path fill-rule="evenodd" clip-rule="evenodd" d="M68.0981 95.4608L56.4707 88.6936V87.125L68.0981 93.8612V95.4608Z" fill="#9C9C9C"/>
<path fill-rule="evenodd" clip-rule="evenodd" d="M66.491 116.473L58.0938 111.613L59.6623 110.69L68.0596 115.55L66.491 116.473Z" fill="#C5CCD1"/>
<path fill-rule="evenodd" clip-rule="evenodd" d="M66.491 118.035L58.0938 113.206V111.606L66.491 116.466V118.035Z" fill="#9C9C9C"/>
<path fill-rule="evenodd" clip-rule="evenodd" d="M68.1345 93.8521L66.5039 92.9293L68.0725 91.9761L69.7336 92.9603L68.1345 93.8521Z" fill="#C5CCD1"/>
<path fill-rule="evenodd" clip-rule="evenodd" d="M68.1345 126.4L66.5039 125.477V123.877L68.1345 124.831V126.4Z" fill="#9C9C9C"/>
<path fill-rule="evenodd" clip-rule="evenodd" d="M67.1035 128.032L58.1523 122.833L59.6904 121.91L68.6721 127.139L67.1035 128.032Z" fill="#C5CCD1"/>
<path fill-rule="evenodd" clip-rule="evenodd" d="M67.1035 129.639L58.1523 124.441V122.841L67.1035 128.04V129.639Z" fill="#9C9C9C"/>
<path fill-rule="evenodd" clip-rule="evenodd" d="M68.1345 130.219L66.5039 129.296V92.9375L68.1345 93.8603V130.219Z" fill="#9C9C9C"/>
<path fill-rule="evenodd" clip-rule="evenodd" d="M68.127 93.8591L69.7261 92.9673V129.325L68.127 130.217V93.8591Z" fill="#E6EAEB"/>
<path fill-rule="evenodd" clip-rule="evenodd" d="M68.1345 93.8521L66.5039 92.9293L68.0725 91.9761L69.7336 92.9603L68.1345 93.8521Z" fill="#C5CCD1"/>
<path fill-rule="evenodd" clip-rule="evenodd" d="M68.1345 126.4L66.5039 125.477V123.877L68.1345 124.831V126.4Z" fill="#9C9C9C"/>
<path fill-rule="evenodd" clip-rule="evenodd" d="M68.127 93.8591L69.7261 92.9673V129.325L68.127 130.217V93.8591Z" fill="#E6EAEB"/>
<path fill-rule="evenodd" clip-rule="evenodd" d="M96.4695 89.0631L88.0723 84.2338V82.6343L96.4695 87.494V89.0631Z" fill="#9C9C9C"/>
<path fill-rule="evenodd" clip-rule="evenodd" d="M38.094 53.2556L49.7214 46.5189L48.1528 45.5962L36.5254 52.3329L38.094 53.2556Z" fill="#C5CCD1"/>
<path fill-rule="evenodd" clip-rule="evenodd" d="M38.0879 54.8569L48.0852 49.0429V47.4434L38.0879 53.2573V54.8569Z" fill="#E6EAEB"/>
<path fill-rule="evenodd" clip-rule="evenodd" d="M39.709 65.8429L48.1063 61.0136V59.4141L39.709 64.2743V65.8429Z" fill="#E6EAEB"/>
<path fill-rule="evenodd" clip-rule="evenodd" d="M29.7969 71.6554L38.1942 66.7956V65.2266L29.7969 70.0558V71.6554Z" fill="#E6EAEB"/>
<path fill-rule="evenodd" clip-rule="evenodd" d="M19.7637 77.4381L28.161 72.6088V71.0093L19.7637 75.8695V77.4381Z" fill="#E6EAEB"/>
<path fill-rule="evenodd" clip-rule="evenodd" d="M56.4879 65.9029L48.1211 61.0427V59.4741L56.4879 64.3033V65.9029Z" fill="#9C9C9C"/>
<path fill-rule="evenodd" clip-rule="evenodd" d="M66.491 71.6856L58.0938 66.8564V65.2568L66.491 70.0861V71.6856Z" fill="#9C9C9C"/>
<path fill-rule="evenodd" clip-rule="evenodd" d="M76.4637 77.4984L68.0664 72.6382V71.0391L76.4637 75.8988V77.4984Z" fill="#9C9C9C"/>
<path fill-rule="evenodd" clip-rule="evenodd" d="M86.4974 83.2804L78.0996 78.4202V76.8516L86.4974 81.6808V83.2804Z" fill="#9C9C9C"/>
<path fill-rule="evenodd" clip-rule="evenodd" d="M26.5379 81.6724L18.1406 76.8432L19.7092 75.9204L28.1375 80.7806L26.5379 81.6724Z" fill="#C5CCD1"/>
<path fill-rule="evenodd" clip-rule="evenodd" d="M26.5379 83.2804L18.1406 78.4202V76.8516L26.5379 81.6808V83.2804Z" fill="#9C9C9C"/>
<path fill-rule="evenodd" clip-rule="evenodd" d="M36.5406 87.4856L28.1738 82.6259L29.7119 81.7031L38.1092 86.5629L36.5406 87.4856Z" fill="#C5CCD1"/>
<path fill-rule="evenodd" clip-rule="evenodd" d="M36.5406 89.0631L28.1738 84.2338V82.6343L36.5406 87.494V89.0631Z" fill="#9C9C9C"/>
<path fill-rule="evenodd" clip-rule="evenodd" d="M46.5438 93.2676L38.1465 88.4384L39.7151 87.5156L48.1128 92.3448L46.5438 93.2676Z" fill="#C5CCD1"/>
<path fill-rule="evenodd" clip-rule="evenodd" d="M46.5438 94.8756L38.1465 90.0154V88.4468L46.5438 93.276V94.8756Z" fill="#9C9C9C"/>
<path fill-rule="evenodd" clip-rule="evenodd" d="M56.4879 99.0955L48.1211 94.2357L49.6897 93.313L58.0874 98.1727L56.4879 99.0955Z" fill="#C5CCD1"/>
<path fill-rule="evenodd" clip-rule="evenodd" d="M56.4879 100.658L48.1211 95.7976V94.229L56.4879 99.0887V100.658Z" fill="#9C9C9C"/>
<path fill-rule="evenodd" clip-rule="evenodd" d="M66.491 104.879L58.0938 100.019L59.6623 99.0957L68.0596 103.956L66.491 104.879Z" fill="#C5CCD1"/>
<path fill-rule="evenodd" clip-rule="evenodd" d="M66.491 106.441L58.0938 101.611V100.012L66.491 104.871V106.441Z" fill="#9C9C9C"/>
<path fill-rule="evenodd" clip-rule="evenodd" d="M28.1828 107.059L26.5527 106.106V69.7476L28.1828 70.6703V107.059Z" fill="#9C9C9C"/>
<path fill-rule="evenodd" clip-rule="evenodd" d="M38.1555 123.146L36.5254 122.192V75.5298L38.1555 76.4831V123.146Z" fill="#9C9C9C"/>
<path fill-rule="evenodd" clip-rule="evenodd" d="M48.1891 118.623L46.5586 117.701V81.3423L48.1891 82.265V118.623Z" fill="#9C9C9C"/>
<path fill-rule="evenodd" clip-rule="evenodd" d="M58.1318 124.437L56.4707 123.483V87.125L58.1318 88.0478V124.437Z" fill="#9C9C9C"/>
<path fill-rule="evenodd" clip-rule="evenodd" d="M68.1345 130.219L66.5039 129.296V92.9375L68.1345 93.8603V130.219Z" fill="#9C9C9C"/>
<path fill-rule="evenodd" clip-rule="evenodd" d="M38.1797 76.4754L26.5527 69.7392L28.1213 68.8164L39.7487 75.5526L38.1797 76.4754Z" fill="#C5CCD1"/>
<path fill-rule="evenodd" clip-rule="evenodd" d="M69.0945 128.032L78.0456 122.803L76.5075 121.88L67.5254 127.109L69.0945 128.032Z" fill="#C5CCD1"/>
<path fill-rule="evenodd" clip-rule="evenodd" d="M68.1345 95.4598L66.5039 94.5066V92.9375L68.1345 93.8603V95.4598Z" fill="#9C9C9C"/>
<path fill-rule="evenodd" clip-rule="evenodd" d="M68.1345 95.4598L66.5039 94.5066V92.9375L68.1345 93.8603V95.4598Z" fill="#9C9C9C"/>
<path fill-rule="evenodd" clip-rule="evenodd" d="M78.1071 101.242L76.4766 100.319V98.7197L78.1071 99.6425V101.242Z" fill="#9C9C9C"/>
<path fill-rule="evenodd" clip-rule="evenodd" d="M78.1071 101.242L76.4766 100.319V98.7197L78.1071 99.6425V101.242Z" fill="#9C9C9C"/>
<path fill-rule="evenodd" clip-rule="evenodd" d="M78.1071 101.242L76.4766 100.319V98.7197L78.1071 99.6425V101.242Z" fill="#9C9C9C"/>
<path fill-rule="evenodd" clip-rule="evenodd" d="M88.1398 107.055L86.5098 106.102V104.502L88.1398 105.456V107.055Z" fill="#9C9C9C"/>
<path fill-rule="evenodd" clip-rule="evenodd" d="M88.1398 107.055L86.5098 106.102V104.502L88.1398 105.456V107.055Z" fill="#9C9C9C"/>
<path fill-rule="evenodd" clip-rule="evenodd" d="M98.113 76.4747L96.4824 75.5214L98.0515 74.5986L99.7121 75.5519L98.113 76.4747Z" fill="#C5CCD1"/>
<path fill-rule="evenodd" clip-rule="evenodd" d="M98.0515 76.4453L99.7121 75.4916L98.1435 74.5688L96.4824 75.5226L98.0515 76.4453Z" fill="#C5CCD1"/>
<path fill-rule="evenodd" clip-rule="evenodd" d="M98.0449 112.812L99.7055 111.858V75.5L98.0449 76.4537V112.812Z" fill="#E6EAEB"/>
<path fill-rule="evenodd" clip-rule="evenodd" d="M98.0515 76.4525L96.4824 75.5298V111.888L98.0515 112.81V76.4525Z" fill="#9C9C9C"/>
<path fill-rule="evenodd" clip-rule="evenodd" d="M98.0515 76.4453L99.7121 75.4916L98.1435 74.5688L96.4824 75.5226L98.0515 76.4453Z" fill="#C5CCD1"/>
<path fill-rule="evenodd" clip-rule="evenodd" d="M98.0449 112.812L99.7055 111.858V75.5L98.0449 76.4537V112.812Z" fill="#9C9C9C"/>
<path fill-rule="evenodd" clip-rule="evenodd" d="M98.0515 76.4453L99.7121 75.4916L98.1435 74.5688L96.4824 75.5226L98.0515 76.4453Z" fill="#C5CCD1"/>
<path fill-rule="evenodd" clip-rule="evenodd" d="M88.0784 82.2283L99.7053 75.4916L98.1367 74.5688L86.5098 81.3361L88.0784 82.2283Z" fill="#C5CCD1"/>
<path fill-rule="evenodd" clip-rule="evenodd" d="M88.0723 83.8363L99.6992 77.0996V75.5L88.0723 82.2367V83.8363Z" fill="#E6EAEB"/>
<path fill-rule="evenodd" clip-rule="evenodd" d="M89.7014 104.833L98.0992 100.004L96.5301 99.0503L88.1328 103.91L89.7014 104.833Z" fill="#C5CCD1"/>
<path fill-rule="evenodd" clip-rule="evenodd" d="M89.6934 106.41L98.0911 101.58V100.012L89.6934 104.841V106.41Z" fill="#E6EAEB"/>
<path fill-rule="evenodd" clip-rule="evenodd" d="M88.0784 82.2276L89.7084 81.2738L88.1398 80.3511L86.5098 81.3353L88.0784 82.2276Z" fill="#C5CCD1"/>
<path fill-rule="evenodd" clip-rule="evenodd" d="M88.0723 118.59L89.7023 117.667V116.067L88.0723 117.021V118.59Z" fill="#9C9C9C"/>
<path fill-rule="evenodd" clip-rule="evenodd" d="M89.1003 116.406L98.0514 111.208L96.5134 110.285L87.5312 115.514L89.1003 116.406Z" fill="#C5CCD1"/>
<path fill-rule="evenodd" clip-rule="evenodd" d="M88.0723 118.594L89.7023 117.671V81.2822L88.0723 82.236V118.594Z" fill="#E6EAEB"/>
<path fill-rule="evenodd" clip-rule="evenodd" d="M88.0784 82.2345L86.5098 81.3423V117.701L88.0784 118.592V82.2345Z" fill="#9C9C9C"/>
<path fill-rule="evenodd" clip-rule="evenodd" d="M68.1345 93.8521L66.5039 92.9293L68.0725 91.9761L69.7336 92.9603L68.1345 93.8521Z" fill="#C5CCD1"/>
<path fill-rule="evenodd" clip-rule="evenodd" d="M68.1345 130.219L66.5039 129.296V92.9375L68.1345 93.8603V130.219Z" fill="#9C9C9C"/>
<path fill-rule="evenodd" clip-rule="evenodd" d="M88.0784 82.2276L89.7084 81.2738L88.1398 80.3511L86.5098 81.3353L88.0784 82.2276Z" fill="#C5CCD1"/>
<path fill-rule="evenodd" clip-rule="evenodd" d="M88.0723 118.59L89.7023 117.667V116.067L88.0723 117.021V118.59Z" fill="#9C9C9C"/>
<path fill-rule="evenodd" clip-rule="evenodd" d="M88.0723 118.594L89.7023 117.671V81.2822L88.0723 82.236V118.594Z" fill="#9C9C9C"/>
<path fill-rule="evenodd" clip-rule="evenodd" d="M88.0784 82.2345L86.5098 81.3423V117.701L88.0784 118.592V82.2345Z" fill="#E6EAEB"/>
<path fill-rule="evenodd" clip-rule="evenodd" d="M88.0784 82.2276L89.7084 81.2738L88.1398 80.3511L86.5098 81.3353L88.0784 82.2276Z" fill="#C5CCD1"/>
<path fill-rule="evenodd" clip-rule="evenodd" d="M88.0723 118.59L89.7023 117.667V116.067L88.0723 117.021V118.59Z" fill="#9C9C9C"/>
<path fill-rule="evenodd" clip-rule="evenodd" d="M88.0723 118.594L89.7023 117.671V81.2822L88.0723 82.236V118.594Z" fill="#9C9C9C"/>
<path fill-rule="evenodd" clip-rule="evenodd" d="M88.0784 82.2345L86.5098 81.3423V117.701L88.0784 118.592V82.2345Z" fill="#E6EAEB"/>
<path fill-rule="evenodd" clip-rule="evenodd" d="M88.0784 82.2276L89.7084 81.2738L88.1398 80.3511L86.5098 81.3353L88.0784 82.2276Z" fill="#C5CCD1"/>
<path fill-rule="evenodd" clip-rule="evenodd" d="M88.0723 118.59L89.7023 117.667V116.067L88.0723 117.021V118.59Z" fill="#9C9C9C"/>
<path fill-rule="evenodd" clip-rule="evenodd" d="M88.0784 82.2345L86.5098 81.3423V117.701L88.0784 118.592V82.2345Z" fill="#9C9C9C"/>
<path fill-rule="evenodd" clip-rule="evenodd" d="M78.0391 89.618L89.666 82.8818V81.2822L78.0391 88.0185V89.618Z" fill="#E6EAEB"/>
<path fill-rule="evenodd" clip-rule="evenodd" d="M79.6682 110.63L88.0655 105.77L86.4969 104.878L78.0996 109.707L79.6682 110.63Z" fill="#C5CCD1"/>
<path fill-rule="evenodd" clip-rule="evenodd" d="M79.6621 112.193L88.0594 107.364V105.764L79.6621 110.624V112.193Z" fill="#E6EAEB"/>
<path fill-rule="evenodd" clip-rule="evenodd" d="M78.0456 88.0091L79.6757 87.0863L78.1376 86.1636L76.4766 87.1173L78.0456 88.0091Z" fill="#C5CCD1"/>
<path fill-rule="evenodd" clip-rule="evenodd" d="M78.0391 124.403L79.6691 123.45V121.85L78.0391 122.804V124.403Z" fill="#9C9C9C"/>
<path fill-rule="evenodd" clip-rule="evenodd" d="M79.0976 122.22L88.0487 117.021L86.4801 116.067L77.498 121.296L79.0976 122.22Z" fill="#C5CCD1"/>
<path fill-rule="evenodd" clip-rule="evenodd" d="M78.0391 124.407L79.6691 123.453V87.0947L78.0391 88.0175V124.407Z" fill="#9C9C9C"/>
<path fill-rule="evenodd" clip-rule="evenodd" d="M78.0456 88.0168L76.4766 87.125V123.483L78.0456 124.406V88.0168Z" fill="#E6EAEB"/>
<path fill-rule="evenodd" clip-rule="evenodd" d="M78.0456 88.0091L79.6757 87.0863L78.1376 86.1636L76.4766 87.1173L78.0456 88.0091Z" fill="#C5CCD1"/>
<path fill-rule="evenodd" clip-rule="evenodd" d="M78.0391 124.403L79.6691 123.45V121.85L78.0391 122.804V124.403Z" fill="#9C9C9C"/>
<path fill-rule="evenodd" clip-rule="evenodd" d="M78.0456 88.0168L76.4766 87.125V123.483L78.0456 124.406V88.0168Z" fill="#9C9C9C"/>
<path fill-rule="evenodd" clip-rule="evenodd" d="M68.0725 93.823L79.6999 87.0863L78.1618 86.1636L66.5039 92.9308L68.0725 93.823Z" fill="#C5CCD1"/>
<path fill-rule="evenodd" clip-rule="evenodd" d="M68.0664 95.431L79.6938 88.6638V87.0947L68.0664 93.8314V95.431Z" fill="#E6EAEB"/>
<path fill-rule="evenodd" clip-rule="evenodd" d="M69.7261 116.444L78.1238 111.583L76.5547 110.661L68.127 115.521L69.7261 116.444Z" fill="#C5CCD1"/>
<path fill-rule="evenodd" clip-rule="evenodd" d="M69.748 118.005L78.1458 113.176V111.577L69.748 116.437V118.005Z" fill="#E6EAEB"/>
<path fill-rule="evenodd" clip-rule="evenodd" d="M68.0725 93.8228L69.7336 92.9L68.165 91.9463L66.5039 92.9305L68.0725 93.8228Z" fill="#C5CCD1"/>
<path fill-rule="evenodd" clip-rule="evenodd" d="M89.7014 93.2378L98.0992 88.4081L96.5301 87.4854L88.1328 92.315L89.7014 93.2378Z" fill="#C5CCD1"/>
<path fill-rule="evenodd" clip-rule="evenodd" d="M89.6934 94.8453L98.0911 89.9856V88.4165L89.6934 93.2462V94.8453Z" fill="#E6EAEB"/>
<path fill-rule="evenodd" clip-rule="evenodd" d="M79.6682 99.02L88.0655 94.1908L86.4969 93.2681L78.0996 98.0973L79.6682 99.02Z" fill="#C5CCD1"/>
<path fill-rule="evenodd" clip-rule="evenodd" d="M79.6621 100.628L88.0594 95.7988V94.1992L79.6621 99.0284V100.628Z" fill="#E6EAEB"/>
<path fill-rule="evenodd" clip-rule="evenodd" d="M69.7261 104.848L78.1238 100.019L76.5547 99.0957L68.127 103.925L69.7261 104.848Z" fill="#C5CCD1"/>
<path fill-rule="evenodd" clip-rule="evenodd" d="M69.748 106.41L78.1458 101.58V100.012L69.748 104.841V106.41Z" fill="#E6EAEB"/>
<path fill-rule="evenodd" clip-rule="evenodd" d="M98.0449 112.812L99.7055 111.858V75.5L98.0449 76.4537V112.812Z" fill="#E6EAEB"/>
<path fill-rule="evenodd" clip-rule="evenodd" d="M88.0723 118.594L89.7023 117.671V81.2822L88.0723 82.236V118.594Z" fill="#E6EAEB"/>
<path fill-rule="evenodd" clip-rule="evenodd" d="M78.0391 124.407L79.6691 123.453V87.0947L78.0391 88.0175V124.407Z" fill="#E6EAEB"/>
<path fill-rule="evenodd" clip-rule="evenodd" d="M78.0456 88.0101L89.6726 81.2738L88.104 80.3511L76.4766 87.1183L78.0456 88.0101Z" fill="#C5CCD1"/>
<path fill-rule="evenodd" clip-rule="evenodd" d="M68.127 128.405V130.22L99.6556 112.04V110.195L68.127 128.405Z" fill="#E6EAEB"/>
<path fill-rule="evenodd" clip-rule="evenodd" d="M68.127 93.8591L69.7261 92.9673V129.325L68.127 130.217V93.8591Z" fill="#E6EAEB"/>
<path fill-rule="evenodd" clip-rule="evenodd" d="M16.5508 63.9344L4.92383 57.1977L6.46144 56.2749L18.1198 63.0116L16.5508 63.9344Z" fill="#C5CCD1"/>
<path fill-rule="evenodd" clip-rule="evenodd" d="M16.5508 65.5277L4.92383 58.791V57.1914L16.5508 63.9281V65.5277Z" fill="#9C9C9C"/>
<path fill-rule="evenodd" clip-rule="evenodd" d="M68.8538 140.68L100.229 122.532L98.6603 121.609L67.2852 139.758L68.8538 140.68Z" fill="#C5CCD1"/>
<path fill-rule="evenodd" clip-rule="evenodd" d="M68.666 142.366L100.226 124.125V122.526L68.666 140.767V142.366Z" fill="#9C9C9C"/>
<path fill-rule="evenodd" clip-rule="evenodd" d="M46.5898 46.5122L34.9629 39.745L36.5315 38.8223L48.1589 45.5895L46.5898 46.5122Z" fill="#C5CCD1"/>
<path fill-rule="evenodd" clip-rule="evenodd" d="M46.5898 48.0897L34.9629 41.353V39.7534L46.5898 46.4901V48.0897Z" fill="#9C9C9C"/>
<path fill-rule="evenodd" clip-rule="evenodd" d="M43.5421 36.7748C43.173 36.1596 42.7116 35.6368 42.1579 35.3292C41.6043 35.0216 41.1429 34.9909 40.7738 35.2062C40.4354 35.3908 40.1895 35.8522 40.1895 36.4674C40.1895 37.0826 40.4047 37.7594 40.7738 38.4054C41.1429 39.0206 41.6043 39.5742 42.1579 39.851C42.7116 40.1586 43.173 40.1893 43.5421 39.974C43.8804 39.7894 44.1264 39.328 44.1264 38.7128C44.1264 38.0976 43.8804 37.39 43.5421 36.7748Z" fill="#BFC7C9"/>
<path fill-rule="evenodd" clip-rule="evenodd" d="M42.0857 35.2988C40.8861 34.6836 40.2096 35.5139 39.133 36.1291C26.9829 43.1424 0.80586 58.2458 0.959659 58.1843C3.02057 57.3845 5.23545 62.3983 3.63594 63.0135C3.48214 63.0443 29.6589 47.9716 41.8398 40.9584C43.7469 39.8818 44.9771 39.4513 43.5314 36.806C43.2238 36.2215 42.6394 35.6064 42.0857 35.2988Z" fill="#FAC13C"/>
<path fill-rule="evenodd" clip-rule="evenodd" d="M3.65192 59.8447C3.2828 59.2295 2.82099 58.7066 2.26732 58.399C1.71364 58.0914 1.22154 58.0607 0.883179 58.2761C0.514061 58.4914 0.298828 58.922 0.298828 59.5372C0.298828 60.1832 0.514061 60.86 0.883179 61.4752C1.22154 62.0904 1.71364 62.6134 2.26732 62.9518C2.82099 63.2594 3.2828 63.2901 3.65192 63.0748C3.99028 62.8595 4.23627 62.4288 4.23627 61.8136C4.20551 61.1369 3.99028 60.4599 3.65192 59.8447Z" fill="#F5BE3D"/>
<path fill-rule="evenodd" clip-rule="evenodd" d="M42.1824 35.3249L42.1209 35.2944H42.0594L42.0284 35.2634L41.967 35.2329L2.04102 58.2718L2.1025 58.3028L2.13301 58.3333L2.1945 58.3643H2.25598L2.28696 58.4258H2.34845L2.40993 58.4873L2.44091 58.5178L2.50239 58.5487L2.56388 58.5797L2.59439 58.6102L2.62537 58.6412L2.68685 58.7027L2.71736 58.7332L2.77932 58.7642L2.8408 58.8257L2.87131 58.8562L2.90229 58.9177L2.96377 58.9486L2.99428 58.9791L3.05577 59.0411L3.08675 59.1026H3.11725L43.0132 36.0632V36.0327L42.9822 36.0017L42.9207 35.9402L42.8897 35.9093L42.8282 35.8787L42.7977 35.8173L42.7362 35.7863L42.7053 35.7248L42.6438 35.6943L42.6133 35.6633L42.5518 35.6018L42.5208 35.5713L42.4593 35.5403L42.3978 35.4789L42.3668 35.4479L42.3054 35.4174L42.2749 35.3864L42.2134 35.3559L42.1824 35.3249Z" fill="#FFDC6A"/>
<path fill-rule="evenodd" clip-rule="evenodd" d="M3.90234 60.5399L3.93285 60.6013L3.96383 60.6628V60.7243L3.99434 60.7858L4.02532 60.8473V60.9088L4.05629 60.9703V61.0318L4.0868 61.0932V61.1552V61.2167L4.11778 61.2782V61.3396V61.4011L4.14829 61.4626V61.5241V61.5856V61.6166V61.7086V61.7701V61.801V61.8625V61.924V61.9855L44.0747 38.9466V38.8846V38.8231V38.7617V38.7002V38.6387V38.5772V38.5157V38.4852V38.4232L44.0437 38.3618V38.3003V38.2388V38.1773L44.0132 38.1158V38.0543L43.9822 37.9928V37.9314L43.9517 37.8699V37.8084L43.9207 37.7469L43.8902 37.6854V37.6239L43.8593 37.562L43.8287 37.5005L3.90234 60.5399Z" fill="#E6B543"/>
<path fill-rule="evenodd" clip-rule="evenodd" d="M3.22199 60.0588C2.91439 59.5052 2.48349 59.044 1.99133 58.7672C1.49918 58.4903 1.0995 58.4596 0.761146 58.6442C0.453548 58.798 0.238281 59.1977 0.238281 59.7514C0.238281 60.3051 0.422788 60.9203 0.761146 61.4739C1.0995 62.0276 1.49918 62.4888 1.99133 62.7656C2.48349 63.0425 2.91439 63.0736 3.22199 62.8891C3.52959 62.7045 3.74485 62.3043 3.74485 61.7814C3.74485 61.1969 3.56035 60.6125 3.22199 60.0588Z" fill="#D19917"/>
<path fill-rule="evenodd" clip-rule="evenodd" d="M81.3553 6.65541L72.5581 1.57977L71.5119 1.24136L70.4357 0.964909L69.2975 0.779982L68.1288 0.687988H66.9291L65.6984 0.718497L64.4373 0.903424L63.1456 1.14937L61.823 1.4568L60.4693 1.88767L59.1157 2.37955L57.7011 2.99488L56.3169 3.70221L54.8713 4.47148L53.4252 5.33276L52.0106 6.28602L50.6264 7.27026L49.2728 8.37795L47.9192 9.48517L46.5965 10.6848L45.3048 11.946L44.0437 13.2377L42.813 14.5913L41.6133 16.0064L40.4446 17.452L39.3064 18.9286L38.2302 20.4663L37.1535 22.0353L36.1693 23.6349L35.1845 25.234L34.2618 26.8951L33.4005 28.5561L32.5702 30.2482L31.8014 31.9707L31.0631 33.6932L30.4168 35.4158L29.771 37.1688L29.2171 38.8914L28.7252 40.6449L28.2944 42.3984L27.9255 44.121L27.587 45.874L27.3716 47.5966L27.1872 49.2886L27.0642 51.0111L27.0332 52.6722L27.0642 54.3023L27.1872 55.8709L27.3716 57.3785L27.587 58.8241L27.9255 60.1772L28.2944 61.4999L28.7252 62.7305L29.2171 63.8992L29.771 65.0069L30.4168 66.0527L31.0631 67.0059L31.8014 67.8982L32.5702 68.698L33.4005 69.4363L42.1982 74.5114L41.3674 73.7731L40.5986 72.9733L39.8603 72.0816L39.1835 71.1278L38.5991 70.0821L38.0453 69.0054L37.5224 67.8367L37.092 66.5755L36.7226 65.2834L36.4152 63.8992L36.1693 62.4536L35.9843 60.9465L35.8614 59.3775V57.7474V56.0863L35.9843 54.3947L36.1693 52.6722L36.4152 50.9497L36.7226 49.2271L37.092 47.4736L37.5224 45.7201L38.0453 43.967L38.5991 42.2445L39.1835 40.491L39.8603 38.7684L40.5986 37.0459L41.3674 35.3233L42.1982 33.6318L43.0594 31.9707L44.0127 30.3096L44.9664 28.7101L45.9817 27.1105L47.0274 25.5419L48.1041 24.0038L49.2418 22.5272L50.411 21.0816L51.6107 19.6975L52.8409 18.3133L54.102 17.0212L55.3942 15.76L56.7168 14.5913L58.07 13.4531L59.4541 12.3764L60.8382 11.3617L62.2228 10.4079L63.6685 9.54665L65.1141 8.77784L66.5292 8.07005L67.9133 7.4857L69.2665 6.96284L70.6201 6.53243L71.9428 6.22454L73.2345 5.97859L74.4956 5.82464L75.7263 5.76316H76.926L78.0947 5.85562L79.2328 6.04008L80.3096 6.317L81.3553 6.65541Z" fill="#298C52"/>
<path fill-rule="evenodd" clip-rule="evenodd" d="M63.6423 73.8014C79.0222 64.9425 91.449 43.3796 91.449 25.6312C91.449 7.88273 78.9915 0.685294 63.6423 9.57489C48.2931 18.4645 35.8047 40.0272 35.8047 57.7756C35.8354 75.4933 48.2931 82.691 63.6423 73.8014Z" fill="#27AE60"/>
<path fill-rule="evenodd" clip-rule="evenodd" d="M67.2747 17.3296V61.8388L60.0156 66.0532V28.895V21.5435L67.2747 17.3296Z" fill="#E6E6E6"/>
<path fill-rule="evenodd" clip-rule="evenodd" d="M82.9673 26.3413L44.3945 48.6114V57.0087L76.569 38.4606L82.9673 34.7696V26.3413Z" fill="#E6E6E6"/>
</svg>
