<svg width="158" height="158" viewBox="0 0 158 158" fill="none" xmlns="http://www.w3.org/2000/svg">
<path d="M37.6219 38.4852L37.623 38.4842C38.0282 38.0772 38.5097 37.754 39.04 37.5334C39.5703 37.3128 40.1389 37.1992 40.7133 37.1992C41.2877 37.1992 41.8563 37.3128 42.3867 37.5334C42.917 37.754 43.3984 38.0772 43.8037 38.4842M43.8037 38.4842L42.7407 39.5425M43.8037 38.4842C43.8035 38.484 43.8033 38.4838 43.8031 38.4836L42.7407 39.5425M43.8037 38.4842C44.2089 38.8909 44.53 39.3734 44.7491 39.904C44.9682 40.4349 45.0809 41.0037 45.0809 41.578C45.0809 42.1523 44.9682 42.7212 44.7491 43.252C44.5301 43.7826 44.209 44.265 43.8039 44.6717C43.8042 44.6714 43.8044 44.6712 43.8047 44.6709L42.7407 43.6135C43.0071 43.3463 43.2184 43.029 43.3625 42.6797C43.5067 42.3305 43.5809 41.9561 43.5809 41.578C43.5809 41.2 43.5067 40.8256 43.3625 40.4764C43.2184 40.1271 43.0071 39.8098 42.7407 39.5425" fill="#939393" stroke="#939393" stroke-width="3"/>
<path d="M153.489 143.815L119.404 109.597C129.773 96.6232 134.931 80.2024 133.828 63.5742C132.695 46.4897 125.04 30.5014 112.456 18.9404C99.871 7.37929 83.3276 1.13727 66.2711 1.5163C49.2147 1.89534 32.9628 8.86616 20.9003 20.9749C8.83808 33.0834 1.89525 49.3959 1.51636 66.514C1.13747 83.6321 7.35167 100.238 18.8661 112.872C30.3807 125.507 46.3081 133.195 63.3308 134.335C79.8951 135.443 96.2518 130.267 109.176 119.863L143.253 154.074C144.61 155.436 146.45 156.202 148.371 156.202C150.292 156.202 152.132 155.436 153.489 154.074C154.845 152.713 155.605 150.868 155.605 148.945C155.605 147.022 154.845 145.177 153.489 143.815ZM31.2459 104.765C22.7877 96.2738 17.523 85.1 16.3502 73.1472C15.1774 61.1941 18.1693 49.203 24.8153 39.2173C31.4613 29.2316 41.3496 21.8696 52.7945 18.3841C64.2394 14.8986 76.5339 15.5048 87.5837 20.0996C98.6336 24.6944 107.756 32.9942 113.395 43.5859C119.035 54.1778 120.842 66.4057 118.508 78.1857C116.174 89.9657 109.844 100.568 100.597 108.186C91.3512 115.803 79.7612 119.966 67.8019 119.967C54.0933 119.96 40.9461 114.493 31.2459 104.765Z" fill="#3BB30B" stroke="#3BB30B" stroke-width="3"/>
</svg>
