<svg width="100" height="100" viewBox="0 0 100 100" fill="none" xmlns="http://www.w3.org/2000/svg">
<path d="M47.5 77C46.0413 77 44.6424 76.4205 43.6109 75.3891C42.5795 74.3576 42 72.9587 42 71.5V5.5C42 4.04131 42.5795 2.64236 43.6109 1.61091C44.6424 0.579462 46.0413 0 47.5 0C48.9587 0 50.3576 0.579462 51.3891 1.61091C52.4205 2.64236 53 4.04131 53 5.5V71.5C53 72.9587 52.4205 74.3576 51.3891 75.3891C50.3576 76.4205 48.9587 77 47.5 77Z" fill="white"/>
<path d="M48 77C46.5384 76.9997 45.1368 76.4266 44.1035 75.4066L16.5471 48.216C15.5432 47.1904 14.9877 45.8167 15.0002 44.3909C15.0128 42.965 15.5924 41.6011 16.6142 40.5928C17.6361 39.5845 19.0184 39.0126 20.4634 39.0002C21.9084 38.9878 23.3006 39.5359 24.34 40.5265L48 63.8724L71.6599 40.5265C72.6994 39.5359 74.0916 38.9878 75.5366 39.0002C76.9816 39.0126 78.3639 39.5845 79.3858 40.5928C80.4076 41.6011 80.9872 42.965 80.9998 44.3909C81.0123 45.8167 80.4568 47.1904 79.4529 48.216L51.8965 75.4066C50.8631 76.4266 49.4616 76.9997 48 77Z" fill="white"/>
<path d="M86.5 100H9.5C8.04131 100 6.64236 99.3679 5.61091 98.2426C4.57946 97.1174 4 95.5913 4 94C4 92.4087 4.57946 90.8826 5.61091 89.7574C6.64236 88.6321 8.04131 88 9.5 88H86.5C87.9587 88 89.3576 88.6321 90.3891 89.7574C91.4205 90.8826 92 92.4087 92 94C92 95.5913 91.4205 97.1174 90.3891 98.2426C89.3576 99.3679 87.9587 100 86.5 100Z" fill="white"/>
</svg>
