<svg width="150" height="150" viewBox="0 0 150 150" fill="none" xmlns="http://www.w3.org/2000/svg">
<path d="M94.2126 134.486L94.2132 134.485C100.198 132.545 105.899 129.72 110.99 126.087L110.994 126.084C116.237 122.357 120.828 117.904 124.754 112.802L124.754 112.802C128.577 107.837 131.567 102.287 133.743 96.3766L133.743 96.3756C135.974 90.3219 137.191 83.8832 137.451 77.4001L94.2126 134.486ZM94.2126 134.486C88.0417 136.488 81.5174 137.486 74.9969 137.5H74.9854C71.7251 137.5 68.46 137.215 65.1845 136.719C58.8736 135.754 52.7215 133.738 46.9777 130.881C41.4182 128.101 36.2567 124.43 31.7462 120.125L31.7461 120.125C27.2583 115.843 23.383 110.835 20.3693 105.409C17.2943 99.861 15.031 93.8441 13.7783 87.6509C12.4781 81.1785 12.1395 74.5172 12.902 67.9826L12.9021 67.9814C13.6671 61.398 15.4143 55.078 18.1461 49.0268C20.7196 43.3496 24.1978 38.0817 28.3544 33.4061L28.3574 33.4027C32.4718 28.7575 37.3434 24.7309 42.6574 21.5073L42.6588 21.5065C48.0461 18.2336 53.9814 15.778 60.1041 14.2918L60.1072 14.2911C66.4834 12.7348 73.1448 12.1759 79.6755 12.6803C86.1108 13.1872 92.4489 14.6092 98.3689 17.0665L98.379 17.0707C104.38 19.5309 109.898 22.8224 114.898 26.9341C119.677 30.8678 123.855 35.5887 127.289 40.7866L127.289 40.7868C130.763 46.0445 133.425 51.9109 135.145 57.9856L135.146 57.9893M94.2126 134.486L135.146 57.9893M135.146 57.9893C136.932 64.2594 137.711 70.8773 137.451 77.3992L135.146 57.9893ZM51.8302 70.3457L51.8279 70.3505C49.8968 74.3409 50.5459 79.0177 53.7377 82.2551C54.0203 82.5475 54.327 82.8506 54.6048 83.1251C54.7326 83.2515 54.8543 83.3718 54.9648 83.4822L61.5009 90.0175L68.0371 96.5529C69.2364 97.752 70.4371 98.9605 71.6408 100.172C74.0564 102.603 76.4834 105.045 78.9324 107.447L79.0158 107.53L79.1081 107.622C81.5702 110.084 86.1176 110.403 88.7372 107.543C91.0865 104.98 91.4137 100.821 88.6615 98.0694L79.8473 89.2563L72.9492 82.3591L66.0511 75.4619L65.5908 75.0016L68.4782 72.1146L71.473 69.1201L85.4253 55.1696L85.6276 54.9674L85.7287 54.8663L85.8298 54.7652L86.0321 54.5629L86.2344 54.3607L86.3355 54.2596L86.4366 54.1585L86.6389 53.9562L86.8411 53.754L86.9423 53.6529L87.0434 53.5518L87.1445 53.4506L87.1698 53.4254L87.1951 53.4001L87.2456 53.3495L87.4479 53.1473L87.549 53.0462L87.6502 52.9451L87.8524 52.7428L87.903 52.6923L87.9536 52.6417L87.9662 52.6291L87.9788 52.6164L88.0041 52.5911L88.0294 52.5659L88.0547 52.5406L88.2569 52.3384L88.3075 52.2878L88.3328 52.2625L88.3581 52.2372L88.3598 52.2355C88.3588 52.2365 88.3609 52.2345 88.3707 52.2246L88.377 52.2183L88.3834 52.212L88.4086 52.1867L88.4339 52.1614L88.4592 52.1361L88.6615 51.9339C91.1287 49.4669 91.4347 44.9413 88.5907 42.3128C86.0347 39.9504 81.8568 39.6324 79.1081 42.3808L74.481 47.0073L69.8539 51.6339L55.9584 65.5276C55.72 65.7659 55.4649 66.0082 55.1759 66.2827C55.1251 66.331 55.0732 66.3803 55.0201 66.4307C54.6781 66.7559 54.2994 67.119 53.9288 67.5024C53.2047 68.2517 52.3858 69.2038 51.8302 70.3457Z" fill="white" fill-opacity="0.5" stroke="#3BB30B" stroke-width="5"/>
</svg>
