<svg width="180" height="263" viewBox="0 0 180 263" fill="none" xmlns="http://www.w3.org/2000/svg">
<path fill-rule="evenodd" clip-rule="evenodd" d="M153.623 173.613C188.792 193.911 188.792 226.799 153.623 247.098C118.455 267.396 61.4826 267.396 26.3595 247.098C-8.76367 226.799 -8.80929 193.911 26.3595 173.613C61.5282 153.315 118.455 153.269 153.623 173.613Z" fill="#E9E9EB"/>
<path fill-rule="evenodd" clip-rule="evenodd" d="M140.21 181.326C167.897 197.383 167.897 223.338 140.21 239.303C112.476 255.359 67.4996 255.359 39.766 239.303C12.078 223.292 12.078 197.337 39.766 181.326C67.4996 165.361 112.43 165.361 140.21 181.326Z" fill="#DDDEE1"/>
<path fill-rule="evenodd" clip-rule="evenodd" d="M126.788 189.08C147.133 200.803 147.133 219.824 126.788 231.593C106.49 243.361 73.5565 243.361 53.258 231.593C32.914 219.824 32.914 200.803 53.258 189.08C73.5565 177.402 106.444 177.402 126.788 189.08Z" fill="#D1D2D6"/>
<path fill-rule="evenodd" clip-rule="evenodd" d="M100.641 173.813L98.4325 178.117L98.2829 178.341L98.1333 178.566L97.9461 178.827L97.7588 179.052L97.5726 179.277L97.31 179.501L97.0485 179.726L96.7493 179.95L96.4501 180.137L96.1498 180.324L95.7764 180.512L95.4395 180.699L95.0649 180.848L94.6538 181.036L94.317 181.148L93.9047 181.297L93.4936 181.409L93.0814 181.522L92.708 181.559L92.258 181.634L91.8093 181.708L91.4358 181.784L90.9859 181.821H90.5371L90.0507 181.859H89.6761H89.2273L88.7785 181.821H88.3674L87.9175 181.784L87.4687 181.708L87.02 181.634L86.6454 181.559L86.1966 181.522L85.7855 181.409L85.3733 181.297L84.9987 181.148L84.6253 181.036L84.2507 180.848L83.8396 180.699L83.5405 180.512L83.2036 180.324L82.8667 180.137L82.5298 179.95L82.2672 179.726L82.0057 179.501L81.7807 179.277L81.5569 179.052L81.3319 178.827L81.1447 178.566L80.9951 178.341L80.8455 178.117L78.6758 173.813L78.8631 174.113L79.0492 174.413L79.2365 174.712L79.4991 175.049L79.7983 175.31L80.0975 175.573L80.4344 175.834L80.7712 176.133L81.1447 176.358L81.5569 176.62L82.0057 176.881L82.4179 177.069L82.8667 177.256L83.3532 177.443L83.8396 177.631L84.3261 177.818L84.8491 177.93L85.3356 178.079L85.8597 178.191L86.4216 178.304L86.908 178.378L87.4687 178.416L88.0306 178.49H88.5536L89.1154 178.528H89.6761H90.2003L90.7621 178.49H91.3228L91.8093 178.416L92.3711 178.378L92.9318 178.304L93.4183 178.191L93.9424 178.079L94.4666 177.93L94.953 177.818L95.4772 177.631L95.9636 177.443L96.4124 177.256L96.8612 177.069L97.31 176.881L97.7588 176.62L98.1333 176.358L98.5456 176.133L98.8813 175.834L99.2182 175.573L99.5174 175.31L99.78 175.049L100.042 174.712L100.266 174.413L100.454 174.113L100.641 173.813Z" fill="#2C3E50"/>
<path fill-rule="evenodd" clip-rule="evenodd" d="M111.221 163.599L106.918 172.019L106.655 172.467L106.319 172.954L105.983 173.44L105.571 173.851L105.159 174.3L104.673 174.75L104.149 175.199L103.625 175.574L103.026 175.985L102.39 176.396L101.716 176.77L101.005 177.069L100.295 177.406L99.5456 177.706L98.7977 178.005L98.012 178.267L97.264 178.455L96.4407 178.641L95.6174 178.828L94.7563 178.978L93.9707 179.127L93.1097 179.24L92.2498 179.315L91.4264 179.39L90.5277 179.428H89.7044H88.8068L87.9835 179.39L87.0859 179.315L86.2626 179.24L85.4015 179.127L84.5782 178.978L83.7549 178.828L82.895 178.641L82.1459 178.455L81.3225 178.267L80.5746 178.005L79.7889 177.706L79.0775 177.406L78.3295 177.069L77.6181 176.77L76.982 176.396L76.3094 175.985L75.7476 175.574L75.1869 175.199L74.6627 174.75L74.2139 174.3L73.764 173.851L73.3529 173.44L73.016 172.954L72.7169 172.467L72.4542 172.019L68.1514 163.599L68.4506 164.235L68.8628 164.796L69.3116 165.395L69.7604 165.956L70.3222 166.518L70.9206 167.079L71.5566 167.565L72.2681 168.089L72.9784 168.613L73.8017 169.062L74.625 169.549L75.5226 169.997L76.3836 170.372L77.3189 170.745L78.2541 171.082L79.2271 171.419L80.2377 171.682L81.2106 171.943L82.2212 172.168L83.3061 172.318L84.3167 172.505L85.3639 172.655L86.4499 172.729L87.5347 172.841L88.5819 172.879H89.7044H90.7527L91.8375 172.841L92.9235 172.729L93.9707 172.655L95.019 172.505L96.1038 172.318L97.1145 172.168L98.1239 171.943L99.1722 171.682L100.145 171.419L101.08 171.082L102.053 170.745L102.951 170.372L103.887 169.997L104.71 169.549L105.571 169.062L106.356 168.613L107.142 168.089L107.778 167.565L108.452 167.079L109.013 166.518L109.574 165.956L110.061 165.395L110.473 164.796L110.884 164.235L111.221 163.599Z" fill="#3D566E"/>
<path fill-rule="evenodd" clip-rule="evenodd" d="M105.486 172.988C111.473 169.508 113.381 164.568 111.099 160.19L106.833 151.809L106.533 151.322L106.234 150.873L105.86 150.387L105.486 149.937L105.036 149.45L104.55 149.002L104.027 148.591L103.465 148.178L102.867 147.767L102.193 147.355L101.519 146.982L100.809 146.645L100.097 146.308L99.3494 146.009L98.5638 145.746L97.777 145.484L96.9913 145.223L96.2057 145.036L95.3823 144.848L94.5967 144.699L93.7733 144.587L92.95 144.474L92.1266 144.362L91.3044 144.324L90.4434 144.287L89.6201 144.25L88.759 144.287L87.9357 144.324L87.0758 144.362L86.2525 144.474L85.4291 144.587L84.6058 144.699L83.8201 144.848L83.0345 145.036L82.2488 145.223L81.4632 145.484L80.6764 145.746L79.9284 146.009L79.1428 146.308L78.4313 146.645L77.721 146.982L77.0473 147.355L76.4112 147.767L75.7752 148.178L75.2133 148.591L74.6903 149.002L74.2039 149.45L73.7916 149.937L73.3805 150.387L73.006 150.873L72.7068 151.322L72.4441 151.809L68.179 160.19C65.8964 164.568 67.7669 169.508 73.7539 172.988C82.5848 178.002 96.7301 178.002 105.486 172.988Z" fill="#2C3E50"/>
<path fill-rule="evenodd" clip-rule="evenodd" d="M111.8 162.21C111.651 161.5 111.389 160.864 111.052 160.19L106.786 151.809L106.487 151.322L106.188 150.873L105.814 150.387L105.44 149.937L104.991 149.45L104.504 149.002L103.98 148.591L103.418 148.178L102.82 147.767L102.146 147.355L101.472 146.982L100.762 146.645L100.051 146.308L99.3028 146.009L98.5171 145.746L97.7315 145.484L96.9447 145.223L96.159 145.036L95.3357 144.848L94.55 144.699L93.7267 144.587L92.9045 144.474L92.0812 144.362L91.2578 144.324L90.3968 144.287L89.5734 144.25L88.7136 144.287L87.8902 144.324L87.0292 144.362L86.2059 144.474L85.3825 144.587L84.5592 144.699L83.7735 144.848L82.9879 145.036L82.2022 145.223L81.4166 145.484L80.6309 145.746L79.8818 146.009L79.0961 146.308L78.3858 146.645L77.6744 146.982L77.0007 147.355L76.3646 147.767L75.7285 148.178L75.1678 148.591L74.6437 149.002L74.1572 149.45L73.745 149.937L73.3339 150.387L72.997 150.873L72.6601 151.322L72.3986 151.809L68.1323 160.19C67.7581 160.864 67.4964 161.5 67.3467 162.21C67.9828 164.942 70.0788 167.637 73.7084 169.695C82.4271 174.746 96.5716 174.746 105.328 169.695C109.07 167.599 111.202 164.942 111.8 162.21Z" fill="#3D566E"/>
<path fill-rule="evenodd" clip-rule="evenodd" d="M27.0914 86.8882C28.3263 86.8882 29.3365 87.8619 29.3365 89.0967C29.3365 90.3315 28.3637 91.3418 27.0914 91.3418H2.24506C1.04765 91.3418 0 90.369 0 89.0967C0 87.8993 1.01023 86.8882 2.24506 86.8882H27.0914Z" fill="#FFED00"/>
<path fill-rule="evenodd" clip-rule="evenodd" d="M45.4302 41.5777C46.2534 42.4009 46.2534 43.8606 45.4302 44.6838C44.5696 45.5444 43.1471 45.5444 42.2864 44.6838L24.4756 26.9095C23.6149 26.0488 23.6147 24.6275 24.4379 23.7668C25.2985 22.9436 26.721 22.9436 27.5816 23.7668L45.4302 41.5777Z" fill="#FFED00"/>
<path fill-rule="evenodd" clip-rule="evenodd" d="M92.2274 27.6533C92.2274 28.8881 91.2172 29.8983 89.9824 29.8983C88.7475 29.8983 87.7373 28.9255 87.7373 27.6533V2.24506C87.7373 1.01023 88.7475 0 89.9824 0C91.2172 0 92.2274 0.972807 92.2274 2.24506V27.6533Z" fill="#FFED00"/>
<path fill-rule="evenodd" clip-rule="evenodd" d="M152.908 91.304C151.711 91.304 150.663 90.3312 150.663 89.0589C150.663 87.8615 151.673 86.8516 152.908 86.8516H177.792C178.99 86.8516 180 87.8241 180 89.0589C180 90.2938 179.027 91.304 177.792 91.304H152.908Z" fill="#FFED00"/>
<path fill-rule="evenodd" clip-rule="evenodd" d="M137.759 44.6838C136.898 45.5444 135.44 45.5444 134.616 44.6838C133.793 43.8606 133.793 42.4009 134.616 41.5777L152.427 23.7668C153.288 22.9436 154.748 22.9436 155.571 23.7668C156.432 24.6275 156.432 26.0488 155.571 26.9095L137.759 44.6838Z" fill="#FFED00"/>
<path fill-rule="evenodd" clip-rule="evenodd" d="M135.188 69.9032C141.512 89.7728 134.627 103.393 127.517 115.591C123.027 123.262 119.847 124.348 117.377 133.104C115.918 138.38 116.665 143.955 112.287 147.996C105.327 154.357 98.0312 155.032 90.5847 155.181H89.7237H88.8638C81.38 154.994 74.0452 154.357 67.1601 147.996C62.7446 143.955 63.5307 138.343 62.0339 133.104C59.5642 124.385 56.3837 123.262 51.8934 115.591C44.7838 103.393 37.898 89.8102 44.2219 69.9032C50.6954 49.4349 70.1912 39.2192 89.7614 39.2192C109.182 39.2192 128.714 49.4349 135.188 69.9032Z" fill="#EDCC0F"/>
<path fill-rule="evenodd" clip-rule="evenodd" d="M102.487 164.832C109.559 160.753 109.559 154.13 102.487 150.014C95.4148 145.898 83.8904 145.898 76.7807 150.014C69.7085 154.093 69.7085 160.716 76.7807 164.832C83.853 168.948 95.4148 168.948 102.487 164.832Z" fill="#9C9C9C"/>
<path fill-rule="evenodd" clip-rule="evenodd" d="M105.486 166.108C111.473 162.666 113.381 157.69 111.099 153.312L106.833 144.966L106.533 144.48L106.234 143.993L105.86 143.545L105.486 143.058L105.036 142.609L104.55 142.16L104.027 141.748L103.465 141.299L102.867 140.888L102.193 140.514L101.519 140.139L100.809 139.766L100.097 139.465L99.3494 139.166L98.5638 138.867L97.777 138.606L96.9913 138.381L96.2057 138.193L95.3823 138.006L94.5967 137.856L93.7733 137.707L92.95 137.595L92.1266 137.52L91.3044 137.483L90.4434 137.408H89.6201H88.759L87.9357 137.483L87.0758 137.52L86.2525 137.595L85.4291 137.707L84.6058 137.856L83.8201 138.006L83.0345 138.193L82.2488 138.381L81.4632 138.606L80.6764 138.867L79.9284 139.166L79.1428 139.465L78.4313 139.766L77.721 140.139L77.0473 140.514L76.4112 140.888L75.7752 141.299L75.2133 141.748L74.6903 142.16L74.2039 142.609L73.7916 143.058L73.3805 143.545L73.006 143.993L72.7068 144.48L72.4441 144.966L68.179 153.312C65.8964 157.69 67.7669 162.666 73.7539 166.108C82.5848 171.16 96.7301 171.16 105.486 166.108Z" fill="#2C3E50"/>
<path fill-rule="evenodd" clip-rule="evenodd" d="M111.8 155.369C111.651 154.696 111.389 154.023 111.052 153.312L106.786 144.966L106.487 144.48L106.188 143.993L105.814 143.545L105.44 143.058L104.991 142.609L104.504 142.16L103.98 141.748L103.418 141.299L102.82 140.888L102.146 140.514L101.472 140.139L100.762 139.766L100.051 139.465L99.3028 139.166L98.5171 138.867L97.7315 138.606L96.9447 138.381L96.159 138.193L95.3357 138.006L94.55 137.856L93.7267 137.707L92.9045 137.595L92.0812 137.52L91.2578 137.483L90.3968 137.408H89.5734H88.7136L87.8902 137.483L87.0292 137.52L86.2059 137.595L85.3825 137.707L84.5592 137.856L83.7735 138.006L82.9879 138.193L82.2022 138.381L81.4166 138.606L80.6309 138.867L79.8818 139.166L79.0961 139.465L78.3858 139.766L77.6744 140.139L77.0007 140.514L76.3646 140.888L75.7285 141.299L75.1678 141.748L74.6437 142.16L74.1572 142.609L73.745 143.058L73.3339 143.545L72.997 143.993L72.6601 144.48L72.3986 144.966L68.1323 153.312C67.7581 154.023 67.4964 154.696 67.3467 155.369C67.9828 158.101 70.0788 160.794 73.7084 162.852C82.4271 167.904 96.5716 167.904 105.328 162.852C109.07 160.794 111.202 158.138 111.8 155.369Z" fill="#3D566E"/>
<path fill-rule="evenodd" clip-rule="evenodd" d="M102.487 156.939C109.559 152.86 109.559 146.237 102.487 142.121C95.4148 138.005 83.8904 138.005 76.7807 142.121C69.7085 146.199 69.7085 152.823 76.7807 156.939C83.853 161.055 95.4148 161.055 102.487 156.939Z" fill="#9C9C9C"/>
<path fill-rule="evenodd" clip-rule="evenodd" d="M112.257 142.752V150.647L112.181 151.283L112.032 151.919L111.845 152.518L111.657 153.117L111.358 153.716L111.021 154.352L110.61 154.95L110.198 155.512L109.711 156.11L109.151 156.635L108.552 157.195L107.916 157.757L107.167 158.244L106.457 158.768L105.633 159.254L104.81 159.703L103.949 160.152L103.014 160.564L102.115 160.937L101.143 161.274L100.17 161.573L99.1975 161.873L98.1492 162.135L97.1386 162.359L96.1291 162.546L95.0431 162.734L93.996 162.846L92.9111 162.921L91.8251 162.995L90.7403 163.033L89.692 163.071L88.5695 163.033L87.4846 162.995L86.4374 162.921L85.3149 162.846L84.2666 162.734L83.2195 162.546L82.1711 162.359L81.1605 162.135L80.1511 161.873L79.1404 161.573L78.1675 161.274L77.2322 160.937L76.297 160.564L75.3983 160.152L74.5007 159.703L73.6774 159.254L72.854 158.768L72.1426 158.244L71.4323 157.757L70.7963 157.195L70.1967 156.635L69.6737 156.11L69.1496 155.512L68.7008 154.95L68.3262 154.352L67.9894 153.716L67.7279 153.117L67.4652 152.518L67.2779 151.919L67.166 151.283L67.0918 150.647V142.752L67.166 143.426L67.2779 144.062L67.4652 144.66L67.7279 145.259L67.9894 145.858L68.3262 146.494L68.7008 147.092L69.1496 147.654L69.6737 148.253L70.1967 148.813L70.7963 149.338L71.4323 149.899L72.1426 150.386L72.854 150.909L73.6774 151.395L74.5007 151.882L75.3983 152.294L76.297 152.705L77.2322 153.08L78.1675 153.417L79.1404 153.716L80.1511 154.015L81.1605 154.278L82.1711 154.501L83.2195 154.689L84.2666 154.876L85.3149 154.988L86.4374 155.063L87.4846 155.137L88.5695 155.175L89.692 155.213L90.7403 155.175L91.8251 155.137L92.9111 155.063L93.996 154.988L95.0431 154.876L96.1291 154.689L97.1386 154.501L98.1492 154.278L99.1975 154.015L100.17 153.716L101.143 153.417L102.115 153.08L103.014 152.705L103.949 152.294L104.81 151.882L105.633 151.395L106.457 150.909L107.167 150.386L107.916 149.899L108.552 149.338L109.151 148.813L109.711 148.253L110.198 147.654L110.61 147.092L111.021 146.494L111.358 145.858L111.657 145.259L111.845 144.66L112.032 144.062L112.181 143.426L112.257 142.752Z" fill="#9C9C9C"/>
<path fill-rule="evenodd" clip-rule="evenodd" d="M105.643 132.948C114.474 138.037 114.474 146.306 105.643 151.395C96.8495 156.522 82.5178 156.522 73.6869 151.395C64.8934 146.306 64.8934 138.037 73.6869 132.948C82.5178 127.822 96.8495 127.822 105.643 132.948Z" fill="#C49F0C"/>
<path fill-rule="evenodd" clip-rule="evenodd" d="M112.257 142.752V150.647L112.181 151.283L112.032 151.919L111.845 152.518L111.657 153.117L111.358 153.716L111.021 154.352L110.61 154.95L110.198 155.512L109.711 156.11L109.151 156.635L108.552 157.195L107.916 157.757L107.167 158.244L106.457 158.768L105.633 159.254L104.81 159.703L103.949 160.152L103.014 160.564L102.115 160.937L101.143 161.274L100.17 161.573L99.1975 161.873L98.1492 162.135L97.1386 162.359L96.1291 162.546L95.0431 162.734L93.996 162.846L92.9111 162.921L91.8251 162.995L90.7403 163.033L89.692 163.071L88.5695 163.033L87.4846 162.995L86.4374 162.921L85.3149 162.846L84.2666 162.734L83.2195 162.546L82.1711 162.359L81.1605 162.135L80.1511 161.873L79.1404 161.573L78.1675 161.274L77.2322 160.937L76.297 160.564L75.3983 160.152L74.5007 159.703L73.6774 159.254L72.854 158.768L72.1426 158.244L71.4323 157.757L70.7963 157.195L70.1967 156.635L69.6737 156.11L69.1496 155.512L68.7008 154.95L68.3262 154.352L67.9894 153.716L67.7279 153.117L67.4652 152.518L67.2779 151.919L67.166 151.283L67.0918 150.647V142.752L67.166 143.426L67.2779 144.062L67.4652 144.66L67.7279 145.259L67.9894 145.858L68.3262 146.494L68.7008 147.092L69.1496 147.654L69.6737 148.253L70.1967 148.813L70.7963 149.338L71.4323 149.899L72.1426 150.386L72.854 150.909L73.6774 151.395L74.5007 151.882L75.3983 152.294L76.297 152.705L77.2322 153.08L78.1675 153.417L79.1404 153.716L80.1511 154.015L81.1605 154.278L82.1711 154.501L83.2195 154.689L84.2666 154.876L85.3149 154.988L86.4374 155.063L87.4846 155.137L88.5695 155.175L89.692 155.213L90.7403 155.175L91.8251 155.137L92.9111 155.063L93.996 154.988L95.0431 154.876L96.1291 154.689L97.1386 154.501L98.1492 154.278L99.1975 154.015L100.17 153.716L101.143 153.417L102.115 153.08L103.014 152.705L103.949 152.294L104.81 151.882L105.633 151.395L106.457 150.909L107.167 150.386L107.916 149.899L108.552 149.338L109.151 148.813L109.711 148.253L110.198 147.654L110.61 147.092L111.021 146.494L111.358 145.858L111.657 145.259L111.845 144.66L112.032 144.062L112.181 143.426L112.257 142.752Z" fill="#2C3E50"/>
<path fill-rule="evenodd" clip-rule="evenodd" d="M112.257 142.752V147.579L112.181 148.215L112.032 148.813L111.845 149.449L111.657 150.086L111.358 150.647L111.021 151.283L110.61 151.882L110.198 152.444L109.711 153.042L109.151 153.566L108.552 154.127L107.916 154.689L107.167 155.175L106.457 155.699L105.633 156.186L104.81 156.635L103.949 157.083L103.014 157.496L102.115 157.869L101.143 158.168L100.17 158.505L99.1975 158.804L98.1492 159.029L97.1386 159.291L96.1291 159.478L95.0431 159.628L93.996 159.741L92.9111 159.853L91.8251 159.927L90.7403 159.964L89.692 160.002L88.5695 159.964L87.4846 159.927L86.4374 159.853L85.3149 159.741L84.2666 159.628L83.2195 159.478L82.1711 159.291L81.1605 159.029L80.1511 158.804L79.1404 158.505L78.1675 158.168L77.2322 157.869L76.297 157.496L75.3983 157.083L74.5007 156.635L73.6774 156.186L72.854 155.699L72.1426 155.175L71.4323 154.689L70.7963 154.127L70.1967 153.566L69.6737 153.042L69.1496 152.444L68.7008 151.882L68.3262 151.283L67.9894 150.647L67.7279 150.086L67.4652 149.449L67.2779 148.813L67.166 148.215L67.0918 147.579V142.752L67.166 143.426L67.2779 144.062L67.4652 144.66L67.7279 145.259L67.9894 145.858L68.3262 146.494L68.7008 147.092L69.1496 147.654L69.6737 148.253L70.1967 148.813L70.7963 149.338L71.4323 149.899L72.1426 150.386L72.854 150.909L73.6774 151.395L74.5007 151.882L75.3983 152.294L76.297 152.705L77.2322 153.08L78.1675 153.417L79.1404 153.716L80.1511 154.015L81.1605 154.278L82.1711 154.501L83.2195 154.689L84.2666 154.876L85.3149 154.988L86.4374 155.063L87.4846 155.137L88.5695 155.175L89.692 155.213L90.7403 155.175L91.8251 155.137L92.9111 155.063L93.996 154.988L95.0431 154.876L96.1291 154.689L97.1386 154.501L98.1492 154.278L99.1975 154.015L100.17 153.716L101.143 153.417L102.115 153.08L103.014 152.705L103.949 152.294L104.81 151.882L105.633 151.395L106.457 150.909L107.167 150.386L107.916 149.899L108.552 149.338L109.151 148.813L109.711 148.253L110.198 147.654L110.61 147.092L111.021 146.494L111.358 145.858L111.657 145.259L111.845 144.66L112.032 144.062L112.181 143.426L112.257 142.752Z" fill="#3D566E"/>
<path fill-rule="evenodd" clip-rule="evenodd" d="M112.257 142.752V147.99C107.43 152.705 100.693 155.101 90.0289 155.213C89.9166 155.213 89.8042 155.213 89.692 155.213L90.7026 155.175L91.7886 155.137L92.8357 155.063L93.9206 154.95L94.9689 154.838L96.0161 154.651L97.0267 154.464L98.0373 154.24L99.0468 153.977L100.02 153.678L100.993 153.341L101.929 153.004L102.827 152.631L103.724 152.219L104.585 151.77L105.409 151.283L106.194 150.797L106.943 150.273L107.691 149.75L108.327 149.188L108.963 148.627L109.525 148.065L110.012 147.467L110.46 146.868L110.872 146.269L111.208 145.633L111.508 144.997L111.733 144.399L111.92 143.763L112.069 143.127L112.257 142.752ZM67.0918 147.916V142.752L67.166 143.426L67.2779 144.062L67.4652 144.698L67.7279 145.296L67.9894 145.932L68.3639 146.568L68.7373 147.168L69.1873 147.766L69.7103 148.365L70.2721 148.926L70.8705 149.487L71.5442 150.049L72.2557 150.572L73.0036 151.096L73.7893 151.583L74.6126 152.069L75.4737 152.518L76.3712 152.93L77.2699 153.305L78.2052 153.64L79.1781 153.977L80.1511 154.278L81.1605 154.539L82.1711 154.763L83.1818 154.95L84.2289 155.137L85.2772 155.249L86.3621 155.362L87.4104 155.437L88.4952 155.474L89.5058 155.512C78.7665 155.25 71.9189 152.818 67.0918 147.916Z" fill="#A8890D"/>
<path fill-rule="evenodd" clip-rule="evenodd" d="M97.6593 133.178V139.988V140.064V140.1L97.6216 140.138L97.585 140.213L97.5474 140.251L97.5097 140.287L97.4343 140.325L97.3978 140.401L85.8721 147.06H85.7979L85.7225 147.098L85.6483 147.136L85.5729 147.173H85.461H85.3857L85.2738 147.21H85.2361H85.1242L85.0488 147.173H84.9746H84.8615L84.7873 147.136L84.7119 147.098L84.6377 147.06H84.5623L84.4881 146.986L83.6648 146.5L81.5316 145.264L81.4574 145.228L81.4197 145.19L81.3443 145.152L81.3066 145.078L81.2701 145.04V145.003L81.2324 144.928V144.891V138.042V138.08L81.2701 138.155V138.192L81.3066 138.267L81.3443 138.305L81.4197 138.342L81.4574 138.379L81.5316 138.417L83.6648 139.651L84.4881 140.138L84.5623 140.213L84.6377 140.251H84.7119L84.7873 140.287L84.8615 140.325H84.9746L85.0488 140.363H85.1242H85.2361H85.2738H85.3857L85.461 140.325H85.5729L85.6483 140.287L85.7225 140.251H85.7979L85.8721 140.213L97.3978 133.552L97.4343 133.515L97.5097 133.478L97.5474 133.403L97.585 133.365L97.6216 133.327L97.6593 133.253V133.215V133.178Z" fill="#A8890D"/>
<path fill-rule="evenodd" clip-rule="evenodd" d="M94.3474 131.044L97.3792 132.803C97.7534 133.027 97.7534 133.364 97.3792 133.589L85.8536 140.25C85.4794 140.437 84.918 140.437 84.5438 140.25L84.4696 140.174L83.6462 139.688L81.5131 138.453C81.1389 138.266 81.1389 137.929 81.5131 137.704L93.0387 131.044C93.3755 130.82 93.9732 130.82 94.3474 131.044Z" fill="#E0D210"/>
<path fill-rule="evenodd" clip-rule="evenodd" d="M78.9286 96.6538C78.1428 97.1402 77.4326 96.7659 77.4326 95.8304C77.4326 94.8949 77.6189 93.5479 78.4421 93.0989L101.867 79.5155C102.653 79.029 102.728 79.9275 102.728 80.863C102.728 81.7985 102.278 83.2197 101.492 83.6687L78.9286 96.6538Z" fill="#A8890D"/>
<path fill-rule="evenodd" clip-rule="evenodd" d="M95.484 132.844C95.484 133.069 95.3337 133.295 95.0718 133.482C94.5105 133.818 93.613 133.818 93.0517 133.482C92.7898 133.332 92.6395 133.145 92.6395 132.957C92.6769 131.536 92.7139 130.113 92.7514 128.691C92.901 121.058 93.0883 114.584 94.0612 107.886C95.2212 100.028 97.2796 91.8711 100.573 81.1692C100.872 80.1963 101.658 79.3359 102.369 79.2611C103.08 79.2236 103.379 80.0088 103.117 80.9443C99.8987 91.4216 97.9153 99.3545 96.7927 106.913C95.7824 113.761 95.4463 120.347 95.4463 128.318C95.4463 129.852 95.484 131.348 95.484 132.844ZM76.7744 96.1744C76.4751 95.5008 76.8115 94.415 77.5224 93.6667C78.2334 92.9183 79.057 92.8441 79.3564 93.4428C82.6493 100.365 84.5571 106.278 85.5674 112.826C86.5029 118.888 86.7648 125.473 86.6899 133.967C86.6899 135.277 86.6899 136.587 86.6899 137.896C86.6899 138.121 86.5782 138.345 86.2788 138.532C85.7175 138.869 84.8566 138.869 84.2953 138.532C83.9959 138.345 83.883 138.159 83.883 137.934C83.883 130.151 84.0707 122.667 82.8359 114.922C81.8256 108.598 79.9925 102.91 76.7744 96.1744Z" fill="#C49F0C"/>
<path fill-rule="evenodd" clip-rule="evenodd" d="M82.6942 97.0303C82.5071 98.1155 81.6835 99.2758 80.8602 99.5003C80.037 99.7623 79.5129 99.0142 79.7 97.929L80.9733 90.4082C81.1604 89.2856 81.9829 88.1627 82.8061 87.9382C83.6293 87.6762 84.1534 88.3869 83.9663 89.5095L82.6942 97.0303Z" fill="#FFED00"/>
<path fill-rule="evenodd" clip-rule="evenodd" d="M86.6765 95.1937C86.4894 96.3163 85.6658 97.4392 84.8425 97.6637C84.0193 97.9256 83.4964 97.2141 83.6835 96.1289L85.2548 86.9991C85.4419 85.8765 86.2281 84.7536 87.0888 84.5291C87.8746 84.2671 88.4358 85.0152 88.2113 86.1004L86.6765 95.1937Z" fill="#FFED00"/>
<path fill-rule="evenodd" clip-rule="evenodd" d="M90.6703 93.402C90.4832 94.5245 89.6981 95.6475 88.8375 95.872C88.0517 96.1339 87.4904 95.4221 87.7149 94.2995L89.5477 83.5984C89.6974 82.5132 90.5211 81.3529 91.3817 81.1284C92.1675 80.9039 92.6913 81.6145 92.5042 82.6997L90.6703 93.402Z" fill="#FFED00"/>
<path fill-rule="evenodd" clip-rule="evenodd" d="M94.8621 90.0706C94.675 91.1558 93.8522 92.315 92.9916 92.5395C92.2058 92.8015 91.682 92.0534 91.8691 90.9682L93.4038 81.8384C93.6284 80.7532 94.4137 79.6306 95.2743 79.406C96.0602 79.1441 96.584 79.8545 96.3969 80.9397L94.8621 90.0706Z" fill="#FFED00"/>
<path fill-rule="evenodd" clip-rule="evenodd" d="M99.028 86.7437C98.8409 87.8288 98.0184 88.9889 97.1952 89.176C96.372 89.4379 95.8479 88.7275 96.035 87.6424L97.3071 80.1204C97.4942 78.9978 98.3178 77.876 99.1411 77.6515C99.9643 77.3896 100.488 78.1003 100.301 79.2228L99.028 86.7437Z" fill="#FFED00"/>
<path fill-rule="evenodd" clip-rule="evenodd" d="M102.985 84.0489C102.798 85.1341 102.013 86.2945 101.152 86.519C100.366 86.7809 99.8038 86.0317 100.028 84.9465L101.039 78.9605C101.226 77.8753 102.012 76.7152 102.873 76.5281C103.659 76.2662 104.183 76.9766 103.995 78.0617L102.985 84.0489Z" fill="#FFED00"/>
<path fill-rule="evenodd" clip-rule="evenodd" d="M78.9295 98.1886C78.705 99.3112 77.9196 100.434 77.059 100.659C76.2732 100.921 75.7494 100.209 75.9365 99.1238L76.9459 93.1378C77.133 92.0526 77.9193 90.8923 78.7799 90.6678C79.5657 90.4058 80.0895 91.1539 79.9024 92.2391L78.9295 98.1886Z" fill="#FFED00"/>
<path fill-rule="evenodd" clip-rule="evenodd" d="M84.6683 73.0834C68.4658 74.917 55.4812 84.9829 49.6438 97.6306C48.5961 95.8719 47.66 93.8516 47.1361 91.3819C42.4587 70.2401 59.7846 47.8997 84.6683 45.0933V73.0834Z" fill="#FFED00"/>
<path fill-rule="evenodd" clip-rule="evenodd" d="M83.6805 96.4724C83.4934 97.595 82.6698 98.7179 81.8466 98.9424C81.0233 99.2044 80.4993 98.4925 80.6863 97.37L81.9596 89.8491C82.1467 88.764 82.9695 87.6036 83.8301 87.3791C84.6159 87.1172 85.1397 87.8664 84.9526 88.9516L83.6805 96.4724Z" fill="#FFF896"/>
<path fill-rule="evenodd" clip-rule="evenodd" d="M87.6266 94.6725C87.4395 95.7577 86.617 96.918 85.7938 97.1425C84.9706 97.4045 84.4465 96.6938 84.6336 95.5712L86.2049 86.4403C86.392 85.3551 87.2157 84.2324 88.0389 84.0079C88.8621 83.7834 89.3862 84.4575 89.1991 85.5427L87.6266 94.6725Z" fill="#FFF896"/>
<path fill-rule="evenodd" clip-rule="evenodd" d="M91.6088 92.8386C91.4217 93.9611 90.6354 95.0841 89.7748 95.3086C88.989 95.5705 88.4652 94.8601 88.6523 93.7749L90.4862 83.0727C90.6733 81.9501 91.4584 80.8272 92.3191 80.6026C93.1049 80.3407 93.6287 81.0525 93.4416 82.1751L91.6088 92.8386Z" fill="#FFF896"/>
<path fill-rule="evenodd" clip-rule="evenodd" d="M95.8113 89.5495C95.5868 90.6721 94.8015 91.795 93.9408 92.0195C93.155 92.2815 92.6312 91.5697 92.8183 90.4471L94.3519 81.3549C94.5764 80.2324 95.3629 79.1094 96.2236 78.8849C97.0094 78.623 97.5332 79.3337 97.3461 80.4562L95.8113 89.5495Z" fill="#FFF896"/>
<path fill-rule="evenodd" clip-rule="evenodd" d="M99.9784 86.215C99.7913 87.3002 98.9676 88.4594 98.1444 88.6839C97.3212 88.9458 96.7971 88.2352 96.9842 87.1126L98.2563 79.5918C98.4808 78.5066 99.2673 77.3463 100.128 77.1217C100.914 76.8598 101.438 77.5705 101.25 78.6931L99.9784 86.215Z" fill="#FFF896"/>
<path fill-rule="evenodd" clip-rule="evenodd" d="M103.96 83.4824C103.773 84.605 102.987 85.7279 102.126 85.9524C101.341 86.2144 100.817 85.5037 101.004 84.3811L102.014 78.4316C102.202 77.309 102.988 76.1861 103.848 75.9616C104.634 75.6997 105.158 76.4103 104.971 77.5329L103.96 83.4824Z" fill="#FFF896"/>
<path fill-rule="evenodd" clip-rule="evenodd" d="M79.8422 97.6711C79.6551 98.7562 78.8688 99.9154 78.0082 100.14C77.2224 100.402 76.6986 99.6538 76.8857 98.5686L77.8963 92.5814C78.0834 91.4963 78.8685 90.3736 79.7291 90.1491C80.5149 89.8872 81.0762 90.5978 80.8516 91.7204L79.8422 97.6711Z" fill="#FFF896"/>
</svg>
