<svg width="75" height="50" viewBox="0 0 75 50" fill="none" xmlns="http://www.w3.org/2000/svg">
<path d="M9.42885 9.50398C10.1736 9.7943 10.8742 10.0404 11.5307 10.2423C12.1997 10.4442 12.913 10.5452 13.6704 10.5452C14.2258 10.5452 14.5983 10.4759 14.7877 10.337C14.9896 10.1855 15.0906 10.0026 15.0906 9.78796C15.0906 9.56077 14.9959 9.37776 14.8066 9.23892C14.6298 9.08747 14.2637 8.92339 13.7083 8.74669C13.0392 8.53212 12.4269 8.31125 11.8716 8.08406C11.3287 7.85687 10.8616 7.5792 10.4703 7.25104C10.0916 6.91026 9.79488 6.50637 9.58033 6.03938C9.37834 5.55976 9.27734 4.96656 9.27734 4.25975C9.27734 3.57819 9.40991 2.97236 9.67501 2.44226C9.94011 1.91215 10.3125 1.4704 10.7922 1.117C11.2845 0.750977 11.8778 0.473305 12.5722 0.283983C13.2665 0.0946613 14.0428 0 14.9013 0C16.05 0 17.0472 0.100971 17.8931 0.302915C18.7515 0.492237 19.4521 0.681559 19.995 0.870882L18.9724 4.12722C18.7957 4.0515 18.581 3.96945 18.3286 3.88111C18.0761 3.79276 17.8047 3.71072 17.5144 3.63499C17.224 3.55926 16.9147 3.49615 16.5865 3.44566C16.2709 3.39518 15.9553 3.36994 15.6398 3.36994C15.1979 3.36994 14.857 3.43935 14.6172 3.57819C14.3773 3.71703 14.2575 3.90004 14.2575 4.12722C14.2575 4.25344 14.2764 4.36703 14.3143 4.468C14.3647 4.55635 14.472 4.65101 14.6362 4.75199C14.8002 4.84033 15.0464 4.94762 15.3747 5.07384C15.7155 5.18743 16.1825 5.33889 16.7759 5.52821C17.8742 5.88161 18.7073 6.36754 19.2754 6.98599C19.8561 7.59182 20.1465 8.43746 20.1465 9.52291C20.1465 11.0501 19.6667 12.1924 18.7073 12.9496C17.7479 13.7069 16.3466 14.0856 14.5036 14.0856C13.5694 14.0856 12.6669 14.0098 11.7958 13.8584C10.9374 13.7069 10.1484 13.505 9.42885 13.2526V9.50398ZM21.9023 6.10564H20.9507V3.69178H25.2681V9.41405C25.2681 9.76429 25.2918 10.0483 25.3391 10.266C25.3864 10.4837 25.4574 10.6541 25.5521 10.7772C25.6468 10.9002 25.7699 10.9854 25.9214 11.0328C26.0729 11.0706 26.2575 11.0895 26.4752 11.0895C26.6835 11.0895 26.8634 11.0706 27.0149 11.0328C27.1759 10.9854 27.3037 10.9002 27.3984 10.7772C27.493 10.6541 27.564 10.4837 27.6114 10.266C27.6587 10.0483 27.6824 9.76429 27.6824 9.41405V3.69178H31.9003V6.10564H30.9488V9.38565C30.9488 10.1524 30.8683 10.8245 30.7074 11.4019C30.5559 11.9794 30.305 12.4621 29.9547 12.8502C29.6044 13.2289 29.1452 13.5176 28.5771 13.7164C28.009 13.9057 27.3084 14.0004 26.4752 14.0004C25.6326 14.0004 24.9178 13.9057 24.3308 13.7164C23.7532 13.5176 23.2846 13.2289 22.9248 12.8502C22.565 12.4621 22.3046 11.9794 22.1437 11.4019C21.9827 10.8245 21.9023 10.1524 21.9023 9.38565V6.10564ZM32.6422 11.3309H33.5937V6.10564H32.6422V3.69178H37.7975C38.4413 3.69178 39.0093 3.77225 39.5017 3.93317C40.0035 4.08463 40.42 4.30708 40.7514 4.60053C41.0923 4.88451 41.3479 5.23003 41.5183 5.63707C41.6887 6.04411 41.774 6.49375 41.774 6.98599C41.774 7.51609 41.7029 7.9894 41.5609 8.40591C41.4189 8.81295 41.1917 9.15373 40.8792 9.42825C40.5668 9.70276 40.1644 9.91102 39.6721 10.053C39.1892 10.195 38.607 10.266 37.9253 10.266H36.7607V11.3309H37.7975V13.7448H32.6422V11.3309ZM37.6838 7.89474C38.2803 7.89474 38.5786 7.62495 38.5786 7.08538C38.5786 6.54582 38.2803 6.27603 37.6838 6.27603H36.7749V7.89474H37.6838ZM42.5031 11.3309H43.4546V6.10564H42.5031V3.69178H50.5271V6.29023H46.7636V7.29837H50.03V9.89682H46.7636V11.1463H50.7969V13.7448H42.5031V11.3309ZM51.6548 10.5263H52.9235V3.55926H51.6548V0.34078H58.964C59.8224 0.34078 60.5735 0.448063 61.2173 0.662627C61.8738 0.864571 62.4166 1.15487 62.8458 1.53351C63.2751 1.91215 63.597 2.36653 63.8115 2.89663C64.0261 3.41411 64.1334 3.98838 64.1334 4.61946C64.1334 5.02335 64.0955 5.38306 64.0198 5.6986C63.9441 6.00151 63.8242 6.27918 63.66 6.53162C63.5085 6.77142 63.3129 6.9923 63.073 7.19424C62.8458 7.38357 62.5744 7.56658 62.2588 7.74328C62.5492 7.97047 62.77 8.24183 62.9215 8.55736C63.0857 8.8729 63.2308 9.18213 63.357 9.48504C63.4959 9.77537 63.6474 10.0215 63.8115 10.2234C63.9757 10.4253 64.2218 10.5263 64.55 10.5263H65.1749V13.7448H61.9179C61.4509 13.7448 61.0596 13.6438 60.7439 13.4419C60.4284 13.24 60.1633 12.9812 59.9486 12.6657C59.7341 12.3375 59.551 11.9778 59.3995 11.5865C59.248 11.1953 59.1029 10.8166 58.964 10.4506C58.8252 10.0845 58.6673 9.75009 58.4906 9.44718C58.3265 9.14426 58.1245 8.91708 57.8846 8.76562H57.1083V10.5263H58.2633V13.7448H51.6548V10.5263ZM58.377 5.83112C58.7684 5.83112 59.065 5.74908 59.2669 5.58501C59.469 5.42093 59.5699 5.15588 59.5699 4.78985C59.5699 4.09567 59.1723 3.74858 58.377 3.74858H57.1272V5.83112H58.377ZM18.9426 46.7815H20.2113V39.8145H18.9426V36.596H26.195V39.8145H24.7369V46.4975H29.7549V50H18.9426V46.7815ZM30.6174 47.5861H31.5405L34.0258 39.947H38.4568L40.9279 47.5861H41.851V50H38.2296L37.6899 48.0973H34.5371L33.9974 50H30.6174V47.5861ZM36.9372 45.4847L36.1135 42.6448L35.2898 45.4847H36.9372ZM42.7094 46.7815H43.9781V39.8145H42.7094V36.596H49.8103C50.8075 36.596 51.6281 36.697 52.2719 36.8989C52.9157 37.0882 53.4143 37.3469 53.7678 37.6751C54.1339 37.9906 54.3864 38.3567 54.5252 38.7732C54.6641 39.1897 54.7335 39.6125 54.7335 40.0416C54.7335 40.7863 54.5504 41.3858 54.1844 41.8402C53.8183 42.2946 53.3954 42.6228 52.9157 42.8247C53.7362 43.0771 54.3548 43.4999 54.7714 44.0931C55.2006 44.6864 55.4152 45.3363 55.4152 46.0432C55.4152 47.3053 54.9986 48.2835 54.1655 48.9777C53.3323 49.6592 52.133 50 50.5677 50H42.7094V46.7815ZM49.2801 41.7455C49.7218 41.7455 50.0186 41.6509 50.17 41.4616C50.3341 41.2722 50.4162 41.0325 50.4162 40.7421C50.4162 40.4771 50.3341 40.2562 50.17 40.0795C50.0186 39.8902 49.7218 39.7955 49.2801 39.7955H48.2007V41.7455H49.2801ZM49.4505 46.7247C49.8544 46.7247 50.17 46.6237 50.3973 46.4218C50.6371 46.2199 50.757 45.9422 50.757 45.5888C50.757 45.2227 50.6371 44.9451 50.3973 44.7558C50.17 44.5539 49.8544 44.4529 49.4505 44.4529H48.2007V46.7247H49.4505Z" fill="white"/>
<path d="M10.746 27.3286H9.06547V24.0628H15.6693V32.6533C14.5963 33.3001 13.4917 33.7419 12.3555 33.9785C11.2352 34.2152 10.0359 34.3335 8.75776 34.3335C7.30602 34.3335 6.02786 34.1205 4.92329 33.6946C3.83448 33.2686 2.91925 32.6691 2.17761 31.896C1.45174 31.1229 0.907335 30.2 0.544402 29.1272C0.181467 28.0386 0 26.8395 0 25.53C0 24.189 0.205136 22.9821 0.61541 21.9093C1.04147 20.8207 1.64898 19.8977 2.43797 19.1404C3.22696 18.3673 4.18953 17.7757 5.32567 17.3655C6.46181 16.9395 7.75574 16.7266 9.20749 16.7266C9.93335 16.7266 10.6119 16.7817 11.243 16.8922C11.8743 17.0027 12.4502 17.1367 12.9709 17.2945C13.4917 17.4523 13.9572 17.6258 14.3674 17.8152C14.7778 18.0045 15.1249 18.178 15.4089 18.3358L13.5863 22.3826C13.0814 22.0512 12.537 21.7831 11.9531 21.5779C11.3851 21.3571 10.7223 21.2466 9.96488 21.2466C9.31794 21.2466 8.74987 21.3571 8.2607 21.5779C7.77153 21.7831 7.36914 22.0828 7.05355 22.4772C6.73795 22.8559 6.50125 23.3134 6.34346 23.8498C6.18566 24.3704 6.10677 24.9384 6.10677 25.5537C6.10677 26.1217 6.16988 26.6581 6.29612 27.1629C6.42236 27.6678 6.6196 28.1096 6.88786 28.4882C7.1719 28.8668 7.51905 29.1666 7.92933 29.3875C8.3396 29.6083 8.82877 29.7188 9.39684 29.7188C9.66512 29.7188 9.92549 29.703 10.1779 29.6715C10.4462 29.6399 10.6356 29.6083 10.746 29.5768V27.3286ZM17.579 30.6891H18.8477V23.722H17.579V20.5035H24.8882C25.7466 20.5035 26.4977 20.6108 27.1415 20.8254C27.7979 21.0273 28.3408 21.3176 28.77 21.6963C29.1992 22.0749 29.5211 22.5293 29.7357 23.0594C29.9504 23.5769 30.0576 24.1511 30.0576 24.7822C30.0576 25.1861 30.0198 25.5459 29.944 25.8614C29.8683 26.1643 29.7483 26.4419 29.5842 26.6944C29.4328 26.9342 29.2371 27.1551 28.9972 27.357C28.77 27.5463 28.4986 27.7293 28.183 27.906C28.4734 28.1332 28.6943 28.4046 28.8458 28.7201C29.0098 29.0356 29.1551 29.3449 29.2813 29.6478C29.4202 29.9381 29.5717 30.1842 29.7357 30.3862C29.8998 30.5881 30.146 30.6891 30.4742 30.6891H31.0991V33.9075H27.8422C27.3751 33.9075 26.9837 33.8065 26.6681 33.6046C26.3526 33.4027 26.0875 33.1439 25.8729 32.8284C25.6582 32.5002 25.4752 32.1405 25.3237 31.7493C25.1722 31.358 25.0271 30.9794 24.8882 30.6133C24.7493 30.2473 24.5916 29.9129 24.4148 29.6099C24.2507 29.307 24.0487 29.0798 23.8089 28.9284H23.0325V30.6891H24.1876V33.9075H17.579V30.6891ZM24.3012 25.9939C24.6925 25.9939 24.9892 25.9118 25.1912 25.7478C25.3931 25.5837 25.4941 25.3187 25.4941 24.9526C25.4941 24.2585 25.0965 23.9113 24.3012 23.9113H23.0514V25.9939H24.3012ZM32.0767 30.6891H33.3453V23.722H32.0767V20.5035H42.7753V23.9681H37.7574V25.3123H42.1126V28.7769H37.7574V30.443H43.1351V33.9075H32.0767V30.6891ZM44.1149 30.6891H45.3836V23.722H44.1149V20.5035H54.8136V23.9681H49.7956V25.3123H54.1509V28.7769H49.7956V30.443H55.1734V33.9075H44.1149V30.6891ZM56.2762 29.8845H57.8621V21.1756H56.2762V17.1525H63.4954L67.8743 25.53V17.1525H74.5491V21.1756H72.9633V33.9075H67.5429L62.9037 25.5537V33.9075H56.2762V29.8845Z" fill="#3BB30B"/>
</svg>
