<svg width="70" height="56" viewBox="0 0 70 56" fill="none" xmlns="http://www.w3.org/2000/svg">
<path d="M15.1367 52.5768H16.4714V45.2459H15.1367V41.8594H22.7664V45.2459H21.2325V52.278H26.5116V55.9634H15.1367V52.5768Z" fill="black"/>
<path d="M27.4621 53.1413H28.5411L31.4463 44.21H36.6257L39.5142 53.1413H40.5933V55.9634H36.3601L35.7293 53.7389H32.0439L31.4131 55.9634H27.4621V53.1413ZM34.8494 50.6844L33.8866 47.3642L32.9237 50.6844H34.8494Z" fill="black"/>
<path d="M41.5391 52.5768H42.8738V45.2459H41.5391V41.8594H49.0095C50.0586 41.8594 50.9219 41.9656 51.5992 42.1781C52.2765 42.3773 52.8011 42.6496 53.1729 42.9949C53.5581 43.3269 53.8237 43.712 53.9698 44.1503C54.1159 44.5885 54.1889 45.0334 54.1889 45.485C54.1889 46.2685 53.9963 46.8994 53.6112 47.3775C53.2261 47.8556 52.7812 48.2009 52.2765 48.4134C53.1397 48.679 53.7905 49.1239 54.2287 49.7481C54.6803 50.3723 54.9061 51.0562 54.9061 51.7999C54.9061 53.128 54.4678 54.1572 53.5913 54.8877C52.7148 55.6048 51.4531 55.9634 49.8063 55.9634H41.5391V52.5768ZM48.4517 47.2779C48.9165 47.2779 49.2286 47.1783 49.388 46.9791C49.5606 46.7798 49.6469 46.5275 49.6469 46.2221C49.6469 45.9432 49.5606 45.7108 49.388 45.5248C49.2286 45.3256 48.9165 45.226 48.4517 45.226H47.3162V47.2779H48.4517ZM48.631 52.5171C49.0559 52.5171 49.388 52.4108 49.627 52.1983C49.8793 51.9859 50.0055 51.6937 50.0055 51.3218C50.0055 50.9367 49.8793 50.6445 49.627 50.4453C49.388 50.2328 49.0559 50.1266 48.631 50.1266H47.3162V52.5171H48.631Z" fill="black"/>
<path d="M9.79778 29.0472H8.26553V26.069H14.2866V33.9029C13.3083 34.4928 12.3012 34.8957 11.2653 35.1115C10.2438 35.3273 9.15035 35.4352 7.98498 35.4352C6.66134 35.4352 5.49597 35.241 4.48885 34.8525C3.49613 34.464 2.66166 33.9173 1.98545 33.2123C1.32364 32.5074 0.827272 31.6657 0.496363 30.6874C0.165455 29.6946 0 28.6012 0 27.407C0 26.1841 0.187036 25.0835 0.561107 24.1051C0.949565 23.1124 1.50348 22.2708 2.22285 21.5802C2.94221 20.8752 3.81984 20.3357 4.85573 19.9616C5.89162 19.5731 7.07138 19.3789 8.39502 19.3789C9.05684 19.3789 9.67549 19.4293 10.251 19.53C10.8265 19.6307 11.3516 19.753 11.8264 19.8969C12.3012 20.0407 12.7256 20.199 13.0997 20.3716C13.4738 20.5443 13.7903 20.7025 14.0492 20.8464L12.3875 24.5368C11.9271 24.2346 11.4307 23.9901 10.8984 23.803C10.3805 23.6016 9.7762 23.5009 9.08561 23.5009C8.49573 23.5009 7.97778 23.6016 7.53178 23.803C7.08577 23.9901 6.71889 24.2634 6.43114 24.6231C6.1434 24.9684 5.92759 25.3856 5.78371 25.8748C5.63984 26.3496 5.5679 26.8675 5.5679 27.4286C5.5679 27.9466 5.62545 28.4357 5.74055 28.8961C5.85565 29.3565 6.03549 29.7594 6.28008 30.1047C6.53905 30.45 6.85557 30.7233 7.22964 30.9248C7.60371 31.1262 8.04972 31.2269 8.56767 31.2269C8.81225 31.2269 9.04964 31.2125 9.27984 31.1837C9.52442 31.155 9.69707 31.1262 9.79778 31.0974V29.0472Z" fill="#3BB30B"/>
<path d="M16.0537 31.9424H17.2772V25.2224H16.0537V22.118H23.1024C23.9303 22.118 24.6546 22.2215 25.2755 22.4285C25.9085 22.6233 26.432 22.9033 26.8459 23.2685C27.2598 23.6337 27.5703 24.0719 27.7772 24.5833C27.9842 25.0824 28.0877 25.6363 28.0877 26.245C28.0877 26.6346 28.0511 26.9815 27.9781 27.2859C27.9051 27.578 27.7894 27.8459 27.6311 28.0893C27.4851 28.3206 27.2964 28.5337 27.0651 28.7285C26.8459 28.9111 26.5842 29.0876 26.2798 29.258C26.5598 29.4772 26.7729 29.7389 26.919 30.0433C27.0772 30.3476 27.2172 30.6459 27.339 30.938C27.4729 31.218 27.619 31.4554 27.7772 31.6502C27.9355 31.845 28.1729 31.9424 28.4894 31.9424H29.092V35.0467H25.9511C25.5007 35.0467 25.1233 34.9493 24.819 34.7546C24.5146 34.5598 24.259 34.3102 24.052 34.0059C23.8451 33.6893 23.6685 33.3424 23.5224 32.965C23.3764 32.5876 23.2364 32.2224 23.1024 31.8693C22.9685 31.5163 22.8164 31.1937 22.6459 30.9015C22.4877 30.6093 22.2929 30.3902 22.0616 30.2441H21.3129V31.9424H22.4268V35.0467H16.0537V31.9424ZM22.5364 27.4137C22.9137 27.4137 23.1998 27.3346 23.3946 27.1763C23.5894 27.018 23.6868 26.7624 23.6868 26.4093C23.6868 25.7398 23.3033 25.405 22.5364 25.405H21.3311V27.4137H22.5364Z" fill="#3BB30B"/>
<path d="M30.0347 31.9424H31.2582V25.2224H30.0347V22.118H40.3521V25.4598H35.513V26.7563H39.713V30.098H35.513V31.705H40.6991V35.0467H30.0347V31.9424Z" fill="#3BB30B"/>
<path d="M41.6439 31.9424H42.8674V25.2224H41.6439V22.118H51.9613V25.4598H47.1222V26.7563H51.3222V30.098H47.1222V31.705H52.3083V35.0467H41.6439V31.9424Z" fill="#3BB30B"/>
<path d="M53.3394 31.378H54.7854V23.4361H53.3394V19.7674H59.9217L63.9142 27.407V19.7674H70V23.4361H68.5541V35.0467H63.612L59.3821 27.4286V35.0467H53.3394V31.378Z" fill="#3BB30B"/>
<path d="M4.04023 10.0003C4.82378 10.3058 5.56086 10.5647 6.25145 10.7772C6.95532 10.9897 7.70568 11.096 8.50252 11.096C9.08687 11.096 9.47864 11.0229 9.67785 10.8768C9.89034 10.7175 9.99659 10.5249 9.99659 10.2991C9.99659 10.0601 9.89698 9.86751 9.69777 9.72142C9.51185 9.56205 9.12671 9.3894 8.54236 9.20347C7.83849 8.9777 7.19438 8.74529 6.61003 8.50624C6.03896 8.26719 5.54758 7.97502 5.13588 7.62972C4.73746 7.27114 4.42537 6.84616 4.19959 6.35478C3.9871 5.85012 3.88086 5.22593 3.88086 4.48221C3.88086 3.76506 4.02031 3.12759 4.2992 2.5698C4.57809 2.01201 4.96987 1.54719 5.47453 1.17533C5.99248 0.790197 6.61667 0.498023 7.3471 0.298814C8.07754 0.0996046 8.8943 0 9.79738 0C11.0059 0 12.0551 0.106245 12.9449 0.318735C13.848 0.517944 14.585 0.717153 15.1561 0.916363L14.0804 4.34277C13.8945 4.26308 13.6687 4.17676 13.4031 4.08379C13.1375 3.99083 12.8519 3.9045 12.5465 3.82482C12.241 3.74514 11.9156 3.67873 11.5703 3.62561C11.2383 3.57249 10.9063 3.54593 10.5743 3.54593C10.1095 3.54593 9.7509 3.61897 9.49857 3.76506C9.24623 3.91114 9.12007 4.10371 9.12007 4.34277C9.12007 4.47557 9.13999 4.5951 9.17983 4.70134C9.23295 4.79431 9.34584 4.89391 9.51849 5.00016C9.69113 5.09312 9.95011 5.20601 10.2954 5.33881C10.654 5.45834 11.1454 5.61771 11.7696 5.81692C12.925 6.18877 13.8015 6.70008 14.3991 7.35083C15.01 7.9883 15.3155 8.8781 15.3155 10.0202C15.3155 11.6272 14.8108 12.8291 13.8015 13.6259C12.7922 14.4228 11.318 14.8212 9.37904 14.8212C8.39627 14.8212 7.44671 14.7415 6.53034 14.5821C5.62726 14.4228 4.79722 14.2103 4.04023 13.9447V10.0003Z" fill="black"/>
<path d="M17.3171 5.53138H16.2048V2.70925H21.2515V9.39936C21.2515 9.80885 21.2791 10.1409 21.3345 10.3954C21.3898 10.65 21.4728 10.8492 21.5835 10.993C21.6941 11.1369 21.838 11.2365 22.0151 11.2919C22.1922 11.3361 22.408 11.3583 22.6625 11.3583C22.906 11.3583 23.1163 11.3361 23.2934 11.2919C23.4815 11.2365 23.6309 11.1369 23.7416 10.993C23.8522 10.8492 23.9352 10.65 23.9906 10.3954C24.0459 10.1409 24.0736 9.80885 24.0736 9.39936V2.70925H29.004V5.53138H27.8918V9.36616C27.8918 10.2626 27.7977 11.0484 27.6096 11.7235C27.4325 12.3986 27.1392 12.963 26.7297 13.4168C26.3202 13.8594 25.7835 14.197 25.1194 14.4294C24.4554 14.6507 23.6364 14.7614 22.6625 14.7614C21.6775 14.7614 20.842 14.6507 20.1558 14.4294C19.4807 14.197 18.9329 13.8594 18.5123 13.4168C18.0918 12.963 17.7874 12.3986 17.5993 11.7235C17.4111 11.0484 17.3171 10.2626 17.3171 9.36616V5.53138Z" fill="black"/>
<path d="M29.8713 11.6405H30.9835V5.53138H29.8713V2.70925H35.8974C36.6499 2.70925 37.314 2.80332 37.8895 2.99146C38.476 3.16854 38.963 3.42862 39.3503 3.7717C39.7487 4.10371 40.0476 4.50767 40.2468 4.98355C40.446 5.45944 40.5456 5.98514 40.5456 6.56063C40.5456 7.18039 40.4626 7.73375 40.2966 8.22071C40.1306 8.6966 39.865 9.09502 39.4997 9.41597C39.1345 9.73691 38.6642 9.98039 38.0887 10.1464C37.5242 10.3124 36.8436 10.3954 36.0468 10.3954H34.6855V11.6405H35.8974V14.4626H29.8713V11.6405ZM35.7646 7.62308C36.4618 7.62308 36.8104 7.30767 36.8104 6.67684C36.8104 6.04601 36.4618 5.73059 35.7646 5.73059H34.7021V7.62308H35.7646Z" fill="black"/>
<path d="M41.3978 11.6405H42.5101V5.53138H41.3978V2.70925H50.7772V5.74719H46.378V6.92585H50.1962V9.96379H46.378V11.4247H51.0927V14.4626H41.3978V11.6405Z" fill="black"/>
<path d="M52.0379 11.076H53.3726V3.74514H52.0379V0.358577H59.7274C60.6305 0.358577 61.4207 0.471462 62.098 0.697232C62.7886 0.909723 63.3597 1.21518 63.8112 1.6136C64.2628 2.01201 64.6014 2.49012 64.8272 3.0479C65.053 3.59241 65.1658 4.19668 65.1658 4.86071C65.1658 5.28569 65.126 5.66419 65.0463 5.9962C64.9666 6.31494 64.8405 6.60711 64.6678 6.87273C64.5085 7.12506 64.3026 7.35747 64.0503 7.56996C63.8112 7.76917 63.5257 7.96174 63.1937 8.14767C63.4991 8.38672 63.7315 8.67225 63.8909 9.00426C64.0636 9.33628 64.2163 9.66166 64.3491 9.98039C64.4952 10.2858 64.6545 10.5448 64.8272 10.7573C64.9998 10.9698 65.2588 11.076 65.6041 11.076H66.2615V14.4626H62.8351C62.3437 14.4626 61.932 14.3564 61.6 14.1439C61.268 13.9314 60.9891 13.6591 60.7633 13.3271C60.5375 12.9818 60.345 12.6033 60.1856 12.1916C60.0262 11.7799 59.8735 11.3815 59.7274 10.9964C59.5813 10.6112 59.4153 10.2593 59.2294 9.94055C59.0568 9.62181 58.8443 9.38276 58.5919 9.2234H57.7752V11.076H58.9904V14.4626H52.0379V11.076ZM59.1099 6.13565C59.5216 6.13565 59.8337 6.04933 60.0462 5.87668C60.2587 5.70403 60.3649 5.42514 60.3649 5.04C60.3649 4.30956 59.9466 3.94435 59.1099 3.94435H57.7951V6.13565H59.1099Z" fill="black"/>
</svg>
