<svg width="600" height="600" viewBox="0 0 600 600" fill="none" xmlns="http://www.w3.org/2000/svg">
<g clip-path="url(#clip0)">
<rect width="600" height="600" fill="white"/>
<path d="M31.0168 150.027C38.2234 152.838 45.003 155.221 51.3556 157.177C57.8292 159.132 64.7316 160.11 72.0609 160.11C77.4351 160.11 81.0393 159.438 82.8716 158.093C84.8258 156.627 85.8034 154.855 85.8034 152.777C85.8034 150.577 84.8872 148.805 83.0549 147.461C81.3444 145.994 77.8016 144.405 72.4274 142.694C65.9529 140.617 60.028 138.478 54.6538 136.278C49.4005 134.078 44.8811 131.389 41.0946 128.212C37.43 124.912 34.5587 121.001 32.4827 116.479C30.5281 111.835 29.5508 106.091 29.5508 99.2472C29.5508 92.6476 30.8336 86.7814 33.3989 81.6484C35.9641 76.5154 39.5674 72.2379 44.2096 68.8159C48.9736 65.2717 54.7143 62.583 61.4334 60.7498C68.1516 58.9166 75.6642 58 83.971 58C95.0868 58 104.737 58.9777 112.922 60.9331C121.228 62.7663 128.007 64.5995 133.261 66.4328L123.366 97.964C121.656 97.2307 119.579 96.4362 117.136 95.5808C114.693 94.7253 112.066 93.9309 109.257 93.1976C106.447 92.4643 103.454 91.8532 100.279 91.3644C97.2243 90.8756 94.1707 90.6311 91.1171 90.6311C86.8414 90.6311 83.5432 91.3033 81.2225 92.6476C78.901 93.992 77.7411 95.7641 77.7411 97.964C77.7411 99.1861 77.9244 100.286 78.2908 101.264C78.7791 102.119 79.8172 103.036 81.4058 104.014C82.9935 104.869 85.3755 105.908 88.5519 107.13C91.85 108.23 96.3695 109.696 102.111 111.53C112.739 114.952 120.801 119.657 126.298 125.645C131.917 131.512 134.726 139.7 134.726 150.21C134.726 164.998 130.084 176.059 120.801 183.391C111.516 190.724 97.9572 194.391 80.1232 194.391C71.0834 194.391 62.3496 193.657 53.9209 192.191C45.614 190.724 37.9797 188.769 31.0168 186.325V150.027ZM151.717 117.121H142.509V93.7476H184.286V149.156C184.286 152.548 184.515 155.298 184.973 157.406C185.431 159.514 186.119 161.164 187.035 162.355C187.951 163.547 189.142 164.372 190.608 164.83C192.074 165.197 193.86 165.38 195.967 165.38C197.983 165.38 199.724 165.197 201.189 164.83C202.747 164.372 203.984 163.547 204.9 162.355C205.816 161.164 206.503 159.514 206.961 157.406C207.419 155.298 207.648 152.548 207.648 149.156V93.7476H248.463V117.121H239.256V148.881C239.256 156.306 238.477 162.814 236.92 168.405C235.454 173.996 233.026 178.671 229.636 182.429C226.247 186.095 221.803 188.891 216.306 190.816C210.809 192.649 204.03 193.566 195.967 193.566C187.814 193.566 180.896 192.649 175.216 190.816C169.628 188.891 165.093 186.095 161.611 182.429C158.13 178.671 155.61 173.996 154.053 168.405C152.495 162.814 151.717 156.306 151.717 148.881V117.121ZM255.643 167.718H264.85V117.121H255.643V93.7476H305.528C311.758 93.7476 317.255 94.5267 322.019 96.0849C326.874 97.5515 330.905 99.7055 334.112 102.547C337.41 105.297 339.884 108.642 341.533 112.584C343.182 116.525 344.006 120.879 344.006 125.645C344.006 130.778 343.319 135.361 341.945 139.394C340.571 143.336 338.372 146.636 335.349 149.294C332.325 151.952 328.432 153.968 323.668 155.343C318.995 156.718 313.361 157.406 306.764 157.406H295.496V167.718H305.528V191.091H255.643V167.718ZM304.428 134.445C310.2 134.445 313.086 131.832 313.086 126.608C313.086 121.383 310.2 118.771 304.428 118.771H295.633V134.445H304.428ZM351.062 167.718H360.269V117.121H351.062V93.7476H428.707V118.908H392.289V128.67H423.897V153.831H392.289V165.93H431.318V191.091H351.062V167.718ZM439.619 159.926H451.896V92.4643H439.619V61.2998H510.347C518.654 61.2998 525.922 62.3386 532.151 64.4162C538.504 66.3717 543.757 69.1826 547.91 72.849C552.063 76.5154 555.178 80.9151 557.254 86.0481C559.331 91.0589 560.369 96.6196 560.369 102.73C560.369 106.641 560.003 110.124 559.27 113.18C558.537 116.113 557.377 118.801 555.788 121.246C554.323 123.568 552.43 125.707 550.108 127.662C547.909 129.495 545.284 131.267 542.229 132.978C545.039 135.178 547.177 137.806 548.642 140.861C550.231 143.916 551.636 146.911 552.857 149.844C554.201 152.655 555.667 155.038 557.254 156.993C558.843 158.948 561.225 159.926 564.4 159.926H570.447V191.091H538.931C534.412 191.091 530.625 190.113 527.571 188.158C524.517 186.203 521.952 183.697 519.875 180.642C517.799 177.464 516.027 173.981 514.561 170.192C513.095 166.404 511.691 162.738 510.347 159.193C509.004 155.649 507.476 152.41 505.766 149.477C504.178 146.544 502.224 144.344 499.903 142.878H492.39V159.926H503.567V191.091H439.619V159.926ZM504.667 114.463C508.454 114.463 511.324 113.668 513.279 112.08C515.234 110.491 516.21 107.924 516.21 104.38C516.21 97.6585 512.362 94.2975 504.667 94.2975H492.573V114.463H504.667ZM123.077 510.986H135.354V443.524H123.077V412.359H193.256V443.524H179.147V508.236H227.703V542.15H123.077V510.986ZM236.049 518.777H244.982L269.031 444.807H311.908L335.82 518.777H344.752V542.15H309.709L304.487 523.727H273.979L268.756 542.15H236.049V518.777ZM297.203 498.428L289.233 470.93L281.262 498.428H297.203ZM353.058 510.986H365.335V443.524H353.058V412.359H421.77C431.42 412.359 439.361 413.337 445.591 415.292C451.821 417.126 456.645 419.631 460.066 422.809C463.608 425.864 466.051 429.408 467.395 433.441C468.738 437.474 469.411 441.569 469.411 445.724C469.411 452.935 467.639 458.739 464.097 463.139C460.554 467.539 456.462 470.717 451.82 472.672C459.76 475.116 465.746 479.21 469.777 484.954C473.93 490.699 476.007 496.992 476.007 503.836C476.007 516.058 471.976 525.53 463.914 532.251C455.852 538.851 444.247 542.15 429.1 542.15H353.058V510.986ZM416.64 462.223C420.915 462.223 423.786 461.306 425.252 459.473C426.839 457.64 427.634 455.318 427.634 452.507C427.634 449.94 426.839 447.802 425.252 446.09C423.786 444.257 420.915 443.341 416.64 443.341H406.196V462.223H416.64ZM418.289 510.436C422.197 510.436 425.252 509.458 427.451 507.503C429.771 505.548 430.932 502.858 430.932 499.437C430.932 495.892 429.771 493.204 427.451 491.371C425.252 489.415 422.197 488.437 418.289 488.437H406.196V510.436H418.289Z" fill="#E8E8E8"/>
<path d="M43.0735 322.294H26.798V290.717H90.755V373.777C80.3632 380.031 69.6651 384.302 58.6617 386.59C47.8114 388.879 36.1964 390.023 23.8179 390.023C9.75797 390.023 -2.62085 387.963 -13.3185 383.845C-23.8635 379.726 -32.7274 373.93 -39.9101 366.455C-46.9401 358.98 -52.2126 350.056 -55.7275 339.684C-59.2425 329.158 -61 317.565 -61 304.904C-61 291.937 -59.0133 280.268 -55.0398 269.895C-50.9135 259.37 -45.0298 250.446 -37.3885 243.124C-29.7473 235.649 -20.4249 229.929 -9.42151 225.963C1.5819 221.844 14.1135 219.785 28.1735 219.785C35.2033 219.785 41.7751 220.319 47.8875 221.387C54.0008 222.455 59.5786 223.751 64.6219 225.277C69.6651 226.802 74.1737 228.48 78.1469 230.311C82.121 232.141 85.4825 233.819 88.2333 235.344L70.582 274.472C65.692 271.268 60.4195 268.675 54.7647 266.692C49.263 264.557 42.8443 263.489 35.5087 263.489C29.2432 263.489 23.7415 264.557 19.004 266.692C14.2663 268.675 10.3693 271.573 7.31283 275.387C4.25627 279.048 1.96389 283.471 0.435705 288.658C-1.09258 293.692 -1.85667 299.184 -1.85667 305.133C-1.85667 310.624 -1.24543 315.811 -0.0227701 320.692C1.1998 325.573 3.11008 329.845 5.70817 333.506C8.45902 337.167 11.8211 340.065 15.7946 342.201C19.768 344.336 24.5057 345.404 30.0074 345.404C32.6056 345.404 35.1272 345.251 37.5718 344.946C40.1705 344.642 42.0044 344.336 43.0735 344.031V322.294ZM109.251 354.785H121.538V287.423H109.251V256.304H180.039C188.353 256.304 195.627 257.341 201.863 259.416C208.22 261.368 213.478 264.175 217.634 267.836C221.791 271.497 224.908 275.89 226.987 281.016C229.066 286.019 230.105 291.571 230.105 297.673C230.105 301.579 229.738 305.057 229.004 308.107C228.271 311.036 227.109 313.721 225.52 316.162C224.053 318.48 222.158 320.616 219.835 322.568C217.634 324.399 215.005 326.168 211.949 327.877C214.761 330.073 216.901 332.697 218.368 335.748C219.957 338.799 221.364 341.789 222.586 344.717C223.931 347.525 225.398 349.904 226.987 351.856C228.576 353.809 230.96 354.785 234.139 354.785H240.191V385.904H208.648C204.125 385.904 200.334 384.927 197.278 382.975C194.222 381.023 191.654 378.521 189.576 375.47C187.497 372.297 185.724 368.819 184.257 365.036C182.79 361.253 181.385 357.592 180.039 354.053C178.694 350.514 177.167 347.28 175.455 344.351C173.866 341.423 171.909 339.226 169.586 337.762H162.067V354.785H173.254V385.904H109.251V354.785ZM174.354 309.389C178.144 309.389 181.018 308.595 182.974 307.009C184.929 305.423 185.908 302.86 185.908 299.321C185.908 292.609 182.057 289.253 174.354 289.253H162.25V309.389H174.354ZM249.659 354.785H261.946V287.423H249.659V256.304H353.274V289.802H304.676V302.799H346.856V336.297H304.676V352.406H356.759V385.904H249.659V354.785ZM366.248 354.785H378.535V287.423H366.248V256.304H469.864V289.802H421.265V302.799H463.445V336.297H421.265V352.406H473.348V385.904H366.248V354.785ZM484.029 347.006H499.387V262.802H484.029V223.904H553.946L596.355 304.904V223.904H661V262.802H645.641V385.904H593.146L548.215 305.133V385.904H484.029V347.006Z" fill="#E8E8E8"/>
<path d="M422.668 130H177.747C135.39 130 101 164.39 101 206.747V372.404C101 414.762 135.39 449.152 177.747 449.152H422.249C464.607 449.152 498.996 414.762 498.996 372.404V206.747C499.416 164.39 465.026 130 422.668 130ZM474.672 372.824C474.672 401.761 451.186 424.828 422.668 424.828H177.747C148.81 424.828 125.744 401.342 125.744 372.824V206.747C125.744 177.81 149.229 154.744 177.747 154.744H422.249C451.186 154.744 474.252 178.229 474.252 206.747V372.824H474.672Z" fill="black" fill-opacity="0.42"/>
<path d="M365.216 289.786C362.28 286.012 356.828 285.593 353.473 288.528L332.923 308.239C329.568 311.594 324.116 311.175 321.18 307.401L270.854 240.299C267.499 236.105 260.789 236.105 258.273 240.718L179.428 366.534C174.815 373.663 180.267 383.309 188.655 383.309H410.929C419.736 383.309 425.188 373.244 419.736 366.114L365.216 289.786Z" fill="black" fill-opacity="0.42"/>
<path d="M376.538 255.396C392.288 255.396 405.056 242.628 405.056 226.878C405.056 211.127 392.288 198.359 376.538 198.359C360.788 198.359 348.02 211.127 348.02 226.878C348.02 242.628 360.788 255.396 376.538 255.396Z" fill="black" fill-opacity="0.42"/>
<path d="M192.195 476.336L199.5 496.961L206.766 476.336H214.461V504.773H208.582V497L209.168 483.582L201.492 504.773H197.469L189.812 483.602L190.398 497V504.773H184.539V476.336H192.195ZM225.809 504.773H219.949V476.336H225.809V504.773ZM246.004 497.312C246.004 496.206 245.613 495.359 244.832 494.773C244.051 494.174 242.645 493.549 240.613 492.898C238.582 492.234 236.974 491.583 235.789 490.945C232.56 489.201 230.945 486.85 230.945 483.895C230.945 482.358 231.375 480.991 232.234 479.793C233.107 478.582 234.35 477.638 235.965 476.961C237.592 476.284 239.415 475.945 241.434 475.945C243.465 475.945 245.275 476.316 246.863 477.059C248.452 477.788 249.682 478.823 250.555 480.164C251.44 481.505 251.883 483.029 251.883 484.734H246.023C246.023 483.432 245.613 482.423 244.793 481.707C243.973 480.978 242.82 480.613 241.336 480.613C239.904 480.613 238.79 480.919 237.996 481.531C237.202 482.13 236.805 482.924 236.805 483.914C236.805 484.839 237.267 485.613 238.191 486.238C239.129 486.863 240.503 487.449 242.312 487.996C245.646 488.999 248.074 490.242 249.598 491.727C251.121 493.211 251.883 495.06 251.883 497.273C251.883 499.734 250.952 501.668 249.09 503.074C247.228 504.467 244.721 505.164 241.57 505.164C239.383 505.164 237.391 504.767 235.594 503.973C233.797 503.165 232.423 502.065 231.473 500.672C230.535 499.279 230.066 497.664 230.066 495.828H235.945C235.945 498.966 237.82 500.535 241.57 500.535C242.964 500.535 244.051 500.255 244.832 499.695C245.613 499.122 246.004 498.328 246.004 497.312ZM270.613 497.312C270.613 496.206 270.223 495.359 269.441 494.773C268.66 494.174 267.254 493.549 265.223 492.898C263.191 492.234 261.583 491.583 260.398 490.945C257.169 489.201 255.555 486.85 255.555 483.895C255.555 482.358 255.984 480.991 256.844 479.793C257.716 478.582 258.96 477.638 260.574 476.961C262.202 476.284 264.025 475.945 266.043 475.945C268.074 475.945 269.884 476.316 271.473 477.059C273.061 477.788 274.292 478.823 275.164 480.164C276.049 481.505 276.492 483.029 276.492 484.734H270.633C270.633 483.432 270.223 482.423 269.402 481.707C268.582 480.978 267.43 480.613 265.945 480.613C264.513 480.613 263.4 480.919 262.605 481.531C261.811 482.13 261.414 482.924 261.414 483.914C261.414 484.839 261.876 485.613 262.801 486.238C263.738 486.863 265.112 487.449 266.922 487.996C270.255 488.999 272.684 490.242 274.207 491.727C275.73 493.211 276.492 495.06 276.492 497.273C276.492 499.734 275.561 501.668 273.699 503.074C271.837 504.467 269.331 505.164 266.18 505.164C263.992 505.164 262 504.767 260.203 503.973C258.406 503.165 257.033 502.065 256.082 500.672C255.145 499.279 254.676 497.664 254.676 495.828H260.555C260.555 498.966 262.43 500.535 266.18 500.535C267.573 500.535 268.66 500.255 269.441 499.695C270.223 499.122 270.613 498.328 270.613 497.312ZM286.707 504.773H280.848V476.336H286.707V504.773ZM315.281 504.773H309.422L298.016 486.062V504.773H292.156V476.336H298.016L309.441 495.086V476.336H315.281V504.773ZM342.898 501.18C341.844 502.443 340.353 503.426 338.426 504.129C336.499 504.819 334.363 505.164 332.02 505.164C329.559 505.164 327.397 504.63 325.535 503.562C323.686 502.482 322.254 500.919 321.238 498.875C320.236 496.831 319.721 494.428 319.695 491.668V489.734C319.695 486.896 320.171 484.441 321.121 482.371C322.085 480.288 323.465 478.699 325.262 477.605C327.072 476.499 329.188 475.945 331.609 475.945C334.982 475.945 337.618 476.753 339.52 478.367C341.421 479.969 342.547 482.306 342.898 485.379H337.195C336.935 483.751 336.355 482.56 335.457 481.805C334.572 481.049 333.348 480.672 331.785 480.672C329.793 480.672 328.276 481.421 327.234 482.918C326.193 484.415 325.665 486.642 325.652 489.598V491.414C325.652 494.396 326.219 496.648 327.352 498.172C328.484 499.695 330.145 500.457 332.332 500.457C334.533 500.457 336.102 499.988 337.039 499.051V494.148H331.707V489.832H342.898V501.18ZM363.484 494.754V504.773H357.625V476.336H368.719C370.854 476.336 372.729 476.727 374.344 477.508C375.971 478.289 377.221 479.402 378.094 480.848C378.966 482.28 379.402 483.914 379.402 485.75C379.402 488.536 378.445 490.737 376.531 492.352C374.63 493.953 371.993 494.754 368.621 494.754H363.484ZM363.484 490.008H368.719C370.268 490.008 371.447 489.643 372.254 488.914C373.074 488.185 373.484 487.143 373.484 485.789C373.484 484.396 373.074 483.27 372.254 482.41C371.434 481.551 370.301 481.108 368.855 481.082H363.484V490.008ZM389.676 504.773H383.816V476.336H389.676V504.773ZM417.449 495.301C417.228 498.361 416.095 500.77 414.051 502.527C412.02 504.285 409.337 505.164 406.004 505.164C402.358 505.164 399.487 503.94 397.391 501.492C395.307 499.031 394.266 495.659 394.266 491.375V489.637C394.266 486.902 394.747 484.493 395.711 482.41C396.674 480.327 398.048 478.732 399.832 477.625C401.629 476.505 403.712 475.945 406.082 475.945C409.363 475.945 412.007 476.824 414.012 478.582C416.017 480.34 417.176 482.807 417.488 485.984H411.629C411.486 484.148 410.971 482.82 410.086 482C409.214 481.167 407.879 480.75 406.082 480.75C404.129 480.75 402.664 481.453 401.688 482.859C400.724 484.253 400.229 486.421 400.203 489.363V491.512C400.203 494.585 400.665 496.831 401.59 498.25C402.527 499.669 403.999 500.379 406.004 500.379C407.814 500.379 409.161 499.969 410.047 499.148C410.945 498.315 411.46 497.033 411.59 495.301H417.449Z" fill="black" fill-opacity="0.49"/>
<path d="M180.949 579.213C180.949 580.613 180.702 581.84 180.207 582.895C179.712 583.949 179.003 584.763 178.078 585.336C177.16 585.909 176.105 586.195 174.914 586.195C173.736 586.195 172.684 585.912 171.76 585.346C170.835 584.779 170.119 583.972 169.611 582.924C169.104 581.869 168.846 580.658 168.84 579.291V578.588C168.84 577.188 169.09 575.958 169.592 574.896C170.1 573.829 170.812 573.012 171.73 572.445C172.655 571.872 173.71 571.586 174.895 571.586C176.079 571.586 177.131 571.872 178.049 572.445C178.973 573.012 179.686 573.829 180.188 574.896C180.695 575.958 180.949 577.185 180.949 578.578V579.213ZM177.98 578.568C177.98 577.077 177.714 575.945 177.18 575.17C176.646 574.395 175.884 574.008 174.895 574.008C173.911 574.008 173.153 574.392 172.619 575.16C172.085 575.922 171.815 577.042 171.809 578.52V579.213C171.809 580.665 172.076 581.791 172.609 582.592C173.143 583.393 173.911 583.793 174.914 583.793C175.897 583.793 176.652 583.409 177.18 582.641C177.707 581.866 177.974 580.74 177.98 579.262V578.568ZM182.453 580.619C182.453 579.571 182.655 578.637 183.059 577.816C183.462 576.996 184.042 576.361 184.797 575.912C185.559 575.463 186.441 575.238 187.443 575.238C188.869 575.238 190.031 575.674 190.93 576.547C191.835 577.419 192.339 578.604 192.443 580.102L192.463 580.824C192.463 582.445 192.01 583.747 191.105 584.73C190.201 585.707 188.986 586.195 187.463 586.195C185.939 586.195 184.722 585.707 183.811 584.73C182.906 583.754 182.453 582.426 182.453 580.746V580.619ZM185.275 580.824C185.275 581.827 185.464 582.595 185.842 583.129C186.219 583.656 186.76 583.92 187.463 583.92C188.146 583.92 188.68 583.66 189.064 583.139C189.449 582.611 189.641 581.771 189.641 580.619C189.641 579.636 189.449 578.874 189.064 578.334C188.68 577.794 188.14 577.523 187.443 577.523C186.753 577.523 186.219 577.794 185.842 578.334C185.464 578.868 185.275 579.698 185.275 580.824ZM203.713 580.814C203.713 582.442 203.342 583.747 202.6 584.73C201.864 585.707 200.868 586.195 199.611 586.195C198.544 586.195 197.681 585.824 197.023 585.082V590.062H194.201V575.434H196.818L196.916 576.469C197.6 575.648 198.492 575.238 199.592 575.238C200.894 575.238 201.906 575.72 202.629 576.684C203.352 577.647 203.713 578.975 203.713 580.668V580.814ZM200.891 580.609C200.891 579.626 200.715 578.868 200.363 578.334C200.018 577.8 199.514 577.533 198.85 577.533C197.964 577.533 197.355 577.872 197.023 578.549V582.875C197.368 583.572 197.984 583.92 198.869 583.92C200.217 583.92 200.891 582.816 200.891 580.609ZM211.193 583.08C211.193 582.735 211.021 582.465 210.676 582.27C210.337 582.068 209.79 581.889 209.035 581.732C206.522 581.205 205.266 580.137 205.266 578.529C205.266 577.592 205.653 576.811 206.428 576.186C207.209 575.554 208.228 575.238 209.484 575.238C210.826 575.238 211.896 575.554 212.697 576.186C213.505 576.817 213.908 577.637 213.908 578.646H211.086C211.086 578.243 210.956 577.911 210.695 577.65C210.435 577.383 210.028 577.25 209.475 577.25C208.999 577.25 208.632 577.357 208.371 577.572C208.111 577.787 207.98 578.061 207.98 578.393C207.98 578.705 208.127 578.959 208.42 579.154C208.719 579.343 209.221 579.509 209.924 579.652C210.627 579.789 211.219 579.945 211.701 580.121C213.192 580.668 213.938 581.615 213.938 582.963C213.938 583.926 213.524 584.708 212.697 585.307C211.87 585.899 210.803 586.195 209.494 586.195C208.609 586.195 207.821 586.039 207.131 585.727C206.447 585.408 205.91 584.975 205.52 584.428C205.129 583.874 204.934 583.279 204.934 582.641H207.609C207.635 583.142 207.821 583.526 208.166 583.793C208.511 584.06 208.973 584.193 209.553 584.193C210.093 584.193 210.5 584.092 210.773 583.891C211.053 583.682 211.193 583.412 211.193 583.08ZM223.723 586H220.891V571H223.723V586ZM225.617 580.619C225.617 579.571 225.819 578.637 226.223 577.816C226.626 576.996 227.206 576.361 227.961 575.912C228.723 575.463 229.605 575.238 230.607 575.238C232.033 575.238 233.195 575.674 234.094 576.547C234.999 577.419 235.503 578.604 235.607 580.102L235.627 580.824C235.627 582.445 235.174 583.747 234.27 584.73C233.365 585.707 232.15 586.195 230.627 586.195C229.104 586.195 227.886 585.707 226.975 584.73C226.07 583.754 225.617 582.426 225.617 580.746V580.619ZM228.439 580.824C228.439 581.827 228.628 582.595 229.006 583.129C229.383 583.656 229.924 583.92 230.627 583.92C231.311 583.92 231.844 583.66 232.229 583.139C232.613 582.611 232.805 581.771 232.805 580.619C232.805 579.636 232.613 578.874 232.229 578.334C231.844 577.794 231.304 577.523 230.607 577.523C229.917 577.523 229.383 577.794 229.006 578.334C228.628 578.868 228.439 579.698 228.439 580.824ZM236.926 580.619C236.926 579.571 237.128 578.637 237.531 577.816C237.935 576.996 238.514 576.361 239.27 575.912C240.031 575.463 240.913 575.238 241.916 575.238C243.342 575.238 244.504 575.674 245.402 576.547C246.307 577.419 246.812 578.604 246.916 580.102L246.936 580.824C246.936 582.445 246.483 583.747 245.578 584.73C244.673 585.707 243.459 586.195 241.936 586.195C240.412 586.195 239.195 585.707 238.283 584.73C237.378 583.754 236.926 582.426 236.926 580.746V580.619ZM239.748 580.824C239.748 581.827 239.937 582.595 240.314 583.129C240.692 583.656 241.232 583.92 241.936 583.92C242.619 583.92 243.153 583.66 243.537 583.139C243.921 582.611 244.113 581.771 244.113 580.619C244.113 579.636 243.921 578.874 243.537 578.334C243.153 577.794 242.613 577.523 241.916 577.523C241.226 577.523 240.692 577.794 240.314 578.334C239.937 578.868 239.748 579.698 239.748 580.824ZM252.512 581.762L251.496 582.777V586H248.674V571H251.496V579.311L252.043 578.607L254.748 575.434H258.137L254.318 579.838L258.469 586H255.227L252.512 581.762ZM265.08 583.08C265.08 582.735 264.908 582.465 264.562 582.27C264.224 582.068 263.677 581.889 262.922 581.732C260.409 581.205 259.152 580.137 259.152 578.529C259.152 577.592 259.54 576.811 260.314 576.186C261.096 575.554 262.115 575.238 263.371 575.238C264.712 575.238 265.783 575.554 266.584 576.186C267.391 576.817 267.795 577.637 267.795 578.646H264.973C264.973 578.243 264.842 577.911 264.582 577.65C264.322 577.383 263.915 577.25 263.361 577.25C262.886 577.25 262.518 577.357 262.258 577.572C261.997 577.787 261.867 578.061 261.867 578.393C261.867 578.705 262.014 578.959 262.307 579.154C262.606 579.343 263.107 579.509 263.811 579.652C264.514 579.789 265.106 579.945 265.588 580.121C267.079 580.668 267.824 581.615 267.824 582.963C267.824 583.926 267.411 584.708 266.584 585.307C265.757 585.899 264.689 586.195 263.381 586.195C262.495 586.195 261.708 586.039 261.018 585.727C260.334 585.408 259.797 584.975 259.406 584.428C259.016 583.874 258.82 583.279 258.82 582.641H261.496C261.522 583.142 261.708 583.526 262.053 583.793C262.398 584.06 262.86 584.193 263.439 584.193C263.98 584.193 264.387 584.092 264.66 583.891C264.94 583.682 265.08 583.412 265.08 583.08ZM277.609 586H274.777V571H277.609V586ZM282.922 586H280.09V575.434H282.922V586ZM279.924 572.699C279.924 572.276 280.064 571.928 280.344 571.654C280.63 571.381 281.018 571.244 281.506 571.244C281.988 571.244 282.372 571.381 282.658 571.654C282.945 571.928 283.088 572.276 283.088 572.699C283.088 573.129 282.941 573.48 282.648 573.754C282.362 574.027 281.981 574.164 281.506 574.164C281.031 574.164 280.646 574.027 280.354 573.754C280.067 573.48 279.924 573.129 279.924 572.699ZM289.094 581.762L288.078 582.777V586H285.256V571H288.078V579.311L288.625 578.607L291.33 575.434H294.719L290.9 579.838L295.051 586H291.809L289.094 581.762ZM300.607 586.195C299.058 586.195 297.795 585.72 296.818 584.77C295.848 583.819 295.363 582.553 295.363 580.971V580.697C295.363 579.636 295.568 578.689 295.979 577.855C296.389 577.016 296.968 576.371 297.717 575.922C298.472 575.466 299.331 575.238 300.295 575.238C301.74 575.238 302.876 575.694 303.703 576.605C304.536 577.517 304.953 578.809 304.953 580.482V581.635H298.225C298.316 582.325 298.589 582.878 299.045 583.295C299.507 583.712 300.09 583.92 300.793 583.92C301.88 583.92 302.73 583.526 303.342 582.738L304.729 584.291C304.305 584.89 303.732 585.359 303.01 585.697C302.287 586.029 301.486 586.195 300.607 586.195ZM300.285 577.523C299.725 577.523 299.27 577.712 298.918 578.09C298.573 578.467 298.352 579.008 298.254 579.711H302.18V579.486C302.167 578.861 301.997 578.38 301.672 578.041C301.346 577.696 300.884 577.523 300.285 577.523ZM317.268 583.08C317.268 582.735 317.095 582.465 316.75 582.27C316.411 582.068 315.865 581.889 315.109 581.732C312.596 581.205 311.34 580.137 311.34 578.529C311.34 577.592 311.727 576.811 312.502 576.186C313.283 575.554 314.302 575.238 315.559 575.238C316.9 575.238 317.971 575.554 318.771 576.186C319.579 576.817 319.982 577.637 319.982 578.646H317.16C317.16 578.243 317.03 577.911 316.77 577.65C316.509 577.383 316.102 577.25 315.549 577.25C315.074 577.25 314.706 577.357 314.445 577.572C314.185 577.787 314.055 578.061 314.055 578.393C314.055 578.705 314.201 578.959 314.494 579.154C314.794 579.343 315.295 579.509 315.998 579.652C316.701 579.789 317.294 579.945 317.775 580.121C319.266 580.668 320.012 581.615 320.012 582.963C320.012 583.926 319.598 584.708 318.771 585.307C317.945 585.899 316.877 586.195 315.568 586.195C314.683 586.195 313.895 586.039 313.205 585.727C312.521 585.408 311.984 584.975 311.594 584.428C311.203 583.874 311.008 583.279 311.008 582.641H313.684C313.71 583.142 313.895 583.526 314.24 583.793C314.585 584.06 315.048 584.193 315.627 584.193C316.167 584.193 316.574 584.092 316.848 583.891C317.128 583.682 317.268 583.412 317.268 583.08ZM321.398 580.619C321.398 579.571 321.6 578.637 322.004 577.816C322.408 576.996 322.987 576.361 323.742 575.912C324.504 575.463 325.386 575.238 326.389 575.238C327.814 575.238 328.977 575.674 329.875 576.547C330.78 577.419 331.285 578.604 331.389 580.102L331.408 580.824C331.408 582.445 330.956 583.747 330.051 584.73C329.146 585.707 327.932 586.195 326.408 586.195C324.885 586.195 323.667 585.707 322.756 584.73C321.851 583.754 321.398 582.426 321.398 580.746V580.619ZM324.221 580.824C324.221 581.827 324.41 582.595 324.787 583.129C325.165 583.656 325.705 583.92 326.408 583.92C327.092 583.92 327.626 583.66 328.01 583.139C328.394 582.611 328.586 581.771 328.586 580.619C328.586 579.636 328.394 578.874 328.01 578.334C327.626 577.794 327.085 577.523 326.389 577.523C325.699 577.523 325.165 577.794 324.787 578.334C324.41 578.868 324.221 579.698 324.221 580.824ZM335.793 575.434L335.881 576.615C336.63 575.697 337.642 575.238 338.918 575.238C340.279 575.238 341.213 575.775 341.721 576.85C342.463 575.775 343.521 575.238 344.895 575.238C346.04 575.238 346.893 575.574 347.453 576.244C348.013 576.908 348.293 577.911 348.293 579.252V586H345.461V579.262C345.461 578.663 345.344 578.227 345.109 577.953C344.875 577.673 344.462 577.533 343.869 577.533C343.023 577.533 342.437 577.937 342.111 578.744L342.121 586H339.299V579.271C339.299 578.66 339.178 578.217 338.938 577.943C338.697 577.67 338.286 577.533 337.707 577.533C336.906 577.533 336.327 577.865 335.969 578.529V586H333.146V575.434H335.793ZM355.334 586.195C353.785 586.195 352.521 585.72 351.545 584.77C350.575 583.819 350.09 582.553 350.09 580.971V580.697C350.09 579.636 350.295 578.689 350.705 577.855C351.115 577.016 351.695 576.371 352.443 575.922C353.199 575.466 354.058 575.238 355.021 575.238C356.467 575.238 357.603 575.694 358.43 576.605C359.263 577.517 359.68 578.809 359.68 580.482V581.635H352.951C353.042 582.325 353.316 582.878 353.771 583.295C354.234 583.712 354.816 583.92 355.52 583.92C356.607 583.92 357.456 583.526 358.068 582.738L359.455 584.291C359.032 584.89 358.459 585.359 357.736 585.697C357.014 586.029 356.213 586.195 355.334 586.195ZM355.012 577.523C354.452 577.523 353.996 577.712 353.645 578.09C353.299 578.467 353.078 579.008 352.98 579.711H356.906V579.486C356.893 578.861 356.724 578.38 356.398 578.041C356.073 577.696 355.611 577.523 355.012 577.523ZM360.852 580.619C360.852 579.571 361.053 578.637 361.457 577.816C361.861 576.996 362.44 576.361 363.195 575.912C363.957 575.463 364.839 575.238 365.842 575.238C367.268 575.238 368.43 575.674 369.328 576.547C370.233 577.419 370.738 578.604 370.842 580.102L370.861 580.824C370.861 582.445 370.409 583.747 369.504 584.73C368.599 585.707 367.385 586.195 365.861 586.195C364.338 586.195 363.12 585.707 362.209 584.73C361.304 583.754 360.852 582.426 360.852 580.746V580.619ZM363.674 580.824C363.674 581.827 363.863 582.595 364.24 583.129C364.618 583.656 365.158 583.92 365.861 583.92C366.545 583.92 367.079 583.66 367.463 583.139C367.847 582.611 368.039 581.771 368.039 580.619C368.039 579.636 367.847 578.874 367.463 578.334C367.079 577.794 366.538 577.523 365.842 577.523C365.152 577.523 364.618 577.794 364.24 578.334C363.863 578.868 363.674 579.698 363.674 580.824ZM375.197 575.434L375.285 576.654C376.04 575.71 377.053 575.238 378.322 575.238C379.442 575.238 380.275 575.567 380.822 576.225C381.369 576.882 381.649 577.865 381.662 579.174V586H378.84V579.242C378.84 578.643 378.71 578.21 378.449 577.943C378.189 577.67 377.756 577.533 377.15 577.533C376.356 577.533 375.76 577.872 375.363 578.549V586H372.541V575.434H375.197ZM388.674 586.195C387.124 586.195 385.861 585.72 384.885 584.77C383.915 583.819 383.43 582.553 383.43 580.971V580.697C383.43 579.636 383.635 578.689 384.045 577.855C384.455 577.016 385.035 576.371 385.783 575.922C386.538 575.466 387.398 575.238 388.361 575.238C389.807 575.238 390.943 575.694 391.77 576.605C392.603 577.517 393.02 578.809 393.02 580.482V581.635H386.291C386.382 582.325 386.656 582.878 387.111 583.295C387.574 583.712 388.156 583.92 388.859 583.92C389.947 583.92 390.796 583.526 391.408 582.738L392.795 584.291C392.372 584.89 391.799 585.359 391.076 585.697C390.354 586.029 389.553 586.195 388.674 586.195ZM388.352 577.523C387.792 577.523 387.336 577.712 386.984 578.09C386.639 578.467 386.418 579.008 386.32 579.711H390.246V579.486C390.233 578.861 390.064 578.38 389.738 578.041C389.413 577.696 388.951 577.523 388.352 577.523ZM399.201 580.639C399.201 579.018 399.585 577.712 400.354 576.723C401.128 575.733 402.17 575.238 403.479 575.238C404.637 575.238 405.539 575.635 406.184 576.43L406.301 575.434H408.859V585.648C408.859 586.573 408.648 587.377 408.225 588.061C407.808 588.744 407.219 589.265 406.457 589.623C405.695 589.981 404.803 590.16 403.781 590.16C403.007 590.16 402.251 590.004 401.516 589.691C400.78 589.385 400.223 588.988 399.846 588.5L401.096 586.781C401.799 587.569 402.652 587.963 403.654 587.963C404.403 587.963 404.986 587.761 405.402 587.357C405.819 586.96 406.027 586.394 406.027 585.658V585.092C405.376 585.827 404.52 586.195 403.459 586.195C402.189 586.195 401.161 585.701 400.373 584.711C399.592 583.715 399.201 582.396 399.201 580.756V580.639ZM402.023 580.844C402.023 581.801 402.215 582.553 402.6 583.1C402.984 583.64 403.511 583.91 404.182 583.91C405.041 583.91 405.656 583.588 406.027 582.943V578.5C405.65 577.855 405.041 577.533 404.201 577.533C403.524 577.533 402.99 577.81 402.6 578.363C402.215 578.917 402.023 579.743 402.023 580.844ZM410.598 580.619C410.598 579.571 410.799 578.637 411.203 577.816C411.607 576.996 412.186 576.361 412.941 575.912C413.703 575.463 414.585 575.238 415.588 575.238C417.014 575.238 418.176 575.674 419.074 576.547C419.979 577.419 420.484 578.604 420.588 580.102L420.607 580.824C420.607 582.445 420.155 583.747 419.25 584.73C418.345 585.707 417.131 586.195 415.607 586.195C414.084 586.195 412.867 585.707 411.955 584.73C411.05 583.754 410.598 582.426 410.598 580.746V580.619ZM413.42 580.824C413.42 581.827 413.609 582.595 413.986 583.129C414.364 583.656 414.904 583.92 415.607 583.92C416.291 583.92 416.825 583.66 417.209 583.139C417.593 582.611 417.785 581.771 417.785 580.619C417.785 579.636 417.593 578.874 417.209 578.334C416.825 577.794 416.285 577.523 415.588 577.523C414.898 577.523 414.364 577.794 413.986 578.334C413.609 578.868 413.42 579.698 413.42 580.824ZM425.725 572.836V575.434H427.531V577.504H425.725V582.777C425.725 583.168 425.799 583.448 425.949 583.617C426.099 583.786 426.385 583.871 426.809 583.871C427.121 583.871 427.398 583.848 427.639 583.803V585.941C427.085 586.111 426.516 586.195 425.93 586.195C423.951 586.195 422.941 585.196 422.902 583.197V577.504H421.359V575.434H422.902V572.836H425.725ZM477.746 580.619C477.746 579.571 477.948 578.637 478.352 577.816C478.755 576.996 479.335 576.361 480.09 575.912C480.852 575.463 481.734 575.238 482.736 575.238C484.162 575.238 485.324 575.674 486.223 576.547C487.128 577.419 487.632 578.604 487.736 580.102L487.756 580.824C487.756 582.445 487.303 583.747 486.398 584.73C485.493 585.707 484.279 586.195 482.756 586.195C481.232 586.195 480.015 585.707 479.104 584.73C478.199 583.754 477.746 582.426 477.746 580.746V580.619ZM480.568 580.824C480.568 581.827 480.757 582.595 481.135 583.129C481.512 583.656 482.053 583.92 482.756 583.92C483.439 583.92 483.973 583.66 484.357 583.139C484.742 582.611 484.934 581.771 484.934 580.619C484.934 579.636 484.742 578.874 484.357 578.334C483.973 577.794 483.433 577.523 482.736 577.523C482.046 577.523 481.512 577.794 481.135 578.334C480.757 578.868 480.568 579.698 480.568 580.824ZM492.092 575.434L492.18 576.654C492.935 575.71 493.947 575.238 495.217 575.238C496.337 575.238 497.17 575.567 497.717 576.225C498.264 576.882 498.544 577.865 498.557 579.174V586H495.734V579.242C495.734 578.643 495.604 578.21 495.344 577.943C495.083 577.67 494.65 577.533 494.045 577.533C493.251 577.533 492.655 577.872 492.258 578.549V586H489.436V575.434H492.092ZM509.064 572.836V575.434H510.871V577.504H509.064V582.777C509.064 583.168 509.139 583.448 509.289 583.617C509.439 583.786 509.725 583.871 510.148 583.871C510.461 583.871 510.738 583.848 510.979 583.803V585.941C510.425 586.111 509.855 586.195 509.27 586.195C507.29 586.195 506.281 585.196 506.242 583.197V577.504H504.699V575.434H506.242V572.836H509.064ZM515.197 576.586C515.946 575.688 516.887 575.238 518.02 575.238C520.311 575.238 521.473 576.57 521.506 579.232V586H518.684V579.311C518.684 578.705 518.553 578.259 518.293 577.973C518.033 577.68 517.6 577.533 516.994 577.533C516.167 577.533 515.568 577.852 515.197 578.49V586H512.375V571H515.197V576.586ZM528.498 586.195C526.949 586.195 525.686 585.72 524.709 584.77C523.739 583.819 523.254 582.553 523.254 580.971V580.697C523.254 579.636 523.459 578.689 523.869 577.855C524.279 577.016 524.859 576.371 525.607 575.922C526.363 575.466 527.222 575.238 528.186 575.238C529.631 575.238 530.767 575.694 531.594 576.605C532.427 577.517 532.844 578.809 532.844 580.482V581.635H526.115C526.206 582.325 526.48 582.878 526.936 583.295C527.398 583.712 527.98 583.92 528.684 583.92C529.771 583.92 530.62 583.526 531.232 582.738L532.619 584.291C532.196 584.89 531.623 585.359 530.9 585.697C530.178 586.029 529.377 586.195 528.498 586.195ZM528.176 577.523C527.616 577.523 527.16 577.712 526.809 578.09C526.464 578.467 526.242 579.008 526.145 579.711H530.07V579.486C530.057 578.861 529.888 578.38 529.562 578.041C529.237 577.696 528.775 577.523 528.176 577.523ZM542.424 575.434V586.576C542.424 587.742 542.115 588.646 541.496 589.291C540.878 589.942 539.986 590.268 538.82 590.268C538.332 590.268 537.867 590.212 537.424 590.102V587.865C537.762 587.924 538.059 587.953 538.312 587.953C539.165 587.953 539.592 587.501 539.592 586.596V575.434H542.424ZM539.367 572.699C539.367 572.276 539.507 571.928 539.787 571.654C540.074 571.381 540.461 571.244 540.949 571.244C541.438 571.244 541.822 571.381 542.102 571.654C542.388 571.928 542.531 572.276 542.531 572.699C542.531 573.129 542.385 573.48 542.092 573.754C541.805 574.027 541.424 574.164 540.949 574.164C540.474 574.164 540.09 574.027 539.797 573.754C539.51 573.48 539.367 573.129 539.367 572.699ZM544.191 580.619C544.191 579.571 544.393 578.637 544.797 577.816C545.201 576.996 545.78 576.361 546.535 575.912C547.297 575.463 548.179 575.238 549.182 575.238C550.607 575.238 551.77 575.674 552.668 576.547C553.573 577.419 554.077 578.604 554.182 580.102L554.201 580.824C554.201 582.445 553.749 583.747 552.844 584.73C551.939 585.707 550.725 586.195 549.201 586.195C547.678 586.195 546.46 585.707 545.549 584.73C544.644 583.754 544.191 582.426 544.191 580.746V580.619ZM547.014 580.824C547.014 581.827 547.202 582.595 547.58 583.129C547.958 583.656 548.498 583.92 549.201 583.92C549.885 583.92 550.419 583.66 550.803 583.139C551.187 582.611 551.379 581.771 551.379 580.619C551.379 579.636 551.187 578.874 550.803 578.334C550.419 577.794 549.878 577.523 549.182 577.523C548.492 577.523 547.958 577.794 547.58 578.334C547.202 578.868 547.014 579.698 547.014 580.824ZM565.461 580.814C565.461 582.507 565.1 583.829 564.377 584.779C563.654 585.723 562.645 586.195 561.35 586.195C560.204 586.195 559.289 585.756 558.605 584.877L558.479 586H555.939V571H558.762V576.381C559.413 575.619 560.269 575.238 561.33 575.238C562.619 575.238 563.628 575.714 564.357 576.664C565.093 577.608 565.461 578.939 565.461 580.658V580.814ZM562.639 580.609C562.639 579.542 562.469 578.764 562.131 578.275C561.792 577.781 561.288 577.533 560.617 577.533C559.719 577.533 559.1 577.901 558.762 578.637V582.807C559.107 583.549 559.732 583.92 560.637 583.92C561.548 583.92 562.147 583.471 562.434 582.572C562.57 582.143 562.639 581.488 562.639 580.609ZM567.355 584.613C567.355 584.164 567.505 583.799 567.805 583.52C568.111 583.24 568.492 583.1 568.947 583.1C569.41 583.1 569.79 583.24 570.09 583.52C570.396 583.799 570.549 584.164 570.549 584.613C570.549 585.056 570.399 585.417 570.1 585.697C569.8 585.971 569.416 586.107 568.947 586.107C568.485 586.107 568.104 585.971 567.805 585.697C567.505 585.417 567.355 585.056 567.355 584.613ZM573.176 584.613C573.176 584.164 573.326 583.799 573.625 583.52C573.931 583.24 574.312 583.1 574.768 583.1C575.23 583.1 575.611 583.24 575.91 583.52C576.216 583.799 576.369 584.164 576.369 584.613C576.369 585.056 576.219 585.417 575.92 585.697C575.62 585.971 575.236 586.107 574.768 586.107C574.305 586.107 573.924 585.971 573.625 585.697C573.326 585.417 573.176 585.056 573.176 584.613Z" fill="#C8C8C8"/>
<path d="M436.838 576.586C437.587 575.688 438.527 575.238 439.66 575.238C441.952 575.238 443.114 576.57 443.146 579.232V586H440.324V579.311C440.324 578.705 440.194 578.259 439.934 577.973C439.673 577.68 439.24 577.533 438.635 577.533C437.808 577.533 437.209 577.852 436.838 578.49V586H434.016V571H436.838V576.586ZM448.254 586H445.422V575.434H448.254V586ZM445.256 572.699C445.256 572.276 445.396 571.928 445.676 571.654C445.962 571.381 446.35 571.244 446.838 571.244C447.32 571.244 447.704 571.381 447.99 571.654C448.277 571.928 448.42 572.276 448.42 572.699C448.42 573.129 448.273 573.48 447.98 573.754C447.694 574.027 447.313 574.164 446.838 574.164C446.363 574.164 445.979 574.027 445.686 573.754C445.399 573.48 445.256 573.129 445.256 572.699ZM450.178 580.639C450.178 579.018 450.562 577.712 451.33 576.723C452.105 575.733 453.146 575.238 454.455 575.238C455.614 575.238 456.516 575.635 457.16 576.43L457.277 575.434H459.836V585.648C459.836 586.573 459.624 587.377 459.201 588.061C458.785 588.744 458.195 589.265 457.434 589.623C456.672 589.981 455.78 590.16 454.758 590.16C453.983 590.16 453.228 590.004 452.492 589.691C451.757 589.385 451.2 588.988 450.822 588.5L452.072 586.781C452.775 587.569 453.628 587.963 454.631 587.963C455.38 587.963 455.962 587.761 456.379 587.357C456.796 586.96 457.004 586.394 457.004 585.658V585.092C456.353 585.827 455.497 586.195 454.436 586.195C453.166 586.195 452.137 585.701 451.35 584.711C450.568 583.715 450.178 582.396 450.178 580.756V580.639ZM453 580.844C453 581.801 453.192 582.553 453.576 583.1C453.96 583.64 454.488 583.91 455.158 583.91C456.018 583.91 456.633 583.588 457.004 582.943V578.5C456.626 577.855 456.018 577.533 455.178 577.533C454.501 577.533 453.967 577.81 453.576 578.363C453.192 578.917 453 579.743 453 580.844ZM464.768 576.586C465.516 575.688 466.457 575.238 467.59 575.238C469.882 575.238 471.044 576.57 471.076 579.232V586H468.254V579.311C468.254 578.705 468.124 578.259 467.863 577.973C467.603 577.68 467.17 577.533 466.564 577.533C465.738 577.533 465.139 577.852 464.768 578.49V586H461.945V571H464.768V576.586Z" fill="#3BB30B" fill-opacity="0.6"/>
</g>
<defs>
<clipPath id="clip0">
<rect width="600" height="600" fill="white"/>
</clipPath>
</defs>
</svg>
