<svg width="101" height="85" viewBox="0 0 101 85" fill="none" xmlns="http://www.w3.org/2000/svg">
<path fill-rule="evenodd" clip-rule="evenodd" d="M83.3693 28.7787L50.1032 9.60016L16.6357 28.9351L49.8797 48.1358L83.3693 28.7787Z" fill="#CFA87F"/>
<path fill-rule="evenodd" clip-rule="evenodd" d="M49.8797 48.1362L16.6357 28.9355V65.1266L49.8797 84.327V48.1362Z" fill="#A67C52"/>
<path fill-rule="evenodd" clip-rule="evenodd" d="M83.3753 64.9699V28.7787L49.8857 48.1358V84.3266L83.3753 64.9699Z" fill="#E3BA8D"/>
<path fill-rule="evenodd" clip-rule="evenodd" d="M83.3753 28.7787L50.1092 9.60016L49.8857 48.1358L83.3753 28.7787Z" fill="#BA8C5F"/>
<path fill-rule="evenodd" clip-rule="evenodd" d="M50.1005 9.60019L33.4896 0L0 19.3346L16.6331 28.9351L50.1005 9.60019Z" fill="#C69C6D"/>
<path fill-rule="evenodd" clip-rule="evenodd" d="M100.009 38.3789L83.3753 28.7787L49.8857 48.1358L66.5191 57.7139L100.009 38.3789Z" fill="#C69C6D"/>
<path fill-rule="evenodd" clip-rule="evenodd" d="M49.8857 9.60019L66.5191 0L100.009 19.3346L83.3753 28.9351L49.8857 9.60019Z" fill="#C69C6D"/>
<path fill-rule="evenodd" clip-rule="evenodd" d="M0 38.3789L16.6109 28.7787L50.1005 48.1358L33.4896 57.7139L0 38.3789Z" fill="#C69C6D"/>
<path fill-rule="evenodd" clip-rule="evenodd" d="M80.4021 62.782C80.4021 62.9829 80.2683 63.2064 80.0897 63.2957C79.9334 63.385 79.7994 63.3178 79.7994 63.1168V58.3168L79.5984 59.0311C79.5315 59.2321 79.3527 59.433 79.1964 59.4553C79.0402 59.4776 78.9733 59.3215 79.0179 59.0983L79.7769 56.4189C79.7993 56.2402 79.9332 56.0394 80.0672 55.9501H80.0897H80.1118C80.2235 55.9054 80.3128 55.9056 80.3575 56.0172L81.1165 57.8926C81.1835 58.0266 81.0942 58.2722 80.938 58.4285C80.7817 58.5848 80.6254 58.5848 80.5584 58.4285L80.3575 57.9594V62.782H80.4021ZM78.0579 64.1215C78.0579 64.3001 77.9238 64.5458 77.7452 64.6127C77.5889 64.7244 77.4549 64.6352 77.4549 64.4342V59.6563L77.2543 60.3485C77.1873 60.5718 77.0085 60.7503 76.8523 60.7727C76.696 60.795 76.6291 60.6387 76.6737 60.4378L77.4328 57.7587C77.4551 57.5801 77.5891 57.3789 77.723 57.2896C77.723 57.2896 77.7675 57.2675 77.7898 57.2675H77.8123V57.245C77.8346 57.245 77.8346 57.245 77.8569 57.245C77.9239 57.245 77.9909 57.2898 78.0133 57.3567L78.7723 59.2097C78.8393 59.3659 78.7501 59.6116 78.5938 59.7455C78.4375 59.8795 78.2813 59.9243 78.2143 59.768L78.0133 59.2993V64.1215H78.0579ZM80.8487 63.6306L76.9861 65.8855C76.8299 65.9748 76.6959 66.1981 76.6959 66.3768C76.6959 66.5554 76.8299 66.6446 76.9861 66.5553L80.8487 64.3225C81.0273 64.2109 81.1611 63.9877 81.1611 63.8091C81.1611 63.6305 81.0273 63.5413 80.8487 63.6306Z" fill="#30383B"/>
</svg>
