<svg width="218" height="285" viewBox="0 0 218 285" fill="none" xmlns="http://www.w3.org/2000/svg">
<path fill-rule="evenodd" clip-rule="evenodd" d="M185.591 172.602C228.093 198.322 228.093 240.027 185.591 265.746C143.135 291.418 74.3322 291.418 31.8762 265.746C-10.6254 240.027 -10.6254 198.322 31.8762 172.602C74.3322 146.883 143.181 146.883 185.591 172.602Z" fill="#F5F5F5"/>
<path fill-rule="evenodd" clip-rule="evenodd" d="M172.242 180.713C207.326 201.947 207.326 236.398 172.242 257.584C137.157 278.818 80.3228 278.818 45.2839 257.584C10.1996 236.398 10.1996 201.947 45.2839 180.713C80.3683 159.526 137.203 159.526 172.242 180.713Z" fill="#E9E9EB"/>
<path fill-rule="evenodd" clip-rule="evenodd" d="M158.872 188.824C186.494 205.62 186.494 232.771 158.872 249.472C131.205 266.268 86.3362 266.268 58.6692 249.472C31.0478 232.723 31.0478 205.573 58.6692 188.824C86.3362 172.123 131.205 172.123 158.872 188.824Z" fill="#DDDEE1"/>
<path fill-rule="evenodd" clip-rule="evenodd" d="M145.426 196.935C165.721 209.246 165.721 229.144 145.426 241.407C125.222 253.718 92.3217 253.718 72.072 241.407C51.8223 229.144 51.8223 209.246 72.072 196.935C92.3217 184.672 125.222 184.672 145.426 196.935Z" fill="#D1D2D6"/>
<path fill-rule="evenodd" clip-rule="evenodd" d="M107.681 176.844H107.545L107.407 176.796H107.317L107.18 176.749L107.044 176.701H106.953L106.862 176.654L106.726 176.606L106.588 176.558L106.498 176.51H106.362L106.27 176.463L106.134 176.415L106.042 176.367L105.906 176.271H105.815L105.724 176.176L105.588 176.129L105.497 176.081L105.405 176.033L105.315 175.938L105.179 175.89L105.133 175.842L105.041 175.747V205.092L105.133 205.14L105.179 205.188L105.315 205.236L105.405 205.283L105.497 205.331L105.588 205.379L105.724 205.474L105.815 205.522L105.906 205.57L106.042 205.617L106.134 205.665L106.27 205.713L106.362 205.761L106.498 205.808L106.588 205.856L106.726 205.904H106.862L106.953 205.952L107.044 205.999H107.18L107.317 206.047L107.407 206.094H107.545L107.681 206.142V176.844Z" fill="#E6B543"/>
<path fill-rule="evenodd" clip-rule="evenodd" d="M94.0814 2.38599L94.2189 2.05252L94.355 1.76565L94.5369 1.43218L94.7647 1.14531L94.9466 0.859161L95.1743 0.620344L95.4465 0.429581L95.6743 0.286873L95.902 0.143436L96.1298 0.0480548L96.4019 0L96.5839 0.0480548L96.8116 0.0961096L96.9935 0.191491L111.555 8.97096L111.374 8.87558L111.192 8.82825H110.964L110.782 8.87558L110.554 8.97096L110.282 9.06634L110.008 9.2571L109.781 9.49592L109.509 9.73474L109.327 10.0209L109.143 10.307L108.961 10.5458L108.825 10.88L108.735 11.2135L107.552 13.9337L106.323 16.892L104.958 20.1845L103.455 23.6204L101.908 27.3424L100.271 31.2072L98.5419 35.2635L96.7672 39.4625L94.3092 45.1409L91.8526 51.0094L89.3043 56.9741L86.7102 63.0348L84.2078 69.0948L81.6595 75.1067L79.2015 81.0714L76.7449 86.9406L74.5146 92.6191L72.2844 98.106L70.2374 103.355L68.371 108.27L66.6421 112.899L65.1867 117.145L63.9119 120.915L62.9106 124.208L61.9094 127.834L61.09 131.46L60.3624 134.896L59.7708 138.284L59.3611 141.577L59.0431 144.821L58.8612 147.876L58.7695 150.929L58.907 155.319L59.3611 159.471L59.9985 163.383L60.9998 167.009L62.1371 170.398L63.5939 173.452L65.3228 176.266L67.1878 178.796L69.282 180.991L71.6025 182.899L74.1049 184.426L59.543 175.599L57.0406 174.024L54.6742 172.163L52.5815 169.968L50.6706 167.439L49.0319 164.671L47.5752 161.522L46.392 158.182L45.4366 154.556L44.7089 150.643L44.3451 146.491L44.209 142.054L44.2534 139.095L44.4353 135.946L44.7547 132.749L45.2088 129.504L45.756 126.069L46.4379 122.585L47.3488 119.054L48.3043 115.38L49.3055 112.04L50.579 108.27L52.0801 104.071L53.7646 99.4902L55.6755 94.5274L57.7238 89.2785L59.8624 83.8389L62.1829 78.065L64.5951 72.2438L67.0976 66.2792L69.6 60.2192L72.1483 54.1592L74.6965 48.1465L77.2448 42.1346L79.7472 36.3127L82.2052 30.5869L83.98 26.3879L85.7089 22.3316L87.3476 18.4669L88.8946 14.7929L90.35 11.3089L91.7609 8.06447L92.9899 5.05813L94.0814 2.38599Z" fill="#7FA34A"/>
<path fill-rule="evenodd" clip-rule="evenodd" d="M108.754 11.219C109.027 10.3124 109.618 9.5013 110.301 9.07185C110.983 8.64239 111.529 8.78578 111.848 9.31066C114.669 12.7463 118.946 17.6135 123.77 23.1009C136.556 37.5592 153.029 56.1684 157.67 66.857C160.492 73.2988 161.766 80.695 161.766 88.5684C161.766 100.641 158.763 113.81 153.393 126.599C148.024 139.387 140.379 151.65 131.187 161.909C118.127 176.463 102.473 185.911 89.4131 187.199C80.1756 188.106 72.5305 185.052 67.2064 178.753C61.8823 172.455 58.7881 162.959 58.7881 150.887C58.7881 143.013 60.1079 133.995 62.9292 124.165C67.6162 107.846 83.9988 69.3385 96.7857 39.4199C101.609 28.1587 105.932 18.0426 108.754 11.219Z" fill="#9BC957"/>
<path fill-rule="evenodd" clip-rule="evenodd" d="M110.482 8.9697C112.985 7.96764 112.211 12.6441 112.211 13.9324C112.211 32.3512 111.983 51.0563 112.211 69.475C112.302 74.9625 111.619 74.39 115.578 69.2843C117.535 66.7553 138.149 39.6042 138.331 39.7473L140.378 42.3241C140.423 42.2286 132.051 53.156 127.956 58.5003C126.363 60.5999 112.483 78.5415 112.301 79.0663C112.119 79.6867 112.211 109.891 112.257 113.184C115.943 108.555 153.301 59.4541 153.529 59.6449C153.574 59.6449 155.304 62.4605 155.304 62.4605C155.258 62.7468 116.853 112.468 113.03 117.622C111.756 119.387 112.211 119.101 112.211 121.439C112.074 130.41 111.847 141.336 112.211 150.259C112.347 153.695 111.983 153.266 114.667 149.878C123.495 138.903 132.461 126.736 141.107 115.379C145.566 109.558 161.856 88.0846 161.719 88.705C161.537 89.707 161.856 93.6678 161.401 94.1927C156.259 101.016 112.984 156.797 112.393 158.801C111.983 159.994 112.074 178.078 111.937 178.317C111.71 178.89 109.162 180.179 108.525 180.465C108.48 173.975 108.388 167.724 108.024 161.282C100.516 159.469 88.4122 158.944 80.3124 158.181C78.3101 157.99 58.925 156.654 58.925 155.938C58.925 155.174 58.6055 151.262 58.7875 150.833C73.0761 152.169 87.5473 153.695 101.836 154.936C104.02 155.127 105.84 155.223 108.024 155.175C108.752 147.683 108.343 137.089 108.343 129.264C108.343 126.544 108.297 123.872 108.206 121.152C104.11 120.58 65.2039 117.096 65.295 116.858C67.9342 110.416 64.9763 111.657 73.7133 112.42C85.0895 113.47 96.9664 114.902 108.252 115.57C108.57 106.36 108.479 96.101 108.388 86.8439C108.297 80.2113 109.344 81.547 103.019 80.8313C95.5107 80.0201 87.8204 79.4956 80.2665 78.7321C80.3575 78.0641 82.2234 73.6263 82.451 73.5786C83.9526 73.3878 103.884 75.7257 108.161 75.8212C108.798 65.6575 108.343 53.1079 108.343 42.7056C108.343 38.6497 107.979 13.1689 108.661 11.4511C109.071 10.3059 109.435 9.59002 110.482 8.9697Z" fill="#80A648"/>
<path fill-rule="evenodd" clip-rule="evenodd" d="M94.1018 2.38599L94.2393 2.05252L94.3754 1.76565L94.5573 1.43218L94.785 1.14531L94.9669 0.859161L95.1947 0.620343L95.4669 0.42958L95.6946 0.286872L95.9224 0.143436L96.1501 0.0480548L96.4223 0L96.6042 0.0480548L96.832 0.0961095L97.0139 0.191491L111.576 8.97095L111.394 8.87557L111.212 8.82824H110.984L110.802 8.87557L110.575 8.97095L110.302 9.06633L110.029 9.25709L109.801 9.49591L109.529 9.73473L109.347 10.0209L109.164 10.307L108.982 10.5458L108.846 10.88L108.755 11.2135L107.572 13.9337L106.343 16.892L104.978 20.1845L103.475 23.6204L101.928 27.3424L100.291 31.2072L98.5623 35.2635L96.7875 39.4624L94.3295 45.1409L91.8729 51.0094L89.3247 56.974L86.7306 63.0347L84.2281 69.0947L81.6799 75.1067L79.2219 81.0713L76.7653 86.9405L74.535 92.619L72.3048 98.106L70.2578 103.355L68.3914 108.27L66.6625 112.899L65.2071 117.145L63.9323 120.915L62.931 124.208L61.9298 127.834L61.1104 131.46L60.3828 134.896L60.0648 136.757L45.457 127.882L45.7764 126.069L46.4583 122.585L47.3693 119.054L48.3247 115.38L49.3259 112.04L50.5994 108.27L52.1006 104.071L53.7851 99.4901L55.6959 94.5274L57.7442 89.2785L59.8828 83.8388L62.2034 78.065L64.6155 72.2438L67.118 66.2792L69.6204 60.2192L72.1687 54.1592L74.7169 48.1465L77.2652 42.1346L79.7676 36.3127L82.2256 30.5869L84.0004 26.3879L85.7293 22.3316L87.368 18.4669L88.915 14.7929L90.3703 11.3089L91.7813 8.06446L93.0103 5.05813L94.1018 2.38599Z" fill="#89B04D"/>
</svg>
