<svg width="111" height="180" viewBox="0 0 111 180" fill="none" xmlns="http://www.w3.org/2000/svg">
<path fill-rule="evenodd" clip-rule="evenodd" d="M47.8075 108.124H47.7243L47.6402 108.095H47.585L47.5009 108.066L47.4177 108.037H47.3625L47.3065 108.008L47.2233 107.978L47.1392 107.949L47.084 107.92H47.0008L46.9448 107.891L46.8616 107.862L46.8055 107.833L46.7223 107.774H46.6663L46.6111 107.716L46.5279 107.687L46.4719 107.657L46.4158 107.628L46.3606 107.57L46.2774 107.541L46.2494 107.512L46.1934 107.453V125.395L46.2494 125.425L46.2774 125.454L46.3606 125.483L46.4158 125.512L46.4719 125.541L46.5279 125.57L46.6111 125.629L46.6663 125.658L46.7223 125.687L46.8055 125.716L46.8616 125.746L46.9448 125.775L47.0008 125.804L47.084 125.833L47.1392 125.862L47.2233 125.891H47.3065L47.3625 125.921L47.4177 125.95H47.5009L47.585 125.979L47.6402 126.008H47.7243L47.8075 126.037V108.124Z" fill="#E6B543"/>
<path fill-rule="evenodd" clip-rule="evenodd" d="M39.4924 1.45882L39.5765 1.25493L39.6597 1.07953L39.7709 0.875646L39.9102 0.70025L40.0214 0.525299L40.1606 0.379283L40.3271 0.262649L40.4663 0.175396L40.6056 0.0876982L40.7448 0.0293811L40.9112 0L41.0224 0.0293811L41.1617 0.0587622L41.2729 0.117079L50.1762 5.48492L50.065 5.4266L49.9538 5.39767H49.8145L49.7033 5.4266L49.564 5.48492L49.3976 5.54324L49.2303 5.65987L49.0911 5.80589L48.9247 5.9519L48.8135 6.12685L48.7014 6.3018L48.5902 6.44782L48.5069 6.65215L48.4518 6.85604L47.7284 8.51919L46.9769 10.3279L46.1423 12.341L45.2236 14.4417L44.2778 16.7174L43.2767 19.0804L42.2196 21.5604L41.1345 24.1277L39.6317 27.5995L38.1297 31.1876L36.5717 34.8344L34.9856 38.54L33.4556 42.2451L31.8976 45.9209L30.3947 49.5677L28.8927 53.1562L27.5291 56.6281L26.1655 59.9829L24.914 63.1921L23.7729 66.1974L22.7158 69.0274L21.826 71.6236L21.0465 73.9287L20.4343 75.9417L19.8222 78.1587L19.3212 80.376L18.8763 82.4768L18.5146 84.5482L18.2641 86.5612L18.0697 88.5449L17.9585 90.4124L17.9024 92.2794L17.9865 94.9633L18.2641 97.5017L18.6539 99.894L19.266 102.111L19.9614 104.183L20.8521 106.05L21.9092 107.771L23.0495 109.317L24.3298 110.66L25.7486 111.826L27.2786 112.76L18.3754 107.363L16.8454 106.4L15.3985 105.262L14.119 103.92L12.9507 102.374L11.9488 100.682L11.0581 98.7561L10.3347 96.7137L9.75057 94.4968L9.30566 92.1044L9.08321 89.5661L9 86.8528L9.02717 85.0441L9.1384 83.1187L9.33368 81.164L9.61133 79.1799L9.94586 77.0796L10.3627 74.9494L10.9197 72.7908L11.5039 70.5445L12.1161 68.5021L12.8947 66.1974L13.8125 63.6297L14.8424 60.8291L16.0107 57.7949L17.2631 54.5857L18.5706 51.2598L19.9894 47.7296L21.4643 44.1705L22.9943 40.5237L24.5243 36.8185L26.0823 33.1134L27.6403 29.4372L29.1984 25.7614L30.7284 22.2019L32.2312 18.7011L33.3163 16.1338L34.3734 13.6538L35.3753 11.2908L36.3212 9.04449L37.211 6.91435L38.0736 4.93068L38.8251 3.09258L39.4924 1.45882Z" fill="#7FA34A"/>
<path fill-rule="evenodd" clip-rule="evenodd" d="M48.4633 6.8596C48.6303 6.30528 48.9919 5.80937 49.4092 5.5468C49.8265 5.28422 50.1603 5.37189 50.3551 5.69281C52.08 7.79338 54.6951 10.7692 57.6443 14.1243C65.4623 22.9642 75.5337 34.342 78.3716 40.8772C80.0966 44.8157 80.8755 49.3378 80.8755 54.1516C80.8755 61.5328 79.0395 69.5849 75.7565 77.4037C72.4735 85.2225 67.7992 92.7205 62.1791 98.993C54.1942 107.891 44.6234 113.668 36.6384 114.455C30.9906 115.01 26.3163 113.143 23.0611 109.292C19.8059 105.44 17.9141 99.6348 17.9141 92.2536C17.9141 87.4398 18.721 81.9259 20.446 75.9159C23.3116 65.9382 33.3281 42.3943 41.1461 24.1019C44.0953 17.2167 46.7384 11.0316 48.4633 6.8596Z" fill="#9BC957"/>
<path fill-rule="evenodd" clip-rule="evenodd" d="M49.5196 5.48405C51.0498 4.87138 50.5766 7.7306 50.5766 8.51831C50.5766 19.7797 50.4375 31.2162 50.5766 42.4775C50.6323 45.8326 50.2151 45.4826 52.6356 42.3609C53.832 40.8146 66.4354 24.2142 66.5467 24.3018L67.7982 25.8772C67.826 25.8189 62.7073 32.5 60.2033 35.7675C59.2295 37.0512 50.7431 48.0208 50.6318 48.3417C50.5205 48.721 50.5768 67.1884 50.6047 69.2014C52.8583 66.3715 75.6997 36.3506 75.8388 36.4673C75.8666 36.4673 76.9239 38.1888 76.9239 38.1888C76.8961 38.3638 53.4146 68.7639 51.0776 71.9147C50.2986 72.9942 50.5766 72.8192 50.5766 74.2487C50.4932 79.7336 50.3541 86.4142 50.5766 91.8698C50.6601 93.9704 50.4371 93.708 52.0786 91.6366C57.4761 84.9264 62.9578 77.4871 68.244 70.5436C70.9705 66.9843 80.9301 53.8556 80.8466 54.2349C80.7353 54.8475 80.9304 57.2692 80.6522 57.5901C77.5083 61.7621 51.0496 95.8668 50.6879 97.0921C50.4375 97.8215 50.4928 108.879 50.4094 109.024C50.2703 109.374 48.7127 110.163 48.3232 110.338C48.2954 106.37 48.2393 102.548 48.0167 98.6092C43.4261 97.5006 36.026 97.1796 31.0737 96.7128C29.8495 96.5961 17.9972 95.7793 17.9972 95.3417C17.9972 94.8749 17.8019 92.4827 17.9132 92.2202C26.6493 93.0371 35.4972 93.9706 44.2333 94.7291C45.5688 94.8458 46.6813 94.9043 48.0167 94.8752C48.4619 90.2948 48.212 83.8176 48.212 79.033C48.212 77.37 48.1836 75.7363 48.1279 74.0733C45.624 73.7232 21.8362 71.5936 21.8919 71.4477C23.5056 67.5092 21.6971 68.2676 27.0389 68.7344C33.9944 69.3763 41.2561 70.2518 48.156 70.6602C48.3507 65.0295 48.2948 58.7569 48.2392 53.097C48.1835 49.0418 48.824 49.8584 44.9567 49.4208C40.366 48.9248 35.6641 48.6042 31.0456 48.1374C31.1013 47.729 32.2421 45.0157 32.3812 44.9865C33.2993 44.8698 45.4855 46.2993 48.1008 46.3576C48.4903 40.1434 48.212 32.4705 48.212 26.1105C48.212 23.6306 47.9891 8.05146 48.4064 7.00118C48.6568 6.30099 48.8797 5.86331 49.5196 5.48405Z" fill="#80A648"/>
<path fill-rule="evenodd" clip-rule="evenodd" d="M39.5045 1.45882L39.5886 1.25493L39.6718 1.07953L39.783 0.875646L39.9222 0.700249L40.0335 0.525298L40.1727 0.379283L40.3391 0.262649L40.4784 0.175396L40.6176 0.0876981L40.7569 0.0293811L40.9233 0L41.0345 0.0293811L41.1738 0.0587622L41.285 0.117079L50.1883 5.48492L50.077 5.4266L49.9658 5.39766H49.8266L49.7153 5.4266L49.5761 5.48492L49.4097 5.54323L49.2424 5.65987L49.1032 5.80588L48.9367 5.9519L48.8255 6.12685L48.7134 6.3018L48.6022 6.44781L48.519 6.65215L48.4638 6.85603L47.7404 8.51918L46.989 10.3279L46.1544 12.3409L45.2357 14.4417L44.2898 16.7174L43.2888 19.0803L42.2317 21.5604L41.1466 24.1277L39.6438 27.5995L38.1418 31.1876L36.5837 34.8344L34.9977 38.54L33.4677 42.2451L31.9096 45.9209L30.4068 49.5677L28.9048 53.1562L27.5412 56.628L26.1776 59.9828L24.9261 63.1921L23.785 66.1974L22.7279 69.0273L21.8381 71.6235L21.0586 73.9286L20.4464 75.9417L19.8343 78.1586L19.3333 80.376L18.8884 82.4767L18.694 83.6146L9.7627 78.188L9.95798 77.0795L10.3749 74.9494L10.9319 72.7908L11.516 70.5444L12.1282 68.502L12.9068 66.1974L13.8246 63.6297L14.8545 60.8291L16.0228 57.7948L17.2752 54.5856L18.5828 51.2598L20.0015 47.7296L21.4764 44.1705L23.0064 40.5236L24.5364 36.8185L26.0944 33.1134L27.6524 29.4372L29.2105 25.7614L30.7405 22.2019L32.2433 18.7011L33.3284 16.1338L34.3855 13.6537L35.3874 11.2908L36.3333 9.04448L37.2231 6.91435L38.0857 4.93068L38.8371 3.09258L39.5045 1.45882Z" fill="#89B04D"/>
<g filter="url(#filter0_d)">
<path fill-rule="evenodd" clip-rule="evenodd" d="M75.9325 121.575H75.8493L75.7652 121.546H75.71L75.6259 121.517L75.5427 121.487H75.4875L75.4315 121.459L75.3483 121.429L75.2642 121.4L75.209 121.371H75.1258L75.0698 121.342L74.9866 121.313L74.9305 121.284L74.8473 121.225H74.7913L74.7361 121.167L74.6529 121.138L74.5969 121.108L74.5408 121.079L74.4856 121.021L74.4024 120.992L74.3744 120.963L74.3184 120.904V138.846L74.3744 138.876L74.4024 138.905L74.4856 138.934L74.5408 138.963L74.5969 138.992L74.6529 139.021L74.7361 139.08L74.7913 139.109L74.8473 139.138L74.9305 139.167L74.9866 139.197L75.0698 139.226L75.1258 139.255L75.209 139.284L75.2642 139.313L75.3483 139.342H75.4315L75.4875 139.372L75.5427 139.401H75.6259L75.71 139.43L75.7652 139.459H75.8493L75.9325 139.488V121.575Z" fill="#E6B543"/>
<path fill-rule="evenodd" clip-rule="evenodd" d="M67.6174 14.9097L67.7015 14.7059L67.7847 14.5305L67.8959 14.3266L68.0352 14.1512L68.1464 13.9762L68.2856 13.8302L68.4521 13.7136L68.5913 13.6263L68.7306 13.5386L68.8698 13.4803L69.0362 13.4509L69.1474 13.4803L69.2867 13.5097L69.3979 13.568L78.3012 18.9358L78.19 18.8775L78.0788 18.8486H77.9395L77.8283 18.8775L77.689 18.9358L77.5226 18.9942L77.3553 19.1108L77.2161 19.2568L77.0497 19.4028L76.9385 19.5778L76.8264 19.7527L76.7152 19.8987L76.6319 20.1031L76.5768 20.307L75.8534 21.9701L75.1019 23.7788L74.2673 25.7919L73.3486 27.8926L72.4028 30.1683L71.4017 32.5313L70.3446 35.0113L69.2595 37.5786L67.7567 41.0505L66.2547 44.6385L64.6967 48.2854L63.1106 51.9909L61.5806 55.6961L60.0226 59.3718L58.5197 63.0186L57.0177 66.6071L55.6541 70.079L54.2905 73.4338L53.039 76.643L51.8979 79.6484L50.8408 82.4783L49.951 85.0745L49.1715 87.3796L48.5593 89.3926L47.9472 91.6096L47.4462 93.827L47.0013 95.9277L46.6396 97.9991L46.3891 100.012L46.1947 101.996L46.0835 103.863L46.0274 105.73L46.1115 108.414L46.3891 110.953L46.7789 113.345L47.391 115.562L48.0864 117.634L48.9771 119.501L50.0342 121.222L51.1745 122.768L52.4548 124.11L53.8736 125.277L55.4036 126.211L46.5004 120.814L44.9704 119.851L43.5235 118.713L42.244 117.371L41.0757 115.825L40.0738 114.132L39.1831 112.207L38.4597 110.165L37.8756 107.948L37.4307 105.555L37.2082 103.017L37.125 100.304L37.1522 98.495L37.2634 96.5696L37.4587 94.6149L37.7363 92.6308L38.0709 90.5305L38.4877 88.4004L39.0447 86.2417L39.6289 83.9954L40.2411 81.953L41.0197 79.6484L41.9375 77.0806L42.9674 74.2801L44.1357 71.2458L45.3881 68.0366L46.6956 64.7107L48.1144 61.1805L49.5893 57.6214L51.1193 53.9746L52.6493 50.2695L54.2073 46.5643L55.7653 42.8881L57.3234 39.2124L58.8534 35.6528L60.3562 32.152L61.4413 29.5847L62.4984 27.1047L63.5003 24.7417L64.4462 22.4954L65.336 20.3653L66.1986 18.3816L66.9501 16.5435L67.6174 14.9097Z" fill="#7FA34A"/>
<path fill-rule="evenodd" clip-rule="evenodd" d="M76.5883 20.3105C76.7553 19.7562 77.1169 19.2603 77.5342 18.9977C77.9515 18.7352 78.2853 18.8228 78.4801 19.1437C80.205 21.2443 82.8201 24.2202 85.7693 27.5752C93.5873 36.4151 103.659 47.793 106.497 54.3281C108.222 58.2666 109 62.7888 109 67.6026C109 74.9837 107.164 83.0358 103.881 90.8546C100.598 98.6734 95.9242 106.171 90.3041 112.444C82.3192 121.342 72.7484 127.119 64.7634 127.906C59.1156 128.461 54.4413 126.594 51.1861 122.742C47.9309 118.891 46.0391 113.086 46.0391 105.705C46.0391 100.891 46.846 95.3768 48.571 89.3668C51.4366 79.3891 61.4531 55.8452 69.2711 37.5528C72.2203 30.6676 74.8634 24.4825 76.5883 20.3105Z" fill="#9BC957"/>
<path fill-rule="evenodd" clip-rule="evenodd" d="M77.6446 18.9352C79.1748 18.3226 78.7016 21.1818 78.7016 21.9695C78.7016 33.2309 78.5625 44.6673 78.7016 55.9287C78.7573 59.2838 78.3401 58.9337 80.7606 55.8121C81.957 54.2658 94.5604 37.6654 94.6717 37.7529L95.9232 39.3284C95.951 39.27 90.8323 45.9511 88.3283 49.2187C87.3545 50.5024 78.8681 61.472 78.7568 61.7929C78.6455 62.1722 78.7018 80.6395 78.7297 82.6526C80.9833 79.8227 103.825 49.8018 103.964 49.9185C103.992 49.9185 105.049 51.6399 105.049 51.6399C105.021 51.815 81.5396 82.215 79.2026 85.3659C78.4236 86.4454 78.7016 86.2704 78.7016 87.6999C78.6182 93.1847 78.4791 99.8654 78.7016 105.321C78.7851 107.422 78.5621 107.159 80.2036 105.088C85.6011 98.3776 91.0828 90.9383 96.369 83.9948C99.0955 80.4355 109.055 67.3068 108.972 67.686C108.86 68.2987 109.055 70.7203 108.777 71.0413C105.633 75.2132 79.1746 109.318 78.8129 110.543C78.5625 111.273 78.6178 122.33 78.5344 122.476C78.3953 122.826 76.8377 123.614 76.4482 123.789C76.4204 119.821 76.3643 115.999 76.1417 112.06C71.5511 110.952 64.151 110.631 59.1987 110.164C57.9745 110.047 46.1222 109.23 46.1222 108.793C46.1222 108.326 45.9269 105.934 46.0382 105.671C54.7743 106.488 63.6222 107.422 72.3583 108.18C73.6938 108.297 74.8063 108.356 76.1417 108.326C76.5869 103.746 76.337 97.2688 76.337 92.4841C76.337 90.8212 76.3086 89.1875 76.2529 87.5245C73.749 87.1744 49.9612 85.0448 50.0169 84.8989C51.6306 80.9603 49.8221 81.7188 55.1639 82.1856C62.1194 82.8274 69.3811 83.703 76.281 84.1114C76.4757 78.4807 76.4198 72.208 76.3642 66.5482C76.3085 62.4929 76.949 63.3096 73.0817 62.872C68.491 62.376 63.7891 62.0554 59.1706 61.5886C59.2263 61.1801 60.3671 58.4668 60.5062 58.4377C61.4243 58.321 73.6105 59.7504 76.2258 59.8088C76.6153 53.5946 76.337 45.9217 76.337 39.5616C76.337 37.0818 76.1141 21.5026 76.5314 20.4524C76.7818 19.7522 77.0047 19.3145 77.6446 18.9352Z" fill="#80A648"/>
<path fill-rule="evenodd" clip-rule="evenodd" d="M67.6295 14.9097L67.7136 14.7059L67.7968 14.5305L67.908 14.3266L68.0472 14.1512L68.1585 13.9762L68.2977 13.8302L68.4641 13.7136L68.6034 13.6263L68.7426 13.5386L68.8819 13.4803L69.0483 13.4509L69.1595 13.4803L69.2988 13.5097L69.41 13.568L78.3133 18.9358L78.202 18.8775L78.0908 18.8486H77.9516L77.8403 18.8775L77.7011 18.9358L77.5347 18.9942L77.3674 19.1108L77.2282 19.2568L77.0617 19.4028L76.9505 19.5778L76.8384 19.7527L76.7272 19.8987L76.644 20.1031L76.5888 20.307L75.8654 21.9701L75.114 23.7788L74.2794 25.7919L73.3607 27.8926L72.4148 30.1683L71.4138 32.5313L70.3567 35.0113L69.2716 37.5786L67.7688 41.0505L66.2668 44.6385L64.7087 48.2853L63.1227 51.9909L61.5927 55.696L60.0346 59.3718L58.5318 63.0186L57.0298 66.6071L55.6662 70.079L54.3026 73.4338L53.0511 76.643L51.91 79.6483L50.8529 82.4782L49.9631 85.0745L49.1836 87.3795L48.5714 89.3926L47.9593 91.6095L47.4583 93.8269L47.0134 95.9277L46.819 97.0655L37.8877 91.6389L38.083 90.5304L38.4999 88.4003L39.0569 86.2417L39.641 83.9954L40.2532 81.9529L41.0318 79.6483L41.9496 77.0806L42.9795 74.28L44.1478 71.2458L45.4002 68.0365L46.7078 64.7107L48.1265 61.1805L49.6014 57.6214L51.1314 53.9746L52.6614 50.2694L54.2194 46.5643L55.7774 42.8881L57.3355 39.2124L58.8655 35.6528L60.3683 32.152L61.4534 29.5847L62.5105 27.1047L63.5124 24.7417L64.4583 22.4954L65.3481 20.3653L66.2107 18.3816L66.9621 16.5435L67.6295 14.9097Z" fill="#89B04D"/>
</g>
<g filter="url(#filter1_d)">
<path fill-rule="evenodd" clip-rule="evenodd" d="M49.6415 155.203H49.5582L49.4742 155.173H49.419L49.3349 155.144L49.2517 155.115H49.1965L49.1405 155.086L49.0573 155.057L48.9732 155.028L48.918 154.998H48.8348L48.7788 154.969L48.6956 154.94L48.6395 154.911L48.5563 154.852H48.5003L48.4451 154.794L48.3619 154.765L48.3058 154.736L48.2498 154.707L48.1946 154.648L48.1114 154.619L48.0834 154.59L48.0273 154.532V172.474L48.0834 172.503L48.1114 172.532L48.1946 172.561L48.2498 172.59L48.3058 172.62L48.3619 172.649L48.4451 172.707L48.5003 172.736L48.5563 172.766L48.6395 172.795L48.6956 172.824L48.7788 172.853L48.8348 172.882L48.918 172.911L48.9732 172.941L49.0573 172.97H49.1405L49.1965 172.999L49.2517 173.028H49.3349L49.419 173.057L49.4742 173.086H49.5582L49.6415 173.116V155.203Z" fill="#E6B543"/>
<path fill-rule="evenodd" clip-rule="evenodd" d="M41.3264 48.5372L41.4105 48.3333L41.4937 48.1579L41.6049 47.954L41.7442 47.7786L41.8554 47.6037L41.9946 47.4577L42.161 47.341L42.3003 47.2538L42.4395 47.1661L42.5788 47.1078L42.7452 47.0784L42.8564 47.1078L42.9957 47.1371L43.1069 47.1954L52.0102 52.5633L51.899 52.505L51.7877 52.476H51.6485L51.5373 52.505L51.398 52.5633L51.2316 52.6216L51.0643 52.7382L50.9251 52.8843L50.7587 53.0303L50.6474 53.2052L50.5354 53.3802L50.4241 53.5262L50.3409 53.7305L50.2857 53.9344L49.5623 55.5976L48.8109 57.4063L47.9763 59.4193L47.0576 61.5201L46.1117 63.7958L45.1107 66.1587L44.0536 68.6388L42.9685 71.206L41.4657 74.6779L39.9637 78.266L38.4056 81.9128L36.8196 85.6184L35.2896 89.3235L33.7315 92.9993L32.2287 96.6461L30.7267 100.235L29.3631 103.706L27.9995 107.061L26.748 110.27L25.6068 113.276L24.5498 116.106L23.6599 118.702L22.8805 121.007L22.2683 123.02L21.6562 125.237L21.1552 127.454L20.7103 129.555L20.3486 131.627L20.0981 133.64L19.9037 135.623L19.7925 137.491L19.7364 139.358L19.8205 142.042L20.0981 144.58L20.4878 146.972L21.1 149.189L21.7954 151.261L22.6861 153.128L23.7432 154.849L24.8834 156.396L26.1638 157.738L27.5826 158.905L29.1126 159.838L20.2093 154.441L18.6793 153.478L17.2325 152.34L15.953 150.998L14.7847 149.452L13.7828 147.76L12.8921 145.835L12.1687 143.792L11.5846 141.575L11.1396 139.183L10.9172 136.644L10.834 133.931L10.8612 132.122L10.9724 130.197L11.1677 128.242L11.4453 126.258L11.7798 124.158L12.1967 122.028L12.7537 119.869L13.3379 117.623L13.95 115.58L14.7286 113.276L15.6465 110.708L16.6764 107.908L17.8447 104.873L19.0971 101.664L20.4046 98.3382L21.8234 94.808L23.2982 91.2489L24.8283 87.602L26.3583 83.8969L27.9163 80.1918L29.4743 76.5156L31.0324 72.8398L32.5624 69.2803L34.0652 65.7794L35.1503 63.2122L36.2074 60.7321L37.2093 58.3692L38.1552 56.1229L39.045 53.9927L39.9076 52.0091L40.6591 50.171L41.3264 48.5372Z" fill="#7FA34A"/>
<path fill-rule="evenodd" clip-rule="evenodd" d="M50.2973 53.938C50.4643 53.3836 50.8259 52.8877 51.2432 52.6252C51.6605 52.3626 51.9943 52.4503 52.189 52.7712C53.914 54.8717 56.5291 57.8476 59.4782 61.2027C67.2963 70.0426 77.3677 81.4204 80.2056 87.9555C81.9305 91.8941 82.7095 96.4162 82.7095 101.23C82.7095 108.611 80.8735 116.663 77.5905 124.482C74.3075 132.301 69.6332 139.799 64.0131 146.071C56.0282 154.97 46.4574 160.746 38.4724 161.534C32.8245 162.088 28.1503 160.221 24.8951 156.37C21.6399 152.519 19.748 146.713 19.748 139.332C19.748 134.518 20.555 129.004 22.28 122.994C25.1456 113.017 35.1621 89.4727 42.9801 71.1802C45.9292 64.295 48.5724 58.1099 50.2973 53.938Z" fill="#9BC957"/>
<path fill-rule="evenodd" clip-rule="evenodd" d="M51.3545 52.5627C52.8847 51.95 52.4116 54.8092 52.4116 55.5969C52.4116 66.8583 52.2725 78.2948 52.4116 89.5561C52.4673 92.9112 52.0501 92.5612 54.4706 89.4395C55.6669 87.8933 68.2703 71.2928 68.3816 71.3804L69.6332 72.9558C69.661 72.8975 64.5423 79.5786 62.0383 82.8461C61.0645 84.1298 52.5781 95.0994 52.4668 95.4203C52.3555 95.7996 52.4118 114.267 52.4396 116.28C54.6932 113.45 77.5347 83.4292 77.6738 83.5459C77.7016 83.5459 78.7589 85.2674 78.7589 85.2674C78.7311 85.4424 55.2496 115.842 52.9126 118.993C52.1335 120.073 52.4116 119.898 52.4116 121.327C52.3281 126.812 52.189 133.493 52.4116 138.948C52.4951 141.049 52.2721 140.787 53.9136 138.715C59.3111 132.005 64.7927 124.566 70.0789 117.622C72.8055 114.063 82.765 100.934 82.6816 101.313C82.5703 101.926 82.7653 104.348 82.4871 104.669C79.3432 108.841 52.8845 142.945 52.5228 144.171C52.2724 144.9 52.3278 155.957 52.2443 156.103C52.1052 156.453 50.5477 157.241 50.1582 157.416C50.1304 153.449 50.0743 149.626 49.8517 145.688C45.261 144.579 37.861 144.258 32.9086 143.791C31.6844 143.675 19.8322 142.858 19.8322 142.42C19.8322 141.954 19.6369 139.561 19.7481 139.299C28.4843 140.116 37.3321 141.049 46.0683 141.808C47.4037 141.924 48.5162 141.983 49.8517 141.954C50.2968 137.373 50.047 130.896 50.047 126.112C50.047 124.449 50.0186 122.815 49.9629 121.152C47.4589 120.802 23.6712 118.672 23.7269 118.526C25.3405 114.588 23.532 115.346 28.8739 115.813C35.8294 116.455 43.091 117.33 49.9909 117.739C50.1857 112.108 50.1298 105.835 50.0741 100.176C50.0185 96.1204 50.6589 96.937 46.7917 96.4994C42.201 96.0035 37.4991 95.6828 32.8806 95.216C32.9362 94.8076 34.0771 92.0943 34.2162 92.0651C35.1343 91.9484 47.3205 93.3779 49.9357 93.4362C50.3252 87.222 50.047 79.5491 50.047 73.1891C50.047 70.7092 49.8241 55.1301 50.2414 54.0798C50.4918 53.3796 50.7146 52.9419 51.3545 52.5627Z" fill="#80A648"/>
<path fill-rule="evenodd" clip-rule="evenodd" d="M41.3395 48.5372L41.4235 48.3333L41.5067 48.1579L41.618 47.954L41.7572 47.7786L41.8684 47.6037L42.0077 47.4577L42.1741 47.341L42.3133 47.2538L42.4526 47.1661L42.5918 47.1078L42.7583 47.0784L42.8695 47.1078L43.0087 47.1371L43.12 47.1954L52.0232 52.5633L51.912 52.505L51.8008 52.476H51.6615L51.5503 52.505L51.411 52.5633L51.2446 52.6216L51.0774 52.7382L50.9381 52.8843L50.7717 53.0303L50.6605 53.2052L50.5484 53.3802L50.4372 53.5262L50.354 53.7305L50.2988 53.9344L49.5754 55.5976L48.824 57.4063L47.9893 59.4193L47.0706 61.5201L46.1248 63.7958L45.1237 66.1587L44.0667 68.6387L42.9816 71.206L41.4787 74.6779L39.9767 78.266L38.4187 81.9128L36.8326 85.6183L35.3026 89.3235L33.7446 92.9992L32.2418 96.6461L30.7398 100.235L29.3762 103.706L28.0126 107.061L26.7611 110.27L25.6199 113.276L24.5628 116.106L23.673 118.702L22.8936 121.007L22.2814 123.02L21.6692 125.237L21.1683 127.454L20.7234 129.555L20.5289 130.693L11.5977 125.266L11.7929 124.158L12.2098 122.028L12.7668 119.869L13.351 117.623L13.9631 115.58L14.7417 113.276L15.6596 110.708L16.6895 107.907L17.8578 104.873L19.1102 101.664L20.4177 98.3381L21.8365 94.808L23.3113 91.2488L24.8413 87.602L26.3713 83.8969L27.9294 80.1917L29.4874 76.5156L31.0454 72.8398L32.5754 69.2802L34.0783 65.7794L35.1634 63.2122L36.2205 60.7321L37.2224 58.3692L38.1682 56.1228L39.058 53.9927L39.9207 52.0091L40.6721 50.171L41.3395 48.5372Z" fill="#89B04D"/>
</g>
<defs>
<filter id="filter0_d" x="31.125" y="5.45093" width="79.8755" height="134.037" filterUnits="userSpaceOnUse" color-interpolation-filters="sRGB">
<feFlood flood-opacity="0" result="BackgroundImageFix"/>
<feColorMatrix in="SourceAlpha" type="matrix" values="0 0 0 0 0 0 0 0 0 0 0 0 0 0 0 0 0 0 127 0"/>
<feOffset dx="-2" dy="-4"/>
<feGaussianBlur stdDeviation="2"/>
<feColorMatrix type="matrix" values="0 0 0 0 0 0 0 0 0 0 0 0 0 0 0 0 0 0 0.5 0"/>
<feBlend mode="normal" in2="BackgroundImageFix" result="effect1_dropShadow"/>
<feBlend mode="normal" in="SourceGraphic" in2="effect1_dropShadow" result="shape"/>
</filter>
<filter id="filter1_d" x="0.833984" y="33.0784" width="91.8755" height="146.037" filterUnits="userSpaceOnUse" color-interpolation-filters="sRGB">
<feFlood flood-opacity="0" result="BackgroundImageFix"/>
<feColorMatrix in="SourceAlpha" type="matrix" values="0 0 0 0 0 0 0 0 0 0 0 0 0 0 0 0 0 0 127 0"/>
<feOffset dy="-4"/>
<feGaussianBlur stdDeviation="5"/>
<feColorMatrix type="matrix" values="0 0 0 0 0 0 0 0 0 0 0 0 0 0 0 0 0 0 0.5 0"/>
<feBlend mode="normal" in2="BackgroundImageFix" result="effect1_dropShadow"/>
<feBlend mode="normal" in="SourceGraphic" in2="effect1_dropShadow" result="shape"/>
</filter>
</defs>
</svg>
