<svg width="150" height="150" viewBox="0 0 150 150" fill="none" xmlns="http://www.w3.org/2000/svg">
<path d="M55.7874 15.5143L55.7868 15.5146C49.8017 17.4547 44.1006 20.2797 39.0102 23.9133L39.0062 23.9162C33.763 27.6433 29.1723 32.0955 25.2461 37.1976L25.2457 37.1981C21.4227 42.1632 18.433 47.713 16.2574 53.6234L16.257 53.6244C14.0257 59.6781 12.8086 66.1168 12.5486 72.5999L55.7874 15.5143ZM55.7874 15.5143C61.9583 13.5121 68.4826 12.5139 75.0031 12.5H75.0146C78.2749 12.5 81.54 12.7852 84.8155 13.2805C91.1264 14.2463 97.2785 16.262 103.022 19.1194C108.582 21.8988 113.743 25.5697 118.254 29.8746L118.254 29.8748C122.742 34.1574 126.617 39.1648 129.631 44.591C132.706 50.139 134.969 56.1559 136.222 62.3491C137.522 68.8215 137.86 75.4828 137.098 82.0174L137.098 82.0186C136.333 88.602 134.586 94.922 131.854 100.973C129.28 106.65 125.802 111.918 121.646 116.594L121.643 116.597C117.528 121.242 112.657 125.269 107.343 128.493L107.341 128.494C101.954 131.766 96.0186 134.222 89.8959 135.708L89.8928 135.709C83.5166 137.265 76.8552 137.824 70.3245 137.32C63.8892 136.813 57.5511 135.391 51.6311 132.933L51.621 132.929C45.62 130.469 40.102 127.178 35.1016 123.066C30.3233 119.132 26.1446 114.411 22.7108 109.213L22.7107 109.213C19.2369 103.956 16.575 98.0891 14.8547 92.0144L14.8537 92.0107M55.7874 15.5143L14.8537 92.0107M14.8537 92.0107C13.0679 85.7406 12.2894 79.1227 12.5486 72.6008L14.8537 92.0107ZM98.1698 79.6543L98.1721 79.6495C100.103 75.6591 99.4541 70.9823 96.2623 67.7449C95.9797 67.4525 95.673 67.1494 95.3952 66.8749C95.2674 66.7485 95.1457 66.6282 95.0352 66.5178L88.4991 59.9825L81.9629 53.4471C80.7636 52.248 79.5629 51.0395 78.3592 49.8282C75.9436 47.3971 73.5166 44.9546 71.0676 42.5532L70.9842 42.4698L70.8919 42.3775C68.4298 39.9157 63.8824 39.5971 61.2628 42.4567C58.9135 45.0199 58.5863 49.1788 61.3385 51.9306L70.1527 60.7437L77.0508 67.6409L83.9489 74.5381L84.4092 74.9984L81.5218 77.8854L78.527 80.8799L64.5747 94.8304L64.3724 95.0326L64.2713 95.1337L64.1702 95.2348L63.9679 95.4371L63.7656 95.6393L63.6645 95.7404L63.5634 95.8415L63.3611 96.0438L63.1589 96.246L63.0577 96.3471L62.9566 96.4482L62.8555 96.5494L62.8302 96.5746L62.8049 96.5999L62.7544 96.6505L62.5521 96.8527L62.451 96.9538L62.3498 97.0549L62.1476 97.2572L62.097 97.3077L62.0464 97.3583L62.0338 97.3709L62.0212 97.3836L61.9959 97.4089L61.9706 97.4341L61.9453 97.4594L61.7431 97.6616L61.6925 97.7122L61.6672 97.7375L61.6419 97.7628L61.6402 97.7645C61.6412 97.7635 61.6391 97.7655 61.6293 97.7754L61.623 97.7817L61.6166 97.788L61.5914 97.8133L61.5661 97.8386L61.5408 97.8639L61.3385 98.0661C58.8713 100.533 58.5653 105.059 61.4093 107.687C63.9653 110.05 68.1432 110.368 70.8919 107.619L75.519 102.993L80.1461 98.3661L94.0416 84.4724C94.28 84.2341 94.5351 83.9918 94.8241 83.7173C94.8749 83.669 94.9268 83.6197 94.9799 83.5693C95.3219 83.2441 95.7006 82.881 96.0712 82.4976C96.7953 81.7483 97.6142 80.7962 98.1698 79.6543Z" fill="white" fill-opacity="0.5" stroke="#3BB30B" stroke-width="5"/>
</svg>
