<svg width="191" height="287" viewBox="0 0 191 287" fill="none" xmlns="http://www.w3.org/2000/svg">
<path fill-rule="evenodd" clip-rule="evenodd" d="M163.003 179.217C200.332 203.622 200.332 243.269 163.003 267.72C125.715 292.17 65.2854 292.17 27.9966 267.72C-9.3322 243.269 -9.3322 203.622 27.9966 179.217C65.2854 154.766 125.755 154.766 163.003 179.217Z" fill="#F5F5F5"/>
<path fill-rule="evenodd" clip-rule="evenodd" d="M151.319 188.947C182.169 207.993 182.169 238.965 151.319 258.054C120.468 277.101 70.4911 277.101 39.6808 258.054C8.83037 238.965 8.83037 207.993 39.6808 188.947C70.4911 169.814 120.468 169.814 151.319 188.947Z" fill="#E9E9EB"/>
<path fill-rule="evenodd" clip-rule="evenodd" d="M139.656 198.433C164 214.164 164 239.665 139.656 255.397C115.272 271.128 75.7286 271.128 51.3447 255.397C27.001 239.621 27.001 214.119 51.3447 198.433C75.7286 182.657 115.232 182.657 139.656 198.433Z" fill="#DDDEE1"/>
<path fill-rule="evenodd" clip-rule="evenodd" d="M128.975 202.491C147.507 214.533 147.507 234.072 128.975 246.16C110.526 258.202 80.4843 258.202 61.9938 246.16C43.5034 234.072 43.5034 214.533 61.9938 202.491C80.4843 190.449 110.485 190.449 128.975 202.491Z" fill="#D1D2D6"/>
<path fill-rule="evenodd" clip-rule="evenodd" d="M74.7718 98.1157C86.2165 90.7582 104.757 90.7582 116.243 98.1157C127.688 105.519 127.688 117.447 116.243 124.804C104.839 132.162 86.2575 132.162 74.7718 124.804C63.286 117.447 63.3271 105.519 74.7718 98.1157Z" fill="#F0B11D"/>
<path fill-rule="evenodd" clip-rule="evenodd" d="M120.314 123.464V176.797C120.314 203.832 70.6846 204.093 70.6846 177.014V123.464L70.8414 124.244L71.0378 125.024L71.312 125.802L71.6257 126.539L72.0184 127.319L72.4494 128.013L72.9595 128.75L73.509 129.486L74.0981 130.179L74.8033 130.872L75.5097 131.522L76.2952 132.172L77.1189 132.822L77.9822 133.429L78.8838 133.992L79.8261 134.512L80.8067 135.031L81.8268 135.507L82.8469 135.941L83.9065 136.331L85.0044 136.678L86.1036 136.982L87.241 137.284L88.3785 137.501L89.5159 137.718L90.6546 137.891L91.8315 138.021L93.048 138.108L94.225 138.151L95.4019 138.194L96.5789 138.151L97.7558 138.108L98.9328 138.021L100.11 137.891L101.287 137.718L102.424 137.501L103.562 137.284L104.661 136.982L105.759 136.678L106.858 136.331L107.917 135.941L108.976 135.507L109.958 135.031L110.938 134.512L111.879 133.992L112.782 133.429L113.645 132.822L114.469 132.172L115.253 131.522L115.999 130.872L116.666 130.179L117.294 129.486L117.843 128.75L118.314 128.013L118.784 127.319L119.137 126.539L119.451 125.802L119.727 125.024L119.923 124.244L120.314 123.464Z" fill="#F0B11D"/>
<path fill-rule="evenodd" clip-rule="evenodd" d="M87.2275 135.467C87.5009 135.513 87.7755 135.559 88.1036 135.606C88.5958 135.699 89.0329 135.745 89.4703 135.838C90.0171 135.885 90.5097 135.978 90.9471 136.024C91.4393 136.117 91.9314 136.164 92.3689 136.21C92.6423 136.21 92.9699 136.257 93.2433 136.257C93.2433 151.737 93.2433 174.516 93.2433 190.042C93.2433 192.971 87.2275 192.645 87.2275 189.438C87.2275 173.725 87.2275 151.226 87.2275 135.467Z" fill="#CC8108"/>
<path fill-rule="evenodd" clip-rule="evenodd" d="M87.2275 135.467L88.6326 135.653C89.3008 135.7 89.9007 135.793 90.4353 135.84C91.0367 135.933 91.6381 135.98 92.1727 136.026C92.5068 136.026 92.9092 136.073 93.2433 136.073C93.2433 151.608 93.2433 174.467 93.2433 190.048C93.2433 191.215 92.0404 191.868 90.6372 192.054C88.9666 191.868 87.2275 190.981 87.2275 189.442V135.467Z" fill="#F5A729"/>
<path fill-rule="evenodd" clip-rule="evenodd" d="M97.7559 136.39L98.6783 136.297L100.134 136.113L101.54 135.882L102.947 135.653L103.772 135.467V189.494C103.772 192.908 97.7559 192.908 97.7559 189.494V136.39Z" fill="#CC8108"/>
<path fill-rule="evenodd" clip-rule="evenodd" d="M109.788 132.169C110.067 132.034 110.344 131.899 110.623 131.763C111.013 131.583 111.404 131.448 111.738 131.268C112.128 131.088 112.462 130.953 112.851 130.773C113.186 130.638 113.52 130.458 113.854 130.323C113.966 134.239 114.188 138.2 114.3 142.161C114.3 153.864 114.3 172.004 114.3 183.707C114.3 185.778 109.899 185.687 109.899 183.437C109.787 168.538 109.788 147.113 109.788 132.169Z" fill="#CC8108"/>
<path fill-rule="evenodd" clip-rule="evenodd" d="M109.788 131.599C110.177 131.463 110.565 131.326 110.954 131.189C111.499 131.007 112.045 130.869 112.512 130.687L113.678 130.323L114.3 141.716C114.3 153.566 114.3 171.933 114.3 183.782C114.3 184.602 113.367 185.058 112.355 185.195C111.032 185.013 109.942 184.42 109.942 183.508C109.787 168.423 109.788 146.73 109.788 131.599Z" fill="#F5A729"/>
<path fill-rule="evenodd" clip-rule="evenodd" d="M97.8114 136.253L98.8607 136.16L100.516 135.975L102.116 135.743L103.716 135.513L103.772 135.467V189.51C103.772 191.037 102.392 191.915 100.737 192.054C99.1916 191.915 97.7559 191.083 97.7559 189.51V136.253H97.8114Z" fill="#F5A729"/>
<path fill-rule="evenodd" clip-rule="evenodd" d="M124.826 109.745V122.339L124.66 123.41L124.414 124.429L124.126 125.5L123.795 126.519L123.342 127.536L122.806 128.555L122.229 129.52L121.611 130.537L120.869 131.448L120.127 132.412L119.262 133.269L118.355 134.18L117.366 135.091L116.335 135.842L115.263 136.646L114.109 137.343L112.914 138.04L111.76 138.682L110.482 139.271L109.204 139.807L107.927 140.29L106.607 140.718L105.248 141.093L103.887 141.415L102.527 141.737L101.167 141.897L99.7657 142.058L98.323 142.22L96.9217 142.326H95.5204H94.1179L92.6763 142.22L91.2738 142.058L89.8725 141.897L88.5128 141.737L87.1115 141.469L85.792 141.093L84.3907 140.718L83.0724 140.29L81.7944 139.807L80.5579 139.271L79.2799 138.682L78.085 138.04L76.9302 137.343L75.7352 136.646L74.6635 135.842L73.6333 135.091L72.6434 134.18L71.7364 133.269L70.871 132.412L70.1289 131.448L69.4282 130.537L68.8106 129.52L68.1917 128.555L67.6974 127.536L67.2446 126.519L66.915 125.5L66.5842 124.429L66.3376 123.41L66.1729 122.339V109.745L66.3376 110.764L66.5842 111.835L66.915 112.854L67.2446 113.871L67.6974 114.944L68.1917 115.907L68.8106 116.926L69.4282 117.891L70.1289 118.856L70.871 119.767L71.7364 120.677L72.6434 121.588L73.6333 122.391L74.6635 123.25L75.7352 123.999L76.9302 124.749L78.085 125.446L79.2799 126.089L80.5579 126.625L81.7944 127.214L83.0724 127.696L84.3907 128.126L85.792 128.447L87.1115 128.769L88.5128 129.09L89.8725 129.304L91.2738 129.52L92.6763 129.626L94.1179 129.68L95.5204 129.734L96.9217 129.68L98.323 129.626L99.7657 129.52L101.167 129.304L102.527 129.09L103.887 128.769L105.248 128.447L106.607 128.126L107.927 127.696L109.204 127.214L110.482 126.625L111.76 126.089L112.914 125.446L114.109 124.749L115.263 123.999L116.335 123.25L117.366 122.391L118.355 121.588L119.262 120.677L120.127 119.767L120.869 118.856L121.611 117.891L122.229 116.926L122.806 115.907L123.342 114.944L123.795 113.871L124.126 112.854L124.414 111.835L124.66 110.764L124.826 109.745Z" fill="#CC8108"/>
<path fill-rule="evenodd" clip-rule="evenodd" d="M114.299 191.458C111.485 194.203 107.792 196.159 103.771 197.199V140.376L104.101 140.293L105.125 140.001L106.184 139.711L107.171 139.378L108.159 139.003L109.145 138.587L110.058 138.13L110.973 137.63L111.85 137.131L112.691 136.59L113.495 136.007L114.189 135.467V191.458H114.299Z" fill="#FFCF3B"/>
<path fill-rule="evenodd" clip-rule="evenodd" d="M109.788 132.169C110.067 132.034 110.344 131.899 110.623 131.763C111.013 131.583 111.402 131.448 111.792 131.268C112.127 131.088 112.462 130.953 112.851 130.773C113.186 130.638 113.52 130.458 113.854 130.323C113.966 134.239 114.188 138.2 114.3 142.161C114.3 153.864 114.3 172.004 114.3 183.707C114.3 185.778 109.899 185.687 109.899 183.437C109.787 168.538 109.788 147.113 109.788 132.169Z" fill="#EA9F26"/>
<path fill-rule="evenodd" clip-rule="evenodd" d="M109.788 131.599C110.177 131.463 110.565 131.326 110.954 131.189C111.499 131.007 112.043 130.869 112.588 130.687L113.678 130.323L114.3 141.716C114.3 153.566 114.3 171.933 114.3 183.782C114.3 184.602 113.367 185.058 112.355 185.195C111.032 185.013 109.942 184.42 109.942 183.508C109.787 168.423 109.788 146.73 109.788 131.599Z" fill="#FFC547"/>
<path fill-rule="evenodd" clip-rule="evenodd" d="M114.299 136.896L114.006 137.182L112.983 137.925L111.923 138.668L110.899 139.354L109.766 139.982L108.633 140.554L107.5 141.068L106.33 141.525L105.125 141.925L103.918 142.268L103.771 142.326V128.838L103.918 128.78L105.125 128.436L106.33 128.095L107.5 127.636L108.633 127.121L109.766 126.493L110.899 125.921L111.923 125.236L112.983 124.493L114.006 123.692L114.299 123.464V136.896Z" fill="#EA9F26"/>
<path fill-rule="evenodd" clip-rule="evenodd" d="M87.2287 197.199C83.2084 196.244 79.4609 194.294 76.7012 191.348V135.467L77.3479 136.006L78.0976 136.587L78.8815 137.126L79.6988 137.624L80.5514 138.122L81.4373 138.579L82.3232 138.993L83.2423 139.366L84.1968 139.698L85.1503 139.989L86.1391 140.279L87.0925 140.487V197.199H87.2287Z" fill="#DA9B07"/>
<path fill-rule="evenodd" clip-rule="evenodd" d="M87.2287 142.326L86.5455 142.158L85.4512 141.762L84.2891 141.369L83.1959 140.919L82.136 140.412L81.1106 139.848L80.0508 139.229L79.0598 138.554L78.1021 137.822L77.1111 137.09L76.7012 136.695V123.464L77.1111 123.8L78.1021 124.589L79.0598 125.321L80.0508 125.996L81.1106 126.56L82.136 127.179L83.1959 127.686L84.2891 128.137L85.4512 128.474L86.5455 128.813L87.2287 129.038V142.326Z" fill="#B66B00"/>
<path fill-rule="evenodd" clip-rule="evenodd" d="M93.2433 116.604L87.2275 113.737L87.2826 48.0137L93.2433 50.8808V116.604Z" fill="#9C9C9C"/>
<path fill-rule="evenodd" clip-rule="evenodd" d="M88.5393 48.0136L81.2129 44.9311L85.7847 5.14441L93.2444 8.22836L88.5393 48.0136Z" fill="#9C9C9C"/>
<path fill-rule="evenodd" clip-rule="evenodd" d="M91.4683 10.2885L87.2275 7.68451L99.5301 0L103.771 2.60269L91.4683 10.2885Z" fill="#BFC7C9"/>
<path fill-rule="evenodd" clip-rule="evenodd" d="M91.5171 116.604V48.8321L87.2275 46.152L89.7507 8.59313L101.356 0L103.771 33.9552L99.4813 42.9177V68.8818V110.738L91.5171 116.604Z" fill="#E6EAEB"/>
</svg>
