<svg width="180" height="272" viewBox="0 0 180 272" fill="none" xmlns="http://www.w3.org/2000/svg">
<path fill-rule="evenodd" clip-rule="evenodd" d="M153.623 183.271C188.792 203.524 188.792 236.458 153.623 256.756C118.455 277.055 61.4826 277.055 26.3595 256.756C-8.76367 236.458 -8.80929 203.524 26.3595 183.271C61.4826 162.973 118.455 162.973 153.623 183.271Z" fill="#E9E9EB"/>
<path fill-rule="evenodd" clip-rule="evenodd" d="M140.14 191.026C167.874 207.036 167.874 232.991 140.14 249.001C112.407 265.012 67.4768 265.012 39.6976 249.001C12.0096 232.945 12.0096 206.991 39.6976 191.026C67.4768 174.969 112.407 174.969 140.14 191.026Z" fill="#DDDEE1"/>
<path fill-rule="evenodd" clip-rule="evenodd" d="M126.742 198.768C147.086 210.491 147.086 229.512 126.742 241.281C106.443 253.004 73.5096 253.004 53.2112 241.281C32.8671 229.512 32.8671 210.491 53.2112 198.768C73.464 186.999 106.443 186.999 126.742 198.768Z" fill="#D1D2D6"/>
<path d="M89.9828 193.619C109.96 193.619 126.155 177.425 126.155 157.447C126.155 137.47 109.96 121.275 89.9828 121.275C70.0054 121.275 53.8105 137.47 53.8105 157.447C53.8105 177.425 70.0054 193.619 89.9828 193.619Z" fill="#B4CCFA"/>
<path fill-rule="evenodd" clip-rule="evenodd" d="M103.84 133.584L103.749 133.995L103.657 134.406L103.475 134.77L103.292 135.136L103.11 135.546L102.836 135.911L102.563 136.322L102.289 136.641L101.924 137.006L101.513 137.371L101.285 137.553L101.149 137.736L100.692 138.055L100.191 138.374L99.6888 138.648L99.1413 138.967L98.5943 139.241L98.0012 139.515L97.4538 139.743L96.8152 139.97L96.1766 140.153L95.5836 140.336L94.8994 140.472L94.2608 140.609L93.6222 140.746L92.938 140.838L92.2539 140.929L91.5693 141.02L90.8851 141.065L90.2009 141.111H89.5168H88.8326L88.1028 141.065L87.4186 141.02L86.78 140.929L86.0958 140.838L85.4116 140.746L84.7274 140.609L84.0888 140.472L83.4502 140.336L82.8116 140.153L82.173 139.97L81.58 139.743L80.987 139.515L80.4396 139.241L79.8466 138.967L79.2992 138.648L78.7973 138.374L78.3414 138.055L77.8852 137.736L77.4745 137.371L77.1098 137.006L76.7448 136.641L76.4256 136.322L76.1518 135.911L75.9238 135.546L75.6955 135.136L75.5132 134.77L75.3764 134.406L75.2396 133.995L75.1484 133.584V8.41895L75.2396 8.8289L75.3764 9.23955L75.5132 9.60497L75.6955 9.96968L75.9238 10.3803L76.1518 10.7903L76.4256 11.1557L76.7448 11.4745L77.1098 11.8399L77.4745 12.2046L77.8852 12.5693L78.3414 12.8888L78.7973 13.1623L79.2992 13.4818L79.8466 13.8013L80.4396 14.0748L80.987 14.3484L81.58 14.5766L82.173 14.8049L82.8116 14.9873L83.4502 15.1237L84.0888 15.3068L84.7274 15.4432L85.4116 15.5803L86.0958 15.6715L86.78 15.7627L87.4186 15.8538L88.1028 15.8991L88.8326 15.945H89.5168H90.2009L90.8851 15.8991L91.5693 15.8538L92.2539 15.7627L92.938 15.6715L93.6222 15.5803L94.2608 15.4432L94.8994 15.3068L95.5836 15.1237L96.1766 14.9873L96.8152 14.8049L97.4538 14.5766L98.0012 14.3484L98.5943 14.0748L99.1413 13.8013L99.6888 13.4818L100.191 13.1623L100.692 12.8888L101.149 12.5693L101.513 12.2046L101.924 11.8399L102.289 11.4745L102.563 11.1557L102.836 10.7903L103.11 10.3803L103.292 9.96968L103.475 9.60497L103.657 9.23955L103.749 8.8289L103.84 8.41895V133.584Z" fill="#D0DEFA"/>
<path d="M94.0507 186.587C111.207 186.587 125.114 172.679 125.114 155.523C125.114 138.368 111.207 124.46 94.0507 124.46C76.8949 124.46 62.9873 138.368 62.9873 155.523C62.9873 172.679 76.8949 186.587 94.0507 186.587Z" fill="#D0DEFA"/>
<path fill-rule="evenodd" clip-rule="evenodd" d="M115.511 140.573C109.445 132.545 100.094 135.145 100.094 144.907C100.094 150.654 104.792 155.353 110.539 155.353C120.027 155.353 119.753 146.138 115.511 140.573Z" fill="#E6EAEB"/>
<path d="M89.9708 185.487C105.464 185.487 118.024 172.928 118.024 157.435C118.024 141.942 105.464 129.382 89.9708 129.382C74.4776 129.382 61.918 141.942 61.918 157.435C61.918 172.928 74.4776 185.487 89.9708 185.487Z" fill="#C23E2D"/>
<path d="M93.1293 180.023C106.431 180.023 117.214 169.24 117.214 155.939C117.214 142.637 106.431 131.854 93.1293 131.854C79.8279 131.854 69.0449 142.637 69.0449 155.939C69.0449 169.24 79.8279 180.023 93.1293 180.023Z" fill="#F25E4B"/>
<path fill-rule="evenodd" clip-rule="evenodd" d="M109.772 144.364C105.028 138.16 97.8213 140.121 97.8213 147.693C97.8213 152.209 101.471 155.812 105.941 155.812C113.285 155.812 113.102 148.697 109.772 144.364Z" fill="#F08173"/>
<path fill-rule="evenodd" clip-rule="evenodd" d="M98.9316 138.648L98.886 138.921L98.8405 139.195L98.7037 139.469L98.6125 139.742L98.4754 139.97L98.293 140.244L98.1107 140.427L97.928 140.7L97.7 140.928L97.4265 141.156L97.2894 141.293L97.1526 141.384L96.8791 141.613L96.5596 141.84L96.2405 142.068L95.8754 142.251L95.5107 142.388L95.1456 142.524L94.735 142.707L94.3247 142.844L93.914 142.981L93.5034 143.117L93.0931 143.209L92.6824 143.346L92.2262 143.392L91.7703 143.483L91.314 143.528L90.9034 143.574L90.4475 143.619H89.9912H89.535H89.0791H88.6229L88.1666 143.574L87.7104 143.528L87.2545 143.483L86.7982 143.392L86.3876 143.346L85.9773 143.209L85.521 143.117L85.1104 142.981L84.7001 142.844L84.335 142.707L83.9244 142.524L83.5141 142.388L83.1946 142.251L82.8299 142.068L82.4648 141.84L82.1457 141.613L81.8718 141.384L81.5983 141.156L81.37 140.928L81.142 140.7L80.9141 140.427L80.7314 140.244L80.549 139.97L80.4578 139.742L80.3211 139.469L80.2299 139.195L80.1384 138.921L80.0928 138.648V46.4609L80.1384 46.7345L80.2299 46.9628L80.3211 47.2363L80.4578 47.4639L80.549 47.7381L80.7314 47.9657L80.9141 48.24L81.142 48.4676L81.37 48.7411L81.5983 48.9694L81.8718 49.1977L82.1457 49.3801L82.4648 49.5624L82.8299 49.7907L83.1946 49.9731L83.5141 50.1554L83.9244 50.3378L84.335 50.5201L84.7001 50.6572L85.1104 50.7944L85.521 50.9308L85.9773 51.022L86.3876 51.0679L86.7982 51.1591L87.2545 51.2043L87.7104 51.2955L88.1666 51.3414H88.6229L89.0791 51.3867H89.535H89.9912L90.4475 51.3414H90.9034L91.314 51.2955L91.7703 51.2043L92.2262 51.1591L92.6824 51.0679L93.0931 51.022L93.5034 50.9308L93.914 50.7944L94.3247 50.6572L94.735 50.5201L95.1456 50.3378L95.5107 50.1554L95.8754 49.9731L96.2405 49.7907L96.5596 49.5624L96.8791 49.3801L97.1526 49.1977L97.4265 48.9694L97.7 48.7411L97.928 48.4676L98.1107 48.24L98.293 47.9657L98.4754 47.7381L98.6125 47.4639L98.7037 47.2363L98.8405 46.9628L98.886 46.7345L98.9316 46.4609V138.648Z" fill="#F25E4B"/>
<path fill-rule="evenodd" clip-rule="evenodd" d="M79.3832 2.39476C84.9938 -0.798253 94.0255 -0.798253 99.6361 2.39476C105.247 5.63338 105.247 10.9248 99.6361 14.1178C94.0255 17.3109 84.9482 17.3109 79.3832 14.1178C73.8183 10.9248 73.7727 5.63338 79.3832 2.39476Z" fill="#B4CCFA"/>
<path fill-rule="evenodd" clip-rule="evenodd" d="M82.8639 42.4887C86.5586 40.3905 92.4885 40.3905 96.1833 42.4887C99.878 44.6326 99.878 48.054 96.1833 50.1979C92.4885 52.3417 86.5586 52.3417 82.8639 50.1979C79.1691 48.054 79.1691 44.6326 82.8639 42.4887Z" fill="#C23E2D"/>
<path fill-rule="evenodd" clip-rule="evenodd" d="M64.701 145.173C62.8764 148.868 61.873 153.065 61.873 157.443C61.873 170.672 70.9957 181.71 83.266 184.721C71.4062 180.342 62.922 168.938 62.922 155.527C62.9676 151.878 63.5606 148.412 64.701 145.173Z" fill="#91372B"/>
<path fill-rule="evenodd" clip-rule="evenodd" d="M109.764 144.361C106.89 140.575 103.059 139.845 100.504 141.533C100.231 142.49 100.094 143.631 100.094 144.862C100.094 150.108 103.971 154.487 109.034 155.216C113.094 153.483 112.501 148.01 109.764 144.361Z" fill="#F5A196"/>
<path fill-rule="evenodd" clip-rule="evenodd" d="M96.951 120.266C94.7615 120.995 92.2984 121.314 89.8808 121.314C86.0948 121.314 82.3087 120.448 79.3894 118.76C78.0665 117.985 77.0174 117.072 76.242 116.115C75.4209 115.111 75.2843 114.017 75.1475 112.922C78.5229 118.532 83.9053 119.855 89.8808 119.855C92.344 119.855 94.7615 119.444 96.951 118.76V120.266Z" fill="#333333"/>
<path fill-rule="evenodd" clip-rule="evenodd" d="M96.951 78.393C94.7615 79.1229 92.2984 79.4419 89.8808 79.4419C86.0948 79.4419 82.3087 78.5753 79.3894 76.8875C78.0665 76.1121 77.0174 75.1999 76.242 74.242C75.4209 73.2384 75.2843 72.1441 75.1475 71.0493C78.5229 76.6599 83.9053 77.9824 89.8808 77.9824C92.344 77.9824 94.7615 77.6174 96.951 76.8875V78.393Z" fill="#333333"/>
<path fill-rule="evenodd" clip-rule="evenodd" d="M96.951 36.6543C94.7615 37.3385 92.2984 37.6579 89.8808 37.6579C86.0948 37.6579 82.3087 36.8372 79.3894 35.1495C78.0665 34.3284 77.0174 33.4618 76.242 32.5039C75.4209 31.5004 75.2843 30.4053 75.1475 29.3105C78.5229 34.9211 83.9053 36.1984 89.8808 36.1984C92.344 36.1984 94.7615 35.8337 96.951 35.1495V36.6543Z" fill="#333333"/>
</svg>
