<svg width="262" height="230" viewBox="0 0 262 230" fill="none" xmlns="http://www.w3.org/2000/svg">
<path fill-rule="evenodd" clip-rule="evenodd" d="M261.703 133.069L151.898 69.6895L0 157.295L109.805 220.675L261.703 133.069Z" fill="#2C3E50"/>
<path fill-rule="evenodd" clip-rule="evenodd" d="M109.805 220.674L0 157.295V166.595L109.805 230V220.674Z" fill="#2C3E50"/>
<path fill-rule="evenodd" clip-rule="evenodd" d="M109.805 230L261.703 142.369V133.068L109.805 220.674V230Z" fill="#3D566E"/>
<path fill-rule="evenodd" clip-rule="evenodd" d="M109.492 201.973L37.3691 160.312L37.4198 69.0059L109.567 110.667L109.492 201.973Z" fill="#9C9C9C"/>
<path fill-rule="evenodd" clip-rule="evenodd" d="M109.533 201.973L109.584 110.667L229.272 41.6621L229.222 132.943L109.533 201.973Z" fill="#E6EAEB"/>
<path fill-rule="evenodd" clip-rule="evenodd" d="M157.222 2.81445L224.402 41.6124L218.295 45.1349L157.222 9.85942V2.81445Z" fill="#9C9C9C"/>
<path fill-rule="evenodd" clip-rule="evenodd" d="M48.4017 72.6052L42.2944 69.0827L157.219 2.81445V9.85942L48.4017 72.6052Z" fill="#E6EAEB"/>
<path fill-rule="evenodd" clip-rule="evenodd" d="M109.48 107.879L48.4062 72.6032L157.223 9.85742L218.297 45.1329L109.48 107.879Z" fill="#676F70"/>
<path fill-rule="evenodd" clip-rule="evenodd" d="M109.565 110.667L37.4175 69.0052L157.131 0L229.279 41.6615L109.565 110.667ZM109.464 107.879L224.388 41.6109L157.207 2.81292L42.2831 69.0812L109.464 107.879Z" fill="#C5CCD1"/>
<path fill-rule="evenodd" clip-rule="evenodd" d="M158.278 39.2533L145.912 32.1071V22.8574L158.278 30.0037V39.2533Z" fill="#9C9C9C"/>
<path fill-rule="evenodd" clip-rule="evenodd" d="M158.278 30.0039L145.912 22.8577L157.746 15.8887L170.265 23.1109L158.278 30.0039Z" fill="#C5CCD1"/>
<path fill-rule="evenodd" clip-rule="evenodd" d="M158.286 30.0024L170.273 23.1094V32.3339L158.286 39.252V30.0024Z" fill="#E6EAEB"/>
<path fill-rule="evenodd" clip-rule="evenodd" d="M134.372 53.0386L122.006 45.8923V36.668L134.372 43.8142V53.0386Z" fill="#9C9C9C"/>
<path fill-rule="evenodd" clip-rule="evenodd" d="M134.372 43.8164L122.006 36.6702L133.815 29.7012L146.334 36.8983L134.372 43.8164Z" fill="#C5CCD1"/>
<path fill-rule="evenodd" clip-rule="evenodd" d="M134.356 43.8146L146.317 36.8965V46.1461L134.356 53.0389V43.8146Z" fill="#E6EAEB"/>
<path fill-rule="evenodd" clip-rule="evenodd" d="M130.667 189.783L161.305 172.095L161.331 114.012L130.667 131.725V189.783Z" fill="#999999"/>
<path fill-rule="evenodd" clip-rule="evenodd" d="M133.465 188.137L158.477 173.717V119.537L133.49 133.931L133.465 188.137Z" fill="#666565"/>
<path fill-rule="evenodd" clip-rule="evenodd" d="M133.465 184.437L155.259 171.867L155.284 121.361L133.49 133.931L133.465 184.437Z" fill="#FAC13C"/>
<path fill-rule="evenodd" clip-rule="evenodd" d="M178.709 145.865L178.634 145.915H178.557H178.507L178.431 145.89L180.458 147.056L180.509 147.081H180.585L180.661 147.056L180.737 147.03L217.508 125.794L217.584 125.743L217.66 125.668L217.736 125.592L217.786 125.515L217.837 125.414L217.862 125.338L217.888 125.237V125.135V90.5187V90.4174L217.862 90.3665L217.837 90.2905L217.786 90.2652L215.759 89.0742L215.81 89.1249L215.86 89.1755V89.2515L215.886 89.353V123.97L215.86 124.046V124.172L215.81 124.248L215.759 124.324L215.708 124.426L215.658 124.502L215.582 124.578L215.506 124.628L178.709 145.865Z" fill="#D19917"/>
<path fill-rule="evenodd" clip-rule="evenodd" d="M191.68 100.582L179.085 107.855L178.908 107.956L178.781 108.057L178.629 108.184L178.477 108.336L178.35 108.488L178.223 108.64L178.122 108.818L177.995 108.995L177.894 109.172L177.818 109.35L177.742 109.552L177.691 109.73L177.641 109.933L177.59 110.11L177.564 110.313V110.49V147.058V147.235L177.59 147.413L177.641 147.565L177.691 147.692L177.742 147.793L177.818 147.894L177.894 147.996L177.995 148.072L180.023 149.212L179.921 149.161L179.845 149.06L179.744 148.959L179.693 148.857L179.642 148.705L179.592 148.579V148.426L179.567 148.249V111.656L179.592 111.478V111.276L179.642 111.098L179.693 110.896L179.744 110.718L179.845 110.541L179.921 110.338L180.023 110.161L180.124 109.983L180.251 109.806L180.378 109.628L180.504 109.502L180.656 109.35L180.783 109.223L180.935 109.122L181.112 109.02L193.707 101.722L196.469 100.151L218.364 87.5052L218.516 87.4292L218.669 87.3785L218.821 87.3279L218.948 87.3026H219.074H219.201L219.328 87.3532L219.429 87.4039L217.402 86.2382L217.3 86.1876L217.199 86.1367H217.072H216.92L216.793 86.1622L216.641 86.2129L216.489 86.2636L216.337 86.3395L194.442 98.985L191.68 100.582Z" fill="#D19917"/>
<path fill-rule="evenodd" clip-rule="evenodd" d="M216.4 89.8353V124.477C216.4 124.731 216.223 125.009 216.02 125.136L180.618 145.587C180.415 145.688 180.238 145.587 180.238 145.359V110.717C180.238 110.489 180.415 110.184 180.618 110.058L216.02 89.6324C216.248 89.5057 216.4 89.5818 216.4 89.8353Z" fill="#2192FC"/>
<path fill-rule="evenodd" clip-rule="evenodd" d="M181.115 109.019C180.685 109.272 180.304 109.678 180.026 110.159C179.747 110.641 179.57 111.173 179.57 111.655V148.248C179.57 148.729 179.747 149.059 180.026 149.236C180.304 149.388 180.685 149.363 181.115 149.135C190.441 143.762 209.042 133.017 218.368 127.62C218.798 127.392 219.179 126.961 219.432 126.479C219.711 125.998 219.888 125.466 219.888 124.959V88.391C219.888 87.8841 219.711 87.5547 219.432 87.4026C219.153 87.2506 218.773 87.2505 218.368 87.5039L196.472 100.149L181.115 109.019ZM217.506 90.2915C217.709 90.1648 217.886 90.2662 217.886 90.5197C217.886 113.251 217.886 98.6796 217.886 125.162C217.886 125.39 217.709 125.694 217.506 125.82C196.827 137.756 208.13 131.218 181.952 146.373C181.749 146.499 181.572 146.398 181.572 146.144V111.503C181.572 111.249 181.749 110.97 181.952 110.844C199.361 100.758 197.765 101.695 217.506 90.2915Z" fill="#FAC13C"/>
<path fill-rule="evenodd" clip-rule="evenodd" d="M126.935 100.784L124.604 99.4411V93.1816L126.935 94.5248V100.784Z" fill="#9C9C9C"/>
<path fill-rule="evenodd" clip-rule="evenodd" d="M126.935 94.5238L124.604 93.1807L127.062 91.6855L129.444 93.0793L126.935 94.5238Z" fill="#C5CCD1"/>
<path fill-rule="evenodd" clip-rule="evenodd" d="M126.931 94.5245L129.44 93.0801V99.3395L126.931 100.784V94.5245Z" fill="#DDDFE0"/>
<path fill-rule="evenodd" clip-rule="evenodd" d="M209.47 52.9637L207.164 51.6206V45.3613L209.47 46.7043V52.9637Z" fill="#9C9C9C"/>
<path fill-rule="evenodd" clip-rule="evenodd" d="M209.465 46.7042L211.974 45.2598V51.5192L209.465 52.9636V46.7042Z" fill="#DDDFE0"/>
<path fill-rule="evenodd" clip-rule="evenodd" d="M123.303 96.7547L118.69 94.0938V66.877L123.303 69.5377V96.7547Z" fill="#9C9C9C"/>
<path fill-rule="evenodd" clip-rule="evenodd" d="M123.303 69.5371L118.69 66.8764L210.072 13.9883L214.811 16.7252L123.303 69.5371Z" fill="#C5CCD1"/>
<path fill-rule="evenodd" clip-rule="evenodd" d="M123.317 69.5365L214.825 16.7246V43.9163L123.317 96.7536V69.5365Z" fill="#E6EAEB"/>
<path fill-rule="evenodd" clip-rule="evenodd" d="M136.017 176.529L135.966 176.554L135.915 176.58L135.89 176.554H135.865L136.954 177.163L136.98 177.188H137.031H137.056L137.106 177.163L151.881 168.623L151.906 168.597L151.957 168.547L152.007 168.521V168.47L152.058 168.42L152.083 168.369V168.318V168.268V151.948V151.897V151.846L152.058 151.821L152.007 151.796L150.943 151.188L150.968 151.213L150.994 151.238V151.264V151.314V167.634V167.685V167.736L150.968 167.786L150.943 167.837L150.918 167.888L150.867 167.938L150.842 167.964L150.791 167.989L136.017 176.529Z" fill="#D19917"/>
<path fill-rule="evenodd" clip-rule="evenodd" d="M151.3 151.593V167.913C151.3 168.04 151.199 168.192 151.097 168.268L137.058 176.377C136.931 176.428 136.855 176.378 136.855 176.251V159.931C136.855 159.804 136.931 159.627 137.058 159.576L151.097 151.467C151.199 151.391 151.3 151.441 151.3 151.593Z" fill="#2192FC"/>
<path fill-rule="evenodd" clip-rule="evenodd" d="M137.27 159.019C137.042 159.146 136.839 159.374 136.687 159.627C136.56 159.881 136.459 160.16 136.459 160.439V177.823C136.459 178.076 136.56 178.279 136.687 178.355C136.839 178.456 137.042 178.431 137.27 178.304C142.287 175.415 147.305 172.501 152.323 169.612C152.551 169.485 152.754 169.257 152.906 169.004C153.058 168.751 153.134 168.472 153.134 168.193V150.809C153.134 150.53 153.058 150.378 152.906 150.277C152.754 150.2 152.551 150.2 152.323 150.327L145.531 154.23L137.27 159.019ZM151.867 151.822C151.968 151.772 152.069 151.822 152.069 151.949C152.069 164.164 152.069 154.027 152.069 168.269C152.069 168.396 151.968 168.548 151.867 168.624C140.742 175.061 151.816 168.649 137.726 176.784C137.625 176.86 137.523 176.784 137.523 176.682V160.337C137.523 160.21 137.599 160.058 137.726 159.982C147.103 154.584 141.249 157.955 151.867 151.822Z" fill="#FAC13C"/>
<path fill-rule="evenodd" clip-rule="evenodd" d="M136.017 152.48L135.966 152.506H135.915H135.89H135.865L136.954 153.114L136.98 153.139H137.031H137.056L137.106 153.114L151.881 144.574L151.906 144.548L151.957 144.498L152.007 144.472V144.422L152.058 144.371L152.083 144.32V144.27V144.219V127.899V127.848V127.823L152.058 127.798L152.007 127.772L150.943 127.139L150.968 127.164L150.994 127.189V127.215V127.265V143.585V143.636V143.687L150.968 143.737L150.943 143.788L150.918 143.839L150.867 143.864L150.842 143.915L150.791 143.94L136.017 152.48Z" fill="#D19917"/>
<path fill-rule="evenodd" clip-rule="evenodd" d="M151.3 127.545V143.865C151.3 143.991 151.199 144.143 151.097 144.219L137.058 152.329C136.931 152.405 136.855 152.354 136.855 152.227V135.908C136.855 135.781 136.931 135.629 137.058 135.553L151.097 127.443C151.199 127.342 151.3 127.418 151.3 127.545Z" fill="#2192FC"/>
<path fill-rule="evenodd" clip-rule="evenodd" d="M137.27 134.971C137.042 135.097 136.839 135.325 136.687 135.579C136.56 135.832 136.459 136.111 136.459 136.39V153.774C136.459 154.028 136.56 154.205 136.687 154.306C136.839 154.382 137.042 154.382 137.27 154.256C142.287 151.341 147.305 148.452 152.323 145.563C152.551 145.437 152.754 145.209 152.906 144.955C153.058 144.677 153.134 144.398 153.134 144.144V126.785C153.134 126.506 153.058 126.329 152.906 126.253C152.754 126.177 152.551 126.177 152.323 126.304L145.531 130.206L137.27 134.971ZM151.867 127.774C151.968 127.698 152.069 127.774 152.069 127.9C152.069 140.115 152.069 130.004 152.069 144.22C152.069 144.347 151.968 144.499 151.867 144.575C140.742 150.987 151.816 144.6 137.726 152.735C137.625 152.786 137.523 152.735 137.523 152.608V136.288C137.523 136.162 137.599 136.01 137.726 135.934C147.103 130.536 141.249 133.906 151.867 127.774Z" fill="#FAC13C"/>
<path fill-rule="evenodd" clip-rule="evenodd" d="M114.31 111.504L224.369 47.9219L258.808 81.7529L148.724 145.31L114.31 111.504Z" fill="#3BB30B"/>
<path fill-rule="evenodd" clip-rule="evenodd" d="M114.311 111.506L148.725 145.312L114.286 123.518L114.311 111.506Z" fill="#2E8D08"/>
<path fill-rule="evenodd" clip-rule="evenodd" d="M124.333 105.727L134.318 99.9492L168.757 133.755L158.747 139.533L124.333 105.727Z" fill="#E6EAEB"/>
<path fill-rule="evenodd" clip-rule="evenodd" d="M144.305 94.1704L154.315 88.3926L188.754 122.198L178.744 127.976L144.305 94.1704Z" fill="#E6EAEB"/>
<path fill-rule="evenodd" clip-rule="evenodd" d="M164.325 82.6137L174.335 76.8105L208.775 110.642L198.765 116.42L164.325 82.6137Z" fill="#E6EAEB"/>
<path fill-rule="evenodd" clip-rule="evenodd" d="M184.346 71.0339L194.356 65.2559L228.77 99.0869L218.76 104.865L184.346 71.0339Z" fill="#E6EAEB"/>
<path fill-rule="evenodd" clip-rule="evenodd" d="M204.368 59.4772L214.353 53.6992L248.792 87.5302L238.782 93.3082L204.368 59.4772Z" fill="#E6EAEB"/>
<path fill-rule="evenodd" clip-rule="evenodd" d="M136.013 79.1424C137.128 78.3822 138.268 77.5965 139.384 76.8363C139.586 77.926 139.992 78.6103 140.626 78.813C141.234 79.0411 142.095 78.8129 143.134 78.2301C144.249 77.5712 145.085 76.8363 145.668 76.0001C146.2 75.1638 146.505 74.4034 146.505 73.7192C146.505 73.2884 146.378 72.9844 146.15 72.807C145.922 72.6297 145.491 72.6042 144.908 72.7309C144.503 72.7815 143.59 73.0605 142.146 73.5166C140.296 74.0741 138.978 74.2261 138.243 73.922C137.179 73.4912 136.672 72.5536 136.672 71.0838C136.672 70.1461 136.926 69.0818 137.407 67.9921C137.914 66.877 138.623 65.838 139.561 64.8497C140.499 63.8867 141.614 63.0252 142.932 62.2396C145.086 61.0232 146.682 60.6176 147.772 61.0231C148.861 61.4286 149.419 62.4676 149.495 64.1655C148.329 64.875 147.163 65.5846 145.998 66.2941C145.846 65.4072 145.517 64.9258 145.06 64.7737C144.554 64.647 143.844 64.8498 142.881 65.382C141.867 65.9648 141.107 66.6235 140.524 67.4345C140.169 67.9413 139.992 68.423 139.992 68.9044C139.992 69.3353 140.169 69.614 140.524 69.7153C140.955 69.8674 142.019 69.6899 143.692 69.1324C145.364 68.6002 146.631 68.3215 147.417 68.3215C148.228 68.3215 148.861 68.5749 149.292 69.1324C149.774 69.6646 150.002 70.5008 150.002 71.6918C150.002 72.7562 149.723 73.9219 149.165 75.1637C148.608 76.4054 147.848 77.5458 146.834 78.5848C145.846 79.6239 144.604 80.5615 143.109 81.4231C140.929 82.6648 139.257 83.0957 138.091 82.6903C136.926 82.2594 136.241 81.0937 136.013 79.1424ZM152.941 75.3918C152.941 69.1831 152.941 62.9997 152.941 56.791C154.107 56.1322 155.273 55.4479 156.413 54.789C156.413 57.2471 156.413 59.68 156.413 62.1128C158.669 60.8203 160.924 59.5026 163.205 58.2102C163.205 55.7774 163.205 53.3445 163.205 50.8864C164.37 50.2275 165.536 49.5434 166.677 48.8845C166.677 55.0679 166.677 61.2764 166.677 67.4598C165.536 68.144 164.37 68.803 163.205 69.4872C163.205 66.801 163.205 64.0894 163.205 61.3525C160.949 62.6703 158.694 63.988 156.413 65.2805C156.413 67.992 156.413 70.7036 156.413 73.3898C155.273 74.0487 154.107 74.7076 152.941 75.3918ZM169.566 56.6137C169.566 54.7131 169.819 52.9645 170.351 51.368C170.756 50.2023 171.263 49.0366 171.948 47.8962C172.632 46.7558 173.367 45.7674 174.178 44.9311C175.242 43.8161 176.484 42.8785 177.878 42.0675C180.412 40.5977 182.439 40.2938 183.959 41.1047C185.505 41.9156 186.241 43.8668 186.241 46.8825C186.241 49.8982 185.48 52.6858 183.985 55.2706C182.49 57.8555 180.463 59.8574 177.928 61.3019C175.369 62.797 173.342 63.1012 171.821 62.3156C170.326 61.4793 169.566 59.5787 169.566 56.6137ZM173.139 54.4089C173.139 56.5122 173.595 57.8555 174.507 58.413C175.419 58.9705 176.56 58.8691 177.928 58.0582C179.297 57.2473 180.437 56.0561 181.349 54.4595C182.236 52.863 182.693 50.9877 182.693 48.8337C182.693 46.705 182.262 45.362 181.4 44.8045C180.538 44.2723 179.373 44.399 177.954 45.2352C176.509 46.0715 175.369 47.2625 174.482 48.8337C173.595 50.4049 173.139 52.2802 173.139 54.4089ZM188.977 54.5864C188.977 48.403 188.977 42.1943 188.977 36.0109C190.827 34.9466 192.677 33.8822 194.527 32.8179C196.63 31.6015 198.024 30.8919 198.658 30.7145C199.646 30.4104 200.457 30.5625 201.116 31.12C201.775 31.6521 202.13 32.6912 202.13 34.161C202.13 35.3014 201.952 36.3657 201.572 37.3794C201.192 38.3931 200.711 39.2801 200.102 40.0403C199.519 40.8259 198.911 41.4847 198.303 41.9662C197.467 42.6251 196.276 43.4108 194.705 44.323C193.944 44.7792 193.209 45.2099 192.449 45.6153C192.449 47.9721 192.449 50.3036 192.449 52.6097C191.309 53.2432 190.143 53.9021 188.977 54.5864ZM192.474 37.1259C192.474 38.8998 192.474 40.6484 192.474 42.4223C193.108 42.0675 193.716 41.6874 194.375 41.3326C195.718 40.547 196.656 39.9136 197.112 39.4574C197.568 39.0013 197.923 38.4943 198.176 37.9115C198.43 37.354 198.582 36.7966 198.582 36.2391C198.582 35.5802 198.404 35.124 198.049 34.8706C197.669 34.6425 197.213 34.6172 196.656 34.8453C196.25 34.9973 195.414 35.428 194.147 36.1629C193.589 36.4923 193.032 36.7965 192.474 37.1259Z" fill="#3BB30B"/>
</svg>
