<svg width="525" height="461" viewBox="0 0 525 461" fill="none" xmlns="http://www.w3.org/2000/svg">
<path fill-rule="evenodd" clip-rule="evenodd" d="M524.543 266.716L304.455 139.682L0 315.274L220.088 442.308L524.543 266.716Z" fill="#2C3E50"/>
<path fill-rule="evenodd" clip-rule="evenodd" d="M220.088 442.308L0 315.274V333.915L220.088 461V442.308Z" fill="#2C3E50"/>
<path fill-rule="evenodd" clip-rule="evenodd" d="M220.088 461L524.543 285.357V266.716L220.088 442.308V461Z" fill="#3D566E"/>
<path fill-rule="evenodd" clip-rule="evenodd" d="M219.46 404.823L74.9014 321.318L75.0029 138.31L219.612 221.814L219.46 404.823Z" fill="#9C9C9C"/>
<path fill-rule="evenodd" clip-rule="evenodd" d="M219.542 404.823L219.644 221.815L459.541 83.5044L459.439 266.462L219.542 404.823Z" fill="#E6EAEB"/>
<path fill-rule="evenodd" clip-rule="evenodd" d="M315.127 5.63818L449.78 83.4027L437.539 90.463L315.127 19.7587V5.63818Z" fill="#9C9C9C"/>
<path fill-rule="evenodd" clip-rule="evenodd" d="M97.0135 145.523L84.7725 138.463L315.12 5.63818V19.7587L97.0135 145.523Z" fill="#E6EAEB"/>
<path fill-rule="evenodd" clip-rule="evenodd" d="M219.436 216.227L97.0234 145.523L315.13 19.7588L437.542 90.463L219.436 216.227Z" fill="#676F70"/>
<path fill-rule="evenodd" clip-rule="evenodd" d="M219.607 221.814L74.998 138.31L314.946 0L459.554 83.5041L219.607 221.814ZM219.404 216.227L449.752 83.4026L315.098 5.63806L84.7504 138.463L219.404 216.227Z" fill="#C5CCD1"/>
<path fill-rule="evenodd" clip-rule="evenodd" d="M317.245 78.6785L292.458 64.3549V45.8154L317.245 60.139V78.6785Z" fill="#9C9C9C"/>
<path fill-rule="evenodd" clip-rule="evenodd" d="M317.245 60.14L292.458 45.8164L316.178 31.8481L341.27 46.324L317.245 60.14Z" fill="#C5CCD1"/>
<path fill-rule="evenodd" clip-rule="evenodd" d="M317.26 60.1382L341.285 46.3223V64.8113L317.26 78.6777V60.1382Z" fill="#E6EAEB"/>
<path fill-rule="evenodd" clip-rule="evenodd" d="M269.329 106.31L244.542 91.9863V73.4976L269.329 87.8212V106.31Z" fill="#9C9C9C"/>
<path fill-rule="evenodd" clip-rule="evenodd" d="M269.329 87.8216L244.542 73.498L268.212 59.5298L293.303 73.9553L269.329 87.8216Z" fill="#C5CCD1"/>
<path fill-rule="evenodd" clip-rule="evenodd" d="M269.295 87.8209L293.269 73.9546V92.494L269.295 106.31V87.8209Z" fill="#E6EAEB"/>
<path fill-rule="evenodd" clip-rule="evenodd" d="M261.902 380.391L323.311 344.938L323.363 228.52L261.902 264.024V380.391Z" fill="#999999"/>
<path fill-rule="evenodd" clip-rule="evenodd" d="M267.51 377.089L317.643 348.187V239.591L267.56 268.442L267.51 377.089Z" fill="#666565"/>
<path fill-rule="evenodd" clip-rule="evenodd" d="M267.51 369.674L311.192 344.48L311.242 243.25L267.56 268.443L267.51 369.674Z" fill="#FAC13C"/>
<path fill-rule="evenodd" clip-rule="evenodd" d="M358.196 292.366L358.044 292.468H357.891H357.789L357.637 292.417L361.7 294.754L361.802 294.805H361.954L362.107 294.754L362.259 294.703L435.96 252.138L436.113 252.036L436.265 251.884L436.418 251.732L436.519 251.579L436.621 251.376L436.671 251.224L436.722 251.021V250.817V181.434V181.231L436.671 181.129L436.621 180.976L436.519 180.926L432.456 178.539L432.557 178.64L432.659 178.742V178.894L432.71 179.097V248.481L432.659 248.633V248.887L432.557 249.04L432.456 249.192L432.354 249.395L432.253 249.547L432.1 249.7L431.948 249.802L358.196 292.366Z" fill="#D19917"/>
<path fill-rule="evenodd" clip-rule="evenodd" d="M384.194 201.599L358.949 216.176L358.594 216.379L358.34 216.583L358.035 216.836L357.73 217.141L357.476 217.446L357.222 217.75L357.019 218.106L356.765 218.462L356.562 218.817L356.41 219.173L356.257 219.579L356.156 219.935L356.054 220.341L355.953 220.697L355.901 221.103V221.459V294.754V295.109L355.953 295.465L356.054 295.769L356.156 296.023L356.257 296.226L356.41 296.43L356.562 296.633L356.765 296.785L360.828 299.071L360.625 298.969L360.473 298.766L360.27 298.563L360.168 298.36L360.066 298.055L359.965 297.801V297.496L359.915 297.141V223.795L359.965 223.439V223.033L360.066 222.677L360.168 222.271L360.27 221.916L360.473 221.56L360.625 221.154L360.828 220.798L361.031 220.443L361.286 220.087L361.54 219.732L361.793 219.478L362.099 219.173L362.352 218.919L362.657 218.716L363.012 218.512L388.257 203.884L393.793 200.735L437.679 175.389L437.983 175.237L438.289 175.135L438.593 175.034L438.847 174.983H439.101H439.355L439.609 175.084L439.812 175.186L435.749 172.849L435.546 172.748L435.343 172.646H435.088H434.784L434.53 172.697L434.225 172.799L433.92 172.9L433.615 173.053L389.73 198.398L384.194 201.599Z" fill="#D19917"/>
<path fill-rule="evenodd" clip-rule="evenodd" d="M433.74 180.063V249.497C433.74 250.005 433.385 250.564 432.978 250.818L362.021 291.808C361.614 292.011 361.259 291.808 361.259 291.351V221.916C361.259 221.459 361.614 220.85 362.021 220.596L432.978 179.656C433.435 179.402 433.74 179.555 433.74 180.063Z" fill="#2192FC"/>
<path fill-rule="evenodd" clip-rule="evenodd" d="M363.017 218.513C362.153 219.021 361.391 219.834 360.833 220.799C360.274 221.764 359.919 222.831 359.919 223.796V297.141C359.919 298.106 360.274 298.767 360.833 299.122C361.391 299.427 362.153 299.376 363.017 298.919C381.709 288.151 418.991 266.614 437.683 255.795C438.547 255.338 439.309 254.475 439.817 253.51C440.375 252.545 440.731 251.478 440.731 250.462V177.168C440.731 176.152 440.375 175.491 439.817 175.187C439.258 174.882 438.496 174.882 437.683 175.39L393.798 200.736L363.017 218.513ZM435.956 180.977C436.363 180.723 436.718 180.926 436.718 181.434C436.718 226.996 436.718 197.789 436.718 250.869C436.718 251.326 436.363 251.935 435.956 252.189C394.509 276.113 417.163 263.008 364.693 293.383C364.287 293.637 363.931 293.433 363.931 292.926V223.491C363.931 222.983 364.287 222.424 364.693 222.171C399.588 201.955 396.388 203.834 435.956 180.977Z" fill="#FAC13C"/>
<path fill-rule="evenodd" clip-rule="evenodd" d="M254.422 202.005L249.749 199.313V186.767L254.422 189.459V202.005Z" fill="#9C9C9C"/>
<path fill-rule="evenodd" clip-rule="evenodd" d="M254.422 189.458L249.749 186.766L254.676 183.77L259.45 186.563L254.422 189.458Z" fill="#C5CCD1"/>
<path fill-rule="evenodd" clip-rule="evenodd" d="M254.413 189.459L259.442 186.564V199.11L254.413 202.005V189.459Z" fill="#DDDFE0"/>
<path fill-rule="evenodd" clip-rule="evenodd" d="M419.85 106.159L415.228 103.467V90.9209L419.85 93.6126V106.159Z" fill="#9C9C9C"/>
<path fill-rule="evenodd" clip-rule="evenodd" d="M419.84 93.612L424.868 90.7168V103.263L419.84 106.158V93.612Z" fill="#DDDFE0"/>
<path fill-rule="evenodd" clip-rule="evenodd" d="M247.142 193.929L237.897 188.596V134.044L247.142 139.377V193.929Z" fill="#9C9C9C"/>
<path fill-rule="evenodd" clip-rule="evenodd" d="M247.142 139.377L237.897 134.044L421.058 28.0381L430.557 33.5239L247.142 139.377Z" fill="#C5CCD1"/>
<path fill-rule="evenodd" clip-rule="evenodd" d="M247.17 139.376L430.584 33.5229V88.0245L247.17 193.929V139.376Z" fill="#E6EAEB"/>
<path fill-rule="evenodd" clip-rule="evenodd" d="M272.624 353.826L272.522 353.876L272.421 353.927L272.37 353.876H272.319L274.503 355.095L274.555 355.146H274.656H274.706L274.808 355.095L304.421 337.978L304.471 337.927L304.573 337.826L304.674 337.775V337.673L304.776 337.572L304.827 337.47V337.369V337.267V304.556V304.454V304.353L304.776 304.302L304.674 304.251L302.541 303.032L302.592 303.083L302.643 303.134V303.185V303.286V335.997V336.099V336.2L302.592 336.302L302.541 336.404L302.49 336.505L302.389 336.607L302.338 336.658L302.237 336.708L272.624 353.826Z" fill="#D19917"/>
<path fill-rule="evenodd" clip-rule="evenodd" d="M303.256 303.845V336.557C303.256 336.81 303.054 337.115 302.85 337.268L274.711 353.521C274.457 353.623 274.305 353.522 274.305 353.268V320.556C274.305 320.303 274.457 319.947 274.711 319.845L302.85 303.592C303.054 303.439 303.256 303.541 303.256 303.845Z" fill="#2192FC"/>
<path fill-rule="evenodd" clip-rule="evenodd" d="M275.136 318.728C274.679 318.982 274.273 319.439 273.968 319.947C273.714 320.455 273.511 321.014 273.511 321.572V356.416C273.511 356.924 273.714 357.33 273.968 357.483C274.273 357.686 274.679 357.635 275.136 357.381C285.193 351.591 295.25 345.75 305.307 339.959C305.764 339.705 306.171 339.248 306.476 338.74C306.78 338.232 306.933 337.674 306.933 337.115V302.271C306.933 301.712 306.78 301.407 306.476 301.204C306.171 301.052 305.764 301.052 305.307 301.306L291.695 309.128L275.136 318.728ZM304.393 304.302C304.596 304.201 304.799 304.302 304.799 304.556C304.799 329.039 304.799 308.721 304.799 337.267C304.799 337.521 304.596 337.826 304.393 337.978C282.095 350.88 304.292 338.029 276.051 354.334C275.847 354.486 275.644 354.334 275.644 354.131V321.369C275.644 321.115 275.797 320.81 276.051 320.658C294.844 309.839 283.111 316.594 304.393 304.302Z" fill="#FAC13C"/>
<path fill-rule="evenodd" clip-rule="evenodd" d="M272.624 305.623L272.522 305.674H272.421H272.37H272.319L274.503 306.893L274.555 306.944H274.656H274.706L274.808 306.893L304.421 289.776L304.471 289.725L304.573 289.623L304.674 289.573V289.471L304.776 289.37L304.827 289.268V289.166V289.065V256.354V256.252V256.202L304.776 256.151L304.674 256.1L302.541 254.83L302.592 254.881L302.643 254.932V254.982V255.084V287.795V287.897V287.998L302.592 288.1L302.541 288.201L302.49 288.303L302.389 288.353L302.338 288.455L302.237 288.506L272.624 305.623Z" fill="#D19917"/>
<path fill-rule="evenodd" clip-rule="evenodd" d="M303.256 255.643V288.354C303.256 288.608 303.054 288.913 302.85 289.065L274.711 305.32C274.457 305.472 274.305 305.37 274.305 305.116V272.405C274.305 272.151 274.457 271.847 274.711 271.694L302.85 255.44C303.054 255.237 303.256 255.389 303.256 255.643Z" fill="#2192FC"/>
<path fill-rule="evenodd" clip-rule="evenodd" d="M275.136 270.526C274.679 270.78 274.273 271.237 273.968 271.745C273.714 272.253 273.511 272.811 273.511 273.37V308.214C273.511 308.722 273.714 309.078 273.968 309.281C274.273 309.433 274.679 309.433 275.136 309.179C285.193 303.338 295.25 297.548 305.307 291.757C305.764 291.503 306.171 291.046 306.476 290.538C306.78 289.98 306.933 289.421 306.933 288.913V254.119C306.933 253.561 306.78 253.205 306.476 253.053C306.171 252.9 305.764 252.901 305.307 253.155L291.695 260.977L275.136 270.526ZM304.393 256.1C304.596 255.948 304.799 256.1 304.799 256.354C304.799 280.837 304.799 260.57 304.799 289.065C304.799 289.319 304.596 289.624 304.393 289.777C282.095 302.627 304.292 289.827 276.051 306.132C275.847 306.233 275.644 306.132 275.644 305.878V273.167C275.644 272.913 275.797 272.608 276.051 272.456C294.844 261.637 283.111 268.392 304.393 256.1Z" fill="#FAC13C"/>
<path fill-rule="evenodd" clip-rule="evenodd" d="M229.115 223.491L449.711 96.0503L518.739 163.859L298.093 291.249L229.115 223.491Z" fill="#3BB30B"/>
<path fill-rule="evenodd" clip-rule="evenodd" d="M229.118 223.492L298.095 291.25L229.067 247.568L229.118 223.492Z" fill="#2E8D08"/>
<path fill-rule="evenodd" clip-rule="evenodd" d="M249.206 211.91L269.218 200.329L338.247 268.087L318.183 279.668L249.206 211.91Z" fill="#E6EAEB"/>
<path fill-rule="evenodd" clip-rule="evenodd" d="M289.235 188.748L309.299 177.167L378.327 244.926L358.263 256.506L289.235 188.748Z" fill="#E6EAEB"/>
<path fill-rule="evenodd" clip-rule="evenodd" d="M329.362 165.587L349.426 153.955L418.454 221.764L398.391 233.345L329.362 165.587Z" fill="#E6EAEB"/>
<path fill-rule="evenodd" clip-rule="evenodd" d="M369.492 142.373L389.556 130.792L458.533 198.601L438.47 210.182L369.492 142.373Z" fill="#E6EAEB"/>
<path fill-rule="evenodd" clip-rule="evenodd" d="M409.622 119.212L429.635 107.631L498.663 175.44L478.599 187.021L409.622 119.212Z" fill="#E6EAEB"/>
<path fill-rule="evenodd" clip-rule="evenodd" d="M272.617 158.628C274.852 157.104 277.138 155.529 279.372 154.005C279.779 156.19 280.592 157.561 281.862 157.967C283.081 158.425 284.808 157.967 286.89 156.799C289.125 155.478 290.801 154.006 291.969 152.329C293.036 150.653 293.646 149.129 293.646 147.758C293.646 146.894 293.392 146.285 292.935 145.929C292.478 145.574 291.614 145.523 290.446 145.777C289.633 145.878 287.805 146.437 284.909 147.352C281.201 148.469 278.56 148.774 277.087 148.164C274.954 147.301 273.938 145.421 273.938 142.475C273.938 140.596 274.446 138.463 275.411 136.279C276.427 134.044 277.849 131.961 279.728 129.98C281.608 128.05 283.843 126.323 286.484 124.749C290.802 122.311 294.001 121.498 296.186 122.31C298.37 123.123 299.487 125.206 299.639 128.609C297.303 130.031 294.966 131.453 292.63 132.875C292.325 131.098 291.665 130.133 290.751 129.828C289.735 129.574 288.312 129.98 286.382 131.047C284.35 132.215 282.827 133.536 281.659 135.161C280.948 136.177 280.592 137.142 280.592 138.107C280.592 138.971 280.948 139.529 281.659 139.733C282.522 140.037 284.656 139.682 288.008 138.564C291.36 137.498 293.899 136.939 295.474 136.939C297.099 136.939 298.37 137.447 299.233 138.564C300.198 139.631 300.655 141.307 300.655 143.694C300.655 145.828 300.096 148.164 298.979 150.653C297.861 153.142 296.338 155.428 294.306 157.51C292.325 159.593 289.836 161.472 286.839 163.199C282.471 165.688 279.119 166.552 276.782 165.739C274.446 164.875 273.074 162.539 272.617 158.628ZM306.547 151.11C306.547 138.666 306.547 126.272 306.547 113.828C308.884 112.507 311.221 111.136 313.506 109.815C313.506 114.742 313.506 119.618 313.506 124.494C318.027 121.904 322.547 119.263 327.118 116.672C327.118 111.796 327.118 106.92 327.118 101.993C329.455 100.672 331.792 99.3012 334.077 97.9805C334.077 110.374 334.077 122.818 334.077 135.212C331.792 136.583 329.455 137.904 327.118 139.275C327.118 133.891 327.118 128.456 327.118 122.971C322.598 125.612 318.078 128.253 313.506 130.844C313.506 136.278 313.506 141.713 313.506 147.097C311.221 148.418 308.884 149.739 306.547 151.11ZM339.868 113.473C339.868 109.663 340.375 106.158 341.442 102.958C342.255 100.622 343.271 98.2852 344.642 95.9995C346.014 93.7138 347.486 91.7327 349.112 90.0565C351.245 87.8216 353.735 85.9423 356.528 84.3169C361.608 81.3709 365.67 80.7616 368.718 82.387C371.816 84.0124 373.29 87.9233 373.29 93.9677C373.29 100.012 371.766 105.599 368.769 110.78C365.772 115.961 361.709 119.974 356.63 122.869C351.5 125.866 347.436 126.476 344.389 124.901C341.392 123.225 339.868 119.415 339.868 113.473ZM347.029 109.053C347.029 113.269 347.944 115.961 349.772 117.079C351.601 118.196 353.887 117.993 356.63 116.368C359.373 114.742 361.658 112.355 363.487 109.155C365.264 105.955 366.179 102.196 366.179 97.8786C366.179 93.612 365.315 90.9201 363.588 89.8027C361.861 88.736 359.525 88.9899 356.68 90.6661C353.785 92.3422 351.499 94.7294 349.722 97.8786C347.944 101.028 347.029 104.787 347.029 109.053ZM378.775 109.409C378.775 97.0154 378.775 84.5709 378.775 72.1774C382.483 70.044 386.191 67.9108 389.899 65.7774C394.115 63.3394 396.908 61.9171 398.178 61.5616C400.159 60.9521 401.785 61.2568 403.105 62.3742C404.426 63.4409 405.137 65.5235 405.137 68.4695C405.137 70.7552 404.782 72.8885 404.02 74.9202C403.258 76.952 402.293 78.7299 401.074 80.2537C399.906 81.8283 398.687 83.1488 397.468 84.1138C395.791 85.4345 393.404 87.0092 390.255 88.8377C388.731 89.752 387.258 90.6152 385.734 91.4279C385.734 96.1517 385.734 100.825 385.734 105.447C383.448 106.717 381.112 108.038 378.775 109.409ZM385.785 74.4122C385.785 77.9677 385.785 81.4725 385.785 85.028C387.054 84.3169 388.274 83.555 389.595 82.8439C392.287 81.2693 394.166 79.9996 395.08 79.0853C395.995 78.1711 396.705 77.155 397.213 75.9867C397.721 74.8693 398.026 73.7521 398.026 72.6346C398.026 71.314 397.67 70.3997 396.959 69.8918C396.197 69.4346 395.283 69.3839 394.166 69.841C393.353 70.1458 391.677 71.0089 389.137 72.482C388.02 73.1423 386.902 73.7519 385.785 74.4122Z" fill="#3BB30B"/>
</svg>
