<svg width="180" height="191" viewBox="0 0 180 191" fill="none" xmlns="http://www.w3.org/2000/svg">
<path fill-rule="evenodd" clip-rule="evenodd" d="M153.623 101.613C188.792 121.911 188.792 154.799 153.623 175.098C118.455 195.396 61.4826 195.396 26.3595 175.098C-8.76367 154.799 -8.80929 121.911 26.3595 101.613C61.5282 81.3146 118.455 81.269 153.623 101.613Z" fill="#E9E9EB"/>
<path fill-rule="evenodd" clip-rule="evenodd" d="M140.21 109.326C167.897 125.383 167.897 151.338 140.21 167.303C112.476 183.359 67.4996 183.359 39.766 167.303C12.078 151.292 12.078 125.337 39.766 109.326C67.4996 93.3613 112.43 93.3613 140.21 109.326Z" fill="#DDDEE1"/>
<path fill-rule="evenodd" clip-rule="evenodd" d="M126.788 117.08C147.133 128.803 147.133 147.824 126.788 159.593C106.49 171.361 73.5565 171.361 53.258 159.593C32.914 147.824 32.914 128.803 53.258 117.08C73.5565 105.402 106.444 105.402 126.788 117.08Z" fill="#D1D2D6"/>
<path fill-rule="evenodd" clip-rule="evenodd" d="M97.7118 124.492L96.161 127.439L96.056 127.592L95.9509 127.746L95.8194 127.925L95.6879 128.079L95.5572 128.233L95.3728 128.386L95.1892 128.54L94.9791 128.694L94.769 128.822L94.5581 128.95L94.2959 129.078L94.0593 129.206L93.7963 129.309L93.5077 129.437L93.2711 129.514L92.9817 129.616L92.693 129.693L92.4035 129.77L92.1413 129.795L91.8254 129.847L91.5102 129.897L91.248 129.949L90.9321 129.975H90.617L90.2754 130.001H90.0124H89.6972L89.3821 129.975H89.0934L88.7775 129.949L88.4624 129.897L88.1473 129.847L87.8842 129.795L87.5691 129.77L87.2804 129.693L86.991 129.616L86.728 129.514L86.4658 129.437L86.2028 129.309L85.9141 129.206L85.704 129.078L85.4674 128.95L85.2309 128.822L84.9944 128.694L84.8099 128.54L84.6263 128.386L84.4683 128.233L84.3112 128.079L84.1532 127.925L84.0217 127.746L83.9167 127.592L83.8116 127.439L82.2881 124.492L82.4196 124.698L82.5503 124.903L82.6818 125.107L82.8662 125.338L83.0763 125.517L83.2864 125.697L83.5229 125.876L83.7595 126.081L84.0217 126.235L84.3112 126.414L84.6263 126.593L84.9158 126.721L85.2309 126.849L85.5725 126.977L85.9141 127.106L86.2557 127.234L86.6229 127.311L86.9645 127.413L87.3326 127.49L87.7271 127.567L88.0687 127.618L88.4624 127.644L88.8569 127.694H89.2241L89.6187 127.72H90.0124H90.3804L90.7749 127.694H91.1687L91.5102 127.644L91.9048 127.618L92.2985 127.567L92.6401 127.49L93.0081 127.413L93.3762 127.311L93.7178 127.234L94.0858 127.106L94.4274 126.977L94.7425 126.849L95.0577 126.721L95.3728 126.593L95.6879 126.414L95.9509 126.235L96.2404 126.081L96.4761 125.876L96.7127 125.697L96.9228 125.517L97.1072 125.338L97.2908 125.107L97.4488 124.903L97.5803 124.698L97.7118 124.492Z" fill="#2C3E50"/>
<path fill-rule="evenodd" clip-rule="evenodd" d="M105.425 116.779L102.343 122.639L102.155 122.952L101.913 123.29L101.673 123.629L101.378 123.915L101.083 124.228L100.735 124.541L100.359 124.853L99.984 125.114L99.5554 125.4L99.0999 125.686L98.6173 125.947L98.1078 126.155L97.599 126.389L97.0625 126.598L96.5268 126.806L95.9641 126.989L95.4284 127.119L94.8387 127.249L94.249 127.379L93.6323 127.483L93.0696 127.587L92.4529 127.666L91.837 127.718L91.2473 127.77L90.6037 127.796H90.014H89.3711L88.7814 127.77L88.1385 127.718L87.5488 127.666L86.9322 127.587L86.3425 127.483L85.7528 127.379L85.1369 127.249L84.6004 127.119L84.0107 126.989L83.4749 126.806L82.9122 126.598L82.4027 126.389L81.867 126.155L81.3574 125.947L80.9019 125.686L80.4201 125.4L80.0177 125.114L79.6162 124.853L79.2407 124.541L78.9193 124.228L78.5971 123.915L78.3026 123.629L78.0613 123.29L77.8471 122.952L77.6589 122.639L74.5771 116.779L74.7914 117.222L75.0867 117.612L75.4081 118.03L75.7296 118.42L76.132 118.811L76.5605 119.201L77.0161 119.54L77.5256 119.905L78.0344 120.269L78.6241 120.582L79.2138 120.92L79.8566 121.233L80.4733 121.493L81.1431 121.753L81.813 121.988L82.5098 122.222L83.2337 122.405L83.9305 122.587L84.6543 122.744L85.4313 122.848L86.1552 122.978L86.9052 123.082L87.683 123.134L88.46 123.212L89.21 123.238H90.014H90.7648L91.5418 123.212L92.3196 123.134L93.0696 123.082L93.8204 122.978L94.5974 122.848L95.3212 122.744L96.0442 122.587L96.7951 122.405L97.4919 122.222L98.1618 121.988L98.8586 121.753L99.5014 121.493L100.172 121.233L100.761 120.92L101.378 120.582L101.94 120.269L102.503 119.905L102.959 119.54L103.441 119.201L103.844 118.811L104.245 118.42L104.594 118.03L104.889 117.612L105.183 117.222L105.425 116.779Z" fill="#3D566E"/>
<path fill-rule="evenodd" clip-rule="evenodd" d="M100.754 123.891C105.024 121.295 106.385 117.611 104.757 114.346L101.714 108.095L101.501 107.732L101.288 107.398L101.02 107.035L100.754 106.699L100.433 106.336L100.086 106.002L99.7132 105.695L99.3125 105.388L98.8858 105.081L98.4052 104.774L97.9247 104.495L97.4181 104.244L96.9107 103.993L96.3773 103.77L95.8169 103.574L95.2558 103.379L94.6955 103.184L94.1351 103.044L93.5479 102.904L92.9876 102.793L92.4004 102.709L91.8131 102.625L91.2259 102.541L90.6395 102.513L90.0254 102.485L89.4382 102.458L88.8241 102.485L88.2369 102.513L87.6236 102.541L87.0364 102.625L86.4492 102.709L85.862 102.793L85.3017 102.904L84.7413 103.044L84.181 103.184L83.6206 103.379L83.0595 103.574L82.526 103.77L81.9657 103.993L81.4583 104.244L80.9517 104.495L80.4712 104.774L80.0175 105.081L79.5639 105.388L79.1632 105.695L78.7902 106.002L78.4432 106.336L78.1492 106.699L77.856 107.035L77.5889 107.398L77.3755 107.732L77.1882 108.095L74.1462 114.346C72.5183 117.611 73.8523 121.295 78.1223 123.891C84.4206 127.63 94.5092 127.63 100.754 123.891Z" fill="#2C3E50"/>
<path fill-rule="evenodd" clip-rule="evenodd" d="M105.424 115.318C105.316 114.809 105.128 114.354 104.886 113.872L101.82 107.87L101.605 107.522L101.39 107.201L101.122 106.852L100.852 106.53L100.53 106.182L100.18 105.86L99.8034 105.566L99.3996 105.271L98.9696 104.976L98.4853 104.681L98.0011 104.414L97.4906 104.173L96.9793 103.931L96.4417 103.717L95.8771 103.529L95.3124 103.342L94.7469 103.155L94.1823 103.021L93.5905 102.886L93.0259 102.779L92.4341 102.699L91.8432 102.618L91.2515 102.538L90.6597 102.511L90.0409 102.484L89.4492 102.458L88.8312 102.484L88.2394 102.511L87.6206 102.538L87.0289 102.618L86.4371 102.699L85.8454 102.779L85.2807 102.886L84.7161 103.021L84.1514 103.155L83.5867 103.342L83.0221 103.529L82.4837 103.717L81.919 103.931L81.4085 104.173L80.8972 104.414L80.413 104.681L79.9559 104.976L79.4987 105.271L79.0957 105.566L78.719 105.86L78.3694 106.182L78.0731 106.53L77.7777 106.852L77.5356 107.201L77.2934 107.522L77.1055 107.87L74.0393 113.872C73.7703 114.354 73.5822 114.809 73.4746 115.318C73.9318 117.274 75.4382 119.204 78.0469 120.677C84.313 124.294 94.4788 124.294 100.772 120.677C103.461 119.177 104.993 117.274 105.424 115.318Z" fill="#3D566E"/>
<path fill-rule="evenodd" clip-rule="evenodd" d="M45.4319 61.6953C46.3129 61.6953 47.0338 62.4179 47.0338 63.3343C47.0338 64.2507 46.3396 65.0004 45.4319 65.0004H27.7035C26.8491 65.0004 26.1016 64.2785 26.1016 63.3343C26.1016 62.4457 26.8224 61.6953 27.7035 61.6953H45.4319Z" fill="#FFED00"/>
<path fill-rule="evenodd" clip-rule="evenodd" d="M58.6923 29.3398C59.3044 29.9123 59.3044 30.9273 58.6923 31.4998C58.0523 32.0982 56.9944 32.0982 56.3544 31.4998L43.1096 19.1396C42.4696 18.5411 42.4694 17.5527 43.0816 16.9542C43.7216 16.3818 44.7794 16.3818 45.4194 16.9542L58.6923 29.3398Z" fill="#FFED00"/>
<path fill-rule="evenodd" clip-rule="evenodd" d="M91.1028 19.3604C91.1028 20.2249 90.6071 20.9322 90.0011 20.9322C89.3952 20.9322 88.8994 20.2511 88.8994 19.3604V1.57179C88.8994 0.707272 89.3952 0 90.0011 0C90.6071 0 91.1028 0.681074 91.1028 1.57179V19.3604Z" fill="#FFED00"/>
<path fill-rule="evenodd" clip-rule="evenodd" d="M134.568 65.0004C133.713 65.0004 132.966 64.2783 132.966 63.3339C132.966 62.445 133.687 61.6953 134.568 61.6953H152.323C153.177 61.6953 153.898 62.4172 153.898 63.3339C153.898 64.2505 153.204 65.0004 152.323 65.0004H134.568Z" fill="#FFED00"/>
<path fill-rule="evenodd" clip-rule="evenodd" d="M124.559 31.4998C123.962 32.0982 122.949 32.0982 122.378 31.4998C121.806 30.9273 121.806 29.9123 122.378 29.3398L134.742 16.9542C135.34 16.3818 136.353 16.3818 136.925 16.9542C137.522 17.5527 137.522 18.5411 136.925 19.1396L124.559 31.4998Z" fill="#FFED00"/>
<path fill-rule="evenodd" clip-rule="evenodd" d="M122.379 49.697C126.881 64.0435 121.979 73.8775 116.918 82.6853C113.721 88.224 111.457 89.008 109.699 95.3302C108.66 99.1398 109.192 103.165 106.076 106.083C101.121 110.676 95.9266 111.163 90.6255 111.271H90.0125H89.4004C84.0726 111.136 78.851 110.676 73.9494 106.083C70.806 103.165 71.3656 99.1128 70.3001 95.3302C68.5419 89.035 66.2777 88.224 63.081 82.6853C58.0197 73.8775 53.1177 64.0705 57.6196 49.697C62.2281 34.9181 76.1073 27.542 90.0394 27.542C103.865 27.542 117.77 34.9181 122.379 49.697Z" fill="#EDCC0F"/>
<path fill-rule="evenodd" clip-rule="evenodd" d="M99.358 117.817C104.507 114.82 104.507 109.954 99.358 106.929C94.2087 103.905 85.8178 103.905 80.6413 106.929C75.492 109.926 75.492 114.792 80.6413 117.817C85.7905 120.841 94.2087 120.841 99.358 117.817Z" fill="#9C9C9C"/>
<path fill-rule="evenodd" clip-rule="evenodd" d="M100.754 118.488C105.024 116.037 106.385 112.494 104.757 109.376L101.714 103.433L101.501 103.087L101.288 102.74L101.02 102.421L100.754 102.074L100.433 101.755L100.086 101.435L99.7132 101.142L99.3125 100.822L98.8858 100.529L98.4052 100.263L97.9247 99.9959L97.4181 99.73L96.9107 99.5161L96.3773 99.3031L95.8169 99.09L95.2558 98.9038L94.6955 98.7436L94.1351 98.6102L93.5479 98.4769L92.9876 98.3704L92.4004 98.2638L91.8131 98.1841L91.2259 98.1305L90.6395 98.1045L90.0254 98.0508H89.4382H88.8241L88.2369 98.1045L87.6236 98.1305L87.0364 98.1841L86.4492 98.2638L85.862 98.3704L85.3017 98.4769L84.7413 98.6102L84.181 98.7436L83.6206 98.9038L83.0595 99.09L82.526 99.3031L81.9657 99.5161L81.4583 99.73L80.9517 99.9959L80.4712 100.263L80.0175 100.529L79.5639 100.822L79.1632 101.142L78.7902 101.435L78.4432 101.755L78.1492 102.074L77.856 102.421L77.5889 102.74L77.3755 103.087L77.1882 103.433L74.1462 109.376C72.5183 112.494 73.8523 116.037 78.1223 118.488C84.4206 122.086 94.5092 122.086 100.754 118.488Z" fill="#2C3E50"/>
<path fill-rule="evenodd" clip-rule="evenodd" d="M105.424 110.912C105.316 110.43 105.128 109.948 104.886 109.438L101.82 103.463L101.605 103.115L101.39 102.766L101.122 102.445L100.852 102.097L100.53 101.775L100.18 101.454L99.8034 101.159L99.3996 100.837L98.9696 100.543L98.4853 100.275L98.0011 100.007L97.4906 99.7393L96.9793 99.5242L96.4417 99.31L95.8771 99.0958L95.3124 98.9085L94.7469 98.7474L94.1823 98.6133L93.5905 98.4792L93.0259 98.3721L92.4341 98.265L91.8432 98.1849L91.2515 98.1309L90.6597 98.1047L90.0409 98.0508H89.4492H88.8312L88.2394 98.1047L87.6206 98.1309L87.0289 98.1849L86.4371 98.265L85.8454 98.3721L85.2807 98.4792L84.7161 98.6133L84.1514 98.7474L83.5867 98.9085L83.0221 99.0958L82.4837 99.31L81.919 99.5242L81.4085 99.7393L80.8972 100.007L80.413 100.275L79.9559 100.543L79.4987 100.837L79.0957 101.159L78.719 101.454L78.3694 101.775L78.0731 102.097L77.7777 102.445L77.5356 102.766L77.2934 103.115L77.1055 103.463L74.0393 109.438C73.7703 109.948 73.5822 110.43 73.4746 110.912C73.9318 112.868 75.4382 114.796 78.0469 116.27C84.313 119.887 94.4788 119.887 100.772 116.27C103.461 114.796 104.993 112.895 105.424 110.912Z" fill="#3D566E"/>
<path fill-rule="evenodd" clip-rule="evenodd" d="M99.358 112.307C104.507 109.311 104.507 104.444 99.358 101.42C94.2087 98.3958 85.8178 98.3958 80.6413 101.42C75.492 104.417 75.492 109.283 80.6413 112.307C85.7905 115.332 94.2087 115.332 99.358 112.307Z" fill="#9C9C9C"/>
<path fill-rule="evenodd" clip-rule="evenodd" d="M105.424 102.458V108.023L105.37 108.472L105.265 108.92L105.132 109.342L105 109.764L104.788 110.186L104.55 110.634L104.259 111.056L103.967 111.452L103.623 111.874L103.227 112.243L102.803 112.639L102.353 113.035L101.823 113.378L101.321 113.747L100.739 114.09L100.156 114.406L99.547 114.723L98.8854 115.013L98.2497 115.276L97.5623 115.514L96.874 115.725L96.1858 115.936L95.4442 116.121L94.7293 116.279L94.0152 116.411L93.247 116.543L92.5063 116.621L91.7389 116.675L90.9707 116.727L90.2033 116.753L89.4617 116.78L88.6676 116.753L87.9002 116.727L87.1595 116.675L86.3654 116.621L85.6239 116.543L84.8831 116.411L84.1416 116.279L83.4267 116.121L82.7126 115.936L81.9977 115.725L81.3094 115.514L80.6478 115.276L79.9863 115.013L79.3505 114.723L78.7156 114.406L78.1332 114.09L77.5507 113.747L77.0475 113.378L76.545 113.035L76.0951 112.639L75.671 112.243L75.301 111.874L74.9303 111.452L74.6128 111.056L74.3478 110.634L74.1095 110.186L73.9246 109.764L73.7388 109.342L73.6063 108.92L73.5271 108.472L73.4746 108.023V102.458L73.5271 102.933L73.6063 103.381L73.7388 103.803L73.9246 104.225L74.1095 104.647L74.3478 105.096L74.6128 105.518L74.9303 105.914L75.301 106.335L75.671 106.731L76.0951 107.1L76.545 107.496L77.0475 107.839L77.5507 108.208L78.1332 108.55L78.7156 108.893L79.3505 109.184L79.9863 109.474L80.6478 109.738L81.3094 109.975L81.9977 110.186L82.7126 110.397L83.4267 110.582L84.1416 110.74L84.8831 110.872L85.6239 111.004L86.3654 111.083L87.1595 111.136L87.9002 111.188L88.6676 111.215L89.4617 111.241L90.2033 111.215L90.9707 111.188L91.7389 111.136L92.5063 111.083L93.247 111.004L94.0152 110.872L94.7293 110.74L95.4442 110.582L96.1858 110.397L96.874 110.186L97.5623 109.975L98.2497 109.738L98.8854 109.474L99.547 109.184L100.156 108.893L100.739 108.55L101.321 108.208L101.823 107.839L102.353 107.496L102.803 107.1L103.227 106.731L103.623 106.335L103.967 105.914L104.259 105.518L104.55 105.096L104.788 104.647L105 104.225L105.132 103.803L105.265 103.381L105.37 102.933L105.424 102.458Z" fill="#9C9C9C"/>
<path fill-rule="evenodd" clip-rule="evenodd" d="M100.74 95.2971C106.985 98.9437 106.985 104.869 100.74 108.516C94.5204 112.189 84.3845 112.189 78.1389 108.516C71.9198 104.869 71.9198 98.9437 78.1389 95.2971C84.3845 91.6236 94.5204 91.6236 100.74 95.2971Z" fill="#C49F0C"/>
<path fill-rule="evenodd" clip-rule="evenodd" d="M105.424 102.458V108.023L105.37 108.472L105.265 108.92L105.132 109.342L105 109.764L104.788 110.186L104.55 110.634L104.259 111.056L103.967 111.452L103.623 111.874L103.227 112.243L102.803 112.639L102.353 113.035L101.823 113.378L101.321 113.747L100.739 114.09L100.156 114.406L99.547 114.723L98.8854 115.013L98.2497 115.276L97.5623 115.514L96.874 115.725L96.1858 115.936L95.4442 116.121L94.7293 116.279L94.0152 116.411L93.247 116.543L92.5063 116.621L91.7389 116.675L90.9707 116.727L90.2033 116.753L89.4617 116.78L88.6676 116.753L87.9002 116.727L87.1595 116.675L86.3654 116.621L85.6239 116.543L84.8831 116.411L84.1416 116.279L83.4267 116.121L82.7126 115.936L81.9977 115.725L81.3094 115.514L80.6478 115.276L79.9863 115.013L79.3505 114.723L78.7156 114.406L78.1332 114.09L77.5507 113.747L77.0475 113.378L76.545 113.035L76.0951 112.639L75.671 112.243L75.301 111.874L74.9303 111.452L74.6128 111.056L74.3478 110.634L74.1095 110.186L73.9246 109.764L73.7388 109.342L73.6063 108.92L73.5271 108.472L73.4746 108.023V102.458L73.5271 102.933L73.6063 103.381L73.7388 103.803L73.9246 104.225L74.1095 104.647L74.3478 105.096L74.6128 105.518L74.9303 105.914L75.301 106.335L75.671 106.731L76.0951 107.1L76.545 107.496L77.0475 107.839L77.5507 108.208L78.1332 108.55L78.7156 108.893L79.3505 109.184L79.9863 109.474L80.6478 109.738L81.3094 109.975L81.9977 110.186L82.7126 110.397L83.4267 110.582L84.1416 110.74L84.8831 110.872L85.6239 111.004L86.3654 111.083L87.1595 111.136L87.9002 111.188L88.6676 111.215L89.4617 111.241L90.2033 111.215L90.9707 111.188L91.7389 111.136L92.5063 111.083L93.247 111.004L94.0152 110.872L94.7293 110.74L95.4442 110.582L96.1858 110.397L96.874 110.186L97.5623 109.975L98.2497 109.738L98.8854 109.474L99.547 109.184L100.156 108.893L100.739 108.55L101.321 108.208L101.823 107.839L102.353 107.496L102.803 107.1L103.227 106.731L103.623 106.335L103.967 105.914L104.259 105.518L104.55 105.096L104.788 104.647L105 104.225L105.132 103.803L105.265 103.381L105.37 102.933L105.424 102.458Z" fill="#2C3E50"/>
<path fill-rule="evenodd" clip-rule="evenodd" d="M105.424 102.458V105.849L105.37 106.296L105.265 106.716L105.132 107.163L105 107.61L104.788 108.005L104.55 108.452L104.259 108.872L103.967 109.267L103.623 109.687L103.227 110.055L102.803 110.449L102.353 110.844L101.823 111.186L101.321 111.554L100.739 111.896L100.156 112.211L99.547 112.526L98.8854 112.816L98.2497 113.078L97.5623 113.288L96.874 113.525L96.1858 113.735L95.4442 113.893L94.7293 114.077L94.0152 114.208L93.247 114.314L92.5063 114.393L91.7389 114.472L90.9707 114.524L90.2033 114.55L89.4617 114.577L88.6676 114.55L87.9002 114.524L87.1595 114.472L86.3654 114.393L85.6239 114.314L84.8831 114.208L84.1416 114.077L83.4267 113.893L82.7126 113.735L81.9977 113.525L81.3094 113.288L80.6478 113.078L79.9863 112.816L79.3505 112.526L78.7156 112.211L78.1332 111.896L77.5507 111.554L77.0475 111.186L76.545 110.844L76.0951 110.449L75.671 110.055L75.301 109.687L74.9303 109.267L74.6128 108.872L74.3478 108.452L74.1095 108.005L73.9246 107.61L73.7388 107.163L73.6063 106.716L73.5271 106.296L73.4746 105.849V102.458L73.5271 102.931L73.6063 103.378L73.7388 103.799L73.9246 104.219L74.1095 104.64L74.3478 105.087L74.6128 105.507L74.9303 105.902L75.301 106.322L75.671 106.716L76.0951 107.085L76.545 107.479L77.0475 107.821L77.5507 108.188L78.1332 108.53L78.7156 108.872L79.3505 109.162L79.9863 109.45L80.6478 109.713L81.3094 109.95L81.9977 110.16L82.7126 110.371L83.4267 110.555L84.1416 110.712L84.8831 110.844L85.6239 110.975L86.3654 111.054L87.1595 111.107L87.9002 111.159L88.6676 111.186L89.4617 111.212L90.2033 111.186L90.9707 111.159L91.7389 111.107L92.5063 111.054L93.247 110.975L94.0152 110.844L94.7293 110.712L95.4442 110.555L96.1858 110.371L96.874 110.16L97.5623 109.95L98.2497 109.713L98.8854 109.45L99.547 109.162L100.156 108.872L100.739 108.53L101.321 108.188L101.823 107.821L102.353 107.479L102.803 107.085L103.227 106.716L103.623 106.322L103.967 105.902L104.259 105.507L104.55 105.087L104.788 104.64L105 104.219L105.132 103.799L105.265 103.378L105.37 102.931L105.424 102.458Z" fill="#3D566E"/>
<path fill-rule="evenodd" clip-rule="evenodd" d="M105.424 102.458V106.076C102.009 109.333 97.2439 110.987 89.7 111.065C89.6206 111.065 89.5411 111.065 89.4617 111.065L90.1766 111.039L90.9448 111.013L91.6856 110.962L92.453 110.883L93.1945 110.806L93.9353 110.677L94.6502 110.547L95.3651 110.393L96.0792 110.211L96.7674 110.005L97.4556 109.772L98.118 109.539L98.753 109.282L99.3879 108.997L99.997 108.687L100.579 108.351L101.135 108.015L101.665 107.653L102.194 107.292L102.644 106.903L103.094 106.516L103.491 106.128L103.836 105.715L104.153 105.301L104.444 104.887L104.682 104.448L104.894 104.009L105.053 103.595L105.185 103.156L105.291 102.717L105.424 102.458ZM73.4746 106.025V102.458L73.5271 102.923L73.6063 103.363L73.7388 103.802L73.9246 104.215L74.1095 104.655L74.3745 105.094L74.6386 105.508L74.9569 105.921L75.3269 106.335L75.7243 106.723L76.1476 107.11L76.6242 107.498L77.1275 107.859L77.6566 108.221L78.2123 108.557L78.7948 108.893L79.4038 109.203L80.0388 109.488L80.6745 109.747L81.3361 109.979L82.0243 110.211L82.7126 110.419L83.4267 110.6L84.1416 110.754L84.8565 110.883L85.5972 111.013L86.3388 111.09L87.1062 111.168L87.8477 111.22L88.6151 111.246L89.33 111.272C81.7332 111.091 76.8892 109.411 73.4746 106.025Z" fill="#A8890D"/>
<path fill-rule="evenodd" clip-rule="evenodd" d="M95.5083 94.7456V99.558V99.6112V99.6371L95.4805 99.6637L95.4535 99.7169L95.4257 99.7436L95.3979 99.7694L95.3423 99.796L95.3154 99.8493L86.8125 104.555H86.7578L86.7022 104.582L86.6474 104.608L86.5918 104.635H86.5092H86.4536L86.3711 104.661H86.3433H86.2607L86.2051 104.635H86.1504H86.067L86.0122 104.608L85.9566 104.582L85.9018 104.555H85.8462L85.7915 104.503L85.1841 104.159L83.6104 103.286L83.5556 103.26L83.5278 103.233L83.4722 103.207L83.4444 103.154L83.4174 103.128V103.101L83.3896 103.049V103.022V98.183V98.2096L83.4174 98.2629V98.2887L83.4444 98.342L83.4722 98.3686L83.5278 98.3944L83.5556 98.4211L83.6104 98.4477L85.1841 99.32L85.7915 99.6637L85.8462 99.7169L85.9018 99.7436H85.9566L86.0122 99.7694L86.067 99.796H86.1504L86.2051 99.8227H86.2607H86.3433H86.3711H86.4536L86.5092 99.796H86.5918L86.6474 99.7694L86.7022 99.7436H86.7578L86.8125 99.7169L95.3154 95.0103L95.3423 94.9836L95.3979 94.9578L95.4257 94.9046L95.4535 94.8779L95.4805 94.8513L95.5083 94.7989V94.7722V94.7456Z" fill="#A8890D"/>
<path fill-rule="evenodd" clip-rule="evenodd" d="M93.0646 93.761L95.3013 94.9829C95.5773 95.1389 95.5773 95.3728 95.3013 95.5288L86.7987 100.157C86.5227 100.287 86.1085 100.287 85.8325 100.157L85.7777 100.104L85.1703 99.7664L83.5967 98.9087C83.3206 98.7787 83.3206 98.5442 83.5967 98.3882L92.0992 93.761C92.3477 93.605 92.7886 93.605 93.0646 93.761Z" fill="#E0D210"/>
<path fill-rule="evenodd" clip-rule="evenodd" d="M82.228 69.2455C81.6804 69.6132 81.1855 69.3302 81.1855 68.6231C81.1855 67.9159 81.3153 66.8976 81.889 66.5582L98.2126 56.2898C98.7602 55.922 98.8127 56.6012 98.8127 57.3084C98.8127 58.0156 98.4992 59.09 97.9516 59.4294L82.228 69.2455Z" fill="#A8890D"/>
<path fill-rule="evenodd" clip-rule="evenodd" d="M94.1445 94.8646C94.1445 95.0267 94.0322 95.1895 93.8365 95.3245C93.4172 95.5676 92.7467 95.5676 92.3274 95.3245C92.1317 95.2165 92.0194 95.0813 92.0194 94.9462C92.0474 93.9198 92.0751 92.8931 92.103 91.8667C92.2149 86.3568 92.3547 81.6841 93.0815 76.8494C93.9481 71.1774 95.4858 65.2896 97.9458 57.5648C98.1694 56.8626 98.7565 56.2415 99.2876 56.1875C99.8188 56.1604 100.042 56.7272 99.8464 57.4024C97.4424 64.9651 95.9607 70.6912 95.1221 76.1471C94.3673 81.0899 94.1163 85.8442 94.1163 91.5972C94.1163 92.7046 94.1445 93.7842 94.1445 94.8646ZM80.1677 68.3957C79.944 67.9095 80.1953 67.1258 80.7264 66.5856C81.2575 66.0454 81.8728 65.9919 82.0965 66.424C84.5564 71.4208 85.9816 75.6885 86.7363 80.4152C87.4352 84.7907 87.6308 89.5437 87.5749 95.6749C87.5749 96.6202 87.5749 97.5658 87.5749 98.5112C87.5749 98.6732 87.4914 98.8352 87.2678 98.9703C86.8485 99.2134 86.2053 99.2134 85.786 98.9703C85.5624 98.8352 85.4781 98.7004 85.4781 98.5384C85.4781 92.9204 85.6183 87.5187 84.6958 81.9277C83.941 77.3631 82.5717 73.2574 80.1677 68.3957Z" fill="#C49F0C"/>
<path fill-rule="evenodd" clip-rule="evenodd" d="M84.596 69.7047C84.4536 70.5243 83.8267 71.4007 83.2001 71.5703C82.5735 71.7681 82.1745 71.2031 82.3169 70.3835L83.2861 64.703C83.4285 63.8552 84.0546 63.007 84.6812 62.8374C85.3078 62.6396 85.7067 63.1764 85.5643 64.0242L84.596 69.7047Z" fill="#FFED00"/>
<path fill-rule="evenodd" clip-rule="evenodd" d="M87.7631 67.7266C87.6292 68.4737 87.0394 69.2212 86.4499 69.3706C85.8605 69.5449 85.486 69.0713 85.62 68.3491L86.7451 62.2723C86.8791 61.5251 87.4421 60.7777 88.0583 60.6282C88.621 60.4539 89.0229 60.9518 88.8621 61.6741L87.7631 67.7266Z" fill="#FFED00"/>
<path fill-rule="evenodd" clip-rule="evenodd" d="M90.5122 66.6182C90.3432 67.3683 89.6338 68.1186 88.8562 68.2686C88.1462 68.4436 87.6391 67.968 87.842 67.2179L89.498 60.0677C89.6332 59.3427 90.3774 58.5674 91.155 58.4173C91.8651 58.2673 92.3383 58.7422 92.1693 59.4673L90.5122 66.6182Z" fill="#FFED00"/>
<path fill-rule="evenodd" clip-rule="evenodd" d="M93.2775 64.2136C93.1432 65.0262 92.5526 65.8943 91.9347 66.0624C91.3706 66.2586 90.9945 65.6984 91.1289 64.8858L92.2307 58.0488C92.3918 57.2362 92.9556 56.3955 93.5735 56.2273C94.1376 56.0312 94.5137 56.5632 94.3793 57.3758L93.2775 64.2136Z" fill="#FFED00"/>
<path fill-rule="evenodd" clip-rule="evenodd" d="M96.7133 62.015C96.5709 62.8371 95.9448 63.716 95.3182 63.8577C94.6916 64.0562 94.2927 63.518 94.4351 62.6958L95.4034 56.9971C95.5458 56.1466 96.1727 55.2967 96.7994 55.1266C97.426 54.9282 97.8249 55.4666 97.6825 56.3171L96.7133 62.015Z" fill="#FFED00"/>
<path fill-rule="evenodd" clip-rule="evenodd" d="M99.0607 60.0444C98.9082 60.7547 98.2683 61.5143 97.5668 61.6613C96.9263 61.8327 96.468 61.3423 96.651 60.6319L97.4747 56.7134C97.6272 56.003 98.268 55.2436 98.9695 55.1211C99.61 54.9496 100.037 55.4147 99.8844 56.125L99.0607 60.0444Z" fill="#FFED00"/>
<path fill-rule="evenodd" clip-rule="evenodd" d="M81.7382 69.9576C81.6158 70.6925 81.1877 71.4276 80.7186 71.5745C80.2902 71.746 80.0047 71.2802 80.1067 70.5699L80.657 66.6513C80.7589 65.9409 81.1875 65.1813 81.6567 65.0344C82.085 64.8629 82.3706 65.3526 82.2686 66.063L81.7382 69.9576Z" fill="#FFED00"/>
<path fill-rule="evenodd" clip-rule="evenodd" d="M86.6937 51.9054C75.041 53.2126 65.7026 60.3894 61.5044 69.4068C60.7509 68.1529 60.0776 66.7125 59.7009 64.9517C56.3369 49.8782 68.7975 33.9501 86.6937 31.9492V51.9054Z" fill="#FFED00"/>
<path fill-rule="evenodd" clip-rule="evenodd" d="M85.6975 68.8401C85.5551 69.5819 84.9282 70.324 84.3016 70.4724C83.675 70.6455 83.2761 70.1751 83.4185 69.4332L84.3876 64.4633C84.5301 63.7462 85.1563 62.9794 85.8114 62.8311C86.4095 62.658 86.8082 63.1531 86.6658 63.8702L85.6975 68.8401Z" fill="#FFF896"/>
<path fill-rule="evenodd" clip-rule="evenodd" d="M88.4706 67.5158C88.2929 68.329 87.512 69.1985 86.7304 69.3667C85.9487 69.563 85.4511 69.0304 85.6288 68.1893L87.1207 61.3471C87.2983 60.534 88.0803 59.6927 88.862 59.5245C89.6436 59.3562 90.1412 59.8614 89.9636 60.6745L88.4706 67.5158Z" fill="#FFF896"/>
<path fill-rule="evenodd" clip-rule="evenodd" d="M90.9336 66.4282C90.8065 67.263 90.2724 68.098 89.6878 68.265C89.154 68.4598 88.7981 67.9315 88.9252 67.1245L90.1711 59.1658C90.2982 58.331 90.8315 57.4959 91.4161 57.329C91.9499 57.1342 92.3058 57.6635 92.1787 58.4983L90.9336 66.4282Z" fill="#FFF896"/>
<path fill-rule="evenodd" clip-rule="evenodd" d="M94.3791 64.2118C94.2179 65.0523 93.6541 65.893 93.0363 66.0611C92.4722 66.2572 92.0961 65.7243 92.2304 64.8838L93.3314 58.0765C93.4926 57.2361 94.0572 56.3953 94.6751 56.2272C95.2392 56.0311 95.6152 56.5632 95.4809 57.4037L94.3791 64.2118Z" fill="#FFF896"/>
<path fill-rule="evenodd" clip-rule="evenodd" d="M97.0474 61.9935C96.9524 62.813 96.5345 63.6884 96.1168 63.858C95.699 64.0558 95.4331 63.5191 95.528 62.6713L96.1735 56.9918C96.2875 56.1723 96.6866 55.296 97.1233 55.1265C97.522 54.9287 97.7878 55.4654 97.6929 56.3131L97.0474 61.9935Z" fill="#FFF896"/>
<path fill-rule="evenodd" clip-rule="evenodd" d="M100.159 59.7672C100.006 60.6244 99.3632 61.4818 98.6596 61.6533C98.0173 61.8533 97.5891 61.3106 97.742 60.4534L98.5682 55.9105C98.7211 55.0533 99.3638 54.1959 100.067 54.0244C100.71 53.8244 101.138 54.3671 100.985 55.2242L100.159 59.7672Z" fill="#FFF896"/>
<path fill-rule="evenodd" clip-rule="evenodd" d="M82.5273 69.6851C82.3748 70.5139 81.7338 71.3992 81.0321 71.5707C80.3915 71.7707 79.9644 71.1994 80.1169 70.3706L80.9409 65.7981C81.0934 64.9693 81.7335 64.1119 82.4352 63.9404C83.0758 63.7404 83.5334 64.2832 83.3503 65.1405L82.5273 69.6851Z" fill="#FFF896"/>
</svg>
