<svg width="202" height="101" viewBox="0 0 202 101" fill="none" xmlns="http://www.w3.org/2000/svg">
<g opacity="0.5">
<path fill-rule="evenodd" clip-rule="evenodd" d="M80.1013 23.8949L66.8189 17.9633L66.8982 18.0553L66.9378 18.1625L66.9578 18.3005V24.3853L80.2402 30.3169V24.2321L80.2204 24.1094L80.1807 24.0022L80.1013 23.8949ZM66.9578 6.08477L66.9378 6.23808L66.8982 6.39138L66.8189 6.54468L66.7198 6.68255L66.6206 6.82054L66.4819 6.9432L66.3431 7.05043L66.1846 7.12703L79.467 13.0586L79.6256 12.982L79.7643 12.8747L79.9032 12.7521L80.0221 12.6141L80.1211 12.4608L80.1807 12.3076L80.2204 12.1543L80.2402 12.001V5.93159L66.9578 0V6.08477Z" fill="#8F8F8F"/>
<path fill-rule="evenodd" clip-rule="evenodd" d="M100.502 9.08856L87.2196 3.15697L66.959 0.0148926L80.2414 5.94648L100.502 9.08856Z" fill="#C4C4C4"/>
<path fill-rule="evenodd" clip-rule="evenodd" d="M79.4738 13.0581L66.1914 7.12646L30.1107 23.2352L29.7735 23.3885L29.4762 23.5725L29.1788 23.7717L28.9013 23.9863L28.6238 24.2315L28.366 24.4768L28.1283 24.7373L27.9102 25.0285L41.1926 30.96L41.4107 30.6689L41.6486 30.4083L41.9063 30.1478L42.1839 29.9178L42.4614 29.7032L42.7588 29.504L43.0759 29.3201L43.3931 29.1668L79.4738 13.0581Z" fill="#B6B6B6"/>
<path fill-rule="evenodd" clip-rule="evenodd" d="M41.1944 30.9616L27.912 25.03H27.8922L27.7137 25.306L27.5155 25.6125L27.3768 25.9038L27.2379 26.1949L27.1388 26.5014L27.0596 26.808L27.0198 27.0992L27 27.3905V32.6782L27.0198 32.9542L27.0596 33.1994L27.1388 33.4293L27.2379 33.6439L27.3768 33.8278L27.5155 33.9811L27.7137 34.1037L40.9962 40.0506L40.8178 39.9126L40.6592 39.7441L40.5205 39.5602L40.4213 39.3609L40.342 39.131L40.3024 38.8704L40.2826 38.5945V33.322L40.3024 33.0155L40.342 32.7243L40.4213 32.433L40.5205 32.1265L40.6592 31.8352L40.8178 31.5288L40.9962 31.2376L41.1944 30.9616Z" fill="#8F8F8F"/>
<path fill-rule="evenodd" clip-rule="evenodd" d="M43.3937 39.9876L79.4743 23.8789C79.8907 23.6796 80.2673 23.8483 80.2673 24.2161V30.3009L100.528 9.07298L80.2673 5.93091V12.0004C80.2673 12.3835 79.9105 12.8587 79.4743 13.0426L43.3937 29.1514C42.5412 29.5346 41.7482 30.1936 41.1931 30.9446C40.638 31.6956 40.2812 32.5386 40.2812 33.305V38.5928C40.2812 39.3592 40.638 39.8956 41.1931 40.1408C41.768 40.4014 42.5412 40.3708 43.3937 39.9876Z" fill="#DADADA"/>
<path fill-rule="evenodd" clip-rule="evenodd" d="M57.1248 11.1459L21.0439 27.2547L34.3264 33.1863L70.4073 17.0927L70.7245 16.9549L71.0418 16.8628L71.3392 16.7862L71.6167 16.7709L71.8943 16.7556L72.1322 16.7709L72.3898 16.8322L72.8062 17.0161L72.6079 16.9089L59.3254 10.9926L59.1073 10.9006L58.8694 10.8546L58.6116 10.824H58.3341L58.0565 10.8699L57.7394 10.9313L57.442 11.0232L57.1248 11.1459Z" fill="#B6B6B6"/>
<path fill-rule="evenodd" clip-rule="evenodd" d="M33.563 26.7649L20.2805 20.8486L0 42.0768L13.3023 48.0084L33.563 26.7649Z" fill="#C4C4C4"/>
<path fill-rule="evenodd" clip-rule="evenodd" d="M34.335 44.0072L70.4159 27.8983C71.2684 27.5151 72.0613 26.8561 72.6164 26.1051C73.1715 25.3541 73.5285 24.5111 73.5285 23.7447V18.4568C73.5285 17.6905 73.1715 17.1694 72.6164 16.9088C72.0613 16.6636 71.2882 16.6941 70.4159 17.0773L34.335 33.1862C33.9187 33.3701 33.542 33.2168 33.542 32.8336V26.7641L13.2812 47.9923L33.542 51.1189V45.0341C33.5618 44.6663 33.9187 44.2064 34.335 44.0072Z" fill="#DADADA"/>
</g>
<g opacity="0.5">
<path fill-rule="evenodd" clip-rule="evenodd" d="M121.427 23.8949L134.709 17.9633L134.63 18.0553L134.591 18.1625L134.571 18.3005V24.3853L121.288 30.3169V24.2321L121.308 24.1094L121.348 24.0022L121.427 23.8949ZM134.571 6.08477L134.591 6.23808L134.63 6.39138L134.709 6.54468L134.808 6.68255L134.908 6.82054L135.046 6.9432L135.185 7.05043L135.344 7.12703L122.061 13.0586L121.903 12.982L121.764 12.8747L121.625 12.7521L121.506 12.6141L121.407 12.4608L121.348 12.3076L121.308 12.1543L121.288 12.001V5.93159L134.571 0V6.08477Z" fill="#8F8F8F"/>
<path fill-rule="evenodd" clip-rule="evenodd" d="M101.026 9.08856L114.309 3.15697L134.569 0.0148926L121.287 5.94648L101.026 9.08856Z" fill="#C4C4C4"/>
<path fill-rule="evenodd" clip-rule="evenodd" d="M122.055 13.0581L135.337 7.12646L171.418 23.2352L171.755 23.3885L172.052 23.5725L172.349 23.7717L172.627 23.9863L172.905 24.2315L173.162 24.4768L173.4 24.7373L173.618 25.0285L160.336 30.96L160.118 30.6689L159.88 30.4083L159.622 30.1478L159.344 29.9178L159.067 29.7032L158.77 29.504L158.452 29.3201L158.135 29.1668L122.055 13.0581Z" fill="#B6B6B6"/>
<path fill-rule="evenodd" clip-rule="evenodd" d="M160.334 30.9616L173.616 25.03H173.636L173.815 25.306L174.013 25.6125L174.152 25.9038L174.29 26.1949L174.389 26.5014L174.469 26.808L174.509 27.0992L174.528 27.3905V32.6782L174.509 32.9542L174.469 33.1994L174.389 33.4293L174.29 33.6439L174.152 33.8278L174.013 33.9811L173.815 34.1037L160.532 40.0506L160.71 39.9126L160.869 39.7441L161.008 39.5602L161.107 39.3609L161.186 39.131L161.226 38.8704L161.246 38.5945V33.322L161.226 33.0155L161.186 32.7243L161.107 32.433L161.008 32.1265L160.869 31.8352L160.71 31.5288L160.532 31.2376L160.334 30.9616Z" fill="#8F8F8F"/>
<path fill-rule="evenodd" clip-rule="evenodd" d="M158.135 39.9876L122.054 23.8789C121.638 23.6796 121.261 23.8483 121.261 24.2161V30.3009L101 9.07298L121.261 5.93091V12.0004C121.261 12.3835 121.618 12.8587 122.054 13.0426L158.135 29.1514C158.987 29.5346 159.78 30.1936 160.335 30.9446C160.89 31.6956 161.247 32.5386 161.247 33.305V38.5928C161.247 39.3592 160.89 39.8956 160.335 40.1408C159.76 40.4014 158.987 40.3708 158.135 39.9876Z" fill="#DADADA"/>
<path fill-rule="evenodd" clip-rule="evenodd" d="M144.403 11.1459L180.484 27.2547L167.202 33.1863L131.121 17.0927L130.804 16.9549L130.486 16.8628L130.189 16.7862L129.912 16.7709L129.634 16.7556L129.396 16.7709L129.139 16.8322L128.722 17.0161L128.92 16.9089L142.203 10.9926L142.421 10.9006L142.659 10.8546L142.917 10.824H143.194L143.472 10.8699L143.789 10.9313L144.086 11.0232L144.403 11.1459Z" fill="#B6B6B6"/>
<path fill-rule="evenodd" clip-rule="evenodd" d="M167.965 26.7649L181.248 20.8486L201.528 42.0768L188.226 48.0084L167.965 26.7649Z" fill="#C4C4C4"/>
<path fill-rule="evenodd" clip-rule="evenodd" d="M167.193 44.0072L131.112 27.8983C130.26 27.5151 129.467 26.8561 128.912 26.1051C128.357 25.3541 128 24.5111 128 23.7447V18.4568C128 17.6905 128.357 17.1694 128.912 16.9088C129.467 16.6636 130.24 16.6941 131.112 17.0773L167.193 33.1862C167.61 33.3701 167.986 33.2168 167.986 32.8336V26.7641L188.247 47.9923L167.986 51.1189V45.0341C167.967 44.6663 167.61 44.2064 167.193 44.0072Z" fill="#DADADA"/>
</g>
<path fill-rule="evenodd" clip-rule="evenodd" d="M181.101 65.1711L167.819 57.499L167.898 57.618L167.938 57.7567L167.958 57.9352V65.8054L181.24 73.4776V65.6073L181.22 65.4486L181.181 65.3099L181.101 65.1711ZM167.958 42.1349L167.938 42.3332L167.898 42.5315L167.819 42.7298L167.72 42.9081L167.621 43.0866L167.482 43.2452L167.343 43.3839L167.185 43.483L180.467 51.1551L180.626 51.056L180.764 50.9172L180.903 50.7587L181.022 50.5802L181.121 50.3819L181.181 50.1838L181.22 49.9855L181.24 49.7872V41.9368L167.958 34.2646V42.1349Z" fill="#8F8F8F"/>
<path fill-rule="evenodd" clip-rule="evenodd" d="M201.502 46.0201L188.22 38.348L167.959 34.2839L181.241 41.9561L201.502 46.0201Z" fill="#C4C4C4"/>
<path fill-rule="evenodd" clip-rule="evenodd" d="M180.474 51.1545L167.191 43.4824L131.111 64.3181L130.774 64.5164L130.476 64.7543L130.179 65.012L129.901 65.2896L129.624 65.6067L129.366 65.9239L129.128 66.2609L128.91 66.6375L142.193 74.3096L142.411 73.933L142.649 73.596L142.906 73.259L143.184 72.9615L143.461 72.684L143.759 72.4263L144.076 72.1885L144.393 71.9902L180.474 51.1545Z" fill="#B6B6B6"/>
<path fill-rule="evenodd" clip-rule="evenodd" d="M142.194 74.3115L128.912 66.6394H128.892L128.714 66.9964L128.515 67.3928L128.377 67.7695L128.238 68.1462L128.139 68.5426L128.06 68.9392L128.02 69.3158L128 69.6925V76.5319L128.02 76.8888L128.06 77.206L128.139 77.5033L128.238 77.7809L128.377 78.0188L128.515 78.2171L128.714 78.3756L141.996 86.0675L141.818 85.8891L141.659 85.6711L141.52 85.4332L141.421 85.1755L141.342 84.8781L141.302 84.541L141.283 84.1842V77.3645L141.302 76.9681L141.342 76.5915L141.421 76.2147L141.52 75.8183L141.659 75.4415L141.818 75.0451L141.996 74.6685L142.194 74.3115Z" fill="#8F8F8F"/>
<path fill-rule="evenodd" clip-rule="evenodd" d="M144.394 85.9862L180.474 65.1505C180.891 64.8928 181.267 65.111 181.267 65.5867V73.457L201.528 46.0001L181.267 41.936V49.7865C181.267 50.2821 180.91 50.8967 180.474 51.1346L144.394 71.9702C143.541 72.4658 142.748 73.3182 142.193 74.2896C141.638 75.261 141.281 76.3514 141.281 77.3426V84.1821C141.281 85.1733 141.638 85.8671 142.193 86.1843C142.768 86.5213 143.541 86.4818 144.394 85.9862Z" fill="#DADADA"/>
<path fill-rule="evenodd" clip-rule="evenodd" d="M158.126 48.4164L122.045 69.252L135.327 76.9242L171.408 56.1082L171.725 55.9299L172.043 55.8109L172.34 55.7118L172.618 55.692L172.895 55.6722L173.133 55.692L173.391 55.7712L173.807 56.0092L173.609 55.8705L160.326 48.2181L160.108 48.0991L159.87 48.0396L159.613 48H159.335L159.058 48.0594L158.74 48.1388L158.443 48.2577L158.126 48.4164Z" fill="#B6B6B6"/>
<path fill-rule="evenodd" clip-rule="evenodd" d="M134.564 68.6187L121.282 60.9663L101.001 88.4235L114.303 96.0957L134.564 68.6187Z" fill="#C4C4C4"/>
<path fill-rule="evenodd" clip-rule="evenodd" d="M135.336 90.92L171.417 70.0842C172.269 69.5886 173.062 68.7362 173.617 67.7648C174.173 66.7934 174.529 65.7031 174.529 64.7118V57.8723C174.529 56.881 174.173 56.207 173.617 55.87C173.062 55.5528 172.289 55.5924 171.417 56.088L135.336 76.9238C134.92 77.1617 134.543 76.9634 134.543 76.4677V68.6172L114.282 96.0745L134.543 100.119V92.2483C134.563 91.7725 134.92 91.1777 135.336 90.92Z" fill="#DADADA"/>
<path fill-rule="evenodd" clip-rule="evenodd" d="M20.427 65.1711L33.7094 57.499L33.6302 57.618L33.5905 57.7567L33.5706 57.9352V65.8054L20.2881 73.4776V65.6073L20.308 65.4486L20.3476 65.3099L20.427 65.1711ZM33.5706 42.1349L33.5905 42.3332L33.6302 42.5315L33.7094 42.7298L33.8085 42.9081L33.9077 43.0866L34.0464 43.2452L34.1852 43.3839L34.3438 43.483L21.0613 51.1551L20.9027 51.056L20.764 50.9172L20.6251 50.7587L20.5062 50.5802L20.4072 50.3819L20.3476 50.1838L20.308 49.9855L20.2881 49.7872V41.9368L33.5706 34.2646V42.1349Z" fill="#8F8F8F"/>
<path fill-rule="evenodd" clip-rule="evenodd" d="M0.0263176 46.0201L13.3087 38.348L33.5693 34.2839L20.2869 41.9561L0.0263176 46.0201Z" fill="#C4C4C4"/>
<path fill-rule="evenodd" clip-rule="evenodd" d="M21.0545 51.1545L34.337 43.4824L70.4176 64.3181L70.7548 64.5164L71.0521 64.7543L71.3495 65.012L71.627 65.2896L71.9046 65.6067L72.1623 65.9239L72.4001 66.2609L72.6182 66.6375L59.3358 74.3096L59.1176 73.933L58.8797 73.596L58.622 73.259L58.3445 72.9615L58.0669 72.684L57.7696 72.4263L57.4524 72.1885L57.1352 71.9902L21.0545 51.1545Z" fill="#B6B6B6"/>
<path fill-rule="evenodd" clip-rule="evenodd" d="M59.3339 74.3115L72.6163 66.6394H72.6361L72.8146 66.9964L73.0129 67.3928L73.1516 67.7695L73.2904 68.1462L73.3895 68.5426L73.4687 68.9392L73.5085 69.3158L73.5283 69.6925V76.5319L73.5085 76.8888L73.4687 77.206L73.3895 77.5033L73.2904 77.7809L73.1516 78.0188L73.0129 78.2171L72.8146 78.3756L59.5322 86.0675L59.7105 85.8891L59.8691 85.6711L60.0078 85.4332L60.1071 85.1755L60.1863 84.8781L60.2259 84.541L60.2458 84.1842V77.3645L60.2259 76.9681L60.1863 76.5915L60.1071 76.2147L60.0078 75.8183L59.8691 75.4415L59.7105 75.0451L59.5322 74.6685L59.3339 74.3115Z" fill="#8F8F8F"/>
<path fill-rule="evenodd" clip-rule="evenodd" d="M57.1347 85.9862L21.054 65.1505C20.6377 64.8928 20.261 65.111 20.261 65.5867V73.457L0.000370026 46.0001L20.261 41.936V49.7865C20.261 50.2821 20.6178 50.8967 21.054 51.1346L57.1347 71.9702C57.9871 72.4658 58.7801 73.3182 59.3352 74.2896C59.8903 75.261 60.2471 76.3514 60.2471 77.3426V84.1821C60.2471 85.1733 59.8903 85.8671 59.3352 86.1843C58.7603 86.5213 57.9871 86.4818 57.1347 85.9862Z" fill="#DADADA"/>
<path fill-rule="evenodd" clip-rule="evenodd" d="M43.4025 48.4164L79.4834 69.252L66.2009 76.9242L30.12 56.1082L29.8028 55.9299L29.4855 55.8109L29.1881 55.7118L28.9106 55.692L28.6331 55.6722L28.3951 55.692L28.1376 55.7712L27.7212 56.0092L27.9195 55.8705L41.202 48.2181L41.4201 48.0991L41.658 48.0396L41.9157 48H42.1933L42.4708 48.0594L42.788 48.1388L43.0853 48.2577L43.4025 48.4164Z" fill="#B6B6B6"/>
<path fill-rule="evenodd" clip-rule="evenodd" d="M66.9643 68.6187L80.2468 60.9663L100.527 88.4235L87.225 96.0957L66.9643 68.6187Z" fill="#C4C4C4"/>
<path fill-rule="evenodd" clip-rule="evenodd" d="M66.1924 90.92L30.1115 70.0842C29.259 69.5886 28.466 68.7362 27.9109 67.7648C27.3558 66.7934 26.9989 65.7031 26.9989 64.7118V57.8723C26.9989 56.881 27.3558 56.207 27.9109 55.87C28.466 55.5528 29.2392 55.5924 30.1115 56.088L66.1924 76.9238C66.6087 77.1617 66.9854 76.9634 66.9854 76.4677V68.6172L87.2461 96.0745L66.9854 100.119V92.2483C66.9655 91.7725 66.6087 91.1777 66.1924 90.92Z" fill="#DADADA"/>
</svg>
