<svg width="180" height="124" viewBox="0 0 180 124" fill="none" xmlns="http://www.w3.org/2000/svg">
<path fill-rule="evenodd" clip-rule="evenodd" d="M153.623 34.613C188.792 54.9114 188.792 87.7991 153.623 108.098C118.455 128.396 61.4826 128.396 26.3595 108.098C-8.76367 87.7991 -8.80929 54.9114 26.3595 34.613C61.5282 14.3146 118.455 14.269 153.623 34.613Z" fill="#E9E9EB"/>
<path fill-rule="evenodd" clip-rule="evenodd" d="M140.21 42.3263C167.897 58.3826 167.897 84.3378 140.21 100.303C112.476 116.359 67.4996 116.359 39.766 100.303C12.078 84.2921 12.078 58.337 39.766 42.3263C67.4996 26.3613 112.43 26.3613 140.21 42.3263Z" fill="#DDDEE1"/>
<path fill-rule="evenodd" clip-rule="evenodd" d="M126.788 50.0798C147.133 61.8027 147.133 80.8242 126.788 92.5927C106.49 104.361 73.5565 104.361 53.258 92.5927C32.914 80.8242 32.914 61.8027 53.258 50.0798C73.5565 38.4025 106.444 38.4025 126.788 50.0798Z" fill="#D1D2D6"/>
<path fill-rule="evenodd" clip-rule="evenodd" d="M91.9155 63.2036L91.1281 64.6996L91.0748 64.7774L91.0215 64.8555L90.9547 64.9464L90.888 65.0246L90.8216 65.1028L90.728 65.1806L90.6347 65.2588L90.5281 65.3366L90.4214 65.4017L90.3144 65.4668L90.1812 65.5319L90.0611 65.597L89.9276 65.649L89.7811 65.7141L89.661 65.7529L89.514 65.8049L89.3675 65.8438L89.2205 65.8831L89.0874 65.8958L88.927 65.922L88.767 65.9478L88.6339 65.974L88.4735 65.9871H88.3135L88.1401 66.0002H88.0065H87.8465L87.6865 65.9871H87.54L87.3796 65.974L87.2196 65.9478L87.0596 65.922L86.9261 65.8958L86.7661 65.8831L86.6195 65.8438L86.4726 65.8049L86.3391 65.7529L86.2059 65.7141L86.0724 65.649L85.9259 65.597L85.8192 65.5319L85.6991 65.4668L85.579 65.4017L85.4589 65.3366L85.3653 65.2588L85.2721 65.1806L85.1919 65.1028L85.1121 65.0246L85.0319 64.9464L84.9651 64.8555L84.9118 64.7774L84.8584 64.6996L84.085 63.2036L84.1517 63.308L84.2181 63.412L84.2848 63.516L84.3785 63.6331L84.4851 63.724L84.5918 63.8152L84.7119 63.9061L84.832 64.0101L84.9651 64.0883L85.1121 64.1792L85.2721 64.2701L85.419 64.3352L85.579 64.4003L85.7524 64.4654L85.9259 64.5305L86.0993 64.5956L86.2857 64.6345L86.4592 64.6865L86.646 64.7254L86.8463 64.7647L87.0197 64.7904L87.2196 64.8035L87.4199 64.8293H87.6063L87.8066 64.8424H88.0065H88.1934L88.3937 64.8293H88.5936L88.767 64.8035L88.9673 64.7904L89.1672 64.7647L89.3406 64.7254L89.5274 64.6865L89.7143 64.6345L89.8877 64.5956L90.0746 64.5305L90.248 64.4654L90.408 64.4003L90.568 64.3352L90.728 64.2701L90.888 64.1792L91.0215 64.0883L91.1684 64.0101L91.2881 63.9061L91.4082 63.8152L91.5149 63.724L91.6085 63.6331L91.7017 63.516L91.7819 63.412L91.8487 63.308L91.9155 63.2036Z" fill="#2C3E50"/>
<path fill-rule="evenodd" clip-rule="evenodd" d="M95.8309 59.2881L94.2663 62.2633L94.1708 62.4218L94.0483 62.5937L93.9263 62.7656L93.7764 62.9109L93.6269 63.0695L93.45 63.2285L93.2594 63.3871L93.0688 63.5194L92.8512 63.6647L92.6199 63.81L92.3749 63.9423L92.1162 64.048L91.858 64.1671L91.5856 64.2728L91.3136 64.3785L91.0279 64.4713L90.7559 64.5375L90.4565 64.6033L90.1572 64.6695L89.8441 64.7223L89.5584 64.7752L89.2453 64.8151L88.9326 64.8414L88.6332 64.868L88.3065 64.8813H88.0071H87.6807L87.3813 64.868L87.0549 64.8414L86.7556 64.8151L86.4425 64.7752L86.1431 64.7223L85.8437 64.6695L85.531 64.6033L85.2586 64.5375L84.9592 64.4713L84.6873 64.3785L84.4016 64.2728L84.1429 64.1671L83.8709 64.048L83.6122 63.9423L83.3809 63.81L83.1364 63.6647L82.9321 63.5194L82.7282 63.3871L82.5376 63.2285L82.3744 63.0695L82.2108 62.9109L82.0613 62.7656L81.9388 62.5937L81.83 62.4218L81.7345 62.2633L80.1699 59.2881L80.2787 59.5128L80.4286 59.711L80.5918 59.9228L80.755 60.121L80.9593 60.3195L81.1769 60.5176L81.4082 60.6895L81.6668 60.8747L81.9251 61.06L82.2245 61.2185L82.5239 61.3904L82.8503 61.549L83.1634 61.6814L83.5034 61.8133L83.8435 61.9324L84.1973 62.0514L84.5648 62.1442L84.9186 62.2366L85.286 62.3161L85.6805 62.369L86.048 62.4352L86.4288 62.488L86.8237 62.5142L87.2181 62.5538L87.5989 62.5671H88.0071H88.3883L88.7827 62.5538L89.1776 62.5142L89.5584 62.488L89.9396 62.4352L90.3341 62.369L90.7015 62.3161L91.0686 62.2366L91.4498 62.1442L91.8036 62.0514L92.1436 61.9324L92.4974 61.8133L92.8238 61.6814L93.1643 61.549L93.4633 61.3904L93.7764 61.2185L94.062 61.06L94.3477 60.8747L94.579 60.6895L94.824 60.5176L95.0283 60.3195L95.2322 60.121L95.4091 59.9228L95.559 59.711L95.7084 59.5128L95.8309 59.2881Z" fill="#3D566E"/>
<path fill-rule="evenodd" clip-rule="evenodd" d="M93.4599 62.8983C95.6278 61.5806 96.3187 59.7103 95.4922 58.0526L93.9475 54.879L93.8391 54.6948L93.7308 54.5249L93.5952 54.3407L93.4599 54.1703L93.297 53.9861L93.1209 53.8162L92.9315 53.6606L92.7281 53.5045L92.5114 53.3488L92.2675 53.1927L92.0235 53.0513L91.7663 52.9238L91.5087 52.7962L91.2379 52.6829L90.9534 52.5835L90.6685 52.4845L90.384 52.3855L90.0995 52.3146L89.8014 52.2437L89.5169 52.187L89.2188 52.1446L88.9207 52.1018L88.6226 52.0595L88.3249 52.0452L88.0131 52.0309L87.715 52.0171L87.4032 52.0309L87.1051 52.0452L86.7937 52.0595L86.4956 52.1018L86.1975 52.1446L85.8993 52.187L85.6149 52.2437L85.3304 52.3146L85.0459 52.3855L84.7614 52.4845L84.4765 52.5835L84.2057 52.6829L83.9212 52.7962L83.6636 52.9238L83.4064 53.0513L83.1625 53.1927L82.9321 53.3488L82.7018 53.5045L82.4984 53.6606L82.309 53.8162L82.1329 53.9861L81.9836 54.1703L81.8348 54.3407L81.6991 54.5249L81.5908 54.6948L81.4957 54.879L79.9513 58.0526C79.1248 59.7103 79.8021 61.5806 81.97 62.8983C85.1676 64.7968 90.2894 64.7968 93.4599 62.8983Z" fill="#2C3E50"/>
<path fill-rule="evenodd" clip-rule="evenodd" d="M95.8307 58.5462C95.7761 58.2877 95.6807 58.0567 95.5578 57.8118L94.0011 54.7648L93.8919 54.588L93.7827 54.4248L93.6465 54.248L93.5098 54.0844L93.3461 53.9076L93.1686 53.7444L92.9773 53.595L92.7723 53.4451L92.554 53.2957L92.3081 53.1458L92.0623 53.0101L91.8031 52.8876L91.5435 52.7651L91.2706 52.6564L90.9839 52.5609L90.6973 52.4658L90.4102 52.3708L90.1235 52.3027L89.8231 52.2346L89.5364 52.1802L89.236 52.1396L88.936 52.0985L88.6355 52.0578L88.3351 52.0441L88.0209 52.0304L87.7205 52.0171L87.4068 52.0304L87.1063 52.0441L86.7922 52.0578L86.4917 52.0985L86.1913 52.1396L85.8909 52.1802L85.6042 52.2346L85.3176 52.3027L85.0309 52.3708L84.7442 52.4658L84.4575 52.5609L84.1842 52.6564L83.8975 52.7651L83.6384 52.8876L83.3788 53.0101L83.1329 53.1458L82.9008 53.2957L82.6687 53.4451L82.4642 53.595L82.2729 53.7444L82.0954 53.9076L81.945 54.0844L81.795 54.248L81.6721 54.4248L81.5491 54.588L81.4537 54.7648L79.897 57.8118C79.7605 58.0567 79.665 58.2877 79.6104 58.5462C79.8425 59.5392 80.6072 60.5188 81.9317 61.2669C85.1129 63.1033 90.274 63.1033 93.469 61.2669C94.8343 60.5052 95.6122 59.5392 95.8307 58.5462Z" fill="#3D566E"/>
<path fill-rule="evenodd" clip-rule="evenodd" d="M65.3734 31.3223C65.8207 31.3223 66.1867 31.6891 66.1867 32.1544C66.1867 32.6196 65.8343 33.0002 65.3734 33.0002H56.3728C55.9391 33.0002 55.5596 32.6337 55.5596 32.1544C55.5596 31.7032 55.9255 31.3223 56.3728 31.3223H65.3734Z" fill="#FFED00"/>
<path fill-rule="evenodd" clip-rule="evenodd" d="M72.1059 14.8957C72.4167 15.1863 72.4167 15.7016 72.1059 15.9923C71.781 16.2961 71.244 16.2961 70.9191 15.9923L64.1948 9.71712C63.8698 9.41327 63.8697 8.91147 64.1805 8.60762C64.5055 8.31699 65.0425 8.31699 65.3674 8.60762L72.1059 14.8957Z" fill="#FFED00"/>
<path fill-rule="evenodd" clip-rule="evenodd" d="M88.5601 9.82913C88.5601 10.268 88.3084 10.6271 88.0007 10.6271C87.6931 10.6271 87.4414 10.2813 87.4414 9.82913V0.797988C87.4414 0.359077 87.6931 0 88.0007 0C88.3084 0 88.5601 0.345776 88.5601 0.797988V9.82913Z" fill="#FFED00"/>
<path fill-rule="evenodd" clip-rule="evenodd" d="M110.627 33.0002C110.193 33.0002 109.813 32.6336 109.813 32.1541C109.813 31.7029 110.179 31.3223 110.627 31.3223H119.641C120.075 31.3223 120.441 31.6888 120.441 32.1541C120.441 32.6195 120.088 33.0002 119.641 33.0002H110.627Z" fill="#FFED00"/>
<path fill-rule="evenodd" clip-rule="evenodd" d="M105.546 15.9923C105.243 16.2961 104.728 16.2961 104.438 15.9923C104.148 15.7016 104.148 15.1863 104.438 14.8957L110.716 8.60762C111.019 8.31699 111.534 8.31699 111.824 8.60762C112.127 8.91147 112.127 9.41327 111.824 9.71712L105.546 15.9923Z" fill="#FFED00"/>
<path fill-rule="evenodd" clip-rule="evenodd" d="M104.439 25.2308C106.725 32.5145 104.236 37.5071 101.667 41.9788C100.044 44.7907 98.8942 45.1888 98.0016 48.3985C97.4741 50.3326 97.7444 52.3761 96.162 53.8575C93.6465 56.1894 91.0094 56.4365 88.3181 56.4914H88.0069H87.6961C84.9912 56.4228 82.3402 56.1894 79.8518 53.8575C78.2559 52.3761 78.54 50.3189 77.999 48.3985C77.1064 45.2025 75.9569 44.7907 74.334 41.9788C71.7643 37.5071 69.2756 32.5282 71.5612 25.2308C73.901 17.7277 80.9473 13.9829 88.0205 13.9829C95.0396 13.9829 102.099 17.7277 104.439 25.2308Z" fill="#EDCC0F"/>
<path fill-rule="evenodd" clip-rule="evenodd" d="M92.7511 59.8147C95.3654 58.2933 95.3654 55.8227 92.7511 54.2873C90.1369 52.7519 85.8769 52.7519 83.2488 54.2873C80.6345 55.8087 80.6345 58.2793 83.2488 59.8147C85.863 61.3501 90.1369 61.3501 92.7511 59.8147Z" fill="#9C9C9C"/>
<path fill-rule="evenodd" clip-rule="evenodd" d="M93.4599 60.1558C95.6278 58.9112 96.3187 57.1123 95.4922 55.5295L93.9475 52.5124L93.8391 52.3365L93.7308 52.1607L93.5952 51.9984L93.4599 51.8225L93.297 51.6603L93.1209 51.498L92.9315 51.349L92.7281 51.1868L92.5114 51.0381L92.2675 50.9027L92.0235 50.7673L91.7663 50.6323L91.5087 50.5237L91.2379 50.4156L90.9534 50.3074L90.6685 50.2129L90.384 50.1315L90.0995 50.0638L89.8014 49.9961L89.5169 49.942L89.2188 49.888L88.9207 49.8475L88.6226 49.8202L88.3249 49.807L88.0131 49.7798H87.715H87.4032L87.1051 49.807L86.7937 49.8202L86.4956 49.8475L86.1975 49.888L85.8993 49.942L85.6149 49.9961L85.3304 50.0638L85.0459 50.1315L84.7614 50.2129L84.4765 50.3074L84.2057 50.4156L83.9212 50.5237L83.6636 50.6323L83.4064 50.7673L83.1625 50.9027L82.9321 51.0381L82.7018 51.1868L82.4984 51.349L82.309 51.498L82.1329 51.6603L81.9836 51.8225L81.8348 51.9984L81.6991 52.1607L81.5908 52.3365L81.4957 52.5124L79.9513 55.5295C79.1248 57.1123 79.8021 58.9112 81.97 60.1558C85.1676 61.9821 90.2894 61.9821 93.4599 60.1558Z" fill="#2C3E50"/>
<path fill-rule="evenodd" clip-rule="evenodd" d="M95.8307 56.3093C95.7761 56.0644 95.6807 55.8197 95.5578 55.5612L94.0011 52.5275L93.8919 52.3507L93.7827 52.1738L93.6465 52.0107L93.5098 51.8338L93.3461 51.6707L93.1686 51.5075L92.9773 51.3577L92.7723 51.1945L92.554 51.0451L92.3081 50.9089L92.0623 50.7728L91.8031 50.637L91.5435 50.5278L91.2706 50.4191L90.9839 50.3103L90.6973 50.2153L90.4102 50.1335L90.1235 50.0654L89.8231 49.9973L89.5364 49.9429L89.236 49.8885L88.936 49.8479L88.6355 49.8205L88.3351 49.8072L88.0209 49.7798H87.7205H87.4068L87.1063 49.8072L86.7922 49.8205L86.4917 49.8479L86.1913 49.8885L85.8909 49.9429L85.6042 49.9973L85.3176 50.0654L85.0309 50.1335L84.7442 50.2153L84.4575 50.3103L84.1842 50.4191L83.8975 50.5278L83.6384 50.637L83.3788 50.7728L83.1329 50.9089L82.9008 51.0451L82.6687 51.1945L82.4642 51.3577L82.2729 51.5075L82.0954 51.6707L81.945 51.8338L81.795 52.0107L81.6721 52.1738L81.5491 52.3507L81.4537 52.5275L79.897 55.5612C79.7605 55.8197 79.665 56.0644 79.6104 56.3093C79.8425 57.3023 80.6072 58.2815 81.9317 59.0296C85.1129 60.866 90.274 60.866 93.469 59.0296C94.8343 58.2815 95.6122 57.3159 95.8307 56.3093Z" fill="#3D566E"/>
<path fill-rule="evenodd" clip-rule="evenodd" d="M92.7511 57.0178C95.3654 55.4964 95.3654 53.0258 92.7511 51.4904C90.1369 49.955 85.8769 49.955 83.2488 51.4904C80.6345 53.0119 80.6345 55.4824 83.2488 57.0178C85.863 58.5532 90.1369 58.5532 92.7511 57.0178Z" fill="#9C9C9C"/>
<path fill-rule="evenodd" clip-rule="evenodd" d="M95.8307 52.0171V54.8425L95.8036 55.0701L95.7499 55.2978L95.6826 55.5119L95.6154 55.7264L95.5079 55.9406L95.3869 56.1682L95.2393 56.3823L95.0913 56.5834L94.9166 56.7975L94.7152 56.9851L94.5003 57.1857L94.2719 57.3868L94.0028 57.5609L93.7477 57.7485L93.452 57.9226L93.1563 58.0832L92.8471 58.2438L92.5112 58.3913L92.1885 58.5249L91.8395 58.6455L91.4901 58.7525L91.1406 58.8596L90.7642 58.9536L90.4012 59.0337L90.0387 59.1007L89.6487 59.1677L89.2726 59.2078L88.883 59.2347L88.493 59.2613L88.1034 59.2748L87.7269 59.2883L87.3237 59.2748L86.9341 59.2613L86.5581 59.2347L86.1549 59.2078L85.7784 59.1677L85.4024 59.1007L85.0259 59.0337L84.6629 58.9536L84.3004 58.8596L83.9374 58.7525L83.588 58.6455L83.2521 58.5249L82.9163 58.3913L82.5935 58.2438L82.2712 58.0832L81.9755 57.9226L81.6798 57.7485L81.4243 57.5609L81.1692 57.3868L80.9408 57.1857L80.7254 56.9851L80.5376 56.7975L80.3494 56.5834L80.1882 56.3823L80.0537 56.1682L79.9327 55.9406L79.8388 55.7264L79.7445 55.5119L79.6772 55.2978L79.637 55.0701L79.6104 54.8425V52.0171L79.637 52.2582L79.6772 52.4858L79.7445 52.7L79.8388 52.9141L79.9327 53.1286L80.0537 53.3563L80.1882 53.5704L80.3494 53.7714L80.5376 53.9856L80.7254 54.1862L80.9408 54.3738L81.1692 54.5749L81.4243 54.7489L81.6798 54.9361L81.9755 55.1102L82.2712 55.2843L82.5935 55.4318L82.9163 55.5789L83.2521 55.713L83.588 55.8335L83.9374 55.9406L84.3004 56.0476L84.6629 56.1416L85.0259 56.2217L85.4024 56.2888L85.7784 56.3558L86.1549 56.3958L86.5581 56.4228L86.9341 56.4494L87.3237 56.4628L87.7269 56.4763L88.1034 56.4628L88.493 56.4494L88.883 56.4228L89.2726 56.3958L89.6487 56.3558L90.0387 56.2888L90.4012 56.2217L90.7642 56.1416L91.1406 56.0476L91.4901 55.9406L91.8395 55.8335L92.1885 55.713L92.5112 55.5789L92.8471 55.4318L93.1563 55.2843L93.452 55.1102L93.7477 54.9361L94.0028 54.7489L94.2719 54.5749L94.5003 54.3738L94.7152 54.1862L94.9166 53.9856L95.0913 53.7714L95.2393 53.5704L95.3869 53.3563L95.5079 53.1286L95.6154 52.9141L95.6826 52.7L95.7499 52.4858L95.8036 52.2582L95.8307 52.0171Z" fill="#9C9C9C"/>
<path fill-rule="evenodd" clip-rule="evenodd" d="M93.4526 48.3817C96.6234 50.233 96.6234 53.2413 93.4526 55.0926C90.2952 56.9576 85.1492 56.9576 81.9784 55.0926C78.821 53.2413 78.821 50.233 81.9784 48.3817C85.1492 46.5167 90.2952 46.5167 93.4526 48.3817Z" fill="#C49F0C"/>
<path fill-rule="evenodd" clip-rule="evenodd" d="M95.8307 52.0171V54.8425L95.8036 55.0701L95.7499 55.2978L95.6826 55.5119L95.6154 55.7264L95.5079 55.9406L95.3869 56.1682L95.2393 56.3823L95.0913 56.5834L94.9166 56.7975L94.7152 56.9851L94.5003 57.1857L94.2719 57.3868L94.0028 57.5609L93.7477 57.7485L93.452 57.9226L93.1563 58.0832L92.8471 58.2438L92.5112 58.3913L92.1885 58.5249L91.8395 58.6455L91.4901 58.7525L91.1406 58.8596L90.7642 58.9536L90.4012 59.0337L90.0387 59.1007L89.6487 59.1677L89.2726 59.2078L88.883 59.2347L88.493 59.2613L88.1034 59.2748L87.7269 59.2883L87.3237 59.2748L86.9341 59.2613L86.5581 59.2347L86.1549 59.2078L85.7784 59.1677L85.4024 59.1007L85.0259 59.0337L84.6629 58.9536L84.3004 58.8596L83.9374 58.7525L83.588 58.6455L83.2521 58.5249L82.9163 58.3913L82.5935 58.2438L82.2712 58.0832L81.9755 57.9226L81.6798 57.7485L81.4243 57.5609L81.1692 57.3868L80.9408 57.1857L80.7254 56.9851L80.5376 56.7975L80.3494 56.5834L80.1882 56.3823L80.0537 56.1682L79.9327 55.9406L79.8388 55.7264L79.7445 55.5119L79.6772 55.2978L79.637 55.0701L79.6104 54.8425V52.0171L79.637 52.2582L79.6772 52.4858L79.7445 52.7L79.8388 52.9141L79.9327 53.1286L80.0537 53.3563L80.1882 53.5704L80.3494 53.7714L80.5376 53.9856L80.7254 54.1862L80.9408 54.3738L81.1692 54.5749L81.4243 54.7489L81.6798 54.9361L81.9755 55.1102L82.2712 55.2843L82.5935 55.4318L82.9163 55.5789L83.2521 55.713L83.588 55.8335L83.9374 55.9406L84.3004 56.0476L84.6629 56.1416L85.0259 56.2217L85.4024 56.2888L85.7784 56.3558L86.1549 56.3958L86.5581 56.4228L86.9341 56.4494L87.3237 56.4628L87.7269 56.4763L88.1034 56.4628L88.493 56.4494L88.883 56.4228L89.2726 56.3958L89.6487 56.3558L90.0387 56.2888L90.4012 56.2217L90.7642 56.1416L91.1406 56.0476L91.4901 55.9406L91.8395 55.8335L92.1885 55.713L92.5112 55.5789L92.8471 55.4318L93.1563 55.2843L93.452 55.1102L93.7477 54.9361L94.0028 54.7489L94.2719 54.5749L94.5003 54.3738L94.7152 54.1862L94.9166 53.9856L95.0913 53.7714L95.2393 53.5704L95.3869 53.3563L95.5079 53.1286L95.6154 52.9141L95.6826 52.7L95.7499 52.4858L95.8036 52.2582L95.8307 52.0171Z" fill="#2C3E50"/>
<path fill-rule="evenodd" clip-rule="evenodd" d="M95.8307 52.0171V53.7387L95.8036 53.9656L95.7499 54.179L95.6826 54.4059L95.6154 54.6327L95.5079 54.8331L95.3869 55.06L95.2393 55.2734L95.0913 55.4738L94.9166 55.6872L94.7152 55.8741L94.5003 56.0741L94.2719 56.2745L94.0028 56.448L93.7477 56.635L93.452 56.8085L93.1563 56.9685L92.8471 57.1286L92.5112 57.2756L92.1885 57.4088L91.8395 57.5155L91.4901 57.6357L91.1406 57.7424L90.7642 57.8226L90.4012 57.9159L90.0387 57.9827L89.6487 58.036L89.2726 58.0764L88.883 58.1163L88.493 58.1428L88.1034 58.1562L87.7269 58.1696L87.3237 58.1562L86.9341 58.1428L86.5581 58.1163L86.1549 58.0764L85.7784 58.036L85.4024 57.9827L85.0259 57.9159L84.6629 57.8226L84.3004 57.7424L83.9374 57.6357L83.588 57.5155L83.2521 57.4088L82.9163 57.2756L82.5935 57.1286L82.2712 56.9685L81.9755 56.8085L81.6798 56.635L81.4243 56.448L81.1692 56.2745L80.9408 56.0741L80.7254 55.8741L80.5376 55.6872L80.3494 55.4738L80.1882 55.2734L80.0537 55.06L79.9327 54.8331L79.8388 54.6327L79.7445 54.4059L79.6772 54.179L79.637 53.9656L79.6104 53.7387V52.0171L79.637 52.2574L79.6772 52.4843L79.7445 52.6977L79.8388 52.9111L79.9327 53.1249L80.0537 53.3518L80.1882 53.5652L80.3494 53.7656L80.5376 53.979L80.7254 54.179L80.9408 54.3659L81.1692 54.5663L81.4243 54.7398L81.6798 54.9264L81.9755 55.0999L82.2712 55.2734L82.5935 55.4204L82.9163 55.567L83.2521 55.7006L83.588 55.8208L83.9374 55.9275L84.3004 56.0342L84.6629 56.1279L85.0259 56.2077L85.4024 56.2745L85.7784 56.3413L86.1549 56.3812L86.5581 56.4081L86.9341 56.4346L87.3237 56.448L87.7269 56.4615L88.1034 56.448L88.493 56.4346L88.883 56.4081L89.2726 56.3812L89.6487 56.3413L90.0387 56.2745L90.4012 56.2077L90.7642 56.1279L91.1406 56.0342L91.4901 55.9275L91.8395 55.8208L92.1885 55.7006L92.5112 55.567L92.8471 55.4204L93.1563 55.2734L93.452 55.0999L93.7477 54.9264L94.0028 54.7398L94.2719 54.5663L94.5003 54.3659L94.7152 54.179L94.9166 53.979L95.0913 53.7656L95.2393 53.5652L95.3869 53.3518L95.5079 53.1249L95.6154 52.9111L95.6826 52.6977L95.7499 52.4843L95.8036 52.2574L95.8307 52.0171Z" fill="#3D566E"/>
<path fill-rule="evenodd" clip-rule="evenodd" d="M95.8307 52.0171V53.8539C94.0971 55.5073 91.6778 56.3474 87.8479 56.3867C87.8075 56.3867 87.7672 56.3867 87.7269 56.3867L88.0898 56.3735L88.4798 56.3603L88.8559 56.3343L89.2455 56.2946L89.622 56.2554L89.9981 56.1897L90.361 56.1241L90.724 56.0456L91.0865 55.9535L91.4359 55.8486L91.7853 55.7304L92.1216 55.6123L92.444 55.4813L92.7663 55.3368L93.0756 55.1794L93.3712 55.0088L93.6534 54.8382L93.9224 54.6544L94.1911 54.471L94.4195 54.274L94.6479 54.0774L94.8497 53.8804L95.0244 53.6705L95.1856 53.4603L95.3332 53.2505L95.4542 53.0274L95.5617 52.8044L95.6424 52.5945L95.7097 52.3715L95.7634 52.1484L95.8307 52.0171ZM79.6104 53.8279V52.0171L79.637 52.2534L79.6772 52.4764L79.7445 52.6994L79.8388 52.9093L79.9327 53.1323L80.0672 53.3554L80.2013 53.5656L80.3629 53.7754L80.5507 53.9853L80.7525 54.1823L80.9674 54.3789L81.2094 54.5759L81.4649 54.7593L81.7335 54.9431L82.0157 55.1137L82.3113 55.2843L82.6206 55.4417L82.9429 55.5863L83.2657 55.7176L83.6016 55.8353L83.951 55.9535L84.3004 56.0588L84.6629 56.1505L85.0259 56.229L85.3888 56.2946L85.7649 56.3603L86.1414 56.3996L86.531 56.4392L86.9075 56.4652L87.2971 56.4785L87.66 56.4917C83.8032 56.3998 81.3439 55.5469 79.6104 53.8279Z" fill="#A8890D"/>
<path fill-rule="evenodd" clip-rule="evenodd" d="M90.7971 48.1016V50.5448V50.5718V50.5849L90.783 50.5984L90.7693 50.6255L90.7552 50.639L90.741 50.6521L90.7128 50.6656L90.6991 50.6927L86.3823 53.0818H86.3545L86.3263 53.0953L86.2985 53.1088L86.2702 53.1224H86.2283H86.2001L86.1582 53.1355H86.1441H86.1022L86.0739 53.1224H86.0461H86.0038L85.976 53.1088L85.9477 53.0953L85.9199 53.0818H85.8917L85.8639 53.0552L85.5555 52.8807L84.7566 52.4374L84.7288 52.4243L84.7147 52.4108L84.6864 52.3973L84.6723 52.3706L84.6586 52.3571V52.3436L84.6445 52.317V52.3034V49.8467V49.8602L84.6586 49.8873V49.9004L84.6723 49.9274L84.6864 49.9409L84.7147 49.954L84.7288 49.9676L84.7566 49.9811L85.5555 50.4239L85.8639 50.5984L85.8917 50.6255L85.9199 50.639H85.9477L85.976 50.6521L86.0038 50.6656H86.0461L86.0739 50.6791H86.1022H86.1441H86.1582H86.2001L86.2283 50.6656H86.2702L86.2985 50.6521L86.3263 50.639H86.3545L86.3823 50.6255L90.6991 48.2359L90.7128 48.2224L90.741 48.2093L90.7552 48.1823L90.7693 48.1687L90.783 48.1552L90.7971 48.1286V48.1151V48.1016Z" fill="#A8890D"/>
<path fill-rule="evenodd" clip-rule="evenodd" d="M89.5564 47.6019L90.692 48.2222C90.8321 48.3014 90.8321 48.4201 90.692 48.4993L86.3753 50.8489C86.2351 50.9149 86.0249 50.9149 85.8847 50.8489L85.8569 50.8223L85.5486 50.6507L84.7496 50.2153C84.6095 50.1493 84.6095 50.0303 84.7496 49.9511L89.0663 47.6019C89.1924 47.5227 89.4163 47.5227 89.5564 47.6019Z" fill="#E0D210"/>
<path fill-rule="evenodd" clip-rule="evenodd" d="M84.0546 35.1553C83.7766 35.342 83.5254 35.1984 83.5254 34.8393C83.5254 34.4803 83.5913 33.9633 83.8825 33.791L92.1699 28.5778C92.4479 28.3911 92.4745 28.7359 92.4745 29.095C92.4745 29.454 92.3154 29.9995 92.0374 30.1718L84.0546 35.1553Z" fill="#A8890D"/>
<path fill-rule="evenodd" clip-rule="evenodd" d="M90.1042 48.162C90.1042 48.2442 90.0472 48.3269 89.9479 48.3955C89.735 48.5189 89.3946 48.5189 89.1817 48.3955C89.0824 48.3406 89.0253 48.272 89.0253 48.2034C89.0395 47.6823 89.0536 47.1611 89.0678 46.64C89.1246 43.8426 89.1956 41.4703 89.5646 39.0158C90.0045 36.1361 90.7852 33.1469 92.0341 29.2251C92.1476 28.8686 92.4457 28.5533 92.7154 28.5259C92.985 28.5121 93.0984 28.7999 92.999 29.1427C91.7785 32.9822 91.0263 35.8893 90.6005 38.6592C90.2174 41.1686 90.0899 43.5823 90.0899 46.5031C90.0899 47.0653 90.1042 47.6135 90.1042 48.162ZM83.0083 34.7239C82.8948 34.4771 83.0223 34.0792 83.292 33.8049C83.5616 33.5307 83.874 33.5035 83.9875 33.7229C85.2364 36.2597 85.96 38.4264 86.3432 40.8261C86.698 43.0475 86.7973 45.4606 86.7689 48.5733C86.7689 49.0533 86.7689 49.5334 86.7689 50.0133C86.7689 50.0956 86.7265 50.1778 86.613 50.2464C86.4001 50.3698 86.0736 50.3698 85.8607 50.2464C85.7472 50.1778 85.7043 50.1094 85.7043 50.0271C85.7043 47.1749 85.7755 44.4325 85.3072 41.594C84.924 39.2766 84.2288 37.1922 83.0083 34.7239Z" fill="#C49F0C"/>
<path fill-rule="evenodd" clip-rule="evenodd" d="M85.2567 35.3886C85.1844 35.8047 84.8661 36.2497 84.548 36.3358C84.2298 36.4362 84.0273 36.1494 84.0996 35.7333L84.5917 32.8493C84.664 32.4189 84.9818 31.9883 85.2999 31.9022C85.618 31.8018 85.8206 32.0743 85.7483 32.5047L85.2567 35.3886Z" fill="#FFED00"/>
<path fill-rule="evenodd" clip-rule="evenodd" d="M86.8646 34.3842C86.7966 34.7636 86.4971 35.143 86.1979 35.2189C85.8986 35.3074 85.7085 35.0669 85.7765 34.7003L86.3477 31.6151C86.4157 31.2358 86.7016 30.8563 87.0144 30.7804C87.3001 30.6919 87.5041 30.9447 87.4225 31.3114L86.8646 34.3842Z" fill="#FFED00"/>
<path fill-rule="evenodd" clip-rule="evenodd" d="M88.2604 33.8216C88.1746 34.2024 87.8144 34.5834 87.4197 34.6595C87.0592 34.7484 86.8017 34.5069 86.9047 34.1261L87.7455 30.496C87.8141 30.1279 88.192 29.7343 88.5868 29.6581C88.9472 29.5819 89.1875 29.823 89.1017 30.1911L88.2604 33.8216Z" fill="#FFED00"/>
<path fill-rule="evenodd" clip-rule="evenodd" d="M89.6643 32.6007C89.5961 33.0132 89.2962 33.454 88.9826 33.5393C88.6962 33.6389 88.5052 33.3545 88.5734 32.9419L89.1328 29.4709C89.2146 29.0583 89.5009 28.6315 89.8145 28.5461C90.101 28.4465 90.2919 28.7166 90.2237 29.1292L89.6643 32.6007Z" fill="#FFED00"/>
<path fill-rule="evenodd" clip-rule="evenodd" d="M91.4086 31.4844C91.3363 31.9018 91.0184 32.348 90.7003 32.4199C90.3822 32.5207 90.1797 32.2474 90.252 31.83L90.7436 28.9368C90.8159 28.5051 91.1341 28.0736 91.4523 27.9872C91.7704 27.8865 91.9729 28.1598 91.9006 28.5916L91.4086 31.4844Z" fill="#FFED00"/>
<path fill-rule="evenodd" clip-rule="evenodd" d="M92.6005 30.4839C92.5231 30.8446 92.1982 31.2302 91.842 31.3048C91.5169 31.3919 91.2842 31.1429 91.3771 30.7822L91.7953 28.7928C91.8727 28.4321 92.198 28.0466 92.5542 27.9844C92.8793 27.8974 93.0961 28.1335 93.0187 28.4941L92.6005 30.4839Z" fill="#FFED00"/>
<path fill-rule="evenodd" clip-rule="evenodd" d="M83.8057 35.517C83.7435 35.89 83.5262 36.2632 83.288 36.3378C83.0705 36.4249 82.9255 36.1884 82.9773 35.8278L83.2567 33.8383C83.3085 33.4777 83.5261 33.0921 83.7643 33.0175C83.9817 32.9304 84.1267 33.179 84.0749 33.5397L83.8057 35.517Z" fill="#FFED00"/>
<path fill-rule="evenodd" clip-rule="evenodd" d="M86.3219 26.3518C80.4059 27.0155 75.6649 30.6591 73.5335 35.2372C73.1509 34.6006 72.8091 33.8693 72.6178 32.9753C70.91 25.3226 77.2362 17.2361 86.3219 16.2202V26.3518Z" fill="#FFED00"/>
<path fill-rule="evenodd" clip-rule="evenodd" d="M85.8162 34.9497C85.7439 35.3263 85.4256 35.7031 85.1075 35.7784C84.7894 35.8663 84.5869 35.6275 84.6592 35.2508L85.1512 32.7276C85.2235 32.3636 85.5414 31.9743 85.874 31.8989C86.1777 31.8111 86.3801 32.0624 86.3078 32.4265L85.8162 34.9497Z" fill="#FFF896"/>
<path fill-rule="evenodd" clip-rule="evenodd" d="M87.2237 34.2772C87.1335 34.69 86.7371 35.1314 86.3402 35.2168C85.9434 35.3165 85.6908 35.0461 85.781 34.6191L86.5384 31.1453C86.6286 30.7325 87.0256 30.3054 87.4224 30.22C87.8193 30.1346 88.0719 30.391 87.9817 30.8039L87.2237 34.2772Z" fill="#FFF896"/>
<path fill-rule="evenodd" clip-rule="evenodd" d="M88.4742 33.7251C88.4096 34.1489 88.1385 34.5728 87.8417 34.6576C87.5706 34.7565 87.39 34.4883 87.4545 34.0786L88.087 30.038C88.1515 29.6142 88.4223 29.1902 88.7191 29.1055C88.9901 29.0066 89.1708 29.2753 89.1063 29.6991L88.4742 33.7251Z" fill="#FFF896"/>
<path fill-rule="evenodd" clip-rule="evenodd" d="M90.2239 32.5998C90.142 33.0265 89.8558 33.4533 89.5421 33.5386C89.2557 33.6382 89.0648 33.3676 89.133 32.9409L89.692 29.4849C89.7738 29.0582 90.0604 28.6314 90.3741 28.5461C90.6605 28.4465 90.8514 28.7166 90.7832 29.1433L90.2239 32.5998Z" fill="#FFF896"/>
<path fill-rule="evenodd" clip-rule="evenodd" d="M91.578 31.4735C91.5298 31.8895 91.3176 32.334 91.1055 32.42C90.8935 32.5205 90.7584 32.248 90.8066 31.8176L91.1344 28.9341C91.1922 28.5181 91.3948 28.0732 91.6165 27.9872C91.819 27.8867 91.9539 28.1592 91.9057 28.5896L91.578 31.4735Z" fill="#FFF896"/>
<path fill-rule="evenodd" clip-rule="evenodd" d="M93.1578 30.3434C93.0802 30.7786 92.7539 31.2139 92.3967 31.3009C92.0706 31.4025 91.8532 31.127 91.9308 30.6918L92.3502 28.3854C92.4279 27.9502 92.7542 27.5148 93.1114 27.4278C93.4375 27.3263 93.6549 27.6018 93.5772 28.037L93.1578 30.3434Z" fill="#FFF896"/>
<path fill-rule="evenodd" clip-rule="evenodd" d="M84.2063 35.3785C84.1288 35.7993 83.8034 36.2488 83.4472 36.3358C83.1219 36.4374 82.9051 36.1473 82.9825 35.7266L83.4008 33.4051C83.4783 32.9843 83.8032 32.549 84.1595 32.462C84.4847 32.3604 84.717 32.636 84.6241 33.0713L84.2063 35.3785Z" fill="#FFF896"/>
</svg>
