<svg width="180" height="264" viewBox="0 0 180 264" fill="none" xmlns="http://www.w3.org/2000/svg">
<path fill-rule="evenodd" clip-rule="evenodd" d="M153.623 174.613C188.792 194.911 188.792 227.799 153.623 248.098C118.455 268.396 61.4826 268.396 26.3595 248.098C-8.76367 227.799 -8.80929 194.911 26.3595 174.613C61.5282 154.315 118.455 154.269 153.623 174.613Z" fill="#E9E9EB"/>
<path fill-rule="evenodd" clip-rule="evenodd" d="M140.186 182.326C167.874 198.383 167.874 224.338 140.186 240.303C112.452 256.359 67.4761 256.359 39.7425 240.303C12.0546 224.292 12.0546 198.337 39.7425 182.326C67.4761 166.361 112.407 166.361 140.186 182.326Z" fill="#DDDEE1"/>
<path fill-rule="evenodd" clip-rule="evenodd" d="M126.741 190.08C147.085 201.803 147.085 220.824 126.741 232.593C106.442 244.361 73.5086 244.361 53.2102 232.593C32.8661 220.824 32.8661 201.803 53.2102 190.08C73.5086 178.402 106.397 178.402 126.741 190.08Z" fill="#D1D2D6"/>
<path fill-rule="evenodd" clip-rule="evenodd" d="M46.7829 196.557C48.1513 195.599 47.6954 194.458 47.6954 192.588C47.6954 189.988 48.06 177.991 47.6494 179.177C46.8284 181.504 41.3094 180.957 41.3094 178.95C41.3094 181.322 40.8528 195.006 41.537 195.964C42.4493 197.378 45.5057 197.424 46.7829 196.557Z" fill="#9BC957"/>
<path fill-rule="evenodd" clip-rule="evenodd" d="M46.7577 196.599H46.8036L46.8488 196.554L46.94 196.508L46.986 196.462V180.042V180.087H46.94L46.8488 180.133L46.8036 180.178L46.7577 180.224H46.7124L46.6212 180.269L46.5753 180.315H46.4841H46.4389L46.393 180.36H46.3018L46.2558 180.406H46.1647L46.1194 180.451H46.0282L45.9823 180.497H45.8911L45.8459 180.543H45.754L45.6628 180.589H45.6176H45.5264H45.4805V197.055H45.5264H45.6176L45.6628 197.01H45.754H45.8459L45.8911 196.964H45.9823L46.0282 196.919H46.1194L46.1647 196.873L46.2558 196.827H46.3018L46.393 196.782H46.4389L46.4841 196.736H46.5753L46.6212 196.69L46.7124 196.645L46.7577 196.599Z" fill="#AEDE66"/>
<path fill-rule="evenodd" clip-rule="evenodd" d="M43.5566 180.644L43.4654 180.599H43.3742H43.3283L43.2371 180.553H43.1912L43.1 180.508H43.0088L42.9636 180.462H42.8724L42.8265 180.417H42.7353L42.69 180.371H42.5989L42.5529 180.325H42.4618H42.4158L42.3706 180.28L42.2794 180.234H42.2335L42.1882 180.188L42.1423 180.143L42.097 180.097H42.0059V196.472L42.097 196.518L42.1423 196.564L42.1882 196.61H42.2335L42.2794 196.656L42.3706 196.701L42.4158 196.747H42.4618L42.5529 196.792H42.5989L42.69 196.838H42.7353L42.8265 196.883L42.8724 196.929H42.9636L43.0088 196.974H43.1L43.1912 197.02H43.2371H43.3283L43.3742 197.065H43.4654H43.5566V197.111V180.644Z" fill="#80A648"/>
<path fill-rule="evenodd" clip-rule="evenodd" d="M37.88 112.677L37.9712 112.54L38.0171 112.404L38.1083 112.267L38.1542 112.176L38.2454 112.039L38.3818 111.947L38.473 111.902L38.6101 111.811L38.7013 111.765H38.7925L38.9296 111.72H39.0208L39.066 111.765L39.1572 111.811L45.452 115.46L45.4068 115.414L45.3608 115.368H45.2697H45.1332L45.0414 115.414L44.9502 115.46L44.8138 115.551L44.7226 115.643L44.6314 115.734L44.5402 115.825L44.4483 115.961L44.3572 116.053L44.266 116.19L44.2207 116.327L43.7642 117.467L43.2171 118.699L42.6241 120.021L41.9858 121.435L41.3016 123.032L40.5715 124.628L39.8414 126.271L39.066 128.004L37.9712 130.376L36.9223 132.839L35.8274 135.256L34.7326 137.766L33.6377 140.32L32.4977 142.783L31.4488 145.246L30.3992 147.71L29.3962 149.99L28.4378 152.271L27.5712 154.46L26.7506 156.513L26.0205 158.383L25.3363 160.162L24.7885 161.713L24.3786 163.127L23.9679 164.587L23.5573 166.092L23.2837 167.506L23.0102 168.92L22.8271 170.289L22.6907 171.611L22.5995 172.888V174.165L22.6448 175.944L22.8271 177.678L23.1014 179.274L23.5573 180.78L24.0591 182.194L24.6521 183.471L25.4275 184.611L26.2488 185.66L27.1153 186.573L28.1642 187.348L29.2591 187.987L22.9183 184.338L21.8242 183.699L20.8205 182.923L19.908 182.012L19.0415 180.962L18.3573 179.822L17.7183 178.499L17.2165 177.13L16.8066 175.626L16.5323 174.029L16.35 172.295L16.2588 170.517L16.3047 169.239L16.3959 167.962L16.5323 166.639L16.7154 165.225L16.943 163.857L17.2165 162.443L17.6272 160.983L18.0838 159.432L18.4944 158.064L19.0415 156.513L19.6797 154.78L20.4558 152.864L21.2312 150.811L22.143 148.621L23.0554 146.341L24.1043 144.014L25.108 141.597L26.2028 139.134L27.2977 136.625L28.3466 134.116L29.4874 131.607L30.5822 129.144L31.6764 126.727L32.726 124.355L33.5013 122.667L34.2308 120.979L34.9609 119.383L35.691 117.831L36.284 116.372L36.877 115.049L37.4693 113.818L37.88 112.677Z" fill="#88B04C"/>
<path fill-rule="evenodd" clip-rule="evenodd" d="M44.2052 116.317C44.342 115.952 44.6153 115.587 44.9346 115.405C45.2083 115.268 45.482 115.314 45.6188 115.542C46.8048 116.91 48.6753 118.963 50.7735 121.243C56.2929 127.219 63.4546 134.928 65.4617 139.307C66.6476 141.998 67.24 145.008 67.24 148.292C67.24 153.264 65.9178 158.738 63.5915 164.029C61.2651 169.275 57.981 174.43 53.9669 178.626C48.3107 184.647 41.5596 188.525 35.8578 189.072C31.8437 189.437 28.5596 188.159 26.2332 185.559C23.9069 182.959 22.584 178.991 22.584 174.064C22.584 170.78 23.177 167.086 24.363 163.026C26.4157 156.275 33.5311 140.31 39.0505 127.903C41.1487 123.296 43.0192 119.145 44.2052 116.317Z" fill="#9BC957"/>
<path fill-rule="evenodd" clip-rule="evenodd" d="M44.1665 185.153C44.1208 182.827 44.0301 180.591 43.9389 178.311C41.9318 178.082 22.6364 176.486 22.6364 176.076C22.6364 175.984 22.5912 175.802 22.5912 175.711C22.5912 175.711 22.4083 174.114 22.7276 174.068C25.6013 174.023 33.8579 175.072 37.3246 175.391C39.5597 175.62 41.7494 175.756 43.9389 175.847C44.1669 171.103 44.1669 166.634 43.9389 161.844C41.9318 161.57 25.3282 160.156 25.4651 159.883L26.1945 157.967C26.1033 157.921 38.0998 159.107 43.9841 159.335C44.2122 154.682 44.1669 150.075 44.03 145.377C42.8897 145.24 31.9422 144.419 31.9422 144.054C31.9422 143.963 32.7172 142.138 32.854 142.138C32.8084 142.093 40.5177 142.823 44.03 143.051C44.1213 139.721 43.7558 117.05 44.44 116.001C44.7137 115.545 45.3979 114.952 45.7172 115.682C45.8084 115.636 45.7635 138.58 45.8091 140.724C45.8547 143.278 46.0825 141.728 48.2264 139.128C49.1386 138.079 56.9846 127.907 57.2127 128.226C58.353 129.686 58.3981 128.682 56.3454 131.237C55.2963 132.468 45.9003 144.1 45.8091 144.373C45.6722 144.829 45.8087 156.826 45.8543 158.331C47.4964 156.415 63.6442 136.254 63.781 136.391C65.1039 137.805 64.3735 137.714 62.8226 139.539C61.1349 141.637 46.0368 160.384 45.8543 160.794C45.6719 161.387 45.8087 173.202 45.8543 174.844C49.7315 170.237 67.2932 148.069 67.2932 148.479C67.2932 151.672 66.928 150.942 63.9174 154.728C58.17 161.844 52.2862 169.005 46.6756 176.258C45.3528 177.991 45.8544 178.311 45.7631 180.774C45.7631 181.777 45.9458 185.427 45.3984 185.746C43.9388 186.658 44.2121 186.522 44.1665 185.153Z" fill="#80A648"/>
<path fill-rule="evenodd" clip-rule="evenodd" d="M50.3664 70.9307L23.7735 55.5591L23.1805 56.608L22.6327 57.6569L22.1309 58.7065L21.6291 59.7554L21.1732 60.8043L20.7625 61.8991L20.4437 62.9487L20.0783 64.0429L19.7596 65.1377L19.4853 66.2326L19.2118 67.2822L19.0294 68.3311L18.8923 69.4259L18.8011 70.4748L18.7559 71.5697L18.71 72.5733V87.8085L18.7559 88.4015L18.8011 88.9486L18.8923 89.4045L19.0747 89.8152L19.303 90.2258L19.5313 90.5453L19.8507 90.8188L20.1695 91.0012L46.7631 106.374L46.4436 106.191L46.1241 105.918L45.8965 105.552L45.6683 105.187L45.4859 104.732L45.3947 104.321L45.3488 103.773L45.3035 103.18V87.9449L45.3488 86.942L45.3947 85.8471L45.4859 84.7975L45.6223 83.7027L45.8506 82.6538L46.0789 81.559L46.3524 80.51L46.6719 79.4152L47.0366 78.3204L47.3561 77.2715L47.812 76.1766L48.2686 75.1277L48.7697 74.0329L49.2263 73.0292L49.7734 71.9803L50.3664 70.9307Z" fill="#B3B8BA"/>
<path fill-rule="evenodd" clip-rule="evenodd" d="M74.6134 71.5774L47.9746 56.2051V66.7421L74.6134 82.1145V71.5774Z" fill="#B3B8BA"/>
<path fill-rule="evenodd" clip-rule="evenodd" d="M74.2361 70.7488L57.952 61.3525L58.4998 60.8506L59.3204 60.1205L60.1869 59.3911L61.0542 58.7069L61.966 58.1139L62.8325 57.5209H62.8784L73.3696 51.4544L46.7767 36.082L36.2856 42.1486L35.3731 42.7416L34.4606 43.3805L33.594 44.0188L32.7275 44.7489L31.861 45.4783L31.0396 46.2537L30.2183 47.1209L29.3977 47.8963L28.6217 48.8081L27.8463 49.6753L27.1169 50.633L26.4327 51.5908L25.7026 52.5485L25.0184 53.5522L24.4254 54.5558L23.7871 55.5595L50.38 70.9311L51.0189 69.9282L51.6119 68.9245L52.2961 67.9208L53.0256 66.9172L53.7098 66.0054L54.4851 65.047L55.2153 64.1804L55.9906 63.2679L56.8119 62.4473L57.5414 61.7172L74.6015 71.5701L74.5556 71.2965L74.5103 71.0682L74.3732 70.8859L74.2361 70.7488Z" fill="#BFC7C9"/>
<path fill-rule="evenodd" clip-rule="evenodd" d="M99.0173 46.3071L72.4237 30.9807L47.9746 23.4087L74.6134 38.781L99.0173 46.3071Z" fill="#BFC7C9"/>
<path fill-rule="evenodd" clip-rule="evenodd" d="M74.5973 38.781L47.9585 23.4087V33.991V34.2645L47.8673 34.584L47.7761 34.9035L47.639 35.177L47.4566 35.4965L47.2743 35.7248L47.0008 35.9071L46.7725 36.0895L73.3653 51.4618L73.6396 51.2788L73.8672 51.0964L74.0495 50.8229L74.2319 50.5493L74.369 50.2758L74.5061 49.9563L74.5514 49.6369L74.5973 49.3174V38.781Z" fill="#B3B8BA"/>
<path fill-rule="evenodd" clip-rule="evenodd" d="M144.025 16.5583L117.431 1.18602L116.793 0.866546L116.154 0.59301L115.516 0.364715L114.832 0.182358L114.147 0.0911788L113.463 0H112.687L111.958 0.0452414L111.137 0.137116L110.315 0.273536L109.54 0.501831L108.673 0.775368L107.853 1.0489L106.986 1.45956L106.119 1.82427L105.206 2.3261L92.0245 9.94405V9.9893L91.4768 10.3088L91.0209 10.6735L90.5643 11.0841L90.1084 11.5407L89.6525 12.0419L89.2418 12.5437L88.8771 13.0915L88.5117 13.6385L115.151 29.0109L115.47 28.4178L115.835 27.916L116.245 27.3689L116.702 26.8671L117.158 26.4105L117.66 26.0458L118.116 25.6811L118.617 25.3616V25.3157L131.8 17.6984L132.713 17.1966L133.579 16.8319L134.446 16.4212L135.267 16.1018L136.133 15.8735L136.909 15.6459L137.775 15.5087L138.551 15.4176L139.281 15.3723H140.056L140.74 15.4635L141.471 15.5547L142.155 15.737L142.748 15.9653L143.386 16.2389L144.025 16.5583Z" fill="#BFC7C9"/>
<path fill-rule="evenodd" clip-rule="evenodd" d="M104.761 36.4548L95.6387 41.7007L122.232 57.0723L131.355 51.8271L131.629 51.5988L131.856 51.4165L132.084 51.1429L132.267 50.9146L132.404 50.5951L132.541 50.2764L132.586 49.9569L132.632 49.6374L106.039 34.311L105.993 34.5846L105.902 34.904L105.81 35.2235L105.628 35.5423L105.446 35.8165L105.263 36.0441L105.035 36.2724L104.761 36.4548Z" fill="#BFC7C9"/>
<path fill-rule="evenodd" clip-rule="evenodd" d="M131.23 39.0481L104.637 23.6758L104.956 23.9041L105.23 24.1317L105.458 24.4511L105.64 24.7706L105.823 25.1353L105.96 25.5919L106.006 26.0938L106.051 26.5497V26.5949V26.6408V26.732V34.304L132.645 49.6304V42.1043V42.0132V41.9672V41.922L132.599 41.4201L132.553 40.9636L132.416 40.5077L132.279 40.097L132.052 39.7775L131.823 39.504L131.55 39.2757L131.23 39.0481Z" fill="#B3B8BA"/>
<path fill-rule="evenodd" clip-rule="evenodd" d="M122.232 57.066L95.6387 41.6943L114.386 59.0733L141.025 74.4456L122.232 57.066Z" fill="#B3B8BA"/>
<path fill-rule="evenodd" clip-rule="evenodd" d="M159.776 35.4065L133.183 20.0342L124.015 25.3253L150.608 40.6977L159.776 35.4065Z" fill="#BFC7C9"/>
<path fill-rule="evenodd" clip-rule="evenodd" d="M150.582 40.6965L123.989 25.3242L123.715 25.4613L123.487 25.5073H123.35L123.168 25.4154L149.761 40.7877L149.943 40.8337L150.126 40.8789L150.354 40.7877L150.582 40.6965Z" fill="#BFC7C9"/>
<path fill-rule="evenodd" clip-rule="evenodd" d="M149.409 93.1959L144.436 90.368L144.938 90.1397L145.44 89.9114L145.942 89.775L146.352 89.7291H146.808L147.219 89.775L147.584 89.8662L147.949 90.0485L121.355 74.6762L120.991 74.4938L120.626 74.4027L120.169 74.3574H119.759L119.349 74.4486L118.847 74.5398L118.345 74.7674L117.843 75.0416L110.91 79.0556L110.408 79.375L109.952 79.6938L109.45 80.1045L108.994 80.5611L108.583 81.0622L108.128 81.564L107.808 82.1118L107.443 82.7048L134.036 98.0764L134.401 97.4834L134.766 96.9364L135.177 96.4345L135.587 95.9327L136.089 95.4768L136.545 95.0661L137.001 94.7467L137.548 94.382L144.436 90.368L149.409 93.1959Z" fill="#BFC7C9"/>
<path fill-rule="evenodd" clip-rule="evenodd" d="M134.059 98.0816L107.466 82.71L107.146 83.303L106.827 83.896L106.599 84.5342L106.371 85.1732L106.28 85.7203L106.143 86.3592L106.051 86.9975V87.5452V98.2639V98.3099L106.006 98.447V98.5382L105.96 99.0853L105.869 99.633L105.778 100.226L105.595 100.727L105.413 101.32L105.185 101.868L104.911 102.415L104.592 102.963L131.231 118.289L131.504 117.741L131.778 117.24L132.006 116.693L132.188 116.099L132.371 115.598L132.508 115.005L132.599 114.458L132.645 113.865V113.819V113.682V113.636V102.917V102.37L132.736 101.731L132.873 101.093L132.964 100.5L133.192 99.8606L133.466 99.2676L133.739 98.6294L134.059 98.0816Z" fill="#B3B8BA"/>
<path fill-rule="evenodd" clip-rule="evenodd" d="M101.225 106.422L94.748 110.208L121.341 125.58L127.864 121.794L127.909 121.749L128 121.703L128.457 121.429L128.959 121.11L129.324 120.699L129.734 120.289L130.145 119.833L130.555 119.377L130.874 118.829L131.194 118.282L104.555 102.956L104.281 103.457L103.916 104.004L103.551 104.46L103.141 104.917L102.73 105.328L102.32 105.738L101.863 106.057L101.408 106.331L101.316 106.377L101.225 106.422Z" fill="#BFC7C9"/>
<path fill-rule="evenodd" clip-rule="evenodd" d="M121.363 125.577L94.7699 110.205L94.4957 110.296L94.2681 110.342H94.0398L93.8574 110.296L120.45 125.623L120.679 125.714H120.861L121.089 125.669L121.363 125.577Z" fill="#BFC7C9"/>
<path fill-rule="evenodd" clip-rule="evenodd" d="M120.087 114.318L93.4937 98.9463L69.0898 134.708L95.6827 150.079L120.087 114.318Z" fill="#B3B8BA"/>
<path fill-rule="evenodd" clip-rule="evenodd" d="M144.307 125.445C147.409 120.063 149.37 113.996 149.37 108.477V93.1956C149.37 91.6447 148.777 90.5044 147.91 90.0482C146.998 89.5008 145.766 89.5919 144.443 90.4129L137.556 94.3816C136.187 95.2027 134.91 96.5252 134.044 98.0761C133.131 99.627 132.63 101.36 132.63 102.911V113.586V113.631V113.768V113.859C132.539 115.273 132.036 116.87 131.261 118.284C130.394 119.743 129.3 121.02 128.068 121.705L127.977 121.751L127.931 121.796L121.363 125.582C120.678 125.947 120.131 125.628 120.131 124.852V114.315L95.7275 150.077L120.131 157.649V147.112C120.131 146.291 120.724 145.378 121.363 144.968L131.809 138.901C136.689 135.891 141.114 131.01 144.307 125.445Z" fill="#E6EAEB"/>
<path fill-rule="evenodd" clip-rule="evenodd" d="M144.014 16.5698C140.866 14.7452 136.624 14.973 131.789 17.7099L118.606 25.3271V25.3731C117.238 26.1485 116.006 27.517 115.139 29.0223C114.227 30.5732 113.68 32.3067 113.68 33.8575V41.8855C113.68 43.4363 114.273 44.5767 115.139 45.0329C116.052 45.5802 117.238 45.4888 118.606 44.7134L127.866 39.377L128.002 39.2851L128.094 39.2399C129.28 38.6013 130.42 38.5554 131.196 39.0116C132.062 39.4677 132.564 40.4714 132.564 41.8855V41.9314V41.9766V42.0678V49.5946C132.564 50.4156 131.971 51.3274 131.333 51.7836L122.209 57.0295L141.003 74.4084L159.75 35.3623L150.582 40.6542C149.898 41.0647 149.396 40.7451 149.396 39.9241V27.7903C149.214 22.3622 147.207 18.3944 144.014 16.5698Z" fill="#E6EAEB"/>
<path fill-rule="evenodd" clip-rule="evenodd" d="M50.3656 70.9339C47.2638 76.3621 45.3027 82.4288 45.3027 87.9482V103.183C45.3027 104.734 45.8956 105.875 46.7623 106.377C47.6746 106.878 48.8607 106.833 50.2292 106.012L57.1163 101.997C58.4847 101.222 59.7624 99.8997 60.6291 98.3488C61.5414 96.7979 62.0427 95.0645 62.0427 93.5136V82.8394V82.7941V82.657V82.5206C62.134 81.1066 62.636 79.5557 63.4571 78.096C64.2781 76.6819 65.3729 75.4045 66.6045 74.7203L66.6956 74.6744L66.7416 74.6291L73.3099 70.8428C73.9942 70.4322 74.5412 70.7518 74.5412 71.5729V82.11L98.9451 46.3024L74.5412 38.7764V49.3127C74.5412 50.1338 73.9485 51.0466 73.3099 51.4572L62.864 57.5237C57.9833 60.5343 53.5586 65.4146 50.3656 70.9339Z" fill="#E6EAEB"/>
<path fill-rule="evenodd" clip-rule="evenodd" d="M115.139 29.0144L88.5005 13.6421V13.688L88.1818 14.281L87.9075 14.874L87.634 15.4671L87.4516 16.1053L87.2693 16.7443L87.1781 17.2913L87.1322 17.9303L87.0869 18.5233V26.5053L87.1322 27.0983L87.1781 27.6001L87.2693 28.1019L87.4516 28.5126L87.634 28.8773L87.9075 29.1968L88.1818 29.4703L88.5005 29.6986L115.139 45.0709L114.775 44.8426L114.501 44.5691L114.228 44.2496L114.045 43.8849L113.862 43.4743L113.771 42.9724L113.726 42.4706L113.68 41.8776V33.8949L113.726 33.3019L113.771 32.6637L113.862 32.0706L114.045 31.4776L114.228 30.8387L114.501 30.2004L114.775 29.6074L115.139 29.0144Z" fill="#B3B8BA"/>
</svg>
