<svg width="78" height="77" viewBox="0 0 78 77" fill="none" xmlns="http://www.w3.org/2000/svg">
<path fill-rule="evenodd" clip-rule="evenodd" d="M65.9357 11.5706C62.4163 8.05118 58.2215 5.22495 53.5823 3.28751C49.1031 1.43894 44.1795 0.407959 39.007 0.407959C33.8524 0.407959 28.9288 1.43894 24.4496 3.28751C19.7926 5.22495 15.5978 8.05118 12.0961 11.5706C8.57675 15.0722 5.75057 19.2848 3.8309 23.924C1.98234 28.4032 0.933594 33.3268 0.933594 38.4992C0.933594 43.6717 1.96456 48.5775 3.8309 53.0745C5.75057 57.7137 8.59453 61.9263 12.0961 65.4279C15.6155 68.9295 19.8104 71.7734 24.4496 73.6931C28.9288 75.5416 33.8524 76.5726 39.007 76.5726C44.1795 76.5726 49.0853 75.5416 53.5823 73.6931C58.2392 71.7734 62.4341 68.9295 65.9357 65.4279C69.4551 61.9085 72.2812 57.7137 74.2187 53.0745C76.0673 48.5775 77.0982 43.6717 77.0982 38.4992C77.0982 33.3268 76.0673 28.421 74.2187 23.924C72.2812 19.2848 69.4551 15.09 65.9357 11.5706Z" fill="#D0DEFA"/>
<path fill-rule="evenodd" clip-rule="evenodd" d="M63.581 13.9344C60.3815 10.7172 56.5422 8.13991 52.3119 6.38021C48.2237 4.69162 43.7267 3.74951 38.9986 3.74951C34.2883 3.74951 29.7913 4.69162 25.7031 6.38021C21.4549 8.13991 17.6156 10.7172 14.4162 13.9344C11.2167 17.1338 8.62165 20.9732 6.87973 25.2213C5.17335 29.3095 4.24902 33.8065 4.24902 38.5168C4.24902 43.2271 5.19113 47.7242 6.87973 51.8123C8.63942 56.0605 11.2167 59.882 14.4162 63.0814C17.6334 66.2986 21.4549 68.876 25.7031 70.6357C29.7913 72.3243 34.2883 73.2664 38.9986 73.2664C43.7267 73.2664 48.2059 72.3243 52.3119 70.6357C56.56 68.876 60.3815 66.2809 63.581 63.0814C66.7982 59.882 69.3755 56.0427 71.1352 51.8123C72.8238 47.7242 73.7659 43.2271 73.7659 38.5168C73.7659 33.8065 72.8238 29.3095 71.1352 25.2213C69.3577 20.9554 66.7804 17.1338 63.581 13.9344Z" fill="#B4CCFA"/>
<path fill-rule="evenodd" clip-rule="evenodd" d="M65.4228 15.9073C66.6848 17.3826 69.902 22.1107 71.2707 25.5412C72.977 29.8071 73.8125 34.3574 73.7592 38.89C73.7236 43.4225 72.7815 47.9551 70.9863 52.1855C69.2444 56.2559 66.6848 60.0598 63.3076 63.3659C59.9482 66.672 56.0733 69.1426 51.9496 70.7957C50.2432 71.4889 55.1135 65.712 52.0918 62.5481C49.0879 59.3842 36.3256 63.0637 36.6811 56.5403C37.0366 50.017 39.8806 50.0526 41.3736 46.6398C42.8667 43.2449 44.6798 45.9821 51.0431 43.8136C57.4242 41.6273 65.9205 41.9473 68.6934 39.05C71.4662 36.1527 58.0996 39.6188 55.6467 38.9967C53.1938 38.3746 52.6961 35.424 50.9365 35.5307C49.159 35.6195 50.1721 38.819 48.1991 39.4233C46.2261 40.0277 40.947 40.952 40.6271 38.6946C39.3829 30.0738 46.0484 32.7933 46.4572 32.3312C48.2169 30.3049 44.3598 28.6873 46.7416 25.8078C49.1234 22.9283 51.4874 22.4307 52.7139 20.4222C53.9581 18.4136 49.7989 16.8672 51.7185 15.303C53.6382 13.7389 64.0897 14.3609 65.4228 15.9073Z" fill="#27AE60"/>
<path fill-rule="evenodd" clip-rule="evenodd" d="M36.6789 3.80374C28.5737 4.33698 20.6106 7.71418 14.425 13.8998C11.0834 17.2414 8.57716 21.0808 6.88857 25.169C3.36918 33.6831 3.36918 43.3169 6.88857 51.831C8.31054 55.226 10.2835 58.4788 12.8253 61.3938C13.0208 61.6071 13.2519 61.7315 13.5541 61.7315C13.8562 61.7315 14.1051 61.6604 14.3006 61.4294C16.6113 58.7632 23.3123 56.9145 23.7745 53.4129C24.1122 50.8 19.793 49.7692 18.6376 47.3874C17.3579 44.7034 18.371 41.1128 16.7002 38.6421C14.9582 36.0826 8.34606 35.8516 6.56859 33.3276C5.59099 31.9411 6.30196 29.8614 6.8352 28.2439C7.06627 27.5507 7.91949 27.1242 8.63048 26.9464C9.64364 26.6798 10.7279 26.9642 11.7766 26.982C11.8477 26.982 21.6949 25.4889 24.7166 24.1914C27.7383 22.876 26.0852 21.1518 27.4006 20.6008C28.7337 20.0676 30.8133 24.0669 32.8574 22.3072C34.9192 20.5297 36.519 11.9445 37.2477 9.97156C37.9765 7.99857 40.696 9.9183 41.407 10.3449C42.118 10.7715 40.1628 14.6108 41.0693 15.304C41.9758 15.9972 45.8329 13.5621 46.3128 13.0822C49.1923 10.2205 48.4814 7.58973 46.8639 6.30995C45.2464 5.01239 40.2872 6.71878 37.4432 4.07035C37.2122 3.87482 36.9633 3.78596 36.6789 3.80374Z" fill="#27AE60"/>
<path fill-rule="evenodd" clip-rule="evenodd" d="M51.6541 6.1136C47.7259 4.58498 43.4778 3.74951 38.9986 3.74951C34.2883 3.74951 29.7913 4.69162 25.7031 6.38021C21.4549 8.13991 17.6156 10.7172 14.4162 13.9344C11.2167 17.1338 8.62165 20.9732 6.87973 25.2213C5.17335 29.3095 4.24902 33.8065 4.24902 38.5168C4.24902 43.2271 5.19113 47.7242 6.87973 51.8123C8.63942 56.0605 11.2167 59.882 14.4162 63.0814C17.6334 66.2986 21.4549 68.876 25.7031 70.6357C29.7913 72.3243 34.2883 73.2664 38.9986 73.2664C43.7267 73.2664 48.2059 72.3243 52.3119 70.6357C56.56 68.876 60.3815 66.2809 63.581 63.0814C64.523 62.1571 65.4118 61.1617 66.2295 60.113C60.4527 65.7654 52.5429 69.2492 43.8333 69.2492C26.1297 69.2492 11.7855 54.9052 11.7855 37.2016C11.7855 19.498 26.1297 5.15376 43.8333 5.15376C46.5351 5.15376 49.1479 5.49149 51.6541 6.1136Z" fill="#8DA4D1"/>
<path fill-rule="evenodd" clip-rule="evenodd" d="M36.6789 3.80375C28.5737 4.33699 20.6106 7.71419 14.425 13.8998C11.0834 17.2414 8.57716 21.0808 6.88857 25.169C3.36918 33.6831 3.36918 43.317 6.88857 51.831C8.31054 55.226 10.2835 58.4788 12.8253 61.3939C13.0208 61.6072 13.2519 61.7315 13.5541 61.7315C13.8562 61.7315 14.1051 61.6605 14.3006 61.4294C15.4026 60.1674 17.4823 59.083 19.4197 57.9277C14.6738 52.3464 11.8122 45.0943 11.8122 37.1846C11.8122 36.8113 11.8122 36.4204 11.8299 36.0293C9.67919 35.3006 7.49288 34.6251 6.56859 33.3276C5.59099 31.9411 6.30196 29.8615 6.8352 28.244C7.06627 27.5507 7.91949 27.1242 8.63048 26.9464C9.64364 26.6798 10.7279 26.9642 11.7766 26.982C11.7943 26.982 12.4876 26.8931 13.5718 26.7154C17.5001 15.3218 27.6672 6.86108 39.985 5.36801C39.0608 5.13694 38.1898 4.7458 37.4432 4.05259C37.2122 3.87484 36.9633 3.78597 36.6789 3.80375Z" fill="#05883B"/>
<path fill-rule="evenodd" clip-rule="evenodd" d="M66.332 60.0071C65.4077 61.1802 64.4124 62.2822 63.3104 63.3487C59.9509 66.6547 56.0761 69.1255 51.9523 70.7786C51.0991 71.1341 51.9168 69.8186 52.5389 68.0412C57.818 66.5481 62.546 63.7575 66.332 60.0071Z" fill="#05883B"/>
<path fill-rule="evenodd" clip-rule="evenodd" d="M39.4266 76.0757C46.1454 76.0046 52.4199 74.1738 57.859 71.0277C52.3666 73.3207 45.8965 74.5115 39.4266 74.5471C39.4266 75.2225 39.4266 75.7024 39.4266 76.0757ZM76.6113 38.411C76.5935 32.9364 74.5139 27.8529 70.9234 23.5337C70.6923 24.4046 70.3723 25.2757 69.9279 26.1111C68.4882 28.9195 65.8931 31.5856 62.1426 33.8252C65.4132 39.922 67.5284 46.303 68.0261 52.222C70.4612 50.5334 72.3809 48.6671 73.7851 46.7119C75.6159 44.1701 76.5401 41.4684 76.5934 38.7666V38.4645L76.6113 38.411ZM70.1946 22.6805C69.9991 23.7115 69.6436 24.7068 69.1281 25.7022C67.7772 28.3506 65.3065 30.8925 61.7161 33.0254C61.0762 31.8701 60.3829 30.7147 59.6542 29.5594C54.7484 21.8451 48.0828 14.8596 40.6708 10.2382C50.4113 10.5581 59.1743 13.6687 65.6265 18.5212C67.3329 19.801 68.8615 21.2052 70.1946 22.6805ZM37.3114 10.2559C27.5708 10.5759 18.7902 13.6865 12.3557 18.539C10.6671 19.801 9.13849 21.2052 7.80539 22.6805C8.00091 23.7115 8.35643 24.7068 8.87189 25.7022C10.2228 28.3506 12.6757 30.8747 16.2484 33.0077C16.8883 31.8701 17.5637 30.7325 18.2747 29.5949C23.1983 21.8807 29.8816 14.8773 37.3114 10.2559ZM7.09438 23.5337C7.32545 24.4046 7.64539 25.2757 8.08976 26.1111C9.52951 28.9195 12.1069 31.5679 15.8395 33.8075C12.569 39.9042 10.436 46.2853 9.92057 52.1865C7.68096 50.6223 5.88575 48.916 4.53488 47.1385C2.66853 44.6856 1.6376 42.0905 1.45985 39.4776C1.44207 39.2465 1.42425 39.0332 1.42425 38.8021V38.7844V38.5C1.40648 32.9898 3.48612 27.8707 7.09438 23.5337ZM2.63294 28.9016C3.68165 26.6087 5.12139 24.4225 6.84554 22.4317C6.66779 21.2763 6.66779 20.121 6.84554 18.9656C4.99697 22.0051 3.575 25.3467 2.63294 28.9016ZM7.6632 21.5429C7.53878 20.0143 7.73429 18.4857 8.30308 16.9749L8.19642 16.9392C9.45842 15.1262 10.8804 13.4377 12.4446 11.8735C14.1332 10.1671 15.9996 8.63843 17.9903 7.28756C20.0877 6.2033 22.5584 5.68785 25.3135 5.77672C28.9217 5.88337 33.0099 7.05657 37.3647 9.34951C27.4109 9.66945 18.4525 12.8511 11.8403 17.828C10.2939 18.9656 8.90743 20.2098 7.6632 21.5429ZM40.6708 9.34951C50.6246 9.66945 59.5831 12.8511 66.1953 17.828C67.7061 18.9656 69.1281 20.2098 70.3723 21.5429C70.4967 20.0143 70.3012 18.4857 69.7325 16.9749L69.8391 16.9392C68.5771 15.1262 67.1551 13.4377 65.5909 11.8735C64.6844 10.967 63.7424 10.1137 62.747 9.29608L62.6225 9.18949C61.9649 8.65625 61.2895 8.15857 60.614 7.67865C58.3922 6.34555 55.7082 5.7056 52.6688 5.81225C49.0783 5.93667 45.0078 7.07435 40.6708 9.34951ZM71.1544 22.4317C71.3321 21.2763 71.3321 20.121 71.1544 18.9656C73.003 22.0229 74.4428 25.3467 75.3848 28.9016C74.3183 26.5909 72.8963 24.4225 71.1544 22.4317ZM77.5 38.34V38.4645V38.5533C77.5 38.6244 77.5 38.7133 77.5 38.8021C77.4289 47.6006 74.4072 55.7059 69.3592 62.1581C68.5771 63.4201 67.5462 64.6465 66.3019 65.8196C65.8042 66.264 65.271 66.7262 64.7022 67.1528C57.8767 73.2673 48.8827 77 39 77C29.1173 77 20.1055 73.2851 13.2978 67.1528C12.729 66.7262 12.1958 66.264 11.6981 65.8196C10.4361 64.6643 9.4229 63.4379 8.64081 62.1581C3.5928 55.7059 0.571099 47.6006 0.5 38.8021V38.7844V38.5888V38.5178C0.5 27.8885 4.81923 18.2547 11.7691 11.287C12.6756 10.3805 13.6177 9.5272 14.6131 8.70956L14.5776 8.67403C15.4485 7.83862 16.4262 7.12758 17.4926 6.55879C23.6249 2.41728 31.0369 0 39 0C47.2297 0 54.855 2.59507 61.0939 6.98542C61.8405 7.42978 62.5337 7.94521 63.1736 8.53178C64.2401 9.38496 65.2532 10.3092 66.213 11.2691C73.1807 18.1834 77.4822 27.764 77.5 38.34ZM11.858 64.4866C11.7514 64.3088 11.6625 64.1133 11.5737 63.9356C10.4183 61.4471 9.77838 58.4254 9.77838 54.9237C9.77838 54.355 9.79619 53.8039 9.83174 53.2174C7.30774 51.511 5.29918 49.6447 3.80611 47.6717C3.0418 46.6408 2.3841 45.6098 1.88641 44.5433C2.91734 50.8711 5.51245 56.6657 9.28069 61.5182L9.35182 61.6248C10.1517 62.6202 10.9871 63.5801 11.858 64.4866ZM39.391 9.02947C39.391 6.30994 39.4088 4.42582 39.4088 3.11049C39.4088 2.06178 39.4266 1.36857 39.4266 0.888653C45.6299 0.959752 51.46 2.52397 56.5791 5.2435C55.3349 4.99466 54.0018 4.88804 52.5976 4.94136C48.6694 5.06579 44.1724 6.38104 39.391 9.02947ZM38.5023 10.576V11.3758C38.4845 19.3211 38.4668 29.0972 38.4668 38.4822V38.6244C30.6992 38.5533 22.985 36.8291 17.0127 33.4697C17.6348 32.3321 18.3102 31.2124 19.0212 30.0926C24.0337 22.2184 30.8947 15.1263 38.5023 10.576ZM16.5861 34.2519C13.28 40.4019 11.1826 46.8364 10.756 52.7553C11.2537 53.0931 11.7692 53.3951 12.3024 53.7151C19.5367 57.8921 28.9751 60.0073 38.4668 60.0784C38.4668 53.6618 38.4489 46.4986 38.4489 39.5131C30.5748 39.4243 22.7006 37.6824 16.5861 34.2519ZM10.7027 53.7685C10.7027 54.1418 10.6849 54.5149 10.6849 54.906C10.6849 58.2832 11.2892 61.1805 12.3912 63.5445C13.0311 64.9131 13.8488 66.1219 14.8086 67.1173C15.413 67.5261 16.0528 67.9349 16.7283 68.326C22.7539 71.792 30.6281 73.5694 38.5378 73.6405C38.5378 71.8631 38.5201 69.2679 38.5201 65.5708L38.5023 60.9672C28.8684 60.8961 19.2523 58.7276 11.8936 54.4795C11.4847 54.2484 11.076 54.0173 10.7027 53.7685ZM62.907 67.3306C62.3915 67.6861 61.8582 68.0238 61.2894 68.3437C55.246 71.8276 47.3363 73.605 39.4088 73.6583C39.4088 71.8808 39.391 69.2858 39.391 65.5887V60.985C49.0782 60.9317 58.7477 58.7632 66.1597 54.4973C66.533 54.284 66.9063 54.0528 67.2618 53.8218C67.2618 54.195 67.2795 54.5327 67.2795 54.8882C67.2795 58.2654 66.6752 61.1627 65.5909 63.5267C64.8799 65.002 63.9735 66.2819 62.907 67.3306ZM38.5201 74.5471C32.0679 74.4938 25.6334 73.3207 20.1588 71.0277C25.5801 74.1738 31.8546 76.0046 38.5378 76.0757C38.5378 75.7024 38.5378 75.2047 38.5201 74.5471ZM68.6482 61.6248C67.8128 62.6913 66.924 63.7223 65.9819 64.6821C66.1241 64.4155 66.2664 64.1489 66.373 63.8823C67.5284 61.4116 68.1505 58.3898 68.1505 54.8705C68.1505 54.3372 68.1327 53.7861 68.115 53.2351C70.8523 51.4043 72.9852 49.3781 74.5139 47.2273C75.1537 46.3564 75.687 45.4498 76.1136 44.5433C75.0827 50.8711 72.4698 56.6657 68.7015 61.5182L68.6482 61.6248ZM61.3783 34.2696C64.6666 40.4375 66.764 46.8719 67.1906 52.7909C66.7107 53.1108 66.213 53.4129 65.6976 53.7151C58.4277 57.9099 48.9183 60.0251 39.3733 60.0784C39.3733 54.0884 39.3733 46.9252 39.3733 39.5131C47.3008 39.4598 55.2461 37.7179 61.3783 34.2696ZM39.3555 38.6066C47.1586 38.5533 54.9439 36.8469 60.9518 33.4697C60.3119 32.3143 59.6364 31.1769 58.9254 30.0393C53.8952 22.1473 47.0164 15.0373 39.3733 10.487V11.358C39.3555 18.379 39.3555 28.2262 39.3555 38.4645V38.6066ZM38.5023 8.95841C38.5023 6.27443 38.5201 4.40805 38.5201 3.09273C38.5201 2.04402 38.5378 1.35081 38.5378 0.870889C32.4056 0.941987 26.6288 2.4707 21.5452 5.15468C22.7361 4.94138 23.9982 4.85252 25.2957 4.88807C29.2595 5.01249 33.7387 6.34553 38.5023 8.95841Z" fill="#E6EAEB"/>
</svg>
