<svg width="217" height="217" viewBox="0 0 217 217" fill="none" xmlns="http://www.w3.org/2000/svg">
<circle cx="108.584" cy="108.02" r="103.02" stroke="#D5D5D5" stroke-width="10"/>
<path d="M85.0392 75.104H123.295C124.595 75.104 125.651 74.0477 125.651 72.7473C125.651 71.4475 124.595 70.3906 123.295 70.3906L85.0392 70.3911C83.7394 70.3911 82.6825 71.4475 82.6825 72.7478C82.6769 74.0476 83.7333 75.104 85.0392 75.104Z" fill="#2B6295"/>
<path d="M85.0392 91.8667H123.182C124.482 91.8667 125.539 90.8104 125.539 89.51C125.539 88.2102 124.482 87.1533 123.182 87.1533L85.0392 87.1538C83.7394 87.1538 82.6825 88.2101 82.6825 89.5105C82.6769 90.8103 83.7333 91.8667 85.0392 91.8667Z" fill="#2B6295"/>
<path d="M125.538 106.267C125.538 104.967 124.482 103.91 123.182 103.91H85.0389C83.7391 103.91 82.6822 104.967 82.6822 106.267C82.6822 107.567 83.7386 108.624 85.0389 108.624H123.182C124.482 108.629 125.538 107.567 125.538 106.267H125.538Z" fill="#2B6295"/>
<path d="M180.171 74.4034C176.36 70.5985 170.282 70.5924 166.483 74.3974L160.505 80.3627C160.476 80.3924 160.446 80.4221 160.416 80.4457L152.047 88.8211C152.059 78.9854 152.083 59.2079 152.148 57.3085C152.326 52.3995 150.83 47.8235 148.159 45.0513C146.23 43.0628 143.713 42.0005 140.864 42.0005L58.4827 42C57.1829 42 56.126 43.0564 56.126 44.3567V63.9505H50.3567C49.0569 63.9505 48 65.0068 48 66.3072C48 67.607 49.0564 68.6639 50.3567 68.6639H56.1264V84.7971L50.3567 84.7966C49.0569 84.7966 48 85.853 48 87.1533C48 88.4531 49.0564 89.5101 50.3567 89.5101H56.1264V105.643H50.3567C49.0569 105.643 48 106.7 48 108C48 109.3 49.0564 110.357 50.3567 110.357H56.1264V126.49H50.3567C49.0569 126.49 48 127.546 48 128.847C48 130.146 49.0564 131.203 50.3567 131.203H56.1264V147.337L50.3567 147.336C49.0569 147.336 48 148.392 48 149.693C48 150.993 49.0564 152.05 50.3567 152.05H56.1264V171.643C56.1264 172.943 57.1828 174 58.4832 174H140.859C149.092 174 152.054 166.752 152.083 159.915L152.06 129.162L186.789 94.4319C188.612 92.604 189.55 90.3599 189.573 87.7307C189.573 85.0953 188.641 82.8398 186.807 81.0112L180.171 74.4034ZM162.085 85.4438L167.183 90.5424L119.65 138.076C117.822 136.271 116.035 134.502 114.539 133.018L162.085 85.4438ZM114.421 152.398L108.657 146.635C109.726 143.436 110.8 140.23 111.88 137.025C113.708 138.841 115.863 140.966 118.011 143.092C120.166 145.216 122.315 147.336 124.143 149.152L114.421 152.398ZM147.37 159.978C147.358 162.785 146.705 169.315 140.864 169.315L60.8451 169.315V152.084H67.2496C68.5494 152.084 69.6064 151.028 69.6064 149.727C69.6064 148.427 68.55 147.37 67.2496 147.37H60.8451V131.237H67.2496C68.5494 131.237 69.6064 130.181 69.6064 128.881C69.6064 127.581 68.55 126.524 67.2496 126.524H60.8451V110.391H67.2496C68.5494 110.391 69.6064 109.334 69.6064 108.034C69.6064 106.734 68.55 105.677 67.2496 105.677L60.8451 105.678V89.5444H67.2557C68.5555 89.5444 69.6124 88.488 69.6124 87.1877C69.6124 85.8879 68.55 84.8013 67.2502 84.8013H60.8397V68.6681H67.2502C68.55 68.6681 69.6069 67.6117 69.6069 66.3113C69.6069 65.0115 68.5506 63.9546 67.2502 63.9546H60.8397V46.7233H140.859C142.444 46.7233 143.72 47.2455 144.764 48.3259C146.509 50.1363 147.56 53.5966 147.435 57.1405C147.352 59.562 147.329 88.3919 147.323 93.5441L109.53 131.366L109.518 131.378C109.026 131.871 108.373 132.672 108.034 133.687C106.33 138.715 104.651 143.742 102.965 148.782L100.775 155.323C100.567 155.952 99.9319 157.876 101.475 159.466C101.612 159.608 101.784 159.668 101.932 159.786C101.95 159.81 101.956 159.84 101.98 159.858C102.14 160.006 102.336 160.101 102.526 160.202C102.585 160.232 102.639 160.285 102.698 160.309C102.983 160.427 103.28 160.493 103.582 160.493H103.594C103.76 160.516 103.915 160.594 104.087 160.594C104.722 160.594 105.286 160.439 105.755 160.279L114.219 157.448L114.463 157.376C114.475 157.37 114.486 157.359 114.499 157.353L127.326 153.055C128.151 152.771 128.922 152.301 129.765 151.47C129.777 151.464 129.783 151.453 129.789 151.447L129.807 151.459L147.352 133.913L147.37 159.978ZM148.658 125.919C148.207 126.144 128.121 146.445 128.121 146.445C126.619 144.961 124.839 143.192 123.01 141.387L170.519 93.8779L175.612 98.9705L148.658 125.919ZM183.459 91.1299L178.948 95.6471L172.199 88.898C172.193 88.892 172.193 88.886 172.187 88.8804C172.181 88.8744 172.175 88.8744 172.169 88.8683L165.42 82.1192L169.813 77.7328C171.866 75.6675 174.786 75.685 176.84 77.7389L183.5 84.3869C184.438 85.3189 184.872 86.3929 184.872 87.7405C184.854 89.1118 184.409 90.1863 183.459 91.1299Z" fill="#5E5E5E"/>
<mask id="mask0_4932_308" style="mask-type:alpha" maskUnits="userSpaceOnUse" x="96" y="65" width="99" height="99">
<path d="M156 84.5L146.5 94.5L135 97.5L124.5 114L107 126L96 145.5V163L116 164L128 153L187 94.5L195 84.5L176 65L156 84.5Z" fill="#D9D9D9"/>
</mask>
<g mask="url(#mask0_4932_308)">
<path d="M180.171 74.4034C176.36 70.5985 170.282 70.5924 166.483 74.3974L160.505 80.3627C160.476 80.3924 160.446 80.4221 160.416 80.4457L152.047 88.8211C152.059 78.9854 152.083 59.2079 152.148 57.3085C152.326 52.3995 150.83 47.8235 148.159 45.0513C146.23 43.0628 143.713 42.0005 140.864 42.0005L58.4827 42C57.1829 42 56.126 43.0564 56.126 44.3567V63.9505H50.3567C49.0569 63.9505 48 65.0068 48 66.3072C48 67.607 49.0564 68.6639 50.3567 68.6639H56.1264V84.7971L50.3567 84.7966C49.0569 84.7966 48 85.853 48 87.1533C48 88.4531 49.0564 89.5101 50.3567 89.5101H56.1264V105.643H50.3567C49.0569 105.643 48 106.7 48 108C48 109.3 49.0564 110.357 50.3567 110.357H56.1264V126.49H50.3567C49.0569 126.49 48 127.546 48 128.847C48 130.146 49.0564 131.203 50.3567 131.203H56.1264V147.337L50.3567 147.336C49.0569 147.336 48 148.392 48 149.693C48 150.993 49.0564 152.05 50.3567 152.05H56.1264V171.643C56.1264 172.943 57.1828 174 58.4832 174H140.859C149.092 174 152.054 166.752 152.083 159.915L152.06 129.162L186.789 94.4319C188.612 92.604 189.55 90.3599 189.573 87.7307C189.573 85.0953 188.641 82.8398 186.807 81.0112L180.171 74.4034ZM162.085 85.4438L167.183 90.5424L119.65 138.076C117.822 136.271 116.035 134.502 114.539 133.018L162.085 85.4438ZM114.421 152.398L108.657 146.635C109.726 143.436 110.8 140.23 111.88 137.025C113.708 138.841 115.863 140.966 118.011 143.092C120.166 145.216 122.315 147.336 124.143 149.152L114.421 152.398ZM147.37 159.978C147.358 162.785 146.705 169.315 140.864 169.315L60.8451 169.315V152.084H67.2496C68.5494 152.084 69.6064 151.028 69.6064 149.727C69.6064 148.427 68.55 147.37 67.2496 147.37H60.8451V131.237H67.2496C68.5494 131.237 69.6064 130.181 69.6064 128.881C69.6064 127.581 68.55 126.524 67.2496 126.524H60.8451V110.391H67.2496C68.5494 110.391 69.6064 109.334 69.6064 108.034C69.6064 106.734 68.55 105.677 67.2496 105.677L60.8451 105.678V89.5444H67.2557C68.5555 89.5444 69.6124 88.488 69.6124 87.1877C69.6124 85.8879 68.55 84.8013 67.2502 84.8013H60.8397V68.6681H67.2502C68.55 68.6681 69.6069 67.6117 69.6069 66.3113C69.6069 65.0115 68.5506 63.9546 67.2502 63.9546H60.8397V46.7233H140.859C142.444 46.7233 143.72 47.2455 144.764 48.3259C146.509 50.1363 147.56 53.5966 147.435 57.1405C147.352 59.562 147.329 88.3919 147.323 93.5441L109.53 131.366L109.518 131.378C109.026 131.871 108.373 132.672 108.034 133.687C106.33 138.715 104.651 143.742 102.965 148.782L100.775 155.323C100.567 155.952 99.9319 157.876 101.475 159.466C101.612 159.608 101.784 159.668 101.932 159.786C101.95 159.81 101.956 159.84 101.98 159.858C102.14 160.006 102.336 160.101 102.526 160.202C102.585 160.232 102.639 160.285 102.698 160.309C102.983 160.427 103.28 160.493 103.582 160.493H103.594C103.76 160.516 103.915 160.594 104.087 160.594C104.722 160.594 105.286 160.439 105.755 160.279L114.219 157.448L114.463 157.376C114.475 157.37 114.486 157.359 114.499 157.353L127.326 153.055C128.151 152.771 128.922 152.301 129.765 151.47C129.777 151.464 129.783 151.453 129.789 151.447L129.807 151.459L147.352 133.913L147.37 159.978ZM148.658 125.919C148.207 126.144 128.121 146.445 128.121 146.445C126.619 144.961 124.839 143.192 123.01 141.387L170.519 93.8779L175.612 98.9705L148.658 125.919ZM183.459 91.1299L178.948 95.6471L172.199 88.898C172.193 88.892 172.193 88.886 172.187 88.8804C172.181 88.8744 172.175 88.8744 172.169 88.8683L165.42 82.1192L169.813 77.7328C171.866 75.6675 174.786 75.685 176.84 77.7389L183.5 84.3869C184.438 85.3189 184.872 86.3929 184.872 87.7405C184.854 89.1118 184.409 90.1863 183.459 91.1299Z" fill="#3BB30B"/>
</g>
<g filter="url(#filter0_d_4932_308)">
<path d="M125.973 147.726L123.589 150.109V188.246L125.973 190.63H178.411L180 189.041V150.109L178.411 147.726H125.973Z" fill="url(#paint0_linear_4932_308)"/>
<path d="M129.151 127.068L128.356 147.725H133.918V129.451L135.507 123.095L141.863 115.945L149.808 113.561L156.959 114.356L164.11 119.917L168.082 127.068V147.725H173.644L172.849 128.657L171.26 122.301L166.493 115.15L158.548 110.383L149.808 108.794L143.452 110.383L137.89 112.767L133.123 118.328L129.151 127.068Z" fill="#F2E6A3"/>
<path d="M124.563 189.206L124.563 189.207C124.787 189.43 125.088 189.556 125.404 189.557H176.553C176.868 189.556 177.17 189.43 177.393 189.207L177.393 189.206C177.616 188.984 177.742 188.682 177.744 188.367C177.744 188.366 177.744 188.366 177.744 188.366V150.437C177.744 150.437 177.744 150.437 177.744 150.437C177.742 150.121 177.616 149.82 177.393 149.597C177.17 149.374 176.869 149.248 176.554 149.246C176.553 149.246 176.553 149.246 176.553 149.246H125.404C125.404 149.246 125.403 149.246 125.403 149.246C125.088 149.248 124.786 149.374 124.563 149.597C124.563 149.597 124.563 149.597 124.563 149.597M124.563 189.206L123.963 150.436C123.965 150.055 124.117 149.69 124.387 149.42L124.563 149.597M124.563 189.206C124.341 188.984 124.215 188.682 124.213 188.367V150.437M124.563 189.206L124.213 150.437M124.563 149.597C124.34 149.82 124.215 150.121 124.213 150.437M124.563 149.597L124.213 150.437M125.403 146.783H125.402C124.434 146.785 123.507 147.17 122.822 147.855C122.137 148.539 121.752 149.467 121.75 150.435V150.436L121.75 188.367L121.75 188.368C121.752 189.336 122.137 190.264 122.822 190.948C123.507 191.633 124.434 192.018 125.403 192.02H125.403H176.554H176.555C177.523 192.019 178.452 191.634 179.138 190.95L178.961 190.773L179.138 190.95C179.823 190.265 180.209 189.337 180.211 188.368V188.367V150.436V150.436C180.209 149.467 179.824 148.54 179.139 147.855C178.454 147.17 177.527 146.785 176.559 146.783H176.558H174.453V131.222C174.453 124.997 171.98 119.027 167.578 114.625C163.176 110.223 157.206 107.75 150.98 107.75C144.756 107.75 138.785 110.223 134.383 114.625C129.981 119.027 127.508 124.997 127.508 131.222V146.783H125.403ZM171.985 131.222V146.783H169.539V131.222C169.539 126.3 167.583 121.579 164.103 118.098C160.622 114.618 155.901 112.662 150.978 112.662C146.055 112.662 141.335 114.618 137.854 118.098C134.374 121.579 132.418 126.3 132.418 131.222V146.783H129.972V131.222C129.972 125.652 132.186 120.308 136.125 116.369L136.125 116.369C140.064 112.429 145.408 110.216 150.979 110.216C156.55 110.216 161.893 112.429 165.833 116.369L165.833 116.369C169.772 120.308 171.985 125.651 171.985 131.222ZM167.076 131.222V146.783H134.882V131.222C134.882 126.953 136.577 122.859 139.596 119.84L139.419 119.663L139.596 119.84C142.615 116.822 146.71 115.125 150.979 115.125C155.248 115.125 159.342 116.822 162.361 119.84C165.38 122.859 167.076 126.953 167.076 131.222Z" fill="#5D5D5D" stroke="#5D5D5D" stroke-width="0.5"/>
<path d="M148.084 172.029V172.318V175.789C148.084 176.823 148.636 177.779 149.531 178.296L149.531 178.296C150.427 178.813 151.53 178.813 152.426 178.296L152.426 178.296C153.321 177.779 153.873 176.823 153.873 175.789V172.318V172.029L154.123 171.885C155.741 170.954 156.863 169.356 157.189 167.519C157.515 165.682 157.011 163.795 155.812 162.365C154.614 160.935 152.844 160.109 150.978 160.109C149.113 160.109 147.343 160.935 146.144 162.365L148.084 172.029ZM148.084 172.029L147.833 171.885M148.084 172.029L147.833 171.885M147.833 171.885C146.216 170.954 145.093 169.356 144.767 167.519M147.833 171.885L144.767 167.519M144.767 167.519C144.441 165.682 144.945 163.795 146.144 162.365L144.767 167.519Z" fill="#353535" stroke="#5D5D5D"/>
</g>
<defs>
<filter id="filter0_d_4932_308" x="117.5" y="107.5" width="66.9608" height="92.7705" filterUnits="userSpaceOnUse" color-interpolation-filters="sRGB">
<feFlood flood-opacity="0" result="BackgroundImageFix"/>
<feColorMatrix in="SourceAlpha" type="matrix" values="0 0 0 0 0 0 0 0 0 0 0 0 0 0 0 0 0 0 127 0" result="hardAlpha"/>
<feOffset dy="4"/>
<feGaussianBlur stdDeviation="2"/>
<feComposite in2="hardAlpha" operator="out"/>
<feColorMatrix type="matrix" values="0 0 0 0 0 0 0 0 0 0 0 0 0 0 0 0 0 0 0.25 0"/>
<feBlend mode="normal" in2="BackgroundImageFix" result="effect1_dropShadow_4932_308"/>
<feBlend mode="normal" in="SourceGraphic" in2="effect1_dropShadow_4932_308" result="shape"/>
</filter>
<linearGradient id="paint0_linear_4932_308" x1="124.384" y1="169.178" x2="178.411" y2="169.972" gradientUnits="userSpaceOnUse">
<stop stop-color="#E4E4DE"/>
<stop offset="0.121194" stop-color="#DFDC8F"/>
<stop offset="0.838001" stop-color="#DBDE2D"/>
<stop offset="1" stop-color="#C1BD4D"/>
</linearGradient>
</defs>
</svg>
