<svg width="217" height="217" viewBox="0 0 217 217" fill="none" xmlns="http://www.w3.org/2000/svg">
<circle cx="108.584" cy="108.02" r="103.02" stroke="#D5D5D5" stroke-width="10"/>
<path d="M47.4145 54.3161C47.4145 56.3971 48.7645 58.1406 50.7894 58.6467L70.1184 63.4459V83.0561C70.1184 87.4806 74.5429 90.7804 83.2979 92.8615C89.8968 94.436 98.7459 95.299 108.195 95.299C117.119 95.299 146.272 94.4178 146.272 83.0569V63.4467L163.351 59.1913V66.8777C160.539 68.0025 158.552 70.7396 158.552 73.9453C158.552 75.2952 158.926 76.5324 159.545 77.6388C158.945 78.5762 158.571 79.7009 158.571 80.9007V92.468C158.571 94.0242 159.827 95.2801 161.383 95.2801H170.925C172.481 95.2801 173.737 94.0242 173.737 92.468V80.9007C173.737 79.7009 173.381 78.5762 172.763 77.6388C173.381 76.533 173.756 75.2953 173.756 73.9453C173.756 70.7394 171.769 68.0024 168.975 66.8777V54.317C168.956 52.236 167.606 50.5114 165.582 50.0047L110.445 36.2813C109.695 36.094 108.945 36 108.195 36C107.445 36 106.658 36.094 105.927 36.2813L50.7896 50.0047C48.7647 50.5106 47.4147 52.2359 47.4147 54.317L47.4145 54.3161ZM168.113 89.6556H164.195V81.2563C164.832 81.4248 165.47 81.5566 166.164 81.5566C166.857 81.5566 167.476 81.4254 168.113 81.2563V89.6556H168.113ZM166.163 71.9577C167.25 71.9577 168.132 72.839 168.132 73.9448C168.132 75.0507 167.251 75.932 166.163 75.932C165.075 75.932 164.176 75.0318 164.176 73.9448C164.176 72.8573 165.057 71.9577 166.163 71.9577ZM140.647 83.0563C140.647 85.3626 129.493 89.6741 108.195 89.6741C86.897 89.6741 75.7424 85.3618 75.7424 83.0563V64.8522L105.926 72.3513C106.657 72.5386 107.426 72.6326 108.195 72.6326C108.964 72.6326 109.713 72.5386 110.444 72.3513L140.647 64.8522L140.647 83.0563ZM107.276 41.7362C107.876 41.586 108.495 41.586 109.095 41.7362L159.658 54.3159L109.095 66.8957C108.495 67.0458 107.876 67.0458 107.276 66.8957L56.7134 54.3159L107.276 41.7362Z" fill="#3BB30B"/>
<path d="M50.4705 144.005C50.9953 144.849 51.9138 145.355 52.8889 145.355H53.2075C63.1624 144.156 73.1739 143.33 83.1852 142.787C83.3536 143.574 83.6539 144.361 84.1787 145.074C84.5162 145.543 84.9099 145.936 85.3413 146.255L77.4676 175.464C77.2241 176.401 77.4676 177.414 78.1425 178.126C78.8175 178.82 79.8111 179.139 80.7674 178.932L90.2536 176.926L97.1528 185.006C97.6966 185.644 98.4838 186 99.29 186C99.4963 186 99.7026 185.981 99.9088 185.925C100.921 185.7 101.728 184.931 102.009 183.919L108.196 160.953L114.383 183.919C114.645 184.931 115.452 185.7 116.464 185.925C116.67 185.981 116.876 186 117.083 186C117.908 186 118.695 185.644 119.239 185.006L126.119 176.926L135.605 178.932C136.562 179.139 137.555 178.82 138.23 178.126C138.905 177.414 139.149 176.401 138.905 175.464L131.05 146.255C131.462 145.936 131.856 145.543 132.193 145.074C132.718 144.362 133.018 143.574 133.206 142.787C143.199 143.331 153.191 144.156 163.127 145.355C164.177 145.468 165.227 144.999 165.808 144.118C173.232 132.869 173.232 121.489 165.808 110.259C165.227 109.359 164.177 108.89 163.127 109.003C153.097 110.203 143.03 111.046 132.943 111.59C132.756 111.103 132.531 110.634 132.193 110.184C130.693 108.122 128.219 107.578 126.213 107.147C125.219 106.922 124.113 106.678 123.663 106.341C123.213 106.022 122.65 105.047 122.145 104.185C121.113 102.422 119.82 100.191 117.364 99.4036C114.983 98.6163 112.677 99.6288 110.839 100.435C109.883 100.848 108.814 101.316 108.195 101.316C107.576 101.316 106.489 100.848 105.552 100.435C103.696 99.6288 101.389 98.6163 99.0087 99.4036C96.5529 100.191 95.2592 102.403 94.2277 104.185C93.7401 105.047 93.1591 106.022 92.7276 106.341C92.2589 106.678 91.1531 106.922 90.159 107.147C88.1719 107.578 85.6783 108.122 84.1783 110.184C83.8598 110.634 83.6157 111.103 83.4472 111.59C73.3422 111.047 63.2559 110.203 53.2071 109.003C52.1946 108.891 51.1821 109.322 50.5822 110.166C43.1772 120.571 43.1392 131.951 50.4699 144.024L50.4705 144.005ZM133.204 117.196C142.841 116.69 152.44 115.884 162.02 114.778C166.95 123.102 166.95 131.219 162.02 139.543C152.421 138.438 142.785 137.65 133.129 137.125C133.129 136.562 133.129 136.056 133.223 135.756C133.374 135.25 134.142 134.387 134.761 133.694C136.148 132.157 137.873 130.226 137.873 127.62C137.873 125.014 136.149 123.064 134.761 121.527C134.142 120.833 133.374 119.971 133.223 119.484C133.055 118.996 133.129 118.097 133.204 117.196L133.204 117.196ZM97.9586 177.283L93.459 171.996C92.9152 171.359 92.128 171.002 91.3217 171.002C91.1155 171.002 90.9281 171.021 90.7407 171.058L84.104 172.465L90.6286 148.205C91.472 148.411 92.3349 148.617 92.7285 148.899C93.1599 149.217 93.722 150.193 94.2285 151.055C95.2599 152.836 96.5531 155.048 99.0095 155.854C100.697 156.398 102.346 156.042 103.828 155.517L97.9598 177.283L97.9586 177.283ZM132.286 172.465L125.649 171.058C124.637 170.852 123.587 171.209 122.931 171.996L118.412 177.283L112.545 155.498C113.501 155.854 114.513 156.135 115.582 156.135C116.163 156.135 116.763 156.041 117.363 155.854C119.818 155.047 121.112 152.835 122.144 151.054C122.649 150.192 123.212 149.217 123.662 148.898C124.037 148.617 124.9 148.411 125.743 148.204L132.286 172.464L132.286 172.465ZM85.81 125.276C86.8225 124.133 87.9851 122.839 88.5099 121.227C89.0536 119.539 88.8846 117.777 88.7351 116.221C88.6411 115.378 88.4916 113.822 88.7161 113.484C88.9597 113.146 90.5348 112.79 91.3599 112.622C92.8972 112.284 94.6219 111.909 96.0279 110.878C97.434 109.866 98.3153 108.347 99.0837 106.997C99.5334 106.247 100.34 104.86 100.752 104.729C101.146 104.616 102.552 105.254 103.302 105.572C104.745 106.209 106.395 106.922 108.195 106.922C109.995 106.922 111.626 106.21 113.088 105.572C113.819 105.254 115.226 104.654 115.619 104.729C116.032 104.86 116.857 106.266 117.288 106.997C118.057 108.347 118.956 109.865 120.343 110.878C121.749 111.909 123.493 112.284 125.011 112.622C125.855 112.79 127.411 113.146 127.655 113.465C127.88 113.821 127.73 115.377 127.655 116.221C127.505 117.777 127.318 119.539 127.861 121.227C128.386 122.839 129.549 124.133 130.58 125.276C131.198 125.97 132.248 127.151 132.248 127.62C132.248 128.089 131.198 129.251 130.58 129.944C129.548 131.088 128.386 132.382 127.861 134.013C127.318 135.681 127.505 137.444 127.655 139.018C127.73 139.843 127.88 141.399 127.655 141.755C127.412 142.093 125.836 142.43 125.011 142.618C123.493 142.955 121.749 143.33 120.343 144.361C118.956 145.374 118.056 146.892 117.288 148.223C116.856 148.973 116.032 150.36 115.638 150.491C115.225 150.585 113.819 149.986 113.088 149.648C111.626 149.029 109.976 148.298 108.195 148.298C106.414 148.298 104.746 149.01 103.302 149.648C102.552 149.986 101.165 150.585 100.752 150.491C100.34 150.36 99.5335 148.973 99.0837 148.223C98.3147 146.892 97.434 145.374 96.0279 144.361C94.6219 143.33 92.8972 142.955 91.3599 142.618C90.5348 142.43 88.9603 142.093 88.7161 141.755C88.491 141.399 88.6411 139.843 88.7351 139.018C88.8852 137.444 89.0536 135.681 88.5099 134.013C87.985 132.381 86.8224 131.088 85.81 129.944C85.1729 129.251 84.1415 128.089 84.1415 127.62C84.1415 127.151 85.1729 125.97 85.81 125.276ZM54.2575 114.778C63.875 115.884 73.5115 116.671 83.1666 117.196C83.2606 118.078 83.3167 118.996 83.1666 119.484C82.9982 119.971 82.2292 120.834 81.6104 121.527C80.2232 123.064 78.5169 124.995 78.5169 127.62C78.5169 130.245 80.2232 132.157 81.6104 133.694C82.2292 134.388 82.9976 135.25 83.1666 135.756C83.2606 136.056 83.2606 136.562 83.2417 137.125C73.6053 137.631 63.9689 138.419 54.3888 139.543C49.4394 130.582 49.4016 122.445 54.2576 114.778L54.2575 114.778Z" fill="#535297"/>
<path d="M108.195 144.08C117.269 144.08 124.655 136.694 124.655 127.62C124.655 118.546 117.269 111.141 108.195 111.141C99.1211 111.141 91.7156 118.527 91.7156 127.62C91.7156 136.712 99.1024 144.08 108.195 144.08ZM108.195 116.765C114.157 116.765 119.031 121.639 119.031 127.62C119.031 133.601 114.157 138.456 108.195 138.456C102.233 138.456 97.3399 133.601 97.3399 127.62C97.3399 121.639 102.214 116.765 108.195 116.765Z" fill="#BEB819"/>
</svg>
