<svg width="217" height="217" viewBox="0 0 217 217" fill="none" xmlns="http://www.w3.org/2000/svg">
<circle cx="108.584" cy="108.02" r="103.02" stroke="#D5D5D5" stroke-width="10"/>
<path fill-rule="evenodd" clip-rule="evenodd" d="M55 62.6432C55 59.1988 56.4013 56.0656 58.6596 53.7998C60.918 51.537 64.0406 50.1279 67.4736 50.1279H86.0292L85.0149 53.5791C83.0432 54.1146 81.3617 55.3232 80.2375 57.5221C79.8074 58.3688 79.5203 59.2594 79.3736 60.153H67.4738C66.7965 60.153 66.1761 60.4342 65.7255 60.8895C65.2718 61.3416 64.9915 61.9641 64.9915 62.6436V165.485C64.9915 166.164 65.2718 166.787 65.7255 167.239C66.1761 167.691 66.7966 167.972 67.4738 167.972H150.53C151.207 167.972 151.827 167.691 152.278 167.239C152.729 166.787 153.009 166.164 153.009 165.485V62.6436C153.009 61.9641 152.729 61.3416 152.278 60.8895C151.827 60.4342 151.207 60.153 150.53 60.153H138.626C138.48 59.2594 138.196 58.3689 137.763 57.5221C136.638 55.3227 134.957 54.1146 132.985 53.5791L131.974 50.1279H150.53C153.963 50.1279 157.082 51.537 159.34 53.7998C161.599 56.0656 163 59.1987 163 62.6432V165.484C163 168.929 161.599 172.058 159.34 174.324C157.082 176.59 153.963 178 150.53 178H67.4736C64.0408 178 60.918 176.591 58.6597 174.324C56.4013 172.059 55.0001 168.929 55.0001 165.484L55 62.6432Z" fill="#666666"/>
<path d="M96.6519 45.2223L96.6512 45.2225C95.1228 45.4572 93.7794 45.9791 92.6844 46.9323C91.5896 47.8853 90.8222 49.2006 90.3259 50.8857L90.3257 50.8865L88.3574 57.5889C88.0833 57.5636 87.7498 57.5445 87.3927 57.5596C86.3468 57.6038 84.8879 57.962 84.0956 59.5134C83.4848 60.7093 83.4129 62.1128 83.8733 63.2601C84.35 64.448 85.4206 65.3765 86.961 65.3765H131.035C132.575 65.3765 133.647 64.4487 134.124 63.2611C134.586 62.1138 134.515 60.71 133.904 59.5135L133.904 59.5125C133.11 57.962 131.652 57.6035 130.605 57.5593C130.248 57.5441 129.913 57.5634 129.639 57.5887L127.671 50.8866C127.176 49.2009 126.408 47.8853 125.313 46.9322C124.218 45.979 122.874 45.4572 121.345 45.2225L121.345 45.2223L117.113 44.5755V42.8335C117.113 39.6273 114.504 37 111.299 37H106.701C103.497 37 100.884 39.6266 100.884 42.8335V44.5755L96.6519 45.2223ZM89.0141 57.6596C89.0143 57.6596 89.0117 57.6596 89.0059 57.6593C89.0111 57.6593 89.0139 57.6595 89.0141 57.6596Z" fill="#CBCBCB" stroke="#666666" stroke-width="2"/>
<rect x="79.75" y="84.75" width="13.5" height="13.5" rx="2.25" stroke="#8C8C8C" stroke-width="1.5"/>
<rect x="79.75" y="107.75" width="13.5" height="13.5" rx="2.25" stroke="#8C8C8C" stroke-width="1.5"/>
<rect x="79.75" y="130.75" width="13.5" height="13.5" rx="2.25" stroke="#8C8C8C" stroke-width="1.5"/>
<path d="M81.3479 88.2503L81.3478 88.2514L84.9557 90.754L90.9221 82.2121L90.9225 82.2115C91.4261 81.4926 92.4247 81.309 93.1475 81.8181C93.1477 81.8183 93.1479 81.8185 93.1482 81.8186L95.8288 83.6953L95.8301 83.6961C96.1843 83.9457 96.4118 84.3024 96.4852 84.7316C96.5614 85.1588 96.4719 85.5705 96.2223 85.9274L81.3479 88.2503ZM81.3479 88.2503L81.1184 88.0911C80.3926 87.588 79.3937 87.7745 78.8939 88.4994L78.8936 88.4998L77.0323 91.2044C77.0323 91.2045 77.0322 91.2045 77.0322 91.2046C76.5324 91.9305 76.7166 92.9302 77.4392 93.4318L77.4395 93.4321L83.9215 97.9241L83.9216 97.9242L85.2591 98.8515L85.2597 98.8519C85.9801 99.35 86.9739 99.17 87.4751 98.4526L87.4751 98.4526L88.4126 97.1105L88.4126 97.1104L96.222 85.9278L81.3479 88.2503Z" fill="#3BB30B" stroke="white"/>
<path d="M139.34 87.4189H104.501C103.723 87.4189 103.089 88.0552 103.089 88.8349V91.8309C103.089 92.6074 103.723 93.2436 104.501 93.2436H139.34C140.114 93.2436 140.748 92.6075 140.748 91.8309V88.8349C140.748 88.0551 140.114 87.4189 139.34 87.4189Z" fill="#8C8C8C"/>
<path d="M139.34 111.151H104.501C103.723 111.151 103.089 111.787 103.089 112.564V115.56C103.089 116.34 103.723 116.976 104.501 116.976H139.34C140.114 116.976 140.748 116.34 140.748 115.56V112.564C140.748 111.787 140.114 111.151 139.34 111.151Z" fill="#8C8C8C"/>
<path d="M139.34 134.88H104.501C103.723 134.88 103.089 135.516 103.089 136.296V139.292C103.089 140.072 103.723 140.708 104.501 140.708H139.34C140.114 140.708 140.748 140.072 140.748 139.292V136.296C140.748 135.516 140.114 134.88 139.34 134.88Z" fill="#8C8C8C"/>
</svg>
