<svg width="217" height="217" viewBox="0 0 217 217" fill="none" xmlns="http://www.w3.org/2000/svg">
<circle cx="108.245" cy="108.02" r="103.02" stroke="#D5D5D5" stroke-width="10"/>
<g filter="url(#filter0_d_4912_77)">
<path fill-rule="evenodd" clip-rule="evenodd" d="M130.636 96.9092L143.805 120.524C150.285 131.902 159.273 143.494 159.273 156.589C159.273 172.69 146.313 186 130.636 186C114.75 186 102 172.69 102 156.589C102 143.494 110.988 131.902 117.259 120.524L130.636 96.9092ZM145.059 160.454C145.477 158.951 146.94 158.092 148.403 158.521C149.867 158.951 150.703 160.454 150.494 161.956C148.403 169.899 141.715 176.125 133.772 177.413C132.309 177.628 130.845 176.554 130.636 175.052C130.427 173.549 131.472 172.046 132.936 171.831C138.788 170.973 143.596 166.464 145.059 160.454Z" fill="#3978C2"/>
<path fill-rule="evenodd" clip-rule="evenodd" d="M161.545 66L174.714 89.6145C181.194 100.992 190.182 112.585 190.182 125.68C190.182 141.781 177.222 155.091 161.545 155.091C145.66 155.091 132.909 141.781 132.909 125.68C132.909 112.585 141.897 100.992 148.168 89.6145L161.545 66ZM175.968 129.544C176.386 128.042 177.849 127.183 179.313 127.612C180.776 128.042 181.612 129.544 181.403 131.047C179.313 138.99 172.624 145.216 164.681 146.504C163.218 146.719 161.754 145.645 161.545 144.142C161.336 142.64 162.382 141.137 163.845 140.922C169.697 140.064 174.505 135.555 175.968 129.544Z" fill="#3978C2" fill-opacity="0.6"/>
</g>
<g filter="url(#filter1_d_4912_77)">
<path d="M72.1302 145.399C88.1256 148.537 101.972 136.225 101.972 120.532C101.972 112.324 97.9138 104.84 91.7066 100.253V44.968C91.7066 36.7597 85.2607 30 76.9049 30C68.7879 30 62.1032 36.7597 62.1032 44.968V100.253C54.7024 105.806 50.4051 115.221 52.5537 125.844C54.4636 135.5 62.342 143.467 72.1302 145.399ZM65.2068 104.84L67.3554 103.15V45.2094C67.3554 39.8982 71.6527 35.7941 76.6662 35.7941C81.9184 35.7941 86.2157 40.1396 86.2157 45.2094V103.15L88.3643 104.84C93.3778 108.461 96.2426 114.497 96.2426 120.774C96.2426 126.085 94.094 131.155 90.5129 134.776C86.6931 138.397 81.9184 140.57 76.6662 140.57C66.878 140.57 59.2384 133.569 57.5672 124.878C56.3735 116.911 59.2384 109.186 65.2068 104.84Z" fill="#676767"/>
<path d="M76.9047 134.777C80.7245 134.777 84.3055 133.329 86.9316 130.673C89.5577 128.018 90.9902 124.396 90.9902 120.534C90.9902 110.877 82.8731 107.738 80.7245 105.807V65.0071H72.8461V105.807C71.175 107.738 60.6706 111.601 63.0579 123.431C64.2516 129.708 69.7426 134.777 76.9047 134.777Z" fill="#C72F2F"/>
<path d="M111.522 46.4163H97.9138V51.9689H111.522C112.954 51.9689 114.148 50.7618 114.148 49.3133C114.387 47.6234 113.193 46.4163 111.522 46.4163Z" fill="#B5B5B5"/>
<path d="M108.896 63.7987C108.896 62.3502 107.702 61.1431 106.27 61.1431H98.1525V66.6957H106.27C107.702 66.4543 108.896 65.2472 108.896 63.7987Z" fill="#B5B5B5"/>
<path d="M114.387 78.285C114.387 76.8365 113.193 75.6294 111.76 75.6294H98.1525V81.182H111.76C113.193 81.182 114.387 79.7335 114.387 78.285Z" fill="#B5B5B5"/>
</g>
<defs>
<filter id="filter0_d_4912_77" x="98" y="66" width="96.1818" height="128" filterUnits="userSpaceOnUse" color-interpolation-filters="sRGB">
<feFlood flood-opacity="0" result="BackgroundImageFix"/>
<feColorMatrix in="SourceAlpha" type="matrix" values="0 0 0 0 0 0 0 0 0 0 0 0 0 0 0 0 0 0 127 0" result="hardAlpha"/>
<feOffset dy="4"/>
<feGaussianBlur stdDeviation="2"/>
<feComposite in2="hardAlpha" operator="out"/>
<feColorMatrix type="matrix" values="0 0 0 0 0 0 0 0 0 0 0 0 0 0 0 0 0 0 0.25 0"/>
<feBlend mode="normal" in2="BackgroundImageFix" result="effect1_dropShadow_4912_77"/>
<feBlend mode="normal" in="SourceGraphic" in2="effect1_dropShadow_4912_77" result="shape"/>
</filter>
<filter id="filter1_d_4912_77" x="48" y="30" width="70.3866" height="123.89" filterUnits="userSpaceOnUse" color-interpolation-filters="sRGB">
<feFlood flood-opacity="0" result="BackgroundImageFix"/>
<feColorMatrix in="SourceAlpha" type="matrix" values="0 0 0 0 0 0 0 0 0 0 0 0 0 0 0 0 0 0 127 0" result="hardAlpha"/>
<feOffset dy="4"/>
<feGaussianBlur stdDeviation="2"/>
<feComposite in2="hardAlpha" operator="out"/>
<feColorMatrix type="matrix" values="0 0 0 0 0 0 0 0 0 0 0 0 0 0 0 0 0 0 0.25 0"/>
<feBlend mode="normal" in2="BackgroundImageFix" result="effect1_dropShadow_4912_77"/>
<feBlend mode="normal" in="SourceGraphic" in2="effect1_dropShadow_4912_77" result="shape"/>
</filter>
</defs>
</svg>
