<svg width="217" height="217" viewBox="0 0 217 217" fill="none" xmlns="http://www.w3.org/2000/svg">
<circle cx="108.58" cy="108.02" r="103.02" stroke="#D5D5D5" stroke-width="10"/>
<path d="M44.7986 136.469C43.5012 136.469 42.445 137.525 42.445 138.823C42.445 140.12 43.5012 141.176 44.7986 141.176H75.5309C75.445 140.403 75.397 139.619 75.397 138.823C75.397 138.027 75.445 137.242 75.5309 136.469H44.7986Z" fill="#A2A2A2"/>
<path d="M171.891 103.518C173.189 103.518 174.245 102.461 174.245 101.164C174.245 99.8664 173.189 98.8102 171.891 98.8102H159.989C160.075 99.5835 160.123 100.368 160.123 101.164C160.123 101.955 160.075 102.74 159.988 103.518H171.891Z" fill="#A2A2A2"/>
<path d="M44.7986 98.8102C43.5012 98.8102 42.445 99.8664 42.445 101.164C42.445 102.461 43.5012 103.518 44.7986 103.518H117.897C117.811 102.744 117.763 101.96 117.763 101.164C117.763 100.368 117.811 99.5834 117.897 98.8102H44.7986Z" fill="#A2A2A2"/>
<g filter="url(#filter0_d_4912_73)">
<path d="M150.714 143.53C150.714 144.83 149.661 145.884 148.361 145.884C147.061 145.884 146.007 144.83 146.007 143.53V105.871C146.007 104.571 144.954 103.518 143.653 103.518C142.353 103.518 141.3 104.571 141.3 105.871V143.53C141.3 144.83 140.246 145.884 138.946 145.884H135.626C134.981 145.884 134.364 145.619 133.919 145.151L121.998 132.599C121.53 132.107 120.873 131.821 120.194 131.816H120.175C119.551 131.816 118.974 132.053 118.552 132.484C117.654 133.401 117.506 134.907 118.197 136.012C119.125 137.248 129.39 150.985 131.708 156.641C132.581 158.771 133.369 164.348 133.544 165.645C135.101 173.292 141.879 178.834 149.689 178.834H156.46C164.286 178.834 171.081 173.264 172.615 165.59L174.251 157.419V138.823C174.251 137.523 173.197 136.469 171.897 136.469C170.597 136.469 169.543 137.523 169.543 138.823V143.53C169.543 144.83 168.489 145.884 167.19 145.884C165.89 145.884 164.836 144.83 164.836 143.53V134.116C164.836 132.816 163.782 131.762 162.482 131.762C161.182 131.762 160.128 132.816 160.128 134.116V143.53C160.128 144.83 159.075 145.884 157.775 145.884C156.475 145.884 155.421 144.83 155.421 143.53V129.408C155.421 128.109 154.367 127.055 153.067 127.055C151.767 127.055 150.714 128.108 150.714 129.408L150.714 143.53Z" fill="#3BB30B"/>
</g>
<path d="M143.653 98.8103C144.366 98.8103 145.054 98.9172 145.703 99.1138C144.822 96.2173 142.126 94.1029 138.946 94.1029C135.053 94.1029 131.885 97.2705 131.885 101.164C131.885 104.232 133.853 106.849 136.592 107.82V105.871C136.592 101.973 139.755 98.8103 143.653 98.8103Z" fill="#51AC9C"/>
<path d="M103.641 138.823C103.641 142.723 100.479 145.884 96.5797 145.884C92.68 145.884 89.5186 142.723 89.5186 138.823C89.5186 134.923 92.68 131.762 96.5797 131.762C100.479 131.762 103.641 134.923 103.641 138.823Z" fill="#5351AC"/>
<g filter="url(#filter1_d_4912_73)">
<path d="M96.5797 122.347C87.495 122.347 80.1039 129.738 80.1039 138.823C80.1039 147.908 87.495 155.299 96.5797 155.299C105.664 155.299 113.055 147.908 113.055 138.823C113.055 129.738 105.664 122.347 96.5797 122.347ZM96.5797 150.591C90.0904 150.591 84.8113 145.312 84.8113 138.823C84.8113 132.334 90.0904 127.054 96.5797 127.054C103.069 127.054 108.348 132.334 108.348 138.823C108.348 145.312 103.069 150.591 96.5797 150.591Z" fill="#C87878"/>
</g>
<path d="M136.592 136.469H132.166L136.592 141.129V136.469Z" fill="black"/>
<path d="M171.891 61.1512H94.0854C94.1712 61.9245 94.2193 62.7091 94.2193 63.5049C94.2193 64.3008 94.1712 65.0853 94.0854 65.8586H171.891C173.189 65.8586 174.245 64.8024 174.245 63.5049C174.245 62.2075 173.189 61.1512 171.891 61.1512Z" fill="#A2A2A2"/>
<g filter="url(#filter2_d_4912_73)">
<path d="M73.0429 47.0292C63.9581 47.0292 56.5671 54.4202 56.5671 63.505C56.5671 72.5897 63.9581 79.9807 73.0429 79.9807C82.1276 79.9807 89.5186 72.5897 89.5186 63.505C89.5186 54.4202 82.1276 47.0292 73.0429 47.0292ZM73.0429 75.2734C66.5536 75.2734 61.2744 69.9942 61.2744 63.505C61.2744 57.0157 66.5536 51.7365 73.0429 51.7365C79.5321 51.7365 84.8113 57.0157 84.8113 63.505C84.8113 69.9942 79.5321 75.2734 73.0429 75.2734Z" fill="#C87878"/>
</g>
<path d="M80.1039 63.505C80.1039 67.4047 76.9426 70.5661 73.0429 70.5661C69.1432 70.5661 65.9818 67.4047 65.9818 63.505C65.9818 59.6053 69.1432 56.444 73.0429 56.444C76.9426 56.444 80.1039 59.6053 80.1039 63.505Z" fill="#AAAC51"/>
<path d="M44.7986 61.1512C43.5012 61.1512 42.445 62.2075 42.445 63.5049C42.445 64.8024 43.5012 65.8586 44.7986 65.8586H51.9935C51.9077 65.0853 51.8596 64.3008 51.8596 63.5049C51.8596 62.7091 51.9077 61.9245 51.9935 61.1512H44.7986Z" fill="#A2A2A2"/>
<g filter="url(#filter3_d_4912_73)">
<path d="M150.714 112.688C153.684 109.644 155.422 105.514 155.422 101.163C155.422 92.0786 148.031 84.6875 138.946 84.6875C129.861 84.6875 122.47 92.0786 122.47 101.163C122.47 109.449 128.619 116.322 136.592 117.468V112.695C131.227 111.602 127.178 106.847 127.178 101.164C127.178 94.6745 132.457 89.3954 138.946 89.3954C145.435 89.3954 150.714 94.6745 150.714 101.164C150.714 102.067 150.612 102.958 150.412 103.824C150.608 104.472 150.714 105.159 150.714 105.871V112.688Z" fill="#C87878"/>
</g>
<defs>
<filter id="filter0_d_4912_73" x="113.764" y="103.518" width="64.4868" height="83.3169" filterUnits="userSpaceOnUse" color-interpolation-filters="sRGB">
<feFlood flood-opacity="0" result="BackgroundImageFix"/>
<feColorMatrix in="SourceAlpha" type="matrix" values="0 0 0 0 0 0 0 0 0 0 0 0 0 0 0 0 0 0 127 0" result="hardAlpha"/>
<feOffset dy="4"/>
<feGaussianBlur stdDeviation="2"/>
<feComposite in2="hardAlpha" operator="out"/>
<feColorMatrix type="matrix" values="0 0 0 0 0 0 0 0 0 0 0 0 0 0 0 0 0 0 0.25 0"/>
<feBlend mode="normal" in2="BackgroundImageFix" result="effect1_dropShadow_4912_73"/>
<feBlend mode="normal" in="SourceGraphic" in2="effect1_dropShadow_4912_73" result="shape"/>
</filter>
<filter id="filter1_d_4912_73" x="76.1039" y="122.347" width="40.9516" height="40.9515" filterUnits="userSpaceOnUse" color-interpolation-filters="sRGB">
<feFlood flood-opacity="0" result="BackgroundImageFix"/>
<feColorMatrix in="SourceAlpha" type="matrix" values="0 0 0 0 0 0 0 0 0 0 0 0 0 0 0 0 0 0 127 0" result="hardAlpha"/>
<feOffset dy="4"/>
<feGaussianBlur stdDeviation="2"/>
<feComposite in2="hardAlpha" operator="out"/>
<feColorMatrix type="matrix" values="0 0 0 0 0 0 0 0 0 0 0 0 0 0 0 0 0 0 0.25 0"/>
<feBlend mode="normal" in2="BackgroundImageFix" result="effect1_dropShadow_4912_73"/>
<feBlend mode="normal" in="SourceGraphic" in2="effect1_dropShadow_4912_73" result="shape"/>
</filter>
<filter id="filter2_d_4912_73" x="52.5671" y="47.0292" width="40.9516" height="40.9515" filterUnits="userSpaceOnUse" color-interpolation-filters="sRGB">
<feFlood flood-opacity="0" result="BackgroundImageFix"/>
<feColorMatrix in="SourceAlpha" type="matrix" values="0 0 0 0 0 0 0 0 0 0 0 0 0 0 0 0 0 0 127 0" result="hardAlpha"/>
<feOffset dy="4"/>
<feGaussianBlur stdDeviation="2"/>
<feComposite in2="hardAlpha" operator="out"/>
<feColorMatrix type="matrix" values="0 0 0 0 0 0 0 0 0 0 0 0 0 0 0 0 0 0 0.25 0"/>
<feBlend mode="normal" in2="BackgroundImageFix" result="effect1_dropShadow_4912_73"/>
<feBlend mode="normal" in="SourceGraphic" in2="effect1_dropShadow_4912_73" result="shape"/>
</filter>
<filter id="filter3_d_4912_73" x="118.47" y="84.6875" width="40.9516" height="40.7809" filterUnits="userSpaceOnUse" color-interpolation-filters="sRGB">
<feFlood flood-opacity="0" result="BackgroundImageFix"/>
<feColorMatrix in="SourceAlpha" type="matrix" values="0 0 0 0 0 0 0 0 0 0 0 0 0 0 0 0 0 0 127 0" result="hardAlpha"/>
<feOffset dy="4"/>
<feGaussianBlur stdDeviation="2"/>
<feComposite in2="hardAlpha" operator="out"/>
<feColorMatrix type="matrix" values="0 0 0 0 0 0 0 0 0 0 0 0 0 0 0 0 0 0 0.25 0"/>
<feBlend mode="normal" in2="BackgroundImageFix" result="effect1_dropShadow_4912_73"/>
<feBlend mode="normal" in="SourceGraphic" in2="effect1_dropShadow_4912_73" result="shape"/>
</filter>
</defs>
</svg>
