<?xml version="1.0" encoding="UTF-8"?>
<svg width="1200pt" height="1200pt" version="1.1" viewBox="0 0 1200 1200" xmlns="http://www.w3.org/2000/svg">
 <path d="m1116 996h-48v-732c0-10.801-7.1992-20.398-18-22.801-10.801-2.3984-21.602 1.1992-26.398 10.801l-213.6 343.2-198 132-202.8-135.6c-7.1992-4.8008-16.801-4.8008-25.199-1.1992-8.3984 3.6016-13.199 12-13.199 21.602v384l-166.8-0.003906v-912c0-13.199-10.801-24-24-24s-24 10.801-24 24v48h-72c-13.199 0-24 10.801-24 24s10.801 24 24 24h72v216h-72c-13.199 0-24 10.801-24 24s10.801 24 24 24h72v216h-72c-13.199 0-24 10.801-24 24s10.801 24 24 24h72v216h-72c-13.199 0-24 10.801-24 24s10.801 24 24 24h72v48c0 13.199 10.801 24 24 24h192v72c0 13.199 10.801 24 24 24s24-10.801 24-24v-72h168v72c0 13.199 10.801 24 24 24s24-10.801 24-24v-72h168v72c0 13.199 10.801 24 24 24s24-10.801 24-24v-72h168v72c0 13.199 10.801 24 24 24s24-10.801 24-24v-72h48c13.199 0 24-10.801 24-24s-10.801-24-24-24zm-696-339.6 168 111.6v228h-168zm216 112.8 168-111.6v338.4h-168zm216-150 168-271.2v648h-168z"/>
</svg>
