<svg width="40" height="35" viewBox="0 0 40 35" fill="none" xmlns="http://www.w3.org/2000/svg">
<path d="M1.3125 6.15119e-07C0.587607 6.15119e-07 0 0.587629 0 1.3125C0 2.03737 0.587607 2.625 1.3125 2.625H5.4961L10.0078 23.9121C10.1863 24.7135 10.7115 25.3804 11.375 25.3751H33.25C33.9434 25.3847 34.5812 24.756 34.5812 24.0625C34.5812 23.3691 33.9434 22.7402 33.25 22.75H12.4414L11.8808 20.125H35C35.5877 20.1206 36.1429 19.6731 36.2715 19.0996L39.334 5.97462C39.5047 5.2129 38.8431 4.3806 38.0625 4.375H8.5586L7.84766 1.03906C7.72346 0.45627 7.15838 -0.000611885 6.56251 6.15119e-07H1.3125ZM9.10548 7.00001H36.4083L33.961 17.5H11.334L9.10548 7.00001ZM15.75 26.2501C13.3493 26.2501 11.375 28.2243 11.375 30.6251C11.375 33.0258 13.3493 35.0001 15.75 35.0001C18.1507 35.0001 20.125 33.0258 20.125 30.6251C20.125 28.2244 18.1507 26.2501 15.75 26.2501ZM28.875 26.2501C26.4743 26.2501 24.5 28.2243 24.5 30.6251C24.5 33.0258 26.4743 35.0001 28.875 35.0001C31.2757 35.0001 33.25 33.0258 33.25 30.6251C33.25 28.2244 31.2757 26.2501 28.875 26.2501ZM15.75 28.8751C16.7321 28.8751 17.5 29.643 17.5 30.6251C17.5 31.6071 16.7321 32.3751 15.75 32.3751C14.768 32.3751 14 31.6071 14 30.6251C14 29.643 14.768 28.8751 15.75 28.8751ZM28.875 28.8751C29.8571 28.8751 30.625 29.643 30.625 30.6251C30.625 31.6071 29.8571 32.3751 28.875 32.3751C27.8931 32.3751 27.125 31.6071 27.125 30.6251C27.125 29.643 27.8931 28.8751 28.875 28.8751Z" fill="#3BB30B"/>
</svg>
